<?xml version="1.0" encoding="utf-8" standalone="no"?>
<!DOCTYPE svg PUBLIC "-//W3C//DTD SVG 1.1//EN"
  "http://www.w3.org/Graphics/SVG/1.1/DTD/svg11.dtd">
<svg xmlns:xlink="http://www.w3.org/1999/xlink" width="360pt" height="216pt" viewBox="0 0 360 216" xmlns="http://www.w3.org/2000/svg" version="1.1">
 <metadata>
  <rdf:RDF xmlns:dc="http://purl.org/dc/elements/1.1/" xmlns:cc="http://creativecommons.org/ns#" xmlns:rdf="http://www.w3.org/1999/02/22-rdf-syntax-ns#">
   <cc:Work>
    <dc:type rdf:resource="http://purl.org/dc/dcmitype/StillImage"/>
    <dc:date>2024-11-12T12:36:46.701018</dc:date>
    <dc:format>image/svg+xml</dc:format>
    <dc:creator>
     <cc:Agent>
      <dc:title>Matplotlib v3.9.2, https://matplotlib.org/</dc:title>
     </cc:Agent>
    </dc:creator>
   </cc:Work>
  </rdf:RDF>
 </metadata>
 <defs>
  <style type="text/css">*{stroke-linejoin: round; stroke-linecap: butt}</style>
 </defs>
 <g id="figure_1">
  <g id="patch_1">
   <path d="M 0 216 
L 360 216 
L 360 0 
L 0 0 
z
" style="fill: #ffffff"/>
  </g>
  <g id="axes_1">
   <g id="patch_2">
    <path d="M 53.56755 88.542 
L 345.924 88.542 
L 345.924 10.296 
L 53.56755 10.296 
z
" style="fill: #ffffff"/>
   </g>
   <g id="matplotlib.axis_1">
    <g id="xtick_1"/>
    <g id="xtick_2"/>
    <g id="xtick_3"/>
    <g id="xtick_4"/>
    <g id="xtick_5"/>
    <g id="xtick_6"/>
   </g>
   <g id="matplotlib.axis_2">
    <g id="ytick_1">
     <g id="text_1">
      <!-- 1.60 -->
      <g style="fill: #262626" transform="translate(29.372238 91.049484) scale(0.066 -0.066)">
       <defs>
        <path id="DejaVuSans-31" d="M 794 531 
L 1825 531 
L 1825 4091 
L 703 3866 
L 703 4441 
L 1819 4666 
L 2450 4666 
L 2450 531 
L 3481 531 
L 3481 0 
L 794 0 
L 794 531 
z
" transform="scale(0.015625)"/>
        <path id="DejaVuSans-2e" d="M 684 794 
L 1344 794 
L 1344 0 
L 684 0 
L 684 794 
z
" transform="scale(0.015625)"/>
        <path id="DejaVuSans-36" d="M 2113 2584 
Q 1688 2584 1439 2293 
Q 1191 2003 1191 1497 
Q 1191 994 1439 701 
Q 1688 409 2113 409 
Q 2538 409 2786 701 
Q 3034 994 3034 1497 
Q 3034 2003 2786 2293 
Q 2538 2584 2113 2584 
z
M 3366 4563 
L 3366 3988 
Q 3128 4100 2886 4159 
Q 2644 4219 2406 4219 
Q 1781 4219 1451 3797 
Q 1122 3375 1075 2522 
Q 1259 2794 1537 2939 
Q 1816 3084 2150 3084 
Q 2853 3084 3261 2657 
Q 3669 2231 3669 1497 
Q 3669 778 3244 343 
Q 2819 -91 2113 -91 
Q 1303 -91 875 529 
Q 447 1150 447 2328 
Q 447 3434 972 4092 
Q 1497 4750 2381 4750 
Q 2619 4750 2861 4703 
Q 3103 4656 3366 4563 
z
" transform="scale(0.015625)"/>
        <path id="DejaVuSans-30" d="M 2034 4250 
Q 1547 4250 1301 3770 
Q 1056 3291 1056 2328 
Q 1056 1369 1301 889 
Q 1547 409 2034 409 
Q 2525 409 2770 889 
Q 3016 1369 3016 2328 
Q 3016 3291 2770 3770 
Q 2525 4250 2034 4250 
z
M 2034 4750 
Q 2819 4750 3233 4129 
Q 3647 3509 3647 2328 
Q 3647 1150 3233 529 
Q 2819 -91 2034 -91 
Q 1250 -91 836 529 
Q 422 1150 422 2328 
Q 422 3509 836 4129 
Q 1250 4750 2034 4750 
z
" transform="scale(0.015625)"/>
       </defs>
       <use xlink:href="#DejaVuSans-31"/>
       <use xlink:href="#DejaVuSans-2e" x="63.623047"/>
       <use xlink:href="#DejaVuSans-36" x="95.410156"/>
       <use xlink:href="#DejaVuSans-30" x="159.033203"/>
      </g>
     </g>
    </g>
    <g id="ytick_2">
     <g id="text_2">
      <!-- 1.65 -->
      <g style="fill: #262626" transform="translate(29.372238 71.487984) scale(0.066 -0.066)">
       <defs>
        <path id="DejaVuSans-35" d="M 691 4666 
L 3169 4666 
L 3169 4134 
L 1269 4134 
L 1269 2991 
Q 1406 3038 1543 3061 
Q 1681 3084 1819 3084 
Q 2600 3084 3056 2656 
Q 3513 2228 3513 1497 
Q 3513 744 3044 326 
Q 2575 -91 1722 -91 
Q 1428 -91 1123 -41 
Q 819 9 494 109 
L 494 744 
Q 775 591 1075 516 
Q 1375 441 1709 441 
Q 2250 441 2565 725 
Q 2881 1009 2881 1497 
Q 2881 1984 2565 2268 
Q 2250 2553 1709 2553 
Q 1456 2553 1204 2497 
Q 953 2441 691 2322 
L 691 4666 
z
" transform="scale(0.015625)"/>
       </defs>
       <use xlink:href="#DejaVuSans-31"/>
       <use xlink:href="#DejaVuSans-2e" x="63.623047"/>
       <use xlink:href="#DejaVuSans-36" x="95.410156"/>
       <use xlink:href="#DejaVuSans-35" x="159.033203"/>
      </g>
     </g>
    </g>
    <g id="ytick_3">
     <g id="text_3">
      <!-- 1.70 -->
      <g style="fill: #262626" transform="translate(29.372238 51.926484) scale(0.066 -0.066)">
       <defs>
        <path id="DejaVuSans-37" d="M 525 4666 
L 3525 4666 
L 3525 4397 
L 1831 0 
L 1172 0 
L 2766 4134 
L 525 4134 
L 525 4666 
z
" transform="scale(0.015625)"/>
       </defs>
       <use xlink:href="#DejaVuSans-31"/>
       <use xlink:href="#DejaVuSans-2e" x="63.623047"/>
       <use xlink:href="#DejaVuSans-37" x="95.410156"/>
       <use xlink:href="#DejaVuSans-30" x="159.033203"/>
      </g>
     </g>
    </g>
    <g id="ytick_4">
     <g id="text_4">
      <!-- 1.75 -->
      <g style="fill: #262626" transform="translate(29.372238 32.364984) scale(0.066 -0.066)">
       <use xlink:href="#DejaVuSans-31"/>
       <use xlink:href="#DejaVuSans-2e" x="63.623047"/>
       <use xlink:href="#DejaVuSans-37" x="95.410156"/>
       <use xlink:href="#DejaVuSans-35" x="159.033203"/>
      </g>
     </g>
    </g>
    <g id="ytick_5">
     <g id="text_5">
      <!-- 1.80 -->
      <g style="fill: #262626" transform="translate(29.372238 12.803484) scale(0.066 -0.066)">
       <defs>
        <path id="DejaVuSans-38" d="M 2034 2216 
Q 1584 2216 1326 1975 
Q 1069 1734 1069 1313 
Q 1069 891 1326 650 
Q 1584 409 2034 409 
Q 2484 409 2743 651 
Q 3003 894 3003 1313 
Q 3003 1734 2745 1975 
Q 2488 2216 2034 2216 
z
M 1403 2484 
Q 997 2584 770 2862 
Q 544 3141 544 3541 
Q 544 4100 942 4425 
Q 1341 4750 2034 4750 
Q 2731 4750 3128 4425 
Q 3525 4100 3525 3541 
Q 3525 3141 3298 2862 
Q 3072 2584 2669 2484 
Q 3125 2378 3379 2068 
Q 3634 1759 3634 1313 
Q 3634 634 3220 271 
Q 2806 -91 2034 -91 
Q 1263 -91 848 271 
Q 434 634 434 1313 
Q 434 1759 690 2068 
Q 947 2378 1403 2484 
z
M 1172 3481 
Q 1172 3119 1398 2916 
Q 1625 2713 2034 2713 
Q 2441 2713 2670 2916 
Q 2900 3119 2900 3481 
Q 2900 3844 2670 4047 
Q 2441 4250 2034 4250 
Q 1625 4250 1398 4047 
Q 1172 3844 1172 3481 
z
" transform="scale(0.015625)"/>
       </defs>
       <use xlink:href="#DejaVuSans-31"/>
       <use xlink:href="#DejaVuSans-2e" x="63.623047"/>
       <use xlink:href="#DejaVuSans-38" x="95.410156"/>
       <use xlink:href="#DejaVuSans-30" x="159.033203"/>
      </g>
     </g>
    </g>
    <g id="text_6">
     <!-- Excited  -->
     <g style="fill: #262626" transform="translate(14.772105 63.797062) rotate(-90) scale(0.072 -0.072)">
      <defs>
       <path id="DejaVuSans-45" d="M 628 4666 
L 3578 4666 
L 3578 4134 
L 1259 4134 
L 1259 2753 
L 3481 2753 
L 3481 2222 
L 1259 2222 
L 1259 531 
L 3634 531 
L 3634 0 
L 628 0 
L 628 4666 
z
" transform="scale(0.015625)"/>
       <path id="DejaVuSans-78" d="M 3513 3500 
L 2247 1797 
L 3578 0 
L 2900 0 
L 1881 1375 
L 863 0 
L 184 0 
L 1544 1831 
L 300 3500 
L 978 3500 
L 1906 2253 
L 2834 3500 
L 3513 3500 
z
" transform="scale(0.015625)"/>
       <path id="DejaVuSans-63" d="M 3122 3366 
L 3122 2828 
Q 2878 2963 2633 3030 
Q 2388 3097 2138 3097 
Q 1578 3097 1268 2742 
Q 959 2388 959 1747 
Q 959 1106 1268 751 
Q 1578 397 2138 397 
Q 2388 397 2633 464 
Q 2878 531 3122 666 
L 3122 134 
Q 2881 22 2623 -34 
Q 2366 -91 2075 -91 
Q 1284 -91 818 406 
Q 353 903 353 1747 
Q 353 2603 823 3093 
Q 1294 3584 2113 3584 
Q 2378 3584 2631 3529 
Q 2884 3475 3122 3366 
z
" transform="scale(0.015625)"/>
       <path id="DejaVuSans-69" d="M 603 3500 
L 1178 3500 
L 1178 0 
L 603 0 
L 603 3500 
z
M 603 4863 
L 1178 4863 
L 1178 4134 
L 603 4134 
L 603 4863 
z
" transform="scale(0.015625)"/>
       <path id="DejaVuSans-74" d="M 1172 4494 
L 1172 3500 
L 2356 3500 
L 2356 3053 
L 1172 3053 
L 1172 1153 
Q 1172 725 1289 603 
Q 1406 481 1766 481 
L 2356 481 
L 2356 0 
L 1766 0 
Q 1100 0 847 248 
Q 594 497 594 1153 
L 594 3053 
L 172 3053 
L 172 3500 
L 594 3500 
L 594 4494 
L 1172 4494 
z
" transform="scale(0.015625)"/>
       <path id="DejaVuSans-65" d="M 3597 1894 
L 3597 1613 
L 953 1613 
Q 991 1019 1311 708 
Q 1631 397 2203 397 
Q 2534 397 2845 478 
Q 3156 559 3463 722 
L 3463 178 
Q 3153 47 2828 -22 
Q 2503 -91 2169 -91 
Q 1331 -91 842 396 
Q 353 884 353 1716 
Q 353 2575 817 3079 
Q 1281 3584 2069 3584 
Q 2775 3584 3186 3129 
Q 3597 2675 3597 1894 
z
M 3022 2063 
Q 3016 2534 2758 2815 
Q 2500 3097 2075 3097 
Q 1594 3097 1305 2825 
Q 1016 2553 972 2059 
L 3022 2063 
z
" transform="scale(0.015625)"/>
       <path id="DejaVuSans-64" d="M 2906 2969 
L 2906 4863 
L 3481 4863 
L 3481 0 
L 2906 0 
L 2906 525 
Q 2725 213 2448 61 
Q 2172 -91 1784 -91 
Q 1150 -91 751 415 
Q 353 922 353 1747 
Q 353 2572 751 3078 
Q 1150 3584 1784 3584 
Q 2172 3584 2448 3432 
Q 2725 3281 2906 2969 
z
M 947 1747 
Q 947 1113 1208 752 
Q 1469 391 1925 391 
Q 2381 391 2643 752 
Q 2906 1113 2906 1747 
Q 2906 2381 2643 2742 
Q 2381 3103 1925 3103 
Q 1469 3103 1208 2742 
Q 947 2381 947 1747 
z
" transform="scale(0.015625)"/>
       <path id="DejaVuSans-20" transform="scale(0.015625)"/>
      </defs>
      <use xlink:href="#DejaVuSans-45"/>
      <use xlink:href="#DejaVuSans-78" x="63.183594"/>
      <use xlink:href="#DejaVuSans-63" x="120.613281"/>
      <use xlink:href="#DejaVuSans-69" x="175.59375"/>
      <use xlink:href="#DejaVuSans-74" x="203.376953"/>
      <use xlink:href="#DejaVuSans-65" x="242.585938"/>
      <use xlink:href="#DejaVuSans-64" x="304.109375"/>
      <use xlink:href="#DejaVuSans-20" x="367.585938"/>
     </g>
     <!--  state energy (eV) -->
     <g style="fill: #262626" transform="translate(22.83453 82.002375) rotate(-90) scale(0.072 -0.072)">
      <defs>
       <path id="DejaVuSans-73" d="M 2834 3397 
L 2834 2853 
Q 2591 2978 2328 3040 
Q 2066 3103 1784 3103 
Q 1356 3103 1142 2972 
Q 928 2841 928 2578 
Q 928 2378 1081 2264 
Q 1234 2150 1697 2047 
L 1894 2003 
Q 2506 1872 2764 1633 
Q 3022 1394 3022 966 
Q 3022 478 2636 193 
Q 2250 -91 1575 -91 
Q 1294 -91 989 -36 
Q 684 19 347 128 
L 347 722 
Q 666 556 975 473 
Q 1284 391 1588 391 
Q 1994 391 2212 530 
Q 2431 669 2431 922 
Q 2431 1156 2273 1281 
Q 2116 1406 1581 1522 
L 1381 1569 
Q 847 1681 609 1914 
Q 372 2147 372 2553 
Q 372 3047 722 3315 
Q 1072 3584 1716 3584 
Q 2034 3584 2315 3537 
Q 2597 3491 2834 3397 
z
" transform="scale(0.015625)"/>
       <path id="DejaVuSans-61" d="M 2194 1759 
Q 1497 1759 1228 1600 
Q 959 1441 959 1056 
Q 959 750 1161 570 
Q 1363 391 1709 391 
Q 2188 391 2477 730 
Q 2766 1069 2766 1631 
L 2766 1759 
L 2194 1759 
z
M 3341 1997 
L 3341 0 
L 2766 0 
L 2766 531 
Q 2569 213 2275 61 
Q 1981 -91 1556 -91 
Q 1019 -91 701 211 
Q 384 513 384 1019 
Q 384 1609 779 1909 
Q 1175 2209 1959 2209 
L 2766 2209 
L 2766 2266 
Q 2766 2663 2505 2880 
Q 2244 3097 1772 3097 
Q 1472 3097 1187 3025 
Q 903 2953 641 2809 
L 641 3341 
Q 956 3463 1253 3523 
Q 1550 3584 1831 3584 
Q 2591 3584 2966 3190 
Q 3341 2797 3341 1997 
z
" transform="scale(0.015625)"/>
       <path id="DejaVuSans-6e" d="M 3513 2113 
L 3513 0 
L 2938 0 
L 2938 2094 
Q 2938 2591 2744 2837 
Q 2550 3084 2163 3084 
Q 1697 3084 1428 2787 
Q 1159 2491 1159 1978 
L 1159 0 
L 581 0 
L 581 3500 
L 1159 3500 
L 1159 2956 
Q 1366 3272 1645 3428 
Q 1925 3584 2291 3584 
Q 2894 3584 3203 3211 
Q 3513 2838 3513 2113 
z
" transform="scale(0.015625)"/>
       <path id="DejaVuSans-72" d="M 2631 2963 
Q 2534 3019 2420 3045 
Q 2306 3072 2169 3072 
Q 1681 3072 1420 2755 
Q 1159 2438 1159 1844 
L 1159 0 
L 581 0 
L 581 3500 
L 1159 3500 
L 1159 2956 
Q 1341 3275 1631 3429 
Q 1922 3584 2338 3584 
Q 2397 3584 2469 3576 
Q 2541 3569 2628 3553 
L 2631 2963 
z
" transform="scale(0.015625)"/>
       <path id="DejaVuSans-67" d="M 2906 1791 
Q 2906 2416 2648 2759 
Q 2391 3103 1925 3103 
Q 1463 3103 1205 2759 
Q 947 2416 947 1791 
Q 947 1169 1205 825 
Q 1463 481 1925 481 
Q 2391 481 2648 825 
Q 2906 1169 2906 1791 
z
M 3481 434 
Q 3481 -459 3084 -895 
Q 2688 -1331 1869 -1331 
Q 1566 -1331 1297 -1286 
Q 1028 -1241 775 -1147 
L 775 -588 
Q 1028 -725 1275 -790 
Q 1522 -856 1778 -856 
Q 2344 -856 2625 -561 
Q 2906 -266 2906 331 
L 2906 616 
Q 2728 306 2450 153 
Q 2172 0 1784 0 
Q 1141 0 747 490 
Q 353 981 353 1791 
Q 353 2603 747 3093 
Q 1141 3584 1784 3584 
Q 2172 3584 2450 3431 
Q 2728 3278 2906 2969 
L 2906 3500 
L 3481 3500 
L 3481 434 
z
" transform="scale(0.015625)"/>
       <path id="DejaVuSans-79" d="M 2059 -325 
Q 1816 -950 1584 -1140 
Q 1353 -1331 966 -1331 
L 506 -1331 
L 506 -850 
L 844 -850 
Q 1081 -850 1212 -737 
Q 1344 -625 1503 -206 
L 1606 56 
L 191 3500 
L 800 3500 
L 1894 763 
L 2988 3500 
L 3597 3500 
L 2059 -325 
z
" transform="scale(0.015625)"/>
       <path id="DejaVuSans-28" d="M 1984 4856 
Q 1566 4138 1362 3434 
Q 1159 2731 1159 2009 
Q 1159 1288 1364 580 
Q 1569 -128 1984 -844 
L 1484 -844 
Q 1016 -109 783 600 
Q 550 1309 550 2009 
Q 550 2706 781 3412 
Q 1013 4119 1484 4856 
L 1984 4856 
z
" transform="scale(0.015625)"/>
       <path id="DejaVuSans-56" d="M 1831 0 
L 50 4666 
L 709 4666 
L 2188 738 
L 3669 4666 
L 4325 4666 
L 2547 0 
L 1831 0 
z
" transform="scale(0.015625)"/>
       <path id="DejaVuSans-29" d="M 513 4856 
L 1013 4856 
Q 1481 4119 1714 3412 
Q 1947 2706 1947 2009 
Q 1947 1309 1714 600 
Q 1481 -109 1013 -844 
L 513 -844 
Q 928 -128 1133 580 
Q 1338 1288 1338 2009 
Q 1338 2731 1133 3434 
Q 928 4138 513 4856 
z
" transform="scale(0.015625)"/>
      </defs>
      <use xlink:href="#DejaVuSans-20"/>
      <use xlink:href="#DejaVuSans-73" x="31.787109"/>
      <use xlink:href="#DejaVuSans-74" x="83.886719"/>
      <use xlink:href="#DejaVuSans-61" x="123.095703"/>
      <use xlink:href="#DejaVuSans-74" x="184.375"/>
      <use xlink:href="#DejaVuSans-65" x="223.583984"/>
      <use xlink:href="#DejaVuSans-20" x="285.107422"/>
      <use xlink:href="#DejaVuSans-65" x="316.894531"/>
      <use xlink:href="#DejaVuSans-6e" x="378.417969"/>
      <use xlink:href="#DejaVuSans-65" x="441.796875"/>
      <use xlink:href="#DejaVuSans-72" x="503.320312"/>
      <use xlink:href="#DejaVuSans-67" x="542.683594"/>
      <use xlink:href="#DejaVuSans-79" x="606.160156"/>
      <use xlink:href="#DejaVuSans-20" x="665.339844"/>
      <use xlink:href="#DejaVuSans-28" x="697.126953"/>
      <use xlink:href="#DejaVuSans-65" x="736.140625"/>
      <use xlink:href="#DejaVuSans-56" x="797.664062"/>
      <use xlink:href="#DejaVuSans-29" x="866.072266"/>
     </g>
    </g>
   </g>
   <g id="line2d_1">
    <path d="M 53.56755 58.255789 
L 54.152263 71.483153 
L 54.736976 75.154073 
L 57.66054 75.154073 
L 58.245253 81.248987 
L 58.829966 81.248987 
L 59.414679 88.07917 
L 60.584105 88.178931 
L 62.338244 88.178931 
L 62.922956 71.550329 
L 63.507669 71.550329 
L 64.092382 55.700023 
L 64.677095 55.700023 
L 65.261808 53.430813 
L 71.108937 53.430813 
L 71.69365 64.311203 
L 75.201927 64.311203 
L 75.78664 65.515426 
L 90.404463 65.515426 
L 90.989176 60.72548 
L 98.590443 60.72548 
L 99.175156 60.903123 
L 181.619675 61.011646 
L 182.204388 62.691667 
L 218.456588 62.691667 
L 219.041301 62.895796 
L 345.339287 62.895796 
L 345.339287 62.895796 
" clip-path="url(#p4fd0ddfd60)" style="fill: none; stroke: #4c72b0; stroke-opacity: 0.3; stroke-width: 1.5; stroke-linecap: round"/>
   </g>
   <g id="line2d_2">
    <path d="M 53.56755 50.719694 
L 54.152263 53.734314 
L 54.736976 55.067561 
L 55.906402 55.067561 
L 56.491115 55.234326 
L 60.584105 55.234326 
L 61.168818 48.686939 
L 72.863076 48.686939 
L 73.447789 48.33549 
L 93.91274 48.407847 
L 94.497453 49.424784 
L 100.929295 49.424784 
L 101.514008 51.831124 
L 105.022285 51.831124 
L 105.606998 55.045587 
L 120.809534 55.045587 
L 121.394246 51.814666 
L 123.148385 51.814666 
L 123.733098 52.918218 
L 132.503792 52.918218 
L 133.088504 52.743822 
L 133.673217 52.743822 
L 134.25793 58.51002 
L 145.952188 58.51002 
L 146.536901 56.848821 
L 157.061733 56.848821 
L 157.646446 58.139476 
L 162.324149 58.139476 
L 162.908862 55.768053 
L 345.339287 55.768053 
L 345.339287 55.768053 
" clip-path="url(#p4fd0ddfd60)" style="fill: none; stroke: #4c72b0; stroke-opacity: 0.3; stroke-width: 1.5; stroke-linecap: round"/>
   </g>
   <g id="line2d_3">
    <path d="M 53.56755 49.882354 
L 55.321689 49.882354 
L 56.491115 75.118464 
L 57.075827 75.118464 
L 57.66054 65.870784 
L 58.829966 65.870784 
L 59.414679 66.224055 
L 62.338244 66.224055 
L 62.922956 55.493854 
L 63.507669 55.493854 
L 64.092382 51.552064 
L 68.770085 51.552064 
L 69.354798 51.898342 
L 69.939511 51.898342 
L 70.524224 49.987417 
L 82.218482 50.081963 
L 82.803195 54.904656 
L 83.972621 54.904656 
L 84.557334 50.870858 
L 105.022285 50.870858 
L 105.606998 55.084143 
L 109.115276 55.084143 
L 109.699988 56.81529 
L 120.224821 56.81529 
L 120.809534 58.286298 
L 138.350921 58.286298 
L 138.935633 61.086977 
L 345.339287 61.086977 
L 345.339287 61.086977 
" clip-path="url(#p4fd0ddfd60)" style="fill: none; stroke: #4c72b0; stroke-opacity: 0.3; stroke-width: 1.5; stroke-linecap: round"/>
   </g>
   <g id="line2d_4">
    <path d="M 53.56755 48.091444 
L 54.152263 50.380806 
L 54.736976 47.529422 
L 55.906402 47.529422 
L 56.491115 48.581725 
L 57.075827 48.581725 
L 57.66054 94.81211 
L 58.829966 94.81211 
L 59.414679 93.346522 
L 59.999392 83.217702 
L 65.846521 83.217702 
L 66.431234 81.076109 
L 67.015947 81.076109 
L 67.60066 81.924495 
L 68.770085 81.924495 
L 69.354798 69.91144 
L 69.939511 69.91144 
L 70.524224 71.835448 
L 76.956066 71.835448 
L 77.540779 78.216813 
L 83.387908 78.216813 
L 83.972621 81.252826 
L 87.480898 81.252826 
L 88.065611 72.253188 
L 89.235037 72.253188 
L 89.81975 72.46074 
L 95.666879 72.409301 
L 96.251592 71.304888 
L 125.487237 71.304888 
L 126.07195 62.485532 
L 148.29104 62.485532 
L 148.875753 62.66248 
L 165.247714 62.66248 
L 165.832427 61.761374 
L 181.034962 61.761374 
L 181.619675 60.457245 
L 186.297378 60.457245 
L 186.882091 60.822569 
L 205.008191 60.822569 
L 205.592904 58.287859 
L 226.642568 58.287859 
L 227.227281 62.357616 
L 233.07441 62.357616 
L 233.659123 57.678909 
L 253.539362 57.678909 
L 254.124075 56.395774 
L 276.343165 56.395774 
L 276.927878 59.786233 
L 296.223404 59.786233 
L 296.808116 59.58467 
L 345.339287 59.58467 
L 345.339287 59.58467 
" clip-path="url(#p4fd0ddfd60)" style="fill: none; stroke: #4c72b0; stroke-opacity: 0.3; stroke-width: 1.5; stroke-linecap: round"/>
   </g>
   <g id="line2d_5">
    <path d="M 53.56755 50.691523 
L 54.152263 50.691523 
L 54.736976 48.315847 
L 55.321689 37.919838 
L 56.491115 37.919838 
L 57.075827 22.955314 
L 62.338244 22.955314 
L 62.922956 20.244704 
L 74.617214 20.244704 
L 75.201927 22.038878 
L 79.879631 22.038878 
L 80.464343 23.113086 
L 82.218482 23.113086 
L 82.803195 17.250476 
L 84.557334 17.250476 
L 85.142047 13.671182 
L 87.480898 13.671182 
L 88.065611 4.643678 
L 103.268147 4.643678 
L 103.852859 2.219122 
L 104.235765 -1 
L 104.235765 -1 
" clip-path="url(#p4fd0ddfd60)" style="fill: none; stroke: #4c72b0; stroke-opacity: 0.3; stroke-width: 1.5; stroke-linecap: round"/>
   </g>
   <g id="line2d_6">
    <path d="M 53.56755 41.722723 
L 54.152263 34.963818 
L 54.736976 39.517708 
L 55.321689 51.653972 
L 55.906402 51.653972 
L 56.491115 52.905683 
L 57.075827 51.877169 
L 58.245253 51.877169 
L 58.829966 73.312915 
L 59.999392 73.312915 
L 60.584105 69.748666 
L 61.753531 69.748666 
L 62.338244 80.706532 
L 64.092382 80.706532 
L 64.677095 88.393662 
L 65.261808 88.393662 
L 65.846521 89.134951 
L 67.015947 89.134951 
L 67.60066 86.423134 
L 69.939511 86.423134 
L 70.524224 86.792263 
L 74.617214 86.792263 
L 75.201927 78.327741 
L 79.879631 78.327741 
L 80.464343 82.251057 
L 81.049056 82.251057 
L 81.633769 78.009987 
L 82.218482 78.009987 
L 82.803195 74.355546 
L 95.666879 74.355546 
L 96.251592 61.802614 
L 97.421018 61.802614 
L 98.00573 60.797745 
L 104.437572 60.797745 
L 105.022285 53.014862 
L 105.606998 53.54157 
L 110.284701 53.54157 
L 110.869414 46.056214 
L 113.208266 46.056214 
L 113.792979 39.740326 
L 118.470682 39.740326 
L 119.055395 40.744249 
L 119.640108 40.744249 
L 120.224821 37.791592 
L 121.394246 37.791592 
L 121.978959 45.028763 
L 126.07195 45.028763 
L 126.656663 48.627697 
L 138.935633 48.627697 
L 139.520346 48.310882 
L 159.400585 48.310882 
L 159.985298 52.147516 
L 227.811994 52.147516 
L 228.396707 53.549188 
L 241.845104 53.549188 
L 242.429817 54.461511 
L 245.938094 54.468675 
L 246.522807 54.257956 
L 345.339287 54.257956 
L 345.339287 54.257956 
" clip-path="url(#p4fd0ddfd60)" style="fill: none; stroke: #4c72b0; stroke-opacity: 0.3; stroke-width: 1.5; stroke-linecap: round"/>
   </g>
   <g id="line2d_7">
    <path d="M 53.56755 33.873577 
L 54.152263 33.873577 
L 54.736976 47.864422 
L 55.321689 50.69705 
L 56.491115 50.69705 
L 57.075827 53.422545 
L 61.168818 53.526013 
L 61.753531 53.09665 
L 62.338244 53.09665 
L 62.922956 53.399033 
L 64.677095 53.399033 
L 65.261808 59.146402 
L 103.268147 59.146402 
L 103.852859 60.138126 
L 115.547117 60.138126 
L 116.13183 59.249363 
L 132.503792 59.306996 
L 133.088504 60.084384 
L 145.367475 60.129097 
L 145.952188 58.989227 
L 149.460466 58.989227 
L 150.045179 60.040812 
L 152.38403 60.010594 
L 235.997975 60.010594 
L 236.582688 59.700269 
L 250.615797 59.700269 
L 251.20051 59.475441 
L 262.894768 59.475441 
L 263.479481 59.867625 
L 345.339287 59.867625 
L 345.339287 59.867625 
" clip-path="url(#p4fd0ddfd60)" style="fill: none; stroke: #4c72b0; stroke-opacity: 0.3; stroke-width: 1.5; stroke-linecap: round"/>
   </g>
   <g id="line2d_8">
    <path d="M 53.56755 64.46388 
L 54.152263 73.281825 
L 56.491115 73.281825 
L 57.075827 66.042494 
L 64.092382 66.042494 
L 64.677095 67.83514 
L 65.261808 67.83514 
L 65.846521 67.678114 
L 73.447789 67.608032 
L 74.032502 68.062233 
L 86.311472 68.062233 
L 86.896185 69.689613 
L 93.91274 69.623747 
L 94.497453 69.497967 
L 122.563672 69.497967 
L 123.148385 69.955312 
L 136.012069 69.955312 
L 136.596782 63.009228 
L 137.181495 63.009228 
L 137.766208 57.235779 
L 153.553456 57.235779 
L 154.138169 52.488805 
L 216.702449 52.488805 
L 217.287162 50.067832 
L 345.339287 50.067832 
L 345.339287 50.067832 
" clip-path="url(#p4fd0ddfd60)" style="fill: none; stroke: #4c72b0; stroke-opacity: 0.3; stroke-width: 1.5; stroke-linecap: round"/>
   </g>
   <g id="line2d_9">
    <path d="M 53.56755 47.402307 
L 54.152263 47.402307 
L 54.736976 45.47116 
L 55.321689 44.744242 
L 55.906402 42.054909 
L 59.414679 42.054909 
L 59.999392 38.155827 
L 64.092382 38.155827 
L 64.677095 28.431328 
L 67.60066 28.431328 
L 68.185373 24.806108 
L 69.939511 24.806108 
L 70.524224 26.766958 
L 76.371353 26.766958 
L 76.956066 16.600172 
L 78.710205 16.600172 
L 79.294918 2.136477 
L 82.218482 2.136477 
L 82.803195 2.973858 
L 84.557334 2.973858 
L 84.805738 -1 
L 84.805738 -1 
" clip-path="url(#p4fd0ddfd60)" style="fill: none; stroke: #4c72b0; stroke-opacity: 0.3; stroke-width: 1.5; stroke-linecap: round"/>
   </g>
   <g id="line2d_10">
    <path d="M 53.56755 49.041486 
L 54.736976 49.041486 
L 55.321689 47.110046 
L 55.906402 46.718125 
L 56.491115 46.718125 
L 57.075827 46.978001 
L 62.338244 46.978001 
L 62.922956 85.371453 
L 69.354798 85.350732 
L 69.939511 67.911985 
L 72.863076 67.911985 
L 73.447789 58.629224 
L 74.617214 58.629224 
L 75.201927 16.702447 
L 75.78664 10.811911 
L 80.464343 10.811911 
L 80.994484 -1 
L 80.994484 -1 
" clip-path="url(#p4fd0ddfd60)" style="fill: none; stroke: #4c72b0; stroke-opacity: 0.3; stroke-width: 1.5; stroke-linecap: round"/>
   </g>
   <g id="line2d_11">
    <path d="M 53.56755 73.572988 
L 60.584105 73.572988 
L 61.168818 71.961081 
L 62.922956 71.961081 
L 63.507669 72.307445 
L 69.354798 72.307445 
L 69.939511 72.79672 
L 81.049056 72.79672 
L 81.633769 74.326352 
L 113.208266 74.326352 
L 113.792979 67.127061 
L 116.13183 67.127061 
L 116.716543 65.65297 
L 119.055395 65.65297 
L 119.640108 64.425646 
L 126.07195 64.425646 
L 126.656663 65.986218 
L 130.16494 65.986218 
L 130.749653 65.171334 
L 131.334366 62.435568 
L 134.25793 62.435568 
L 134.842643 62.691525 
L 140.105059 62.706493 
L 140.689772 59.462949 
L 157.646446 59.478967 
L 158.231159 59.264033 
L 185.127953 59.264033 
L 185.712665 59.528066 
L 192.72922 59.528066 
L 193.313933 60.147423 
L 219.041301 60.147423 
L 219.626014 60.669507 
L 220.210726 60.669507 
L 220.795439 59.917523 
L 235.997975 59.917523 
L 236.582688 60.14502 
L 312.595365 60.14502 
L 313.180078 57.534959 
L 316.103642 57.534959 
L 316.688355 58.181622 
L 317.273068 57.629558 
L 327.7979 57.629558 
L 328.382613 60.399322 
L 345.339287 60.399322 
L 345.339287 60.399322 
" clip-path="url(#p4fd0ddfd60)" style="fill: none; stroke: #4c72b0; stroke-opacity: 0.3; stroke-width: 1.5; stroke-linecap: round"/>
   </g>
   <g id="line2d_12">
    <path d="M 53.56755 38.647342 
L 54.736976 38.647342 
L 55.321689 38.817278 
L 57.075827 38.871543 
L 58.245253 61.614555 
L 58.829966 75.088777 
L 59.414679 74.885262 
L 59.999392 74.885262 
L 60.584105 74.51025 
L 61.753531 74.51025 
L 62.338244 72.119597 
L 62.922956 72.119597 
L 63.507669 71.85639 
L 64.092382 71.85639 
L 64.677095 67.786413 
L 66.431234 67.786413 
L 67.015947 54.190835 
L 67.60066 52.805546 
L 71.108937 52.805546 
L 71.69365 53.119419 
L 75.78664 53.119419 
L 76.371353 56.135601 
L 86.311472 56.135601 
L 86.896185 55.876751 
L 161.739437 55.876751 
L 162.324149 60.4983 
L 174.60312 60.4983 
L 175.187833 58.989388 
L 177.526685 58.989388 
L 178.111398 58.395892 
L 283.944433 58.395892 
L 284.529146 60.029082 
L 345.339287 59.985247 
L 345.339287 59.985247 
" clip-path="url(#p4fd0ddfd60)" style="fill: none; stroke: #4c72b0; stroke-opacity: 0.3; stroke-width: 1.5; stroke-linecap: round"/>
   </g>
   <g id="line2d_13">
    <path d="M 53.56755 49.613183 
L 54.736976 71.250669 
L 55.321689 69.653956 
L 55.906402 68.589379 
L 56.491115 68.589379 
L 57.075827 74.682445 
L 57.66054 74.682445 
L 58.245253 94.775349 
L 58.829966 95.856775 
L 59.414679 95.856775 
L 59.999392 84.86726 
L 65.846521 84.86726 
L 66.431234 81.80608 
L 67.60066 81.80608 
L 68.185373 81.057188 
L 68.770085 73.43147 
L 69.354798 73.43147 
L 69.939511 74.355367 
L 70.524224 83.347708 
L 71.108937 87.565687 
L 76.371353 87.64033 
L 76.956066 92.734147 
L 77.540779 92.734147 
L 78.125492 90.857642 
L 85.142047 90.857642 
L 85.72676 91.174766 
L 140.689772 91.174766 
L 141.274485 92.495608 
L 319.027207 92.428361 
L 319.611919 90.717886 
L 331.89089 90.717886 
L 332.475603 91.578034 
L 345.339287 91.578034 
L 345.339287 91.578034 
" clip-path="url(#p4fd0ddfd60)" style="fill: none; stroke: #4c72b0; stroke-opacity: 0.3; stroke-width: 1.5; stroke-linecap: round"/>
   </g>
   <g id="line2d_14">
    <path d="M 53.56755 44.455461 
L 54.152263 45.056361 
L 55.321689 45.056361 
L 55.906402 44.783214 
L 58.245253 44.783214 
L 58.829966 39.332571 
L 61.168818 39.332571 
L 61.753531 37.77517 
L 62.922956 37.77517 
L 63.507669 36.817273 
L 64.092382 65.709939 
L 68.185373 65.709939 
L 68.770085 66.835311 
L 69.354798 63.815582 
L 69.939511 56.59253 
L 70.524224 56.59253 
L 71.108937 56.109235 
L 72.863076 56.109235 
L 73.447789 55.447486 
L 74.617214 55.447486 
L 75.201927 57.991461 
L 75.78664 58.185711 
L 93.328027 58.185711 
L 93.91274 59.991071 
L 96.836305 59.991071 
L 97.421018 67.077488 
L 99.175156 67.077488 
L 99.759869 66.298257 
L 125.487237 66.298257 
L 126.07195 64.439904 
L 137.181495 64.439904 
L 137.766208 63.430145 
L 217.287162 63.430145 
L 217.871875 63.296022 
L 345.339287 63.296022 
L 345.339287 63.296022 
" clip-path="url(#p4fd0ddfd60)" style="fill: none; stroke: #4c72b0; stroke-opacity: 0.3; stroke-width: 1.5; stroke-linecap: round"/>
   </g>
   <g id="line2d_15">
    <path d="M 53.56755 44.230688 
L 54.152263 48.176047 
L 54.736976 48.176047 
L 55.321689 43.018161 
L 55.906402 59.409541 
L 56.491115 53.859224 
L 57.075827 54.00687 
L 57.66054 54.00687 
L 58.245253 52.659113 
L 58.829966 52.659113 
L 59.414679 31.731247 
L 61.168818 31.731247 
L 61.753531 36.376303 
L 64.092382 36.376303 
L 64.677095 47.328556 
L 65.846521 47.328556 
L 66.431234 46.820669 
L 76.956066 46.820669 
L 77.540779 47.256359 
L 81.049056 47.256359 
L 81.633769 45.606401 
L 86.311472 45.606401 
L 86.896185 48.536502 
L 100.929295 48.513743 
L 101.514008 56.579847 
L 120.809534 56.579847 
L 121.394246 54.706651 
L 345.339287 54.706651 
L 345.339287 54.706651 
" clip-path="url(#p4fd0ddfd60)" style="fill: none; stroke: #4c72b0; stroke-opacity: 0.3; stroke-width: 1.5; stroke-linecap: round"/>
   </g>
   <g id="line2d_16">
    <path d="M 53.56755 24.351286 
L 54.736976 24.351286 
L 55.321689 4.530034 
L 55.906402 4.530034 
L 56.077097 -1 
L 56.077097 -1 
" clip-path="url(#p4fd0ddfd60)" style="fill: none; stroke: #4c72b0; stroke-opacity: 0.3; stroke-width: 1.5; stroke-linecap: round"/>
   </g>
   <g id="line2d_17">
    <path d="M 53.56755 52.709295 
L 54.152263 52.709295 
L 54.736976 50.782592 
L 55.906402 50.782592 
L 56.491115 35.757159 
L 57.075827 41.934003 
L 57.66054 3.623406 
L 72.278363 3.623406 
L 72.863076 3.395834 
L 81.049056 3.395834 
L 81.547599 -1 
L 81.547599 -1 
" clip-path="url(#p4fd0ddfd60)" style="fill: none; stroke: #4c72b0; stroke-opacity: 0.3; stroke-width: 1.5; stroke-linecap: round"/>
   </g>
   <g id="line2d_18">
    <path d="M 53.56755 42.526926 
L 54.152263 47.981931 
L 54.736976 49.82082 
L 55.321689 49.82082 
L 55.906402 47.327137 
L 59.999392 47.327137 
L 60.584105 42.785188 
L 64.677095 42.785188 
L 65.261808 45.798681 
L 91.573889 45.739367 
L 92.158601 48.717111 
L 92.743314 48.69309 
L 93.328027 57.372087 
L 134.842643 57.372087 
L 135.427356 57.648983 
L 188.63623 57.648983 
L 189.220943 62.684121 
L 226.057856 62.684121 
L 226.642568 65.385632 
L 283.944433 65.411951 
L 284.529146 67.455122 
L 300.316394 67.455122 
L 300.901107 67.060747 
L 345.339287 67.060747 
L 345.339287 67.060747 
" clip-path="url(#p4fd0ddfd60)" style="fill: none; stroke: #4c72b0; stroke-opacity: 0.3; stroke-width: 1.5; stroke-linecap: round"/>
   </g>
   <g id="line2d_19">
    <path d="M 53.56755 55.276319 
L 54.152263 55.276319 
L 55.321689 76.076959 
L 57.075827 76.076959 
L 57.66054 77.033012 
L 69.939511 77.033012 
L 70.524224 70.582251 
L 157.061733 70.567289 
L 157.646446 68.034106 
L 175.772546 68.034106 
L 176.357259 66.683646 
L 180.450249 66.683646 
L 181.034962 67.335405 
L 243.599243 67.335405 
L 244.183955 65.685354 
L 290.376275 65.685354 
L 290.960987 66.09902 
L 345.339287 66.09902 
L 345.339287 66.09902 
" clip-path="url(#p4fd0ddfd60)" style="fill: none; stroke: #4c72b0; stroke-opacity: 0.3; stroke-width: 1.5; stroke-linecap: round"/>
   </g>
   <g id="line2d_20">
    <path d="M 53.56755 26.091609 
L 54.152263 14.587008 
L 55.906402 14.587008 
L 56.491115 19.112062 
L 57.66054 19.112062 
L 58.245253 6.862677 
L 72.278363 6.862677 
L 72.863076 10.792479 
L 74.617214 10.792479 
L 74.987508 -1 
L 74.987508 -1 
" clip-path="url(#p4fd0ddfd60)" style="fill: none; stroke: #4c72b0; stroke-opacity: 0.3; stroke-width: 1.5; stroke-linecap: round"/>
   </g>
   <g id="line2d_21">
    <path d="M 53.56755 41.620268 
L 56.491115 41.620268 
L 57.075827 49.994717 
L 57.66054 36.134904 
L 58.245253 43.629074 
L 58.829966 54.39612 
L 59.414679 59.931887 
L 59.999392 59.658742 
L 60.584105 59.658742 
L 61.168818 55.845214 
L 63.507669 55.845214 
L 64.092382 59.322907 
L 64.677095 59.322907 
L 65.261808 54.907805 
L 65.846521 54.907805 
L 66.431234 54.162321 
L 67.60066 54.162321 
L 68.185373 46.496181 
L 103.852859 46.496181 
L 104.437572 58.697162 
L 126.07195 58.703357 
L 126.656663 55.398423 
L 169.925417 55.398423 
L 170.51013 54.477383 
L 345.339287 54.477383 
L 345.339287 54.477383 
" clip-path="url(#p4fd0ddfd60)" style="fill: none; stroke: #4c72b0; stroke-opacity: 0.3; stroke-width: 1.5; stroke-linecap: round"/>
   </g>
   <g id="line2d_22">
    <path d="M 53.56755 50.539581 
L 54.152263 54.037736 
L 54.736976 65.240365 
L 55.321689 65.240365 
L 55.906402 75.558391 
L 56.491115 75.558391 
L 57.075827 96.969045 
L 57.66054 96.969045 
L 58.245253 126.46387 
L 67.60066 126.46387 
L 68.185373 90.303073 
L 68.770085 90.303073 
L 69.354798 88.482692 
L 79.879631 88.482692 
L 80.464343 85.889836 
L 89.81975 85.889836 
L 90.404463 82.474397 
L 90.989176 82.287628 
L 102.098721 82.287628 
L 102.683434 74.455867 
L 124.317811 74.455867 
L 124.902524 74.907304 
L 131.919079 74.907304 
L 132.503792 70.499393 
L 137.181495 70.499393 
L 137.766208 68.461163 
L 141.859198 68.461163 
L 142.443911 67.113259 
L 153.553456 67.113259 
L 154.138169 65.773009 
L 154.722882 65.773009 
L 155.307595 60.621022 
L 157.061733 60.621022 
L 157.646446 60.182015 
L 166.41714 60.182015 
L 167.001853 59.626429 
L 174.60312 59.688257 
L 175.187833 60.552103 
L 179.280823 60.552103 
L 179.865536 56.694067 
L 180.450249 55.507664 
L 226.642568 55.507664 
L 227.227281 53.88599 
L 245.353381 53.88599 
L 245.938094 52.601547 
L 345.339287 52.601547 
L 345.339287 52.601547 
" clip-path="url(#p4fd0ddfd60)" style="fill: none; stroke: #4c72b0; stroke-opacity: 0.3; stroke-width: 1.5; stroke-linecap: round"/>
   </g>
   <g id="line2d_23">
    <path d="M 53.56755 49.306398 
L 54.736976 49.306398 
L 55.321689 48.555158 
L 55.906402 59.2324 
L 58.245253 59.2324 
L 58.829966 57.982409 
L 59.414679 55.257025 
L 59.999392 58.771124 
L 60.584105 65.046268 
L 62.922956 65.046268 
L 63.507669 61.98167 
L 64.092382 74.914332 
L 71.69365 74.914332 
L 72.278363 71.806974 
L 80.464343 71.806974 
L 81.049056 70.893861 
L 82.803195 70.893861 
L 83.387908 71.352958 
L 83.972621 71.352958 
L 84.557334 80.979738 
L 93.91274 80.906304 
L 94.497453 70.594466 
L 103.268147 70.591292 
L 103.852859 81.121757 
L 105.022285 81.121757 
L 105.606998 72.70353 
L 163.493575 72.70353 
L 164.078288 73.566074 
L 231.904985 73.566074 
L 232.489697 70.756657 
L 345.339287 70.756657 
L 345.339287 70.756657 
" clip-path="url(#p4fd0ddfd60)" style="fill: none; stroke: #4c72b0; stroke-opacity: 0.3; stroke-width: 1.5; stroke-linecap: round"/>
   </g>
   <g id="line2d_24">
    <path d="M 53.56755 50.34267 
L 54.736976 50.34267 
L 55.321689 50.745836 
L 55.906402 41.826882 
L 56.491115 41.020445 
L 57.66054 41.020445 
L 58.245253 84.185897 
L 58.829966 78.446638 
L 59.414679 78.446638 
L 59.999392 71.116833 
L 60.584105 71.116833 
L 61.168818 69.322941 
L 62.338244 69.322941 
L 62.922956 65.729637 
L 66.431234 65.729637 
L 67.015947 66.990938 
L 69.939511 66.990938 
L 70.524224 58.343521 
L 72.863076 58.343521 
L 73.447789 59.877257 
L 76.956066 59.877257 
L 77.540779 58.039714 
L 78.125492 57.488703 
L 124.317811 57.488703 
L 124.902524 59.61949 
L 144.782762 59.714501 
L 145.367475 61.212772 
L 174.60312 61.20675 
L 175.187833 60.572704 
L 255.2935 60.572704 
L 255.878213 60.76363 
L 261.725342 60.76363 
L 262.310055 60.267219 
L 345.339287 60.267219 
L 345.339287 60.267219 
" clip-path="url(#p4fd0ddfd60)" style="fill: none; stroke: #4c72b0; stroke-opacity: 0.3; stroke-width: 1.5; stroke-linecap: round"/>
   </g>
   <g id="line2d_25">
    <path d="M 53.56755 40.022204 
L 54.152263 39.57835 
L 54.736976 40.716127 
L 55.321689 41.118434 
L 55.906402 41.118434 
L 56.491115 47.066009 
L 57.075827 54.445436 
L 57.66054 51.260545 
L 58.245253 57.299024 
L 59.999392 57.299024 
L 60.584105 60.269194 
L 61.753531 60.269194 
L 62.338244 57.854191 
L 62.922956 57.854191 
L 63.507669 61.688627 
L 64.092382 61.688627 
L 64.677095 60.087631 
L 65.261808 60.630177 
L 65.846521 48.837379 
L 67.60066 48.929701 
L 68.185373 49.961777 
L 70.524224 49.961777 
L 71.108937 49.561089 
L 85.142047 49.561089 
L 85.72676 53.337207 
L 92.743314 53.337207 
L 93.328027 55.250456 
L 96.251592 55.250456 
L 96.836305 55.618915 
L 99.175156 55.618915 
L 99.759869 56.681813 
L 112.03884 56.681813 
L 112.623553 58.307945 
L 136.012069 58.307945 
L 136.596782 57.791085 
L 141.859198 57.791085 
L 142.443911 57.591044 
L 146.536901 57.591044 
L 147.121614 58.434238 
L 177.526685 58.378436 
L 178.111398 58.79039 
L 345.339287 58.79039 
L 345.339287 58.79039 
" clip-path="url(#p4fd0ddfd60)" style="fill: none; stroke: #4c72b0; stroke-opacity: 0.3; stroke-width: 1.5; stroke-linecap: round"/>
   </g>
   <g id="line2d_26">
    <path d="M 53.56755 59.285143 
L 54.152263 59.285143 
L 54.736976 59.774486 
L 55.321689 59.774486 
L 55.906402 62.337739 
L 58.245253 62.337739 
L 58.829966 62.161267 
L 59.999392 62.161267 
L 60.584105 67.752724 
L 61.753531 67.752724 
L 62.338244 57.808581 
L 75.201927 57.808581 
L 75.78664 53.882066 
L 86.311472 53.882066 
L 86.896185 54.707426 
L 88.065611 54.707426 
L 88.650324 54.283712 
L 89.235037 55.197734 
L 89.81975 55.332194 
L 98.00573 55.332194 
L 98.590443 52.577093 
L 111.454127 52.577093 
L 112.03884 55.956676 
L 112.623553 55.427729 
L 115.547117 55.427729 
L 116.13183 56.781629 
L 151.799317 56.781629 
L 152.38403 58.09977 
L 171.094843 58.018254 
L 172.264269 57.932338 
L 236.582688 57.932338 
L 237.167401 60.251824 
L 241.845104 60.251824 
L 242.429817 61.537256 
L 258.217065 61.533123 
L 258.801778 61.68947 
L 345.339287 61.68947 
L 345.339287 61.68947 
" clip-path="url(#p4fd0ddfd60)" style="fill: none; stroke: #4c72b0; stroke-opacity: 0.3; stroke-width: 1.5; stroke-linecap: round"/>
   </g>
   <g id="line2d_27">
    <path d="M 53.56755 42.648558 
L 54.152263 44.969131 
L 55.906402 44.969131 
L 56.491115 45.31724 
L 57.075827 45.31724 
L 57.66054 51.623266 
L 58.245253 52.329177 
L 58.829966 56.216193 
L 59.414679 64.864909 
L 59.999392 62.487988 
L 60.584105 66.223328 
L 61.168818 66.223328 
L 61.753531 64.998557 
L 62.338244 64.998557 
L 62.922956 70.661907 
L 63.507669 70.661907 
L 64.092382 77.266463 
L 64.677095 76.840393 
L 72.278363 76.840393 
L 72.863076 70.793482 
L 74.617214 70.793482 
L 75.201927 69.96306 
L 103.268147 69.96306 
L 103.852859 70.485709 
L 133.673217 70.450849 
L 134.842643 70.353493 
L 180.450249 70.353493 
L 181.034962 79.142014 
L 189.805656 79.142014 
L 190.390369 78.75436 
L 201.499914 78.75436 
L 202.084627 76.540752 
L 208.516469 76.540752 
L 209.101181 71.377248 
L 210.85532 71.377248 
L 211.440033 69.553517 
L 258.801778 69.553517 
L 259.386491 71.008534 
L 261.725342 71.008534 
L 262.310055 67.44565 
L 335.983881 67.44565 
L 336.568594 66.850662 
L 345.339287 66.850662 
L 345.339287 66.850662 
" clip-path="url(#p4fd0ddfd60)" style="fill: none; stroke: #4c72b0; stroke-opacity: 0.3; stroke-width: 1.5; stroke-linecap: round"/>
   </g>
   <g id="line2d_28">
    <path d="M 53.56755 54.04002 
L 54.152263 54.497413 
L 54.736976 54.497413 
L 55.321689 54.307726 
L 56.491115 54.307726 
L 57.075827 53.809923 
L 57.66054 53.809923 
L 58.245253 62.561375 
L 59.999392 62.561375 
L 60.584105 62.266099 
L 66.431234 62.266099 
L 67.015947 32.623772 
L 67.60066 17.717249 
L 71.108937 17.717249 
L 71.595601 -1 
L 71.595601 -1 
" clip-path="url(#p4fd0ddfd60)" style="fill: none; stroke: #4c72b0; stroke-opacity: 0.3; stroke-width: 1.5; stroke-linecap: round"/>
   </g>
   <g id="line2d_29">
    <path d="M 53.56755 41.972289 
L 54.152263 37.206316 
L 54.736976 36.095236 
L 55.321689 36.095236 
L 55.906402 35.181605 
L 57.66054 35.181605 
L 58.245253 41.116318 
L 59.414679 41.116318 
L 59.999392 40.240243 
L 60.584105 30.201948 
L 65.846521 30.201948 
L 67.015947 42.128731 
L 68.770085 42.128731 
L 69.354798 48.393726 
L 72.278363 48.393726 
L 72.863076 53.328258 
L 96.836305 53.302113 
L 97.421018 54.054282 
L 100.929295 54.054282 
L 101.514008 56.357299 
L 127.826088 56.357299 
L 128.410801 59.668365 
L 130.16494 59.668365 
L 130.749653 60.987274 
L 134.25793 60.987274 
L 134.842643 62.288742 
L 136.596782 62.288742 
L 137.181495 63.609819 
L 345.339287 63.609819 
L 345.339287 63.609819 
" clip-path="url(#p4fd0ddfd60)" style="fill: none; stroke: #4c72b0; stroke-opacity: 0.3; stroke-width: 1.5; stroke-linecap: round"/>
   </g>
   <g id="line2d_30">
    <path d="M 53.56755 48.35427 
L 54.152263 49.095776 
L 54.736976 49.095776 
L 55.321689 50.013361 
L 55.906402 50.013361 
L 56.491115 47.260252 
L 57.075827 64.299525 
L 57.66054 64.299525 
L 58.245253 69.730082 
L 58.829966 69.730082 
L 59.414679 63.215991 
L 60.584105 63.319332 
L 61.168818 63.319332 
L 61.753531 63.715124 
L 62.338244 68.915236 
L 62.922956 68.915236 
L 63.507669 67.718459 
L 65.261808 67.718459 
L 65.846521 59.949027 
L 66.431234 59.949027 
L 67.015947 57.619977 
L 67.60066 57.619977 
L 68.185373 56.159861 
L 69.354798 56.169832 
L 69.939511 63.739566 
L 71.108937 63.739566 
L 71.69365 62.350318 
L 77.540779 62.350318 
L 78.125492 63.952995 
L 78.710205 61.260886 
L 79.879631 61.260886 
L 80.464343 63.142481 
L 82.803195 63.142481 
L 83.387908 66.788968 
L 93.91274 66.788968 
L 94.497453 67.200139 
L 106.776424 67.200139 
L 107.361137 64.567634 
L 345.339287 64.567634 
L 345.339287 64.567634 
" clip-path="url(#p4fd0ddfd60)" style="fill: none; stroke: #4c72b0; stroke-opacity: 0.3; stroke-width: 1.5; stroke-linecap: round"/>
   </g>
   <g id="line2d_31">
    <path d="M 53.56755 53.803214 
L 54.736976 53.907314 
L 57.66054 53.907314 
L 58.245253 52.895956 
L 58.829966 52.895956 
L 59.414679 54.078459 
L 61.753531 54.078459 
L 62.338244 18.202864 
L 64.092382 18.202864 
L 64.677095 12.206833 
L 64.91264 -1 
L 64.91264 -1 
" clip-path="url(#p4fd0ddfd60)" style="fill: none; stroke: #4c72b0; stroke-opacity: 0.3; stroke-width: 1.5; stroke-linecap: round"/>
   </g>
   <g id="line2d_32">
    <path d="M 53.56755 52.409435 
L 54.152263 52.409435 
L 54.736976 71.584231 
L 55.321689 80.324132 
L 56.491115 125.784601 
L 57.075827 100.683535 
L 58.245253 100.683535 
L 58.829966 89.273027 
L 59.414679 89.273027 
L 59.999392 72.907844 
L 60.584105 72.907844 
L 61.168818 61.233945 
L 64.092382 61.233945 
L 64.677095 59.203308 
L 66.431234 59.203308 
L 67.015947 61.660455 
L 67.60066 61.660455 
L 68.185373 60.56171 
L 72.278363 60.56171 
L 72.863076 60.176015 
L 92.743314 60.176015 
L 93.328027 59.566745 
L 117.885969 59.566745 
L 118.470682 59.060332 
L 120.809534 59.060332 
L 121.394246 58.051142 
L 121.978959 58.216869 
L 122.563672 58.184714 
L 123.148385 62.048608 
L 128.995514 62.048608 
L 129.580227 61.810671 
L 172.848982 61.760233 
L 173.433695 61.446281 
L 345.339287 61.446281 
L 345.339287 61.446281 
" clip-path="url(#p4fd0ddfd60)" style="fill: none; stroke: #4c72b0; stroke-opacity: 0.3; stroke-width: 1.5; stroke-linecap: round"/>
   </g>
   <g id="patch_3">
    <path d="M 53.56755 88.542 
L 53.56755 10.296 
" style="fill: none; stroke: #262626; stroke-width: 1.25; stroke-linejoin: miter; stroke-linecap: square"/>
   </g>
   <g id="patch_4">
    <path d="M 345.924 88.542 
L 345.924 10.296 
" style="fill: none; stroke: #262626; stroke-width: 1.25; stroke-linejoin: miter; stroke-linecap: square"/>
   </g>
   <g id="patch_5">
    <path d="M 53.56755 88.542 
L 345.924 88.542 
" style="fill: none; stroke: #262626; stroke-width: 1.25; stroke-linejoin: miter; stroke-linecap: square"/>
   </g>
   <g id="patch_6">
    <path d="M 53.56755 10.296 
L 345.924 10.296 
" style="fill: none; stroke: #262626; stroke-width: 1.25; stroke-linejoin: miter; stroke-linecap: square"/>
   </g>
  </g>
  <g id="axes_2">
   <g id="patch_7">
    <path d="M 53.56755 181.044 
L 345.924 181.044 
L 345.924 102.798 
L 53.56755 102.798 
z
" style="fill: #ffffff"/>
   </g>
   <g id="matplotlib.axis_3">
    <g id="xtick_7">
     <g id="text_7">
      <!-- 0 -->
      <g style="fill: #262626" transform="translate(51.467925 195.558969) scale(0.066 -0.066)">
       <use xlink:href="#DejaVuSans-30"/>
      </g>
     </g>
    </g>
    <g id="xtick_8">
     <g id="text_8">
      <!-- 100 -->
      <g style="fill: #262626" transform="translate(105.739965 195.558969) scale(0.066 -0.066)">
       <use xlink:href="#DejaVuSans-31"/>
       <use xlink:href="#DejaVuSans-30" x="63.623047"/>
       <use xlink:href="#DejaVuSans-30" x="127.246094"/>
      </g>
     </g>
    </g>
    <g id="xtick_9">
     <g id="text_9">
      <!-- 200 -->
      <g style="fill: #262626" transform="translate(164.211255 195.558969) scale(0.066 -0.066)">
       <defs>
        <path id="DejaVuSans-32" d="M 1228 531 
L 3431 531 
L 3431 0 
L 469 0 
L 469 531 
Q 828 903 1448 1529 
Q 2069 2156 2228 2338 
Q 2531 2678 2651 2914 
Q 2772 3150 2772 3378 
Q 2772 3750 2511 3984 
Q 2250 4219 1831 4219 
Q 1534 4219 1204 4116 
Q 875 4013 500 3803 
L 500 4441 
Q 881 4594 1212 4672 
Q 1544 4750 1819 4750 
Q 2544 4750 2975 4387 
Q 3406 4025 3406 3419 
Q 3406 3131 3298 2873 
Q 3191 2616 2906 2266 
Q 2828 2175 2409 1742 
Q 1991 1309 1228 531 
z
" transform="scale(0.015625)"/>
       </defs>
       <use xlink:href="#DejaVuSans-32"/>
       <use xlink:href="#DejaVuSans-30" x="63.623047"/>
       <use xlink:href="#DejaVuSans-30" x="127.246094"/>
      </g>
     </g>
    </g>
    <g id="xtick_10">
     <g id="text_10">
      <!-- 300 -->
      <g style="fill: #262626" transform="translate(222.682545 195.558969) scale(0.066 -0.066)">
       <defs>
        <path id="DejaVuSans-33" d="M 2597 2516 
Q 3050 2419 3304 2112 
Q 3559 1806 3559 1356 
Q 3559 666 3084 287 
Q 2609 -91 1734 -91 
Q 1441 -91 1130 -33 
Q 819 25 488 141 
L 488 750 
Q 750 597 1062 519 
Q 1375 441 1716 441 
Q 2309 441 2620 675 
Q 2931 909 2931 1356 
Q 2931 1769 2642 2001 
Q 2353 2234 1838 2234 
L 1294 2234 
L 1294 2753 
L 1863 2753 
Q 2328 2753 2575 2939 
Q 2822 3125 2822 3475 
Q 2822 3834 2567 4026 
Q 2313 4219 1838 4219 
Q 1578 4219 1281 4162 
Q 984 4106 628 3988 
L 628 4550 
Q 988 4650 1302 4700 
Q 1616 4750 1894 4750 
Q 2613 4750 3031 4423 
Q 3450 4097 3450 3541 
Q 3450 3153 3228 2886 
Q 3006 2619 2597 2516 
z
" transform="scale(0.015625)"/>
       </defs>
       <use xlink:href="#DejaVuSans-33"/>
       <use xlink:href="#DejaVuSans-30" x="63.623047"/>
       <use xlink:href="#DejaVuSans-30" x="127.246094"/>
      </g>
     </g>
    </g>
    <g id="xtick_11">
     <g id="text_11">
      <!-- 400 -->
      <g style="fill: #262626" transform="translate(281.153835 195.558969) scale(0.066 -0.066)">
       <defs>
        <path id="DejaVuSans-34" d="M 2419 4116 
L 825 1625 
L 2419 1625 
L 2419 4116 
z
M 2253 4666 
L 3047 4666 
L 3047 1625 
L 3713 1625 
L 3713 1100 
L 3047 1100 
L 3047 0 
L 2419 0 
L 2419 1100 
L 313 1100 
L 313 1709 
L 2253 4666 
z
" transform="scale(0.015625)"/>
       </defs>
       <use xlink:href="#DejaVuSans-34"/>
       <use xlink:href="#DejaVuSans-30" x="63.623047"/>
       <use xlink:href="#DejaVuSans-30" x="127.246094"/>
      </g>
     </g>
    </g>
    <g id="xtick_12">
     <g id="text_12">
      <!-- 500 -->
      <g style="fill: #262626" transform="translate(339.625125 195.558969) scale(0.066 -0.066)">
       <use xlink:href="#DejaVuSans-35"/>
       <use xlink:href="#DejaVuSans-30" x="63.623047"/>
       <use xlink:href="#DejaVuSans-30" x="127.246094"/>
      </g>
     </g>
    </g>
    <g id="text_13">
     <!-- step number -->
     <g style="fill: #262626" transform="translate(176.764275 206.402437) scale(0.072 -0.072)">
      <defs>
       <path id="DejaVuSans-70" d="M 1159 525 
L 1159 -1331 
L 581 -1331 
L 581 3500 
L 1159 3500 
L 1159 2969 
Q 1341 3281 1617 3432 
Q 1894 3584 2278 3584 
Q 2916 3584 3314 3078 
Q 3713 2572 3713 1747 
Q 3713 922 3314 415 
Q 2916 -91 2278 -91 
Q 1894 -91 1617 61 
Q 1341 213 1159 525 
z
M 3116 1747 
Q 3116 2381 2855 2742 
Q 2594 3103 2138 3103 
Q 1681 3103 1420 2742 
Q 1159 2381 1159 1747 
Q 1159 1113 1420 752 
Q 1681 391 2138 391 
Q 2594 391 2855 752 
Q 3116 1113 3116 1747 
z
" transform="scale(0.015625)"/>
       <path id="DejaVuSans-75" d="M 544 1381 
L 544 3500 
L 1119 3500 
L 1119 1403 
Q 1119 906 1312 657 
Q 1506 409 1894 409 
Q 2359 409 2629 706 
Q 2900 1003 2900 1516 
L 2900 3500 
L 3475 3500 
L 3475 0 
L 2900 0 
L 2900 538 
Q 2691 219 2414 64 
Q 2138 -91 1772 -91 
Q 1169 -91 856 284 
Q 544 659 544 1381 
z
M 1991 3584 
L 1991 3584 
z
" transform="scale(0.015625)"/>
       <path id="DejaVuSans-6d" d="M 3328 2828 
Q 3544 3216 3844 3400 
Q 4144 3584 4550 3584 
Q 5097 3584 5394 3201 
Q 5691 2819 5691 2113 
L 5691 0 
L 5113 0 
L 5113 2094 
Q 5113 2597 4934 2840 
Q 4756 3084 4391 3084 
Q 3944 3084 3684 2787 
Q 3425 2491 3425 1978 
L 3425 0 
L 2847 0 
L 2847 2094 
Q 2847 2600 2669 2842 
Q 2491 3084 2119 3084 
Q 1678 3084 1418 2786 
Q 1159 2488 1159 1978 
L 1159 0 
L 581 0 
L 581 3500 
L 1159 3500 
L 1159 2956 
Q 1356 3278 1631 3431 
Q 1906 3584 2284 3584 
Q 2666 3584 2933 3390 
Q 3200 3197 3328 2828 
z
" transform="scale(0.015625)"/>
       <path id="DejaVuSans-62" d="M 3116 1747 
Q 3116 2381 2855 2742 
Q 2594 3103 2138 3103 
Q 1681 3103 1420 2742 
Q 1159 2381 1159 1747 
Q 1159 1113 1420 752 
Q 1681 391 2138 391 
Q 2594 391 2855 752 
Q 3116 1113 3116 1747 
z
M 1159 2969 
Q 1341 3281 1617 3432 
Q 1894 3584 2278 3584 
Q 2916 3584 3314 3078 
Q 3713 2572 3713 1747 
Q 3713 922 3314 415 
Q 2916 -91 2278 -91 
Q 1894 -91 1617 61 
Q 1341 213 1159 525 
L 1159 0 
L 581 0 
L 581 4863 
L 1159 4863 
L 1159 2969 
z
" transform="scale(0.015625)"/>
      </defs>
      <use xlink:href="#DejaVuSans-73"/>
      <use xlink:href="#DejaVuSans-74" x="52.099609"/>
      <use xlink:href="#DejaVuSans-65" x="91.308594"/>
      <use xlink:href="#DejaVuSans-70" x="152.832031"/>
      <use xlink:href="#DejaVuSans-20" x="216.308594"/>
      <use xlink:href="#DejaVuSans-6e" x="248.095703"/>
      <use xlink:href="#DejaVuSans-75" x="311.474609"/>
      <use xlink:href="#DejaVuSans-6d" x="374.853516"/>
      <use xlink:href="#DejaVuSans-62" x="472.265625"/>
      <use xlink:href="#DejaVuSans-65" x="535.742188"/>
      <use xlink:href="#DejaVuSans-72" x="597.265625"/>
     </g>
    </g>
   </g>
   <g id="matplotlib.axis_4">
    <g id="ytick_6">
     <g id="text_14">
      <!-- 0.06 -->
      <g style="fill: #262626" transform="translate(29.372238 183.551484) scale(0.066 -0.066)">
       <use xlink:href="#DejaVuSans-30"/>
       <use xlink:href="#DejaVuSans-2e" x="63.623047"/>
       <use xlink:href="#DejaVuSans-30" x="95.410156"/>
       <use xlink:href="#DejaVuSans-36" x="159.033203"/>
      </g>
     </g>
    </g>
    <g id="ytick_7">
     <g id="text_15">
      <!-- 0.08 -->
      <g style="fill: #262626" transform="translate(29.372238 163.989984) scale(0.066 -0.066)">
       <use xlink:href="#DejaVuSans-30"/>
       <use xlink:href="#DejaVuSans-2e" x="63.623047"/>
       <use xlink:href="#DejaVuSans-30" x="95.410156"/>
       <use xlink:href="#DejaVuSans-38" x="159.033203"/>
      </g>
     </g>
    </g>
    <g id="ytick_8">
     <g id="text_16">
      <!-- 0.10 -->
      <g style="fill: #262626" transform="translate(29.372238 144.428484) scale(0.066 -0.066)">
       <use xlink:href="#DejaVuSans-30"/>
       <use xlink:href="#DejaVuSans-2e" x="63.623047"/>
       <use xlink:href="#DejaVuSans-31" x="95.410156"/>
       <use xlink:href="#DejaVuSans-30" x="159.033203"/>
      </g>
     </g>
    </g>
    <g id="ytick_9">
     <g id="text_17">
      <!-- 0.12 -->
      <g style="fill: #262626" transform="translate(29.372238 124.866984) scale(0.066 -0.066)">
       <use xlink:href="#DejaVuSans-30"/>
       <use xlink:href="#DejaVuSans-2e" x="63.623047"/>
       <use xlink:href="#DejaVuSans-31" x="95.410156"/>
       <use xlink:href="#DejaVuSans-32" x="159.033203"/>
      </g>
     </g>
    </g>
    <g id="ytick_10">
     <g id="text_18">
      <!-- 0.14 -->
      <g style="fill: #262626" transform="translate(29.372238 105.305484) scale(0.066 -0.066)">
       <use xlink:href="#DejaVuSans-30"/>
       <use xlink:href="#DejaVuSans-2e" x="63.623047"/>
       <use xlink:href="#DejaVuSans-31" x="95.410156"/>
       <use xlink:href="#DejaVuSans-34" x="159.033203"/>
      </g>
     </g>
    </g>
    <g id="text_19">
     <!-- High Frequency  -->
     <g style="fill: #262626" transform="translate(14.772105 171.081) rotate(-90) scale(0.072 -0.072)">
      <defs>
       <path id="DejaVuSans-48" d="M 628 4666 
L 1259 4666 
L 1259 2753 
L 3553 2753 
L 3553 4666 
L 4184 4666 
L 4184 0 
L 3553 0 
L 3553 2222 
L 1259 2222 
L 1259 0 
L 628 0 
L 628 4666 
z
" transform="scale(0.015625)"/>
       <path id="DejaVuSans-68" d="M 3513 2113 
L 3513 0 
L 2938 0 
L 2938 2094 
Q 2938 2591 2744 2837 
Q 2550 3084 2163 3084 
Q 1697 3084 1428 2787 
Q 1159 2491 1159 1978 
L 1159 0 
L 581 0 
L 581 4863 
L 1159 4863 
L 1159 2956 
Q 1366 3272 1645 3428 
Q 1925 3584 2291 3584 
Q 2894 3584 3203 3211 
Q 3513 2838 3513 2113 
z
" transform="scale(0.015625)"/>
       <path id="DejaVuSans-46" d="M 628 4666 
L 3309 4666 
L 3309 4134 
L 1259 4134 
L 1259 2759 
L 3109 2759 
L 3109 2228 
L 1259 2228 
L 1259 0 
L 628 0 
L 628 4666 
z
" transform="scale(0.015625)"/>
       <path id="DejaVuSans-71" d="M 947 1747 
Q 947 1113 1208 752 
Q 1469 391 1925 391 
Q 2381 391 2643 752 
Q 2906 1113 2906 1747 
Q 2906 2381 2643 2742 
Q 2381 3103 1925 3103 
Q 1469 3103 1208 2742 
Q 947 2381 947 1747 
z
M 2906 525 
Q 2725 213 2448 61 
Q 2172 -91 1784 -91 
Q 1150 -91 751 415 
Q 353 922 353 1747 
Q 353 2572 751 3078 
Q 1150 3584 1784 3584 
Q 2172 3584 2448 3432 
Q 2725 3281 2906 2969 
L 2906 3500 
L 3481 3500 
L 3481 -1331 
L 2906 -1331 
L 2906 525 
z
" transform="scale(0.015625)"/>
      </defs>
      <use xlink:href="#DejaVuSans-48"/>
      <use xlink:href="#DejaVuSans-69" x="75.195312"/>
      <use xlink:href="#DejaVuSans-67" x="102.978516"/>
      <use xlink:href="#DejaVuSans-68" x="166.455078"/>
      <use xlink:href="#DejaVuSans-20" x="229.833984"/>
      <use xlink:href="#DejaVuSans-46" x="261.621094"/>
      <use xlink:href="#DejaVuSans-72" x="311.890625"/>
      <use xlink:href="#DejaVuSans-65" x="350.753906"/>
      <use xlink:href="#DejaVuSans-71" x="412.277344"/>
      <use xlink:href="#DejaVuSans-75" x="475.753906"/>
      <use xlink:href="#DejaVuSans-65" x="539.132812"/>
      <use xlink:href="#DejaVuSans-6e" x="600.65625"/>
      <use xlink:href="#DejaVuSans-63" x="664.035156"/>
      <use xlink:href="#DejaVuSans-79" x="719.015625"/>
      <use xlink:href="#DejaVuSans-20" x="778.195312"/>
     </g>
     <!--  reorganisation energy (eV) -->
     <g style="fill: #262626" transform="translate(22.83453 191.36925) rotate(-90) scale(0.072 -0.072)">
      <defs>
       <path id="DejaVuSans-6f" d="M 1959 3097 
Q 1497 3097 1228 2736 
Q 959 2375 959 1747 
Q 959 1119 1226 758 
Q 1494 397 1959 397 
Q 2419 397 2687 759 
Q 2956 1122 2956 1747 
Q 2956 2369 2687 2733 
Q 2419 3097 1959 3097 
z
M 1959 3584 
Q 2709 3584 3137 3096 
Q 3566 2609 3566 1747 
Q 3566 888 3137 398 
Q 2709 -91 1959 -91 
Q 1206 -91 779 398 
Q 353 888 353 1747 
Q 353 2609 779 3096 
Q 1206 3584 1959 3584 
z
" transform="scale(0.015625)"/>
      </defs>
      <use xlink:href="#DejaVuSans-20"/>
      <use xlink:href="#DejaVuSans-72" x="31.787109"/>
      <use xlink:href="#DejaVuSans-65" x="70.650391"/>
      <use xlink:href="#DejaVuSans-6f" x="132.173828"/>
      <use xlink:href="#DejaVuSans-72" x="193.355469"/>
      <use xlink:href="#DejaVuSans-67" x="232.71875"/>
      <use xlink:href="#DejaVuSans-61" x="296.195312"/>
      <use xlink:href="#DejaVuSans-6e" x="357.474609"/>
      <use xlink:href="#DejaVuSans-69" x="420.853516"/>
      <use xlink:href="#DejaVuSans-73" x="448.636719"/>
      <use xlink:href="#DejaVuSans-61" x="500.736328"/>
      <use xlink:href="#DejaVuSans-74" x="562.015625"/>
      <use xlink:href="#DejaVuSans-69" x="601.224609"/>
      <use xlink:href="#DejaVuSans-6f" x="629.007812"/>
      <use xlink:href="#DejaVuSans-6e" x="690.189453"/>
      <use xlink:href="#DejaVuSans-20" x="753.568359"/>
      <use xlink:href="#DejaVuSans-65" x="785.355469"/>
      <use xlink:href="#DejaVuSans-6e" x="846.878906"/>
      <use xlink:href="#DejaVuSans-65" x="910.257812"/>
      <use xlink:href="#DejaVuSans-72" x="971.78125"/>
      <use xlink:href="#DejaVuSans-67" x="1011.144531"/>
      <use xlink:href="#DejaVuSans-79" x="1074.621094"/>
      <use xlink:href="#DejaVuSans-20" x="1133.800781"/>
      <use xlink:href="#DejaVuSans-28" x="1165.587891"/>
      <use xlink:href="#DejaVuSans-65" x="1204.601562"/>
      <use xlink:href="#DejaVuSans-56" x="1266.125"/>
      <use xlink:href="#DejaVuSans-29" x="1334.533203"/>
     </g>
    </g>
   </g>
   <g id="line2d_33">
    <path d="M 53.56755 162.624782 
L 54.152263 155.332017 
L 54.736976 154.445228 
L 57.66054 154.445228 
L 58.245253 152.30327 
L 58.829966 152.30327 
L 59.414679 143.50242 
L 60.584105 143.596719 
L 62.338244 143.596719 
L 62.922956 135.22777 
L 63.507669 135.22777 
L 64.092382 125.523323 
L 64.677095 125.523323 
L 65.261808 122.984522 
L 71.108937 122.984522 
L 71.69365 119.602813 
L 75.201927 119.602813 
L 75.78664 119.955731 
L 90.404463 119.955731 
L 90.989176 119.741338 
L 167.586566 119.669916 
L 168.171278 120.717716 
L 178.696111 120.717716 
L 179.280823 120.932331 
L 181.619675 120.932331 
L 182.204388 121.690906 
L 218.456588 121.690906 
L 219.041301 121.229173 
L 345.339287 121.229173 
L 345.339287 121.229173 
" clip-path="url(#p48ed38109b)" style="fill: none; stroke: #dd8452; stroke-opacity: 0.3; stroke-width: 1.5; stroke-linecap: round"/>
   </g>
   <g id="line2d_34">
    <path d="M 53.56755 148.916481 
L 54.152263 146.654013 
L 54.736976 141.496219 
L 55.906402 141.496219 
L 56.491115 141.077168 
L 60.584105 141.077168 
L 61.168818 128.353729 
L 88.650324 128.378511 
L 89.235037 124.17559 
L 93.91274 124.17559 
L 94.497453 118.803965 
L 100.929295 118.803965 
L 101.514008 120.254845 
L 105.022285 120.254845 
L 105.606998 121.100838 
L 120.809534 121.100838 
L 121.394246 121.366775 
L 123.148385 121.366775 
L 123.733098 121.626797 
L 133.673217 121.641743 
L 134.25793 117.458275 
L 145.952188 117.458275 
L 146.536901 118.167289 
L 157.061733 118.167289 
L 157.646446 117.616427 
L 162.324149 117.616427 
L 162.908862 116.15438 
L 345.339287 116.15438 
L 345.339287 116.15438 
" clip-path="url(#p48ed38109b)" style="fill: none; stroke: #dd8452; stroke-opacity: 0.3; stroke-width: 1.5; stroke-linecap: round"/>
   </g>
   <g id="line2d_35">
    <path d="M 53.56755 165.402645 
L 55.321689 165.402645 
L 56.491115 127.803181 
L 57.075827 127.803181 
L 57.66054 130.187812 
L 58.829966 130.187812 
L 59.414679 129.110637 
L 62.338244 129.110637 
L 62.922956 123.438033 
L 63.507669 123.438033 
L 64.092382 113.774324 
L 68.770085 113.774324 
L 69.354798 114.748478 
L 69.939511 114.748478 
L 70.524224 114.565905 
L 82.218482 114.574938 
L 82.803195 117.517976 
L 105.022285 117.484216 
L 105.606998 118.402152 
L 109.115276 118.402152 
L 109.699988 120.311164 
L 120.224821 120.311164 
L 120.809534 120.080411 
L 138.350921 120.080411 
L 138.935633 121.176164 
L 345.339287 121.176164 
L 345.339287 121.176164 
" clip-path="url(#p48ed38109b)" style="fill: none; stroke: #dd8452; stroke-opacity: 0.3; stroke-width: 1.5; stroke-linecap: round"/>
   </g>
   <g id="line2d_36">
    <path d="M 53.56755 169.95989 
L 54.152263 176.2649 
L 54.736976 167.822199 
L 55.906402 167.822199 
L 56.491115 148.292851 
L 57.075827 148.292851 
L 57.66054 123.318661 
L 58.829966 123.318661 
L 59.414679 121.21045 
L 59.999392 121.061269 
L 65.846521 121.061269 
L 66.431234 126.14965 
L 67.015947 126.14965 
L 67.60066 125.049091 
L 68.770085 125.049091 
L 69.354798 137.056693 
L 69.939511 137.056693 
L 70.524224 138.542466 
L 76.956066 138.542466 
L 77.540779 146.432556 
L 83.387908 146.432556 
L 83.972621 147.430237 
L 87.480898 147.430237 
L 88.065611 140.969078 
L 89.235037 140.969078 
L 89.81975 141.227251 
L 125.487237 141.243385 
L 126.656663 141.347995 
L 148.29104 141.347995 
L 148.875753 141.487157 
L 165.247714 141.487157 
L 165.832427 140.97032 
L 181.034962 140.97032 
L 181.619675 140.338569 
L 205.008191 140.264412 
L 205.592904 138.861535 
L 233.07441 138.76165 
L 233.659123 137.490536 
L 276.343165 137.562781 
L 276.927878 137.371887 
L 296.223404 137.371887 
L 296.808116 138.683091 
L 345.339287 138.683091 
L 345.339287 138.683091 
" clip-path="url(#p48ed38109b)" style="fill: none; stroke: #dd8452; stroke-opacity: 0.3; stroke-width: 1.5; stroke-linecap: round"/>
   </g>
   <g id="line2d_37">
    <path d="M 53.56755 168.175562 
L 54.152263 168.175562 
L 54.736976 172.56365 
L 55.321689 185.779824 
L 56.491115 185.779824 
L 57.075827 203.852482 
L 62.338244 203.852482 
L 62.922956 206.913 
L 82.218482 206.836624 
L 82.803195 204.460792 
L 84.557334 204.460792 
L 85.142047 202.502945 
L 87.480898 202.502945 
L 88.065611 203.16685 
L 103.268147 203.16685 
L 103.852859 204.013535 
L 104.437572 199.84096 
L 109.115276 199.84096 
L 109.699988 203.38164 
L 114.377692 203.38164 
L 114.962405 205.484362 
L 117.301256 205.484362 
L 117.885969 208.104367 
L 119.640108 208.104367 
L 120.224821 208.724583 
L 145.952188 208.703994 
L 146.536901 208.581025 
L 151.214604 208.502646 
L 151.799317 209.179248 
L 154.138169 209.179248 
L 154.722882 208.522499 
L 158.815872 208.522499 
L 159.400585 202.010435 
L 161.154724 202.010435 
L 161.739437 207.446609 
L 167.586566 207.446609 
L 168.171278 207.562731 
L 201.499914 207.53539 
L 202.084627 207.271893 
L 209.101181 207.271893 
L 209.685894 207.469554 
L 210.85532 207.469554 
L 211.440033 207.00057 
L 212.024746 207.131285 
L 214.94831 207.131285 
L 215.533023 206.886592 
L 220.795439 206.886592 
L 221.380152 206.335296 
L 231.320272 206.335296 
L 231.904985 206.680152 
L 327.213187 206.680152 
L 327.7979 206.811284 
L 345.339287 206.811284 
L 345.339287 206.811284 
" clip-path="url(#p48ed38109b)" style="fill: none; stroke: #dd8452; stroke-opacity: 0.3; stroke-width: 1.5; stroke-linecap: round"/>
   </g>
   <g id="line2d_38">
    <path d="M 53.56755 165.912614 
L 54.152263 168.618799 
L 54.736976 142.888492 
L 55.321689 153.386457 
L 55.906402 153.386457 
L 56.491115 146.942218 
L 57.075827 146.411244 
L 58.245253 146.411244 
L 58.829966 134.882016 
L 59.999392 134.882016 
L 60.584105 138.803334 
L 61.753531 138.803334 
L 62.338244 151.997821 
L 64.092382 151.997821 
L 64.677095 153.41252 
L 65.261808 153.41252 
L 65.846521 154.035457 
L 67.015947 154.035457 
L 67.60066 148.252618 
L 69.939511 148.252618 
L 70.524224 147.477822 
L 74.617214 147.477822 
L 75.201927 143.273971 
L 79.879631 143.273971 
L 80.464343 141.49313 
L 81.049056 141.49313 
L 81.633769 144.451497 
L 82.218482 144.451497 
L 82.803195 145.163684 
L 95.666879 145.163684 
L 96.251592 140.25668 
L 97.421018 140.25668 
L 98.00573 138.163388 
L 104.437572 138.163388 
L 105.022285 145.040311 
L 105.606998 141.775065 
L 110.284701 141.775065 
L 110.869414 142.494761 
L 113.208266 142.494761 
L 113.792979 143.102015 
L 118.470682 143.102015 
L 119.055395 141.713207 
L 121.394246 141.605269 
L 123.148385 141.555058 
L 126.07195 141.555058 
L 126.656663 140.564154 
L 138.935633 140.564154 
L 139.520346 140.786222 
L 159.400585 140.786222 
L 159.985298 140.072363 
L 227.811994 140.072363 
L 228.396707 140.197603 
L 241.845104 140.197603 
L 242.429817 139.599567 
L 243.01453 137.855353 
L 345.339287 137.846444 
L 345.339287 137.846444 
" clip-path="url(#p48ed38109b)" style="fill: none; stroke: #dd8452; stroke-opacity: 0.3; stroke-width: 1.5; stroke-linecap: round"/>
   </g>
   <g id="line2d_39">
    <path d="M 53.56755 160.987228 
L 54.152263 160.987228 
L 55.321689 109.035194 
L 56.491115 109.035194 
L 57.075827 120.510263 
L 58.245253 120.510263 
L 58.829966 120.62396 
L 61.168818 120.62396 
L 61.753531 118.75246 
L 62.338244 118.75246 
L 62.922956 121.745612 
L 64.677095 121.745612 
L 65.261808 124.665524 
L 103.268147 124.665524 
L 103.852859 123.559804 
L 115.547117 123.559804 
L 116.13183 122.578224 
L 129.580227 122.578224 
L 130.16494 122.31297 
L 132.503792 122.31297 
L 133.088504 121.047445 
L 145.367475 121.062311 
L 145.952188 119.833366 
L 149.460466 119.833366 
L 150.045179 119.201805 
L 158.231159 119.193828 
L 250.615797 119.184243 
L 251.20051 119.306499 
L 262.894768 119.306499 
L 263.479481 119.035415 
L 345.339287 119.035415 
L 345.339287 119.035415 
" clip-path="url(#p48ed38109b)" style="fill: none; stroke: #dd8452; stroke-opacity: 0.3; stroke-width: 1.5; stroke-linecap: round"/>
   </g>
   <g id="line2d_40">
    <path d="M 53.56755 161.062256 
L 54.152263 154.806212 
L 56.491115 154.806212 
L 57.075827 149.299128 
L 64.092382 149.299128 
L 64.677095 143.722501 
L 65.261808 143.722501 
L 65.846521 142.56081 
L 68.770085 142.56081 
L 69.354798 142.297908 
L 73.447789 142.297908 
L 74.032502 142.868703 
L 86.311472 142.868703 
L 86.896185 141.547219 
L 93.91274 141.562073 
L 94.497453 141.385294 
L 136.012069 141.349376 
L 136.596782 138.689113 
L 137.181495 138.689113 
L 137.766208 137.448885 
L 153.553456 137.448885 
L 154.138169 135.651954 
L 216.702449 135.651954 
L 217.287162 135.422754 
L 345.339287 135.422754 
L 345.339287 135.422754 
" clip-path="url(#p48ed38109b)" style="fill: none; stroke: #dd8452; stroke-opacity: 0.3; stroke-width: 1.5; stroke-linecap: round"/>
   </g>
   <g id="line2d_41">
    <path d="M 53.56755 177.207135 
L 54.152263 177.207135 
L 54.736976 177.818044 
L 55.321689 179.140032 
L 55.906402 202.805753 
L 59.414679 202.805753 
L 59.999392 208.6455 
L 64.092382 208.6455 
L 64.677095 194.442551 
L 67.60066 194.442551 
L 68.185373 203.607956 
L 69.939511 203.607956 
L 70.524224 202.187188 
L 76.371353 202.187188 
L 76.956066 197.966173 
L 78.710205 197.966173 
L 79.294918 203.220961 
L 84.557334 203.289653 
L 85.142047 203.977568 
L 92.743314 204.063557 
L 93.328027 201.912698 
L 103.268147 201.912698 
L 103.852859 203.261383 
L 106.776424 203.286399 
L 107.361137 203.906844 
L 115.547117 203.906844 
L 116.13183 203.489156 
L 117.301256 203.489156 
L 117.885969 205.055064 
L 118.470682 205.055064 
L 119.055395 205.535993 
L 124.317811 205.535993 
L 124.902524 205.799903 
L 137.766208 205.799903 
L 138.350921 209.072579 
L 150.045179 209.026443 
L 150.629891 208.901238 
L 154.722882 208.901238 
L 155.307595 208.605566 
L 177.526685 208.605566 
L 178.111398 208.466365 
L 208.516469 208.431538 
L 209.101181 204.296751 
L 210.270607 204.296751 
L 210.85532 205.512058 
L 214.363597 205.512058 
L 214.94831 206.313231 
L 215.533023 206.165468 
L 216.702449 206.165468 
L 217.287162 207.335615 
L 221.964865 207.335615 
L 222.549578 209.440398 
L 287.45271 209.440398 
L 288.037423 210.199655 
L 320.196632 210.199655 
L 320.781345 209.396107 
L 345.339287 209.396107 
L 345.339287 209.396107 
" clip-path="url(#p48ed38109b)" style="fill: none; stroke: #dd8452; stroke-opacity: 0.3; stroke-width: 1.5; stroke-linecap: round"/>
   </g>
   <g id="line2d_42">
    <path d="M 53.56755 192.914707 
L 54.736976 192.914707 
L 55.321689 204.500158 
L 55.906402 207.603201 
L 56.491115 207.603201 
L 57.075827 208.433489 
L 62.338244 208.433489 
L 62.922956 208.858616 
L 69.354798 208.85721 
L 69.939511 207.345261 
L 72.863076 207.345261 
L 73.447789 205.857809 
L 74.617214 205.857809 
L 75.201927 193.592462 
L 75.78664 204.713539 
L 80.464343 204.713539 
L 81.049056 205.319558 
L 96.251592 205.319558 
L 96.836305 208.343069 
L 98.590443 208.343069 
L 99.175156 201.183617 
L 101.514008 201.183617 
L 102.098721 203.351241 
L 120.224821 203.351241 
L 120.809534 207.119952 
L 121.394246 207.119952 
L 121.978959 206.775886 
L 151.214604 206.775886 
L 151.799317 207.385346 
L 173.433695 207.385346 
L 174.018407 208.386168 
L 207.931756 208.386168 
L 208.516469 207.875571 
L 215.533023 207.936955 
L 216.117736 209.18229 
L 279.851442 209.18229 
L 280.436155 208.691588 
L 299.731681 208.691588 
L 300.316394 209.919879 
L 300.901107 209.919879 
L 301.48582 209.000774 
L 345.339287 209.000774 
L 345.339287 209.000774 
" clip-path="url(#p48ed38109b)" style="fill: none; stroke: #dd8452; stroke-opacity: 0.3; stroke-width: 1.5; stroke-linecap: round"/>
   </g>
   <g id="line2d_43">
    <path d="M 53.56755 155.600387 
L 60.584105 155.600387 
L 61.168818 148.520629 
L 62.922956 148.520629 
L 63.507669 147.134878 
L 69.354798 147.134878 
L 69.939511 148.088021 
L 81.049056 148.088021 
L 81.633769 147.483771 
L 113.208266 147.483771 
L 113.792979 142.97762 
L 116.13183 142.97762 
L 116.716543 143.623953 
L 119.055395 143.623953 
L 119.640108 142.57891 
L 126.07195 142.57891 
L 126.656663 142.231913 
L 130.16494 142.231913 
L 130.749653 142.413105 
L 131.334366 143.169673 
L 134.25793 143.169673 
L 134.842643 142.583316 
L 137.181495 142.583316 
L 137.766208 142.167288 
L 140.105059 142.167288 
L 140.689772 139.329873 
L 146.536901 139.329873 
L 147.121614 139.111211 
L 157.646446 139.111211 
L 158.231159 142.045294 
L 185.127953 142.045294 
L 185.712665 140.527184 
L 192.72922 140.527184 
L 193.313933 140.40146 
L 219.041301 140.40146 
L 219.626014 140.833803 
L 235.997975 140.766613 
L 236.582688 140.305637 
L 312.595365 140.305637 
L 313.180078 139.215341 
L 316.103642 139.215341 
L 316.688355 139.047421 
L 317.273068 138.553834 
L 327.7979 138.553834 
L 328.382613 139.134954 
L 345.339287 139.134954 
L 345.339287 139.134954 
" clip-path="url(#p48ed38109b)" style="fill: none; stroke: #dd8452; stroke-opacity: 0.3; stroke-width: 1.5; stroke-linecap: round"/>
   </g>
   <g id="line2d_44">
    <path d="M 53.56755 157.976763 
L 54.736976 157.976763 
L 55.321689 157.826915 
L 56.491115 157.826915 
L 57.075827 156.136685 
L 58.245253 139.199148 
L 58.829966 116.664994 
L 59.414679 121.892588 
L 59.999392 121.892588 
L 60.584105 124.990625 
L 61.753531 124.990625 
L 62.338244 130.092861 
L 62.922956 130.092861 
L 63.507669 130.261128 
L 64.092382 130.261128 
L 64.677095 133.023481 
L 66.431234 133.023481 
L 67.015947 124.039767 
L 67.60066 123.864842 
L 75.78664 123.758329 
L 76.371353 119.576842 
L 174.60312 119.558123 
L 175.187833 122.273334 
L 177.526685 122.273334 
L 178.111398 120.677248 
L 283.944433 120.677248 
L 284.529146 121.191498 
L 345.339287 121.177696 
L 345.339287 121.177696 
" clip-path="url(#p48ed38109b)" style="fill: none; stroke: #dd8452; stroke-opacity: 0.3; stroke-width: 1.5; stroke-linecap: round"/>
   </g>
   <g id="line2d_45">
    <path d="M 53.56755 174.231401 
L 54.152263 175.53973 
L 54.736976 178.441418 
L 55.321689 168.956585 
L 55.906402 166.952411 
L 56.491115 166.952411 
L 57.075827 172.634933 
L 57.66054 172.634933 
L 58.245253 163.959831 
L 58.829966 164.386204 
L 59.414679 164.386204 
L 59.999392 151.303997 
L 65.846521 151.303997 
L 66.431234 142.287424 
L 67.60066 142.287424 
L 68.185373 141.832522 
L 68.770085 134.580767 
L 69.354798 134.580767 
L 69.939511 135.553036 
L 70.524224 140.438042 
L 71.108937 141.132562 
L 76.371353 141.180697 
L 76.956066 138.249568 
L 77.540779 138.249568 
L 78.125492 137.586496 
L 85.142047 137.586496 
L 85.72676 138.15078 
L 140.689772 138.15078 
L 141.274485 139.47392 
L 319.027207 139.43314 
L 319.611919 138.395881 
L 345.339287 138.387946 
L 345.339287 138.387946 
" clip-path="url(#p48ed38109b)" style="fill: none; stroke: #dd8452; stroke-opacity: 0.3; stroke-width: 1.5; stroke-linecap: round"/>
   </g>
   <g id="line2d_46">
    <path d="M 53.56755 118.321386 
L 54.152263 111.594102 
L 55.321689 111.594102 
L 55.906402 111.016829 
L 58.245253 111.016829 
L 58.829966 110.175526 
L 61.168818 110.175526 
L 61.753531 109.126787 
L 62.922956 109.126787 
L 63.507669 108.573657 
L 64.092382 128.000085 
L 68.770085 128.041325 
L 69.354798 126.250889 
L 69.939511 119.221396 
L 70.524224 119.221396 
L 71.108937 118.65246 
L 72.863076 118.65246 
L 73.447789 119.091228 
L 74.617214 119.091228 
L 75.201927 114.967106 
L 75.78664 116.598294 
L 93.328027 116.598294 
L 93.91274 113.668949 
L 96.836305 113.668949 
L 97.421018 110.225085 
L 99.175156 110.225085 
L 99.759869 111.097424 
L 125.487237 111.097424 
L 126.07195 113.156051 
L 137.181495 113.156051 
L 137.766208 113.888646 
L 217.287162 113.888646 
L 217.871875 114.539998 
L 345.339287 114.539998 
L 345.339287 114.539998 
" clip-path="url(#p48ed38109b)" style="fill: none; stroke: #dd8452; stroke-opacity: 0.3; stroke-width: 1.5; stroke-linecap: round"/>
   </g>
   <g id="line2d_47">
    <path d="M 53.56755 176.546047 
L 54.152263 164.136594 
L 54.736976 164.136594 
L 55.321689 166.860881 
L 55.906402 147.453016 
L 56.491115 133.285145 
L 58.829966 133.211991 
L 59.414679 118.109096 
L 61.168818 118.109096 
L 61.753531 117.525164 
L 64.092382 117.525164 
L 64.677095 117.033494 
L 65.846521 117.033494 
L 66.431234 116.174387 
L 76.956066 116.174387 
L 77.540779 116.383866 
L 81.049056 116.383866 
L 81.633769 117.440156 
L 86.311472 117.440156 
L 86.896185 118.03476 
L 100.929295 118.024525 
L 101.514008 118.579111 
L 120.809534 118.579111 
L 121.394246 118.106486 
L 345.339287 118.106486 
L 345.339287 118.106486 
" clip-path="url(#p48ed38109b)" style="fill: none; stroke: #dd8452; stroke-opacity: 0.3; stroke-width: 1.5; stroke-linecap: round"/>
   </g>
   <g id="line2d_48">
    <path d="M 53.56755 166.717723 
L 54.736976 166.717723 
L 55.321689 171.505969 
L 55.906402 171.505969 
L 56.491115 182.323327 
L 57.075827 182.323327 
L 57.66054 185.135976 
L 58.245253 185.135976 
L 58.829966 180.467041 
L 67.015947 180.467041 
L 67.60066 181.053108 
L 75.201927 181.053108 
L 75.78664 179.354377 
L 77.540779 179.354377 
L 78.125492 179.600739 
L 92.158601 179.600739 
L 92.743314 177.913127 
L 106.776424 177.913127 
L 107.361137 170.492638 
L 138.935633 170.492638 
L 139.520346 184.182969 
L 181.034962 184.123034 
L 181.619675 187.95024 
L 182.789101 187.95024 
L 183.373814 197.496822 
L 189.220943 197.496822 
L 189.805656 199.944465 
L 192.144507 199.944465 
L 192.72922 202.28858 
L 195.652785 202.28858 
L 196.237498 202.734826 
L 205.592904 202.734826 
L 206.177617 200.302397 
L 208.516469 200.302397 
L 209.101181 197.367345 
L 213.778885 197.367345 
L 214.363597 202.364043 
L 216.702449 202.364043 
L 217.287162 202.11529 
L 218.456588 202.11529 
L 219.041301 204.2934 
L 224.88843 204.2934 
L 225.473143 205.794377 
L 234.243836 205.794377 
L 234.828549 207.182578 
L 250.615797 207.182578 
L 251.20051 208.306742 
L 252.369936 208.306742 
L 252.954649 208.080069 
L 275.758452 208.080069 
L 276.343165 208.546287 
L 276.927878 208.408129 
L 345.339287 208.408129 
L 345.339287 208.408129 
" clip-path="url(#p48ed38109b)" style="fill: none; stroke: #dd8452; stroke-opacity: 0.3; stroke-width: 1.5; stroke-linecap: round"/>
   </g>
   <g id="line2d_49">
    <path d="M 53.56755 172.637168 
L 54.152263 172.637168 
L 54.736976 169.024288 
L 55.906402 169.024288 
L 56.491115 188.360067 
L 57.075827 169.706381 
L 57.66054 203.314642 
L 72.278363 203.314642 
L 72.863076 203.473898 
L 81.049056 203.473898 
L 81.633769 200.594222 
L 83.387908 200.594222 
L 83.972621 204.10567 
L 87.480898 204.10567 
L 88.065611 209.762486 
L 89.235037 209.657274 
L 98.00573 209.657274 
L 98.590443 209.050755 
L 111.454127 209.050755 
L 112.03884 207.981336 
L 118.470682 207.981336 
L 119.055395 209.896022 
L 124.902524 209.896022 
L 125.487237 199.142145 
L 126.656663 199.142145 
L 127.241375 201.753871 
L 128.410801 201.753871 
L 128.995514 202.281431 
L 130.749653 202.281431 
L 131.334366 200.605493 
L 134.25793 200.605493 
L 134.842643 209.797893 
L 138.350921 209.797893 
L 138.935633 208.834727 
L 139.520346 208.681281 
L 140.105059 200.269978 
L 145.367475 200.269978 
L 145.952188 204.989965 
L 146.536901 208.217136 
L 209.101181 208.217136 
L 209.685894 207.665498 
L 282.775007 207.665498 
L 283.35972 206.76989 
L 326.628474 206.76989 
L 327.213187 207.647089 
L 330.721465 207.647089 
L 331.306177 208.10858 
L 345.339287 208.10557 
L 345.339287 208.10557 
" clip-path="url(#p48ed38109b)" style="fill: none; stroke: #dd8452; stroke-opacity: 0.3; stroke-width: 1.5; stroke-linecap: round"/>
   </g>
   <g id="line2d_50">
    <path d="M 53.56755 156.388747 
L 54.152263 152.794304 
L 54.736976 134.466911 
L 55.321689 134.466911 
L 55.906402 116.611185 
L 64.677095 116.719499 
L 65.261808 114.445659 
L 67.015947 114.445659 
L 67.60066 114.160039 
L 91.573889 114.160039 
L 92.158601 112.469436 
L 92.743314 113.125597 
L 93.328027 118.710559 
L 188.63623 118.668591 
L 189.220943 119.004865 
L 226.057856 119.004865 
L 226.642568 119.185287 
L 283.944433 119.07922 
L 284.529146 118.613852 
L 300.316394 118.613852 
L 300.901107 119.919295 
L 345.339287 119.919295 
L 345.339287 119.919295 
" clip-path="url(#p48ed38109b)" style="fill: none; stroke: #dd8452; stroke-opacity: 0.3; stroke-width: 1.5; stroke-linecap: round"/>
   </g>
   <g id="line2d_51">
    <path d="M 53.56755 147.987843 
L 54.152263 147.987843 
L 54.736976 142.070131 
L 55.321689 127.718315 
L 57.075827 127.718315 
L 57.66054 128.228561 
L 69.939511 128.228561 
L 70.524224 124.768926 
L 74.617214 124.768926 
L 75.201927 125.185887 
L 157.061733 125.185887 
L 157.646446 124.067874 
L 175.772546 124.067874 
L 176.357259 123.196619 
L 180.450249 123.196619 
L 181.034962 123.617104 
L 243.599243 123.617104 
L 244.183955 122.972514 
L 290.376275 122.972514 
L 290.960987 123.102767 
L 345.339287 123.102767 
L 345.339287 123.102767 
" clip-path="url(#p48ed38109b)" style="fill: none; stroke: #dd8452; stroke-opacity: 0.3; stroke-width: 1.5; stroke-linecap: round"/>
   </g>
   <g id="line2d_52">
    <path d="M 53.56755 188.286129 
L 54.152263 199.419152 
L 55.906402 199.419152 
L 56.491115 196.774007 
L 57.66054 196.774007 
L 58.245253 207.989296 
L 72.278363 207.989296 
L 72.863076 206.843757 
L 74.617214 206.843757 
L 75.201927 196.116181 
L 77.540779 196.116181 
L 78.125492 210.181271 
L 112.03884 210.113185 
L 112.623553 209.126842 
L 123.148385 209.126842 
L 123.733098 191.003424 
L 124.317811 191.003424 
L 125.487237 199.022682 
L 131.334366 199.022682 
L 131.919079 204.265385 
L 148.29104 204.343129 
L 148.875753 205.717897 
L 150.045179 205.717897 
L 150.629891 209.888235 
L 154.722882 209.888235 
L 155.307595 207.074093 
L 168.171278 207.146263 
L 168.755991 208.260485 
L 220.795439 208.250994 
L 221.380152 208.528365 
L 221.964865 207.843721 
L 233.07441 207.892077 
L 233.659123 207.476249 
L 250.615797 207.476249 
L 251.20051 207.302922 
L 251.785223 207.302922 
L 252.369936 207.189581 
L 252.954649 207.547443 
L 259.386491 207.547443 
L 259.971204 208.457054 
L 266.987759 208.457054 
L 267.572471 208.697759 
L 296.808116 208.697759 
L 297.392829 208.555776 
L 345.339287 208.555776 
L 345.339287 208.555776 
" clip-path="url(#p48ed38109b)" style="fill: none; stroke: #dd8452; stroke-opacity: 0.3; stroke-width: 1.5; stroke-linecap: round"/>
   </g>
   <g id="line2d_53">
    <path d="M 53.56755 150.325702 
L 56.491115 150.325702 
L 57.075827 152.376503 
L 57.66054 141.00332 
L 58.245253 143.585024 
L 58.829966 138.635196 
L 59.414679 127.152421 
L 60.584105 127.064829 
L 61.168818 130.732873 
L 63.507669 130.732873 
L 64.092382 133.092139 
L 65.846521 133.127956 
L 66.431234 132.755808 
L 67.60066 132.755808 
L 68.185373 134.273318 
L 103.852859 134.273318 
L 104.437572 137.701214 
L 126.07195 137.789996 
L 126.656663 135.774271 
L 345.339287 135.735552 
L 345.339287 135.735552 
" clip-path="url(#p48ed38109b)" style="fill: none; stroke: #dd8452; stroke-opacity: 0.3; stroke-width: 1.5; stroke-linecap: round"/>
   </g>
   <g id="line2d_54">
    <path d="M 53.56755 157.914773 
L 54.152263 159.220249 
L 54.736976 158.409314 
L 55.321689 158.409314 
L 55.906402 158.636736 
L 56.491115 158.636736 
L 57.075827 163.879946 
L 57.66054 163.879946 
L 58.245253 168.848922 
L 67.60066 168.848922 
L 68.185373 144.350863 
L 68.770085 144.350863 
L 69.354798 143.929627 
L 79.879631 143.929627 
L 80.464343 142.915851 
L 89.81975 142.915851 
L 90.404463 140.531847 
L 90.989176 140.682152 
L 102.098721 140.682152 
L 102.683434 139.764215 
L 131.919079 139.72065 
L 132.503792 140.298119 
L 137.181495 140.298119 
L 137.766208 140.509809 
L 141.859198 140.509809 
L 142.443911 140.333059 
L 153.553456 140.333059 
L 154.138169 140.680589 
L 154.722882 140.680589 
L 155.307595 138.244127 
L 157.061733 138.244127 
L 157.646446 138.577435 
L 166.41714 138.577435 
L 167.001853 138.366163 
L 167.586566 138.366163 
L 168.171278 137.738462 
L 174.60312 137.738462 
L 175.187833 141.142787 
L 179.280823 141.142787 
L 179.865536 138.515595 
L 180.450249 137.940873 
L 226.642568 137.940873 
L 227.227281 138.969572 
L 245.353381 138.969572 
L 245.938094 137.776409 
L 345.339287 137.776409 
L 345.339287 137.776409 
" clip-path="url(#p48ed38109b)" style="fill: none; stroke: #dd8452; stroke-opacity: 0.3; stroke-width: 1.5; stroke-linecap: round"/>
   </g>
   <g id="line2d_55">
    <path d="M 53.56755 163.783831 
L 55.321689 163.792982 
L 55.906402 160.04064 
L 58.245253 160.04064 
L 58.829966 154.938844 
L 59.414679 154.851913 
L 59.999392 142.989888 
L 60.584105 139.49114 
L 62.922956 139.49114 
L 63.507669 136.574021 
L 64.092382 140.789909 
L 71.69365 140.789909 
L 72.278363 141.431259 
L 80.464343 141.431259 
L 81.049056 121.115953 
L 82.803195 121.115953 
L 83.387908 120.977234 
L 83.972621 120.977234 
L 84.557334 119.217286 
L 88.065611 119.217286 
L 88.650324 118.862857 
L 96.836305 118.796126 
L 97.421018 119.542471 
L 103.268147 119.542471 
L 103.852859 120.205175 
L 105.022285 120.205175 
L 105.606998 119.647412 
L 231.904985 119.731622 
L 232.489697 121.483591 
L 345.339287 121.483591 
L 345.339287 121.483591 
" clip-path="url(#p48ed38109b)" style="fill: none; stroke: #dd8452; stroke-opacity: 0.3; stroke-width: 1.5; stroke-linecap: round"/>
   </g>
   <g id="line2d_56">
    <path d="M 53.56755 153.699373 
L 54.736976 153.699373 
L 55.906402 134.243602 
L 56.491115 133.257984 
L 57.66054 133.257984 
L 58.245253 96.329608 
L 58.829966 113.621454 
L 59.414679 113.621454 
L 59.999392 116.043862 
L 60.584105 116.043862 
L 61.168818 120.545824 
L 62.338244 120.545824 
L 62.922956 116.965259 
L 66.431234 116.965259 
L 67.015947 122.872343 
L 69.939511 122.872343 
L 70.524224 123.8674 
L 72.863076 123.8674 
L 73.447789 121.191038 
L 76.956066 121.191038 
L 77.540779 124.977679 
L 78.125492 123.994079 
L 124.317811 123.994079 
L 124.902524 120.874737 
L 132.503792 120.874737 
L 133.088504 121.044356 
L 144.782762 121.044356 
L 145.367475 119.511197 
L 174.60312 119.524854 
L 175.187833 119.211189 
L 255.2935 119.211189 
L 255.878213 118.506611 
L 261.725342 118.506611 
L 262.310055 118.759209 
L 345.339287 118.759209 
L 345.339287 118.759209 
" clip-path="url(#p48ed38109b)" style="fill: none; stroke: #dd8452; stroke-opacity: 0.3; stroke-width: 1.5; stroke-linecap: round"/>
   </g>
   <g id="line2d_57">
    <path d="M 53.56755 172.747754 
L 54.152263 172.922389 
L 54.736976 160.184573 
L 55.321689 155.797759 
L 55.906402 155.797759 
L 56.491115 153.084365 
L 57.075827 141.550949 
L 57.66054 134.894621 
L 58.245253 133.332766 
L 59.999392 133.332766 
L 60.584105 134.857948 
L 61.753531 134.857948 
L 62.338244 133.501761 
L 62.922956 133.501761 
L 63.507669 129.356554 
L 64.092382 129.356554 
L 64.677095 128.677367 
L 65.261808 129.067378 
L 65.846521 121.941304 
L 67.60066 121.962272 
L 68.185373 122.301443 
L 70.524224 122.301443 
L 71.108937 122.99416 
L 85.142047 122.99416 
L 85.72676 120.193859 
L 92.743314 120.193859 
L 93.328027 121.360986 
L 96.251592 121.360986 
L 96.836305 121.794444 
L 99.175156 121.794444 
L 99.759869 122.307603 
L 112.03884 122.307603 
L 112.623553 122.896741 
L 136.012069 122.896741 
L 136.596782 121.053401 
L 141.859198 121.053401 
L 142.443911 120.33997 
L 146.536901 120.33997 
L 147.121614 119.481728 
L 345.339287 119.428596 
L 345.339287 119.428596 
" clip-path="url(#p48ed38109b)" style="fill: none; stroke: #dd8452; stroke-opacity: 0.3; stroke-width: 1.5; stroke-linecap: round"/>
   </g>
   <g id="line2d_58">
    <path d="M 53.56755 158.544975 
L 54.152263 158.544975 
L 54.736976 157.996584 
L 58.245253 158.04563 
L 58.829966 119.003563 
L 59.999392 119.003563 
L 60.584105 136.935091 
L 61.753531 136.935091 
L 62.338244 127.71053 
L 75.201927 127.71053 
L 75.78664 127.987403 
L 86.311472 127.987403 
L 86.896185 128.372351 
L 88.065611 128.372351 
L 88.650324 125.84331 
L 92.158601 125.700039 
L 98.00573 125.700039 
L 98.590443 122.649414 
L 111.454127 122.649414 
L 112.03884 119.804109 
L 112.623553 118.357481 
L 115.547117 118.357481 
L 116.13183 117.453257 
L 151.799317 117.453257 
L 152.38403 118.1638 
L 171.094843 118.213688 
L 171.679556 117.904986 
L 236.582688 117.904986 
L 237.167401 116.449821 
L 241.845104 116.449821 
L 242.429817 115.643386 
L 245.353381 115.666927 
L 345.339287 115.77168 
L 345.339287 115.77168 
" clip-path="url(#p48ed38109b)" style="fill: none; stroke: #dd8452; stroke-opacity: 0.3; stroke-width: 1.5; stroke-linecap: round"/>
   </g>
   <g id="line2d_59">
    <path d="M 53.56755 154.969923 
L 54.152263 157.713297 
L 55.906402 157.713297 
L 56.491115 151.645458 
L 57.075827 151.645458 
L 57.66054 152.23719 
L 58.829966 144.610267 
L 59.414679 133.503719 
L 59.999392 130.443418 
L 60.584105 125.763021 
L 62.338244 125.778362 
L 62.922956 119.656012 
L 63.507669 119.656012 
L 64.092382 115.517276 
L 64.677095 115.708645 
L 72.278363 115.708645 
L 72.863076 118.882687 
L 74.617214 118.882687 
L 75.201927 100.40713 
L 103.268147 100.40713 
L 103.852859 99.295901 
L 106.776424 99.295901 
L 107.361137 99.789743 
L 130.749653 99.789743 
L 131.334366 101.653884 
L 133.673217 101.653884 
L 134.25793 101.824199 
L 180.450249 101.824199 
L 181.034962 116.797198 
L 189.805656 116.797198 
L 190.390369 117.071428 
L 201.499914 117.071428 
L 202.084627 118.340332 
L 208.516469 118.340332 
L 209.101181 119.287857 
L 210.85532 119.287857 
L 211.440033 121.241268 
L 345.339287 121.256712 
L 345.339287 121.256712 
" clip-path="url(#p48ed38109b)" style="fill: none; stroke: #dd8452; stroke-opacity: 0.3; stroke-width: 1.5; stroke-linecap: round"/>
   </g>
   <g id="line2d_60">
    <path d="M 53.56755 163.490276 
L 54.152263 160.797782 
L 54.736976 160.797782 
L 55.321689 159.72978 
L 56.491115 159.72978 
L 57.075827 160.016471 
L 57.66054 160.016471 
L 58.245253 207.521936 
L 59.999392 207.521936 
L 60.584105 209.516887 
L 66.431234 209.516887 
L 67.015947 201.342921 
L 67.60066 206.504601 
L 71.108937 206.504601 
L 71.69365 195.69868 
L 77.540779 195.69868 
L 78.125492 196.947666 
L 78.710205 206.150947 
L 88.065611 206.150947 
L 88.650324 204.722356 
L 98.00573 204.722356 
L 98.590443 206.108241 
L 137.766208 206.108241 
L 138.350921 207.684535 
L 145.367475 207.684535 
L 145.952188 207.461381 
L 155.892308 207.507713 
L 157.061733 207.581407 
L 178.111398 207.581407 
L 178.696111 207.7533 
L 181.034962 207.7533 
L 181.619675 207.038356 
L 196.822211 207.038356 
L 197.406923 207.45711 
L 207.931756 207.45711 
L 208.516469 207.802165 
L 235.997975 207.802165 
L 236.582688 207.194635 
L 237.167401 207.324972 
L 278.097304 207.371338 
L 278.682017 208.170183 
L 281.605581 208.170183 
L 282.190294 207.815602 
L 287.45271 207.815602 
L 288.037423 209.46125 
L 288.622136 209.987003 
L 292.130413 209.987003 
L 292.715126 210.214576 
L 345.339287 210.21041 
L 345.339287 210.21041 
" clip-path="url(#p48ed38109b)" style="fill: none; stroke: #dd8452; stroke-opacity: 0.3; stroke-width: 1.5; stroke-linecap: round"/>
   </g>
   <g id="line2d_61">
    <path d="M 53.56755 173.064793 
L 54.152263 169.429023 
L 54.736976 169.781943 
L 55.321689 169.781943 
L 55.906402 170.74471 
L 57.66054 170.74471 
L 58.245253 154.400867 
L 59.414679 154.400867 
L 59.999392 132.679892 
L 60.584105 126.214223 
L 65.846521 126.214223 
L 66.431234 126.710539 
L 67.015947 124.509165 
L 68.770085 124.509165 
L 69.354798 125.012322 
L 72.278363 125.012322 
L 72.863076 124.444506 
L 83.387908 124.444506 
L 83.972621 124.277251 
L 96.836305 124.277251 
L 97.421018 124.804411 
L 100.929295 124.804411 
L 101.514008 124.60103 
L 127.826088 124.60103 
L 128.410801 119.912557 
L 130.16494 119.912557 
L 130.749653 119.577612 
L 134.25793 119.577612 
L 134.842643 117.965366 
L 136.596782 117.965366 
L 137.181495 117.058331 
L 345.339287 117.058331 
L 345.339287 117.058331 
" clip-path="url(#p48ed38109b)" style="fill: none; stroke: #dd8452; stroke-opacity: 0.3; stroke-width: 1.5; stroke-linecap: round"/>
   </g>
   <g id="line2d_62">
    <path d="M 53.56755 167.879986 
L 54.152263 162.591804 
L 54.736976 162.591804 
L 55.321689 162.196952 
L 55.906402 162.196952 
L 56.491115 161.114621 
L 57.075827 155.255015 
L 57.66054 155.255015 
L 58.245253 143.728817 
L 58.829966 143.728817 
L 59.414679 135.843839 
L 59.999392 135.612523 
L 61.168818 135.612523 
L 61.753531 134.726588 
L 62.338244 136.93175 
L 62.922956 136.93175 
L 63.507669 135.728523 
L 65.261808 135.728523 
L 65.846521 128.604911 
L 66.431234 128.604911 
L 67.015947 126.399661 
L 67.60066 126.399661 
L 68.185373 124.338324 
L 69.354798 124.338599 
L 69.939511 125.749984 
L 71.108937 125.749984 
L 71.69365 126.814796 
L 77.540779 126.814796 
L 78.125492 127.235854 
L 78.710205 124.598288 
L 79.879631 124.598288 
L 80.464343 122.54509 
L 82.803195 122.54509 
L 83.387908 124.770351 
L 93.91274 124.770351 
L 94.497453 124.598293 
L 106.776424 124.598293 
L 107.361137 122.537956 
L 345.339287 122.537956 
L 345.339287 122.537956 
" clip-path="url(#p48ed38109b)" style="fill: none; stroke: #dd8452; stroke-opacity: 0.3; stroke-width: 1.5; stroke-linecap: round"/>
   </g>
   <g id="line2d_63">
    <path d="M 53.56755 167.325601 
L 54.152263 163.727784 
L 57.66054 163.727784 
L 58.245253 158.639839 
L 58.829966 158.639839 
L 59.414679 158.308617 
L 61.753531 158.308617 
L 62.338244 168.357452 
L 64.092382 168.357452 
L 64.677095 170.746147 
L 65.261808 186.672475 
L 66.431234 186.672475 
L 67.015947 184.74546 
L 78.710205 184.74546 
L 79.294918 186.612601 
L 88.650324 186.612601 
L 89.235037 192.581072 
L 99.175156 192.581072 
L 99.759869 189.138213 
L 105.022285 189.138213 
L 105.606998 189.274265 
L 107.94585 189.274265 
L 108.530563 184.334559 
L 154.138169 184.334559 
L 154.722882 190.751976 
L 176.941972 190.751976 
L 177.526685 198.399904 
L 178.696111 198.399904 
L 179.280823 202.869407 
L 186.882091 202.869407 
L 187.466804 203.699645 
L 188.051517 205.521932 
L 197.406923 205.521932 
L 197.991636 206.675974 
L 202.084627 206.675974 
L 202.66934 206.521613 
L 206.76233 206.521613 
L 207.347043 206.140806 
L 248.276946 206.140806 
L 248.861659 206.736702 
L 345.339287 206.735454 
L 345.339287 206.735454 
" clip-path="url(#p48ed38109b)" style="fill: none; stroke: #dd8452; stroke-opacity: 0.3; stroke-width: 1.5; stroke-linecap: round"/>
   </g>
   <g id="line2d_64">
    <path d="M 53.56755 160.291268 
L 54.152263 160.291268 
L 54.736976 140.454646 
L 55.321689 130.407448 
L 55.906402 100.739385 
L 56.491115 80.513585 
L 57.075827 108.240102 
L 58.245253 108.240102 
L 58.829966 117.8838 
L 59.414679 117.8838 
L 59.999392 117.387289 
L 60.584105 117.387289 
L 61.168818 122.672852 
L 64.092382 122.672852 
L 64.677095 124.033318 
L 66.431234 124.033318 
L 67.015947 125.531317 
L 67.60066 125.531317 
L 68.185373 124.253375 
L 72.278363 124.253375 
L 73.447789 124.365693 
L 117.885969 124.317602 
L 118.470682 123.745992 
L 120.809534 123.745992 
L 121.394246 120.959071 
L 121.978959 121.183018 
L 122.563672 120.085356 
L 123.148385 115.805054 
L 128.995514 115.805054 
L 129.580227 115.948439 
L 133.673217 115.948439 
L 134.25793 116.071056 
L 345.339287 116.161652 
L 345.339287 116.161652 
" clip-path="url(#p48ed38109b)" style="fill: none; stroke: #dd8452; stroke-opacity: 0.3; stroke-width: 1.5; stroke-linecap: round"/>
   </g>
   <g id="patch_8">
    <path d="M 53.56755 181.044 
L 53.56755 102.798 
" style="fill: none; stroke: #262626; stroke-width: 1.25; stroke-linejoin: miter; stroke-linecap: square"/>
   </g>
   <g id="patch_9">
    <path d="M 345.924 181.044 
L 345.924 102.798 
" style="fill: none; stroke: #262626; stroke-width: 1.25; stroke-linejoin: miter; stroke-linecap: square"/>
   </g>
   <g id="patch_10">
    <path d="M 53.56755 181.044 
L 345.924 181.044 
" style="fill: none; stroke: #262626; stroke-width: 1.25; stroke-linejoin: miter; stroke-linecap: square"/>
   </g>
   <g id="patch_11">
    <path d="M 53.56755 102.798 
L 345.924 102.798 
" style="fill: none; stroke: #262626; stroke-width: 1.25; stroke-linejoin: miter; stroke-linecap: square"/>
   </g>
  </g>
 </g>
 <defs>
  <clipPath id="p4fd0ddfd60">
   <rect x="53.56755" y="10.296" width="292.35645" height="78.246"/>
  </clipPath>
  <clipPath id="p48ed38109b">
   <rect x="53.56755" y="102.798" width="292.35645" height="78.246"/>
  </clipPath>
 </defs>
</svg>
