<?xml version="1.0" encoding="utf-8" standalone="no"?>
<!DOCTYPE svg PUBLIC "-//W3C//DTD SVG 1.1//EN"
  "http://www.w3.org/Graphics/SVG/1.1/DTD/svg11.dtd">
<svg xmlns:xlink="http://www.w3.org/1999/xlink" width="504pt" height="144pt" viewBox="0 0 504 144" xmlns="http://www.w3.org/2000/svg" version="1.1">
 <metadata>
  <rdf:RDF xmlns:dc="http://purl.org/dc/elements/1.1/" xmlns:cc="http://creativecommons.org/ns#" xmlns:rdf="http://www.w3.org/1999/02/22-rdf-syntax-ns#">
   <cc:Work>
    <dc:type rdf:resource="http://purl.org/dc/dcmitype/StillImage"/>
    <dc:date>2024-11-12T12:41:54.402781</dc:date>
    <dc:format>image/svg+xml</dc:format>
    <dc:creator>
     <cc:Agent>
      <dc:title>Matplotlib v3.9.2, https://matplotlib.org/</dc:title>
     </cc:Agent>
    </dc:creator>
   </cc:Work>
  </rdf:RDF>
 </metadata>
 <defs>
  <style type="text/css">*{stroke-linejoin: round; stroke-linecap: butt}</style>
 </defs>
 <g id="figure_1">
  <g id="patch_1">
   <path d="M 0 144 
L 504 144 
L 504 0 
L 0 0 
z
" style="fill: #ffffff"/>
  </g>
  <g id="axes_1">
   <g id="patch_2">
    <path d="M 7.776 120.244 
L 87.6888 120.244 
L 87.6888 7.776 
L 7.776 7.776 
z
" style="fill: #ffffff"/>
   </g>
   <g id="matplotlib.axis_1">
    <g id="xtick_1">
     <g id="text_1">
      <!-- 1.5 -->
      <g style="fill: #262626" transform="translate(2.527969 134.758969) scale(0.066 -0.066)">
       <defs>
        <path id="DejaVuSans-31" d="M 794 531 
L 1825 531 
L 1825 4091 
L 703 3866 
L 703 4441 
L 1819 4666 
L 2450 4666 
L 2450 531 
L 3481 531 
L 3481 0 
L 794 0 
L 794 531 
z
" transform="scale(0.015625)"/>
        <path id="DejaVuSans-2e" d="M 684 794 
L 1344 794 
L 1344 0 
L 684 0 
L 684 794 
z
" transform="scale(0.015625)"/>
        <path id="DejaVuSans-35" d="M 691 4666 
L 3169 4666 
L 3169 4134 
L 1269 4134 
L 1269 2991 
Q 1406 3038 1543 3061 
Q 1681 3084 1819 3084 
Q 2600 3084 3056 2656 
Q 3513 2228 3513 1497 
Q 3513 744 3044 326 
Q 2575 -91 1722 -91 
Q 1428 -91 1123 -41 
Q 819 9 494 109 
L 494 744 
Q 775 591 1075 516 
Q 1375 441 1709 441 
Q 2250 441 2565 725 
Q 2881 1009 2881 1497 
Q 2881 1984 2565 2268 
Q 2250 2553 1709 2553 
Q 1456 2553 1204 2497 
Q 953 2441 691 2322 
L 691 4666 
z
" transform="scale(0.015625)"/>
       </defs>
       <use xlink:href="#DejaVuSans-31"/>
       <use xlink:href="#DejaVuSans-2e" x="63.623047"/>
       <use xlink:href="#DejaVuSans-35" x="95.410156"/>
      </g>
     </g>
    </g>
    <g id="xtick_2">
     <g id="text_2">
      <!-- 1.6 -->
      <g style="fill: #262626" transform="translate(22.506169 134.758969) scale(0.066 -0.066)">
       <defs>
        <path id="DejaVuSans-36" d="M 2113 2584 
Q 1688 2584 1439 2293 
Q 1191 2003 1191 1497 
Q 1191 994 1439 701 
Q 1688 409 2113 409 
Q 2538 409 2786 701 
Q 3034 994 3034 1497 
Q 3034 2003 2786 2293 
Q 2538 2584 2113 2584 
z
M 3366 4563 
L 3366 3988 
Q 3128 4100 2886 4159 
Q 2644 4219 2406 4219 
Q 1781 4219 1451 3797 
Q 1122 3375 1075 2522 
Q 1259 2794 1537 2939 
Q 1816 3084 2150 3084 
Q 2853 3084 3261 2657 
Q 3669 2231 3669 1497 
Q 3669 778 3244 343 
Q 2819 -91 2113 -91 
Q 1303 -91 875 529 
Q 447 1150 447 2328 
Q 447 3434 972 4092 
Q 1497 4750 2381 4750 
Q 2619 4750 2861 4703 
Q 3103 4656 3366 4563 
z
" transform="scale(0.015625)"/>
       </defs>
       <use xlink:href="#DejaVuSans-31"/>
       <use xlink:href="#DejaVuSans-2e" x="63.623047"/>
       <use xlink:href="#DejaVuSans-36" x="95.410156"/>
      </g>
     </g>
    </g>
    <g id="xtick_3">
     <g id="text_3">
      <!-- 1.7 -->
      <g style="fill: #262626" transform="translate(42.484369 134.758969) scale(0.066 -0.066)">
       <defs>
        <path id="DejaVuSans-37" d="M 525 4666 
L 3525 4666 
L 3525 4397 
L 1831 0 
L 1172 0 
L 2766 4134 
L 525 4134 
L 525 4666 
z
" transform="scale(0.015625)"/>
       </defs>
       <use xlink:href="#DejaVuSans-31"/>
       <use xlink:href="#DejaVuSans-2e" x="63.623047"/>
       <use xlink:href="#DejaVuSans-37" x="95.410156"/>
      </g>
     </g>
    </g>
    <g id="xtick_4">
     <g id="text_4">
      <!-- 1.8 -->
      <g style="fill: #262626" transform="translate(62.462569 134.758969) scale(0.066 -0.066)">
       <defs>
        <path id="DejaVuSans-38" d="M 2034 2216 
Q 1584 2216 1326 1975 
Q 1069 1734 1069 1313 
Q 1069 891 1326 650 
Q 1584 409 2034 409 
Q 2484 409 2743 651 
Q 3003 894 3003 1313 
Q 3003 1734 2745 1975 
Q 2488 2216 2034 2216 
z
M 1403 2484 
Q 997 2584 770 2862 
Q 544 3141 544 3541 
Q 544 4100 942 4425 
Q 1341 4750 2034 4750 
Q 2731 4750 3128 4425 
Q 3525 4100 3525 3541 
Q 3525 3141 3298 2862 
Q 3072 2584 2669 2484 
Q 3125 2378 3379 2068 
Q 3634 1759 3634 1313 
Q 3634 634 3220 271 
Q 2806 -91 2034 -91 
Q 1263 -91 848 271 
Q 434 634 434 1313 
Q 434 1759 690 2068 
Q 947 2378 1403 2484 
z
M 1172 3481 
Q 1172 3119 1398 2916 
Q 1625 2713 2034 2713 
Q 2441 2713 2670 2916 
Q 2900 3119 2900 3481 
Q 2900 3844 2670 4047 
Q 2441 4250 2034 4250 
Q 1625 4250 1398 4047 
Q 1172 3844 1172 3481 
z
" transform="scale(0.015625)"/>
       </defs>
       <use xlink:href="#DejaVuSans-31"/>
       <use xlink:href="#DejaVuSans-2e" x="63.623047"/>
       <use xlink:href="#DejaVuSans-38" x="95.410156"/>
      </g>
     </g>
    </g>
    <g id="xtick_5">
     <g id="text_5">
      <!-- 1.9 -->
      <g style="fill: #262626" transform="translate(82.440769 134.758969) scale(0.066 -0.066)">
       <defs>
        <path id="DejaVuSans-39" d="M 703 97 
L 703 672 
Q 941 559 1184 500 
Q 1428 441 1663 441 
Q 2288 441 2617 861 
Q 2947 1281 2994 2138 
Q 2813 1869 2534 1725 
Q 2256 1581 1919 1581 
Q 1219 1581 811 2004 
Q 403 2428 403 3163 
Q 403 3881 828 4315 
Q 1253 4750 1959 4750 
Q 2769 4750 3195 4129 
Q 3622 3509 3622 2328 
Q 3622 1225 3098 567 
Q 2575 -91 1691 -91 
Q 1453 -91 1209 -44 
Q 966 3 703 97 
z
M 1959 2075 
Q 2384 2075 2632 2365 
Q 2881 2656 2881 3163 
Q 2881 3666 2632 3958 
Q 2384 4250 1959 4250 
Q 1534 4250 1286 3958 
Q 1038 3666 1038 3163 
Q 1038 2656 1286 2365 
Q 1534 2075 1959 2075 
z
" transform="scale(0.015625)"/>
       </defs>
       <use xlink:href="#DejaVuSans-31"/>
       <use xlink:href="#DejaVuSans-2e" x="63.623047"/>
       <use xlink:href="#DejaVuSans-39" x="95.410156"/>
      </g>
     </g>
    </g>
   </g>
   <g id="matplotlib.axis_2"/>
   <g id="patch_3">
    <path d="M 8.389358 120.244 
L 8.389358 120.22816 
L 12.354246 120.22816 
L 12.354246 120.244 
L 16.319135 120.244 
L 16.319135 120.24312 
L 20.284023 120.24312 
L 20.284023 120.23784 
L 24.248911 120.23784 
L 24.248911 111.444763 
L 28.2138 111.444763 
L 28.2138 120.119038 
L 32.178688 120.119038 
L 32.178688 119.747673 
L 36.143577 119.747673 
L 36.143577 68.24411 
L 40.108465 68.24411 
L 40.108465 13.131619 
L 44.073353 13.131619 
L 44.073353 81.842051 
L 48.038242 81.842051 
L 48.038242 115.975943 
L 52.00313 115.975943 
L 52.00313 120.185039 
L 55.968018 120.185039 
L 55.968018 120.21496 
L 59.932907 120.21496 
L 59.932907 120.192959 
L 63.897795 120.192959 
L 63.897795 120.20968 
L 67.862683 120.20968 
L 67.862683 120.156879 
L 71.827572 120.156879 
L 71.827572 120.181519 
L 75.79246 120.181519 
L 75.79246 120.056558 
L 79.757348 120.056558 
L 79.757348 120.027517 
L 83.722237 120.027517 
L 83.722237 50.592836 
L 87.687125 50.592836 
L 87.687125 120.244 
" clip-path="url(#p303b0cf4d9)" style="fill: none; stroke: #4c72b0; stroke-width: 2; stroke-linejoin: miter"/>
   </g>
   <g id="patch_4">
    <path d="M 7.776 120.244 
L 7.776 7.776 
" style="fill: none; stroke: #262626; stroke-width: 1.25; stroke-linejoin: miter; stroke-linecap: square"/>
   </g>
   <g id="patch_5">
    <path d="M 87.6888 120.244 
L 87.6888 7.776 
" style="fill: none; stroke: #262626; stroke-width: 1.25; stroke-linejoin: miter; stroke-linecap: square"/>
   </g>
   <g id="patch_6">
    <path d="M 7.776 120.244 
L 87.6888 120.244 
" style="fill: none; stroke: #262626; stroke-width: 1.25; stroke-linejoin: miter; stroke-linecap: square"/>
   </g>
   <g id="patch_7">
    <path d="M 7.776 7.776 
L 87.6888 7.776 
" style="fill: none; stroke: #262626; stroke-width: 1.25; stroke-linejoin: miter; stroke-linecap: square"/>
   </g>
   <g id="text_6">
    <!-- Excited  -->
    <g style="fill: #262626" transform="translate(33.354337 -6.286425) scale(0.072 -0.072)">
     <defs>
      <path id="DejaVuSans-45" d="M 628 4666 
L 3578 4666 
L 3578 4134 
L 1259 4134 
L 1259 2753 
L 3481 2753 
L 3481 2222 
L 1259 2222 
L 1259 531 
L 3634 531 
L 3634 0 
L 628 0 
L 628 4666 
z
" transform="scale(0.015625)"/>
      <path id="DejaVuSans-78" d="M 3513 3500 
L 2247 1797 
L 3578 0 
L 2900 0 
L 1881 1375 
L 863 0 
L 184 0 
L 1544 1831 
L 300 3500 
L 978 3500 
L 1906 2253 
L 2834 3500 
L 3513 3500 
z
" transform="scale(0.015625)"/>
      <path id="DejaVuSans-63" d="M 3122 3366 
L 3122 2828 
Q 2878 2963 2633 3030 
Q 2388 3097 2138 3097 
Q 1578 3097 1268 2742 
Q 959 2388 959 1747 
Q 959 1106 1268 751 
Q 1578 397 2138 397 
Q 2388 397 2633 464 
Q 2878 531 3122 666 
L 3122 134 
Q 2881 22 2623 -34 
Q 2366 -91 2075 -91 
Q 1284 -91 818 406 
Q 353 903 353 1747 
Q 353 2603 823 3093 
Q 1294 3584 2113 3584 
Q 2378 3584 2631 3529 
Q 2884 3475 3122 3366 
z
" transform="scale(0.015625)"/>
      <path id="DejaVuSans-69" d="M 603 3500 
L 1178 3500 
L 1178 0 
L 603 0 
L 603 3500 
z
M 603 4863 
L 1178 4863 
L 1178 4134 
L 603 4134 
L 603 4863 
z
" transform="scale(0.015625)"/>
      <path id="DejaVuSans-74" d="M 1172 4494 
L 1172 3500 
L 2356 3500 
L 2356 3053 
L 1172 3053 
L 1172 1153 
Q 1172 725 1289 603 
Q 1406 481 1766 481 
L 2356 481 
L 2356 0 
L 1766 0 
Q 1100 0 847 248 
Q 594 497 594 1153 
L 594 3053 
L 172 3053 
L 172 3500 
L 594 3500 
L 594 4494 
L 1172 4494 
z
" transform="scale(0.015625)"/>
      <path id="DejaVuSans-65" d="M 3597 1894 
L 3597 1613 
L 953 1613 
Q 991 1019 1311 708 
Q 1631 397 2203 397 
Q 2534 397 2845 478 
Q 3156 559 3463 722 
L 3463 178 
Q 3153 47 2828 -22 
Q 2503 -91 2169 -91 
Q 1331 -91 842 396 
Q 353 884 353 1716 
Q 353 2575 817 3079 
Q 1281 3584 2069 3584 
Q 2775 3584 3186 3129 
Q 3597 2675 3597 1894 
z
M 3022 2063 
Q 3016 2534 2758 2815 
Q 2500 3097 2075 3097 
Q 1594 3097 1305 2825 
Q 1016 2553 972 2059 
L 3022 2063 
z
" transform="scale(0.015625)"/>
      <path id="DejaVuSans-64" d="M 2906 2969 
L 2906 4863 
L 3481 4863 
L 3481 0 
L 2906 0 
L 2906 525 
Q 2725 213 2448 61 
Q 2172 -91 1784 -91 
Q 1150 -91 751 415 
Q 353 922 353 1747 
Q 353 2572 751 3078 
Q 1150 3584 1784 3584 
Q 2172 3584 2448 3432 
Q 2725 3281 2906 2969 
z
M 947 1747 
Q 947 1113 1208 752 
Q 1469 391 1925 391 
Q 2381 391 2643 752 
Q 2906 1113 2906 1747 
Q 2906 2381 2643 2742 
Q 2381 3103 1925 3103 
Q 1469 3103 1208 2742 
Q 947 2381 947 1747 
z
" transform="scale(0.015625)"/>
      <path id="DejaVuSans-20" transform="scale(0.015625)"/>
     </defs>
     <use xlink:href="#DejaVuSans-45"/>
     <use xlink:href="#DejaVuSans-78" x="63.183594"/>
     <use xlink:href="#DejaVuSans-63" x="120.613281"/>
     <use xlink:href="#DejaVuSans-69" x="175.59375"/>
     <use xlink:href="#DejaVuSans-74" x="203.376953"/>
     <use xlink:href="#DejaVuSans-65" x="242.585938"/>
     <use xlink:href="#DejaVuSans-64" x="304.109375"/>
     <use xlink:href="#DejaVuSans-20" x="367.585938"/>
    </g>
    <!--  state energy (eV) -->
    <g style="fill: #262626" transform="translate(15.149025 1.776) scale(0.072 -0.072)">
     <defs>
      <path id="DejaVuSans-73" d="M 2834 3397 
L 2834 2853 
Q 2591 2978 2328 3040 
Q 2066 3103 1784 3103 
Q 1356 3103 1142 2972 
Q 928 2841 928 2578 
Q 928 2378 1081 2264 
Q 1234 2150 1697 2047 
L 1894 2003 
Q 2506 1872 2764 1633 
Q 3022 1394 3022 966 
Q 3022 478 2636 193 
Q 2250 -91 1575 -91 
Q 1294 -91 989 -36 
Q 684 19 347 128 
L 347 722 
Q 666 556 975 473 
Q 1284 391 1588 391 
Q 1994 391 2212 530 
Q 2431 669 2431 922 
Q 2431 1156 2273 1281 
Q 2116 1406 1581 1522 
L 1381 1569 
Q 847 1681 609 1914 
Q 372 2147 372 2553 
Q 372 3047 722 3315 
Q 1072 3584 1716 3584 
Q 2034 3584 2315 3537 
Q 2597 3491 2834 3397 
z
" transform="scale(0.015625)"/>
      <path id="DejaVuSans-61" d="M 2194 1759 
Q 1497 1759 1228 1600 
Q 959 1441 959 1056 
Q 959 750 1161 570 
Q 1363 391 1709 391 
Q 2188 391 2477 730 
Q 2766 1069 2766 1631 
L 2766 1759 
L 2194 1759 
z
M 3341 1997 
L 3341 0 
L 2766 0 
L 2766 531 
Q 2569 213 2275 61 
Q 1981 -91 1556 -91 
Q 1019 -91 701 211 
Q 384 513 384 1019 
Q 384 1609 779 1909 
Q 1175 2209 1959 2209 
L 2766 2209 
L 2766 2266 
Q 2766 2663 2505 2880 
Q 2244 3097 1772 3097 
Q 1472 3097 1187 3025 
Q 903 2953 641 2809 
L 641 3341 
Q 956 3463 1253 3523 
Q 1550 3584 1831 3584 
Q 2591 3584 2966 3190 
Q 3341 2797 3341 1997 
z
" transform="scale(0.015625)"/>
      <path id="DejaVuSans-6e" d="M 3513 2113 
L 3513 0 
L 2938 0 
L 2938 2094 
Q 2938 2591 2744 2837 
Q 2550 3084 2163 3084 
Q 1697 3084 1428 2787 
Q 1159 2491 1159 1978 
L 1159 0 
L 581 0 
L 581 3500 
L 1159 3500 
L 1159 2956 
Q 1366 3272 1645 3428 
Q 1925 3584 2291 3584 
Q 2894 3584 3203 3211 
Q 3513 2838 3513 2113 
z
" transform="scale(0.015625)"/>
      <path id="DejaVuSans-72" d="M 2631 2963 
Q 2534 3019 2420 3045 
Q 2306 3072 2169 3072 
Q 1681 3072 1420 2755 
Q 1159 2438 1159 1844 
L 1159 0 
L 581 0 
L 581 3500 
L 1159 3500 
L 1159 2956 
Q 1341 3275 1631 3429 
Q 1922 3584 2338 3584 
Q 2397 3584 2469 3576 
Q 2541 3569 2628 3553 
L 2631 2963 
z
" transform="scale(0.015625)"/>
      <path id="DejaVuSans-67" d="M 2906 1791 
Q 2906 2416 2648 2759 
Q 2391 3103 1925 3103 
Q 1463 3103 1205 2759 
Q 947 2416 947 1791 
Q 947 1169 1205 825 
Q 1463 481 1925 481 
Q 2391 481 2648 825 
Q 2906 1169 2906 1791 
z
M 3481 434 
Q 3481 -459 3084 -895 
Q 2688 -1331 1869 -1331 
Q 1566 -1331 1297 -1286 
Q 1028 -1241 775 -1147 
L 775 -588 
Q 1028 -725 1275 -790 
Q 1522 -856 1778 -856 
Q 2344 -856 2625 -561 
Q 2906 -266 2906 331 
L 2906 616 
Q 2728 306 2450 153 
Q 2172 0 1784 0 
Q 1141 0 747 490 
Q 353 981 353 1791 
Q 353 2603 747 3093 
Q 1141 3584 1784 3584 
Q 2172 3584 2450 3431 
Q 2728 3278 2906 2969 
L 2906 3500 
L 3481 3500 
L 3481 434 
z
" transform="scale(0.015625)"/>
      <path id="DejaVuSans-79" d="M 2059 -325 
Q 1816 -950 1584 -1140 
Q 1353 -1331 966 -1331 
L 506 -1331 
L 506 -850 
L 844 -850 
Q 1081 -850 1212 -737 
Q 1344 -625 1503 -206 
L 1606 56 
L 191 3500 
L 800 3500 
L 1894 763 
L 2988 3500 
L 3597 3500 
L 2059 -325 
z
" transform="scale(0.015625)"/>
      <path id="DejaVuSans-28" d="M 1984 4856 
Q 1566 4138 1362 3434 
Q 1159 2731 1159 2009 
Q 1159 1288 1364 580 
Q 1569 -128 1984 -844 
L 1484 -844 
Q 1016 -109 783 600 
Q 550 1309 550 2009 
Q 550 2706 781 3412 
Q 1013 4119 1484 4856 
L 1984 4856 
z
" transform="scale(0.015625)"/>
      <path id="DejaVuSans-56" d="M 1831 0 
L 50 4666 
L 709 4666 
L 2188 738 
L 3669 4666 
L 4325 4666 
L 2547 0 
L 1831 0 
z
" transform="scale(0.015625)"/>
      <path id="DejaVuSans-29" d="M 513 4856 
L 1013 4856 
Q 1481 4119 1714 3412 
Q 1947 2706 1947 2009 
Q 1947 1309 1714 600 
Q 1481 -109 1013 -844 
L 513 -844 
Q 928 -128 1133 580 
Q 1338 1288 1338 2009 
Q 1338 2731 1133 3434 
Q 928 4138 513 4856 
z
" transform="scale(0.015625)"/>
     </defs>
     <use xlink:href="#DejaVuSans-20"/>
     <use xlink:href="#DejaVuSans-73" x="31.787109"/>
     <use xlink:href="#DejaVuSans-74" x="83.886719"/>
     <use xlink:href="#DejaVuSans-61" x="123.095703"/>
     <use xlink:href="#DejaVuSans-74" x="184.375"/>
     <use xlink:href="#DejaVuSans-65" x="223.583984"/>
     <use xlink:href="#DejaVuSans-20" x="285.107422"/>
     <use xlink:href="#DejaVuSans-65" x="316.894531"/>
     <use xlink:href="#DejaVuSans-6e" x="378.417969"/>
     <use xlink:href="#DejaVuSans-65" x="441.796875"/>
     <use xlink:href="#DejaVuSans-72" x="503.320312"/>
     <use xlink:href="#DejaVuSans-67" x="542.683594"/>
     <use xlink:href="#DejaVuSans-79" x="606.160156"/>
     <use xlink:href="#DejaVuSans-20" x="665.339844"/>
     <use xlink:href="#DejaVuSans-28" x="697.126953"/>
     <use xlink:href="#DejaVuSans-65" x="736.140625"/>
     <use xlink:href="#DejaVuSans-56" x="797.664062"/>
     <use xlink:href="#DejaVuSans-29" x="866.072266"/>
    </g>
   </g>
  </g>
  <g id="axes_2">
   <g id="patch_8">
    <path d="M 108.0648 120.244 
L 187.9776 120.244 
L 187.9776 7.776 
L 108.0648 7.776 
z
" style="fill: #ffffff"/>
   </g>
   <g id="matplotlib.axis_3">
    <g id="xtick_6">
     <g id="text_7">
      <!-- 0.025 -->
      <g style="fill: #262626" transform="translate(117.990319 134.758969) scale(0.066 -0.066)">
       <defs>
        <path id="DejaVuSans-30" d="M 2034 4250 
Q 1547 4250 1301 3770 
Q 1056 3291 1056 2328 
Q 1056 1369 1301 889 
Q 1547 409 2034 409 
Q 2525 409 2770 889 
Q 3016 1369 3016 2328 
Q 3016 3291 2770 3770 
Q 2525 4250 2034 4250 
z
M 2034 4750 
Q 2819 4750 3233 4129 
Q 3647 3509 3647 2328 
Q 3647 1150 3233 529 
Q 2819 -91 2034 -91 
Q 1250 -91 836 529 
Q 422 1150 422 2328 
Q 422 3509 836 4129 
Q 1250 4750 2034 4750 
z
" transform="scale(0.015625)"/>
        <path id="DejaVuSans-32" d="M 1228 531 
L 3431 531 
L 3431 0 
L 469 0 
L 469 531 
Q 828 903 1448 1529 
Q 2069 2156 2228 2338 
Q 2531 2678 2651 2914 
Q 2772 3150 2772 3378 
Q 2772 3750 2511 3984 
Q 2250 4219 1831 4219 
Q 1534 4219 1204 4116 
Q 875 4013 500 3803 
L 500 4441 
Q 881 4594 1212 4672 
Q 1544 4750 1819 4750 
Q 2544 4750 2975 4387 
Q 3406 4025 3406 3419 
Q 3406 3131 3298 2873 
Q 3191 2616 2906 2266 
Q 2828 2175 2409 1742 
Q 1991 1309 1228 531 
z
" transform="scale(0.015625)"/>
       </defs>
       <use xlink:href="#DejaVuSans-30"/>
       <use xlink:href="#DejaVuSans-2e" x="63.623047"/>
       <use xlink:href="#DejaVuSans-30" x="95.410156"/>
       <use xlink:href="#DejaVuSans-32" x="159.033203"/>
       <use xlink:href="#DejaVuSans-35" x="222.65625"/>
      </g>
     </g>
    </g>
    <g id="xtick_7">
     <g id="text_8">
      <!-- 0.050 -->
      <g style="fill: #262626" transform="translate(138.170319 134.758969) scale(0.066 -0.066)">
       <use xlink:href="#DejaVuSans-30"/>
       <use xlink:href="#DejaVuSans-2e" x="63.623047"/>
       <use xlink:href="#DejaVuSans-30" x="95.410156"/>
       <use xlink:href="#DejaVuSans-35" x="159.033203"/>
       <use xlink:href="#DejaVuSans-30" x="222.65625"/>
      </g>
     </g>
    </g>
    <g id="xtick_8">
     <g id="text_9">
      <!-- 0.075 -->
      <g style="fill: #262626" transform="translate(158.350319 134.758969) scale(0.066 -0.066)">
       <use xlink:href="#DejaVuSans-30"/>
       <use xlink:href="#DejaVuSans-2e" x="63.623047"/>
       <use xlink:href="#DejaVuSans-30" x="95.410156"/>
       <use xlink:href="#DejaVuSans-37" x="159.033203"/>
       <use xlink:href="#DejaVuSans-35" x="222.65625"/>
      </g>
     </g>
    </g>
    <g id="xtick_9">
     <g id="text_10">
      <!-- 0.100 -->
      <g style="fill: #262626" transform="translate(178.530319 134.758969) scale(0.066 -0.066)">
       <use xlink:href="#DejaVuSans-30"/>
       <use xlink:href="#DejaVuSans-2e" x="63.623047"/>
       <use xlink:href="#DejaVuSans-31" x="95.410156"/>
       <use xlink:href="#DejaVuSans-30" x="159.033203"/>
       <use xlink:href="#DejaVuSans-30" x="222.65625"/>
      </g>
     </g>
    </g>
   </g>
   <g id="matplotlib.axis_4"/>
   <g id="patch_9">
    <path d="M 108.112292 120.244 
L 108.112292 13.131619 
L 111.96053 13.131619 
L 111.96053 99.667189 
L 115.808768 99.667189 
L 115.808768 119.424712 
L 119.657005 119.424712 
L 119.657005 120.159419 
L 123.505243 120.159419 
L 123.505243 120.174472 
L 127.353481 120.174472 
L 127.353481 120.160853 
L 131.201719 120.160853 
L 131.201719 120.006027 
L 135.049956 120.006027 
L 135.049956 120.089174 
L 138.898194 120.089174 
L 138.898194 119.973054 
L 142.746432 119.973054 
L 142.746432 119.533664 
L 146.59467 119.533664 
L 146.59467 119.062018 
L 150.442907 119.062018 
L 150.442907 101.100047 
L 154.291145 101.100047 
L 154.291145 65.746668 
L 158.139383 65.746668 
L 158.139383 96.686071 
L 161.987621 96.686071 
L 161.987621 119.398908 
L 165.835858 119.398908 
L 165.835858 120.233248 
L 169.684096 120.233248 
L 169.684096 120.244 
L 173.532334 120.244 
L 173.532334 120.233965 
L 177.380572 120.233965 
L 177.380572 120.244 
L 181.228809 120.244 
L 181.228809 120.238982 
L 185.077047 120.238982 
L 185.077047 120.244 
" clip-path="url(#pb024878dd5)" style="fill: none; stroke: #dd8452; stroke-width: 2; stroke-linejoin: miter"/>
   </g>
   <g id="patch_10">
    <path d="M 108.0648 120.244 
L 108.0648 7.776 
" style="fill: none; stroke: #262626; stroke-width: 1.25; stroke-linejoin: miter; stroke-linecap: square"/>
   </g>
   <g id="patch_11">
    <path d="M 187.9776 120.244 
L 187.9776 7.776 
" style="fill: none; stroke: #262626; stroke-width: 1.25; stroke-linejoin: miter; stroke-linecap: square"/>
   </g>
   <g id="patch_12">
    <path d="M 108.0648 120.244 
L 187.9776 120.244 
" style="fill: none; stroke: #262626; stroke-width: 1.25; stroke-linejoin: miter; stroke-linecap: square"/>
   </g>
   <g id="patch_13">
    <path d="M 108.0648 7.776 
L 187.9776 7.776 
" style="fill: none; stroke: #262626; stroke-width: 1.25; stroke-linejoin: miter; stroke-linecap: square"/>
   </g>
   <g id="text_11">
    <!-- Excited  -->
    <g style="fill: #262626" transform="translate(133.643137 -6.286425) scale(0.072 -0.072)">
     <use xlink:href="#DejaVuSans-45"/>
     <use xlink:href="#DejaVuSans-78" x="63.183594"/>
     <use xlink:href="#DejaVuSans-63" x="120.613281"/>
     <use xlink:href="#DejaVuSans-69" x="175.59375"/>
     <use xlink:href="#DejaVuSans-74" x="203.376953"/>
     <use xlink:href="#DejaVuSans-65" x="242.585938"/>
     <use xlink:href="#DejaVuSans-64" x="304.109375"/>
     <use xlink:href="#DejaVuSans-20" x="367.585938"/>
    </g>
    <!--  state disorder (eV) -->
    <g style="fill: #262626" transform="translate(113.221575 1.776) scale(0.072 -0.072)">
     <defs>
      <path id="DejaVuSans-6f" d="M 1959 3097 
Q 1497 3097 1228 2736 
Q 959 2375 959 1747 
Q 959 1119 1226 758 
Q 1494 397 1959 397 
Q 2419 397 2687 759 
Q 2956 1122 2956 1747 
Q 2956 2369 2687 2733 
Q 2419 3097 1959 3097 
z
M 1959 3584 
Q 2709 3584 3137 3096 
Q 3566 2609 3566 1747 
Q 3566 888 3137 398 
Q 2709 -91 1959 -91 
Q 1206 -91 779 398 
Q 353 888 353 1747 
Q 353 2609 779 3096 
Q 1206 3584 1959 3584 
z
" transform="scale(0.015625)"/>
     </defs>
     <use xlink:href="#DejaVuSans-20"/>
     <use xlink:href="#DejaVuSans-73" x="31.787109"/>
     <use xlink:href="#DejaVuSans-74" x="83.886719"/>
     <use xlink:href="#DejaVuSans-61" x="123.095703"/>
     <use xlink:href="#DejaVuSans-74" x="184.375"/>
     <use xlink:href="#DejaVuSans-65" x="223.583984"/>
     <use xlink:href="#DejaVuSans-20" x="285.107422"/>
     <use xlink:href="#DejaVuSans-64" x="316.894531"/>
     <use xlink:href="#DejaVuSans-69" x="380.371094"/>
     <use xlink:href="#DejaVuSans-73" x="408.154297"/>
     <use xlink:href="#DejaVuSans-6f" x="460.253906"/>
     <use xlink:href="#DejaVuSans-72" x="521.435547"/>
     <use xlink:href="#DejaVuSans-64" x="560.798828"/>
     <use xlink:href="#DejaVuSans-65" x="624.275391"/>
     <use xlink:href="#DejaVuSans-72" x="685.798828"/>
     <use xlink:href="#DejaVuSans-20" x="726.912109"/>
     <use xlink:href="#DejaVuSans-28" x="758.699219"/>
     <use xlink:href="#DejaVuSans-65" x="797.712891"/>
     <use xlink:href="#DejaVuSans-56" x="859.236328"/>
     <use xlink:href="#DejaVuSans-29" x="927.644531"/>
    </g>
   </g>
  </g>
  <g id="axes_3">
   <g id="patch_14">
    <path d="M 208.3536 120.244 
L 288.2664 120.244 
L 288.2664 7.776 
L 208.3536 7.776 
z
" style="fill: #ffffff"/>
   </g>
   <g id="matplotlib.axis_5">
    <g id="xtick_10">
     <g id="text_12">
      <!-- 0.075 -->
      <g style="fill: #262626" transform="translate(213.889969 134.758969) scale(0.066 -0.066)">
       <use xlink:href="#DejaVuSans-30"/>
       <use xlink:href="#DejaVuSans-2e" x="63.623047"/>
       <use xlink:href="#DejaVuSans-30" x="95.410156"/>
       <use xlink:href="#DejaVuSans-37" x="159.033203"/>
       <use xlink:href="#DejaVuSans-35" x="222.65625"/>
      </g>
     </g>
    </g>
    <g id="xtick_11">
     <g id="text_13">
      <!-- 0.100 -->
      <g style="fill: #262626" transform="translate(238.862719 134.758969) scale(0.066 -0.066)">
       <use xlink:href="#DejaVuSans-30"/>
       <use xlink:href="#DejaVuSans-2e" x="63.623047"/>
       <use xlink:href="#DejaVuSans-31" x="95.410156"/>
       <use xlink:href="#DejaVuSans-30" x="159.033203"/>
       <use xlink:href="#DejaVuSans-30" x="222.65625"/>
      </g>
     </g>
    </g>
    <g id="xtick_12">
     <g id="text_14">
      <!-- 0.125 -->
      <g style="fill: #262626" transform="translate(263.835469 134.758969) scale(0.066 -0.066)">
       <use xlink:href="#DejaVuSans-30"/>
       <use xlink:href="#DejaVuSans-2e" x="63.623047"/>
       <use xlink:href="#DejaVuSans-31" x="95.410156"/>
       <use xlink:href="#DejaVuSans-32" x="159.033203"/>
       <use xlink:href="#DejaVuSans-35" x="222.65625"/>
      </g>
     </g>
    </g>
   </g>
   <g id="matplotlib.axis_6"/>
   <g id="patch_15">
    <path d="M 178.424713 120.244 
L 178.424713 25.16522 
L 185.054754 25.16522 
L 185.054754 119.847723 
L 191.684794 119.847723 
L 191.684794 120.182757 
L 198.314834 120.182757 
L 198.314834 120.117912 
L 204.944875 120.117912 
L 204.944875 119.9582 
L 211.574915 119.9582 
L 211.574915 120.223586 
L 218.204955 120.223586 
L 218.204955 120.113109 
L 224.834995 120.113109 
L 224.834995 120.183958 
L 231.465036 120.183958 
L 231.465036 120.145531 
L 238.095076 120.145531 
L 238.095076 120.04346 
L 244.725116 120.04346 
L 244.725116 106.721359 
L 251.355157 106.721359 
L 251.355157 49.892884 
L 257.985197 49.892884 
L 257.985197 120.019443 
L 264.615237 120.019443 
L 264.615237 13.131619 
L 271.245277 13.131619 
L 271.245277 45.772808 
L 277.875318 45.772808 
L 277.875318 98.337106 
L 284.505358 98.337106 
L 284.505358 120.081887 
L 291.135398 120.081887 
L 291.135398 120.18636 
L 297.765438 120.18636 
L 297.765438 120.244 
L 304.395479 120.244 
L 304.395479 120.242799 
L 311.025519 120.242799 
L 311.025519 120.244 
" clip-path="url(#p11b5399f4a)" style="fill: none; stroke: #55a868; stroke-width: 2; stroke-linejoin: miter"/>
   </g>
   <g id="patch_16">
    <path d="M 208.3536 120.244 
L 208.3536 7.776 
" style="fill: none; stroke: #262626; stroke-width: 1.25; stroke-linejoin: miter; stroke-linecap: square"/>
   </g>
   <g id="patch_17">
    <path d="M 288.2664 120.244 
L 288.2664 7.776 
" style="fill: none; stroke: #262626; stroke-width: 1.25; stroke-linejoin: miter; stroke-linecap: square"/>
   </g>
   <g id="patch_18">
    <path d="M 208.3536 120.244 
L 288.2664 120.244 
" style="fill: none; stroke: #262626; stroke-width: 1.25; stroke-linejoin: miter; stroke-linecap: square"/>
   </g>
   <g id="patch_19">
    <path d="M 208.3536 7.776 
L 288.2664 7.776 
" style="fill: none; stroke: #262626; stroke-width: 1.25; stroke-linejoin: miter; stroke-linecap: square"/>
   </g>
   <g id="text_15">
    <!-- High Frequency  -->
    <g style="fill: #262626" transform="translate(219.15 -6.286425) scale(0.072 -0.072)">
     <defs>
      <path id="DejaVuSans-48" d="M 628 4666 
L 1259 4666 
L 1259 2753 
L 3553 2753 
L 3553 4666 
L 4184 4666 
L 4184 0 
L 3553 0 
L 3553 2222 
L 1259 2222 
L 1259 0 
L 628 0 
L 628 4666 
z
" transform="scale(0.015625)"/>
      <path id="DejaVuSans-68" d="M 3513 2113 
L 3513 0 
L 2938 0 
L 2938 2094 
Q 2938 2591 2744 2837 
Q 2550 3084 2163 3084 
Q 1697 3084 1428 2787 
Q 1159 2491 1159 1978 
L 1159 0 
L 581 0 
L 581 4863 
L 1159 4863 
L 1159 2956 
Q 1366 3272 1645 3428 
Q 1925 3584 2291 3584 
Q 2894 3584 3203 3211 
Q 3513 2838 3513 2113 
z
" transform="scale(0.015625)"/>
      <path id="DejaVuSans-46" d="M 628 4666 
L 3309 4666 
L 3309 4134 
L 1259 4134 
L 1259 2759 
L 3109 2759 
L 3109 2228 
L 1259 2228 
L 1259 0 
L 628 0 
L 628 4666 
z
" transform="scale(0.015625)"/>
      <path id="DejaVuSans-71" d="M 947 1747 
Q 947 1113 1208 752 
Q 1469 391 1925 391 
Q 2381 391 2643 752 
Q 2906 1113 2906 1747 
Q 2906 2381 2643 2742 
Q 2381 3103 1925 3103 
Q 1469 3103 1208 2742 
Q 947 2381 947 1747 
z
M 2906 525 
Q 2725 213 2448 61 
Q 2172 -91 1784 -91 
Q 1150 -91 751 415 
Q 353 922 353 1747 
Q 353 2572 751 3078 
Q 1150 3584 1784 3584 
Q 2172 3584 2448 3432 
Q 2725 3281 2906 2969 
L 2906 3500 
L 3481 3500 
L 3481 -1331 
L 2906 -1331 
L 2906 525 
z
" transform="scale(0.015625)"/>
      <path id="DejaVuSans-75" d="M 544 1381 
L 544 3500 
L 1119 3500 
L 1119 1403 
Q 1119 906 1312 657 
Q 1506 409 1894 409 
Q 2359 409 2629 706 
Q 2900 1003 2900 1516 
L 2900 3500 
L 3475 3500 
L 3475 0 
L 2900 0 
L 2900 538 
Q 2691 219 2414 64 
Q 2138 -91 1772 -91 
Q 1169 -91 856 284 
Q 544 659 544 1381 
z
M 1991 3584 
L 1991 3584 
z
" transform="scale(0.015625)"/>
     </defs>
     <use xlink:href="#DejaVuSans-48"/>
     <use xlink:href="#DejaVuSans-69" x="75.195312"/>
     <use xlink:href="#DejaVuSans-67" x="102.978516"/>
     <use xlink:href="#DejaVuSans-68" x="166.455078"/>
     <use xlink:href="#DejaVuSans-20" x="229.833984"/>
     <use xlink:href="#DejaVuSans-46" x="261.621094"/>
     <use xlink:href="#DejaVuSans-72" x="311.890625"/>
     <use xlink:href="#DejaVuSans-65" x="350.753906"/>
     <use xlink:href="#DejaVuSans-71" x="412.277344"/>
     <use xlink:href="#DejaVuSans-75" x="475.753906"/>
     <use xlink:href="#DejaVuSans-65" x="539.132812"/>
     <use xlink:href="#DejaVuSans-6e" x="600.65625"/>
     <use xlink:href="#DejaVuSans-63" x="664.035156"/>
     <use xlink:href="#DejaVuSans-79" x="719.015625"/>
     <use xlink:href="#DejaVuSans-20" x="778.195312"/>
    </g>
    <!--  reorganisation energy (eV) -->
    <g style="fill: #262626" transform="translate(198.86175 1.776) scale(0.072 -0.072)">
     <use xlink:href="#DejaVuSans-20"/>
     <use xlink:href="#DejaVuSans-72" x="31.787109"/>
     <use xlink:href="#DejaVuSans-65" x="70.650391"/>
     <use xlink:href="#DejaVuSans-6f" x="132.173828"/>
     <use xlink:href="#DejaVuSans-72" x="193.355469"/>
     <use xlink:href="#DejaVuSans-67" x="232.71875"/>
     <use xlink:href="#DejaVuSans-61" x="296.195312"/>
     <use xlink:href="#DejaVuSans-6e" x="357.474609"/>
     <use xlink:href="#DejaVuSans-69" x="420.853516"/>
     <use xlink:href="#DejaVuSans-73" x="448.636719"/>
     <use xlink:href="#DejaVuSans-61" x="500.736328"/>
     <use xlink:href="#DejaVuSans-74" x="562.015625"/>
     <use xlink:href="#DejaVuSans-69" x="601.224609"/>
     <use xlink:href="#DejaVuSans-6f" x="629.007812"/>
     <use xlink:href="#DejaVuSans-6e" x="690.189453"/>
     <use xlink:href="#DejaVuSans-20" x="753.568359"/>
     <use xlink:href="#DejaVuSans-65" x="785.355469"/>
     <use xlink:href="#DejaVuSans-6e" x="846.878906"/>
     <use xlink:href="#DejaVuSans-65" x="910.257812"/>
     <use xlink:href="#DejaVuSans-72" x="971.78125"/>
     <use xlink:href="#DejaVuSans-67" x="1011.144531"/>
     <use xlink:href="#DejaVuSans-79" x="1074.621094"/>
     <use xlink:href="#DejaVuSans-20" x="1133.800781"/>
     <use xlink:href="#DejaVuSans-28" x="1165.587891"/>
     <use xlink:href="#DejaVuSans-65" x="1204.601562"/>
     <use xlink:href="#DejaVuSans-56" x="1266.125"/>
     <use xlink:href="#DejaVuSans-29" x="1334.533203"/>
    </g>
   </g>
  </g>
  <g id="axes_4">
   <g id="patch_20">
    <path d="M 308.6424 120.244 
L 388.5552 120.244 
L 388.5552 7.776 
L 308.6424 7.776 
z
" style="fill: #ffffff"/>
   </g>
   <g id="matplotlib.axis_7">
    <g id="xtick_13">
     <g id="text_16">
      <!-- 0.075 -->
      <g style="fill: #262626" transform="translate(311.182039 134.758969) scale(0.066 -0.066)">
       <use xlink:href="#DejaVuSans-30"/>
       <use xlink:href="#DejaVuSans-2e" x="63.623047"/>
       <use xlink:href="#DejaVuSans-30" x="95.410156"/>
       <use xlink:href="#DejaVuSans-37" x="159.033203"/>
       <use xlink:href="#DejaVuSans-35" x="222.65625"/>
      </g>
     </g>
    </g>
    <g id="xtick_14">
     <g id="text_17">
      <!-- 0.100 -->
      <g style="fill: #262626" transform="translate(331.160239 134.758969) scale(0.066 -0.066)">
       <use xlink:href="#DejaVuSans-30"/>
       <use xlink:href="#DejaVuSans-2e" x="63.623047"/>
       <use xlink:href="#DejaVuSans-31" x="95.410156"/>
       <use xlink:href="#DejaVuSans-30" x="159.033203"/>
       <use xlink:href="#DejaVuSans-30" x="222.65625"/>
      </g>
     </g>
    </g>
    <g id="xtick_15">
     <g id="text_18">
      <!-- 0.125 -->
      <g style="fill: #262626" transform="translate(351.138439 134.758969) scale(0.066 -0.066)">
       <use xlink:href="#DejaVuSans-30"/>
       <use xlink:href="#DejaVuSans-2e" x="63.623047"/>
       <use xlink:href="#DejaVuSans-31" x="95.410156"/>
       <use xlink:href="#DejaVuSans-32" x="159.033203"/>
       <use xlink:href="#DejaVuSans-35" x="222.65625"/>
      </g>
     </g>
    </g>
    <g id="xtick_16">
     <g id="text_19">
      <!-- 0.150 -->
      <g style="fill: #262626" transform="translate(371.116639 134.758969) scale(0.066 -0.066)">
       <use xlink:href="#DejaVuSans-30"/>
       <use xlink:href="#DejaVuSans-2e" x="63.623047"/>
       <use xlink:href="#DejaVuSans-31" x="95.410156"/>
       <use xlink:href="#DejaVuSans-35" x="159.033203"/>
       <use xlink:href="#DejaVuSans-30" x="222.65625"/>
      </g>
     </g>
    </g>
   </g>
   <g id="matplotlib.axis_8"/>
   <g id="patch_21">
    <path d="M 284.716758 120.244 
L 284.716758 13.131619 
L 290.136383 13.131619 
L 290.136383 119.813907 
L 295.556009 119.813907 
L 295.556009 119.74679 
L 300.975634 119.74679 
L 300.975634 119.683783 
L 306.39526 119.683783 
L 306.39526 107.417909 
L 311.814885 107.417909 
L 311.814885 106.309802 
L 317.234511 106.309802 
L 317.234511 96.692973 
L 322.654136 96.692973 
L 322.654136 59.125566 
L 328.073762 59.125566 
L 328.073762 69.542313 
L 333.493387 69.542313 
L 333.493387 94.545247 
L 338.913013 94.545247 
L 338.913013 105.507144 
L 344.332638 105.507144 
L 344.332638 117.603173 
L 349.752263 117.603173 
L 349.752263 119.812537 
L 355.171889 119.812537 
L 355.171889 117.937386 
L 360.591514 117.937386 
L 360.591514 86.791242 
L 366.01114 86.791242 
L 366.01114 49.658037 
L 371.430765 49.658037 
L 371.430765 106.794685 
L 376.850391 106.794685 
L 376.850391 116.193727 
L 382.270016 116.193727 
L 382.270016 120.042651 
L 387.689642 120.042651 
L 387.689642 120.217975 
L 393.109267 120.217975 
L 393.109267 120.244 
" clip-path="url(#p2074d37629)" style="fill: none; stroke: #c44e52; stroke-width: 2; stroke-linejoin: miter"/>
   </g>
   <g id="patch_22">
    <path d="M 308.6424 120.244 
L 308.6424 7.776 
" style="fill: none; stroke: #262626; stroke-width: 1.25; stroke-linejoin: miter; stroke-linecap: square"/>
   </g>
   <g id="patch_23">
    <path d="M 388.5552 120.244 
L 388.5552 7.776 
" style="fill: none; stroke: #262626; stroke-width: 1.25; stroke-linejoin: miter; stroke-linecap: square"/>
   </g>
   <g id="patch_24">
    <path d="M 308.6424 120.244 
L 388.5552 120.244 
" style="fill: none; stroke: #262626; stroke-width: 1.25; stroke-linejoin: miter; stroke-linecap: square"/>
   </g>
   <g id="patch_25">
    <path d="M 308.6424 7.776 
L 388.5552 7.776 
" style="fill: none; stroke: #262626; stroke-width: 1.25; stroke-linejoin: miter; stroke-linecap: square"/>
   </g>
   <g id="text_20">
    <!-- Low Frequency  -->
    <g style="fill: #262626" transform="translate(320.623425 -6.286425) scale(0.072 -0.072)">
     <defs>
      <path id="DejaVuSans-4c" d="M 628 4666 
L 1259 4666 
L 1259 531 
L 3531 531 
L 3531 0 
L 628 0 
L 628 4666 
z
" transform="scale(0.015625)"/>
      <path id="DejaVuSans-77" d="M 269 3500 
L 844 3500 
L 1563 769 
L 2278 3500 
L 2956 3500 
L 3675 769 
L 4391 3500 
L 4966 3500 
L 4050 0 
L 3372 0 
L 2619 2869 
L 1863 0 
L 1184 0 
L 269 3500 
z
" transform="scale(0.015625)"/>
     </defs>
     <use xlink:href="#DejaVuSans-4c"/>
     <use xlink:href="#DejaVuSans-6f" x="53.962891"/>
     <use xlink:href="#DejaVuSans-77" x="115.144531"/>
     <use xlink:href="#DejaVuSans-20" x="196.931641"/>
     <use xlink:href="#DejaVuSans-46" x="228.71875"/>
     <use xlink:href="#DejaVuSans-72" x="278.988281"/>
     <use xlink:href="#DejaVuSans-65" x="317.851562"/>
     <use xlink:href="#DejaVuSans-71" x="379.375"/>
     <use xlink:href="#DejaVuSans-75" x="442.851562"/>
     <use xlink:href="#DejaVuSans-65" x="506.230469"/>
     <use xlink:href="#DejaVuSans-6e" x="567.753906"/>
     <use xlink:href="#DejaVuSans-63" x="631.132812"/>
     <use xlink:href="#DejaVuSans-79" x="686.113281"/>
     <use xlink:href="#DejaVuSans-20" x="745.292969"/>
    </g>
    <!--  reorganisation energy (eV) -->
    <g style="fill: #262626" transform="translate(299.15055 1.776) scale(0.072 -0.072)">
     <use xlink:href="#DejaVuSans-20"/>
     <use xlink:href="#DejaVuSans-72" x="31.787109"/>
     <use xlink:href="#DejaVuSans-65" x="70.650391"/>
     <use xlink:href="#DejaVuSans-6f" x="132.173828"/>
     <use xlink:href="#DejaVuSans-72" x="193.355469"/>
     <use xlink:href="#DejaVuSans-67" x="232.71875"/>
     <use xlink:href="#DejaVuSans-61" x="296.195312"/>
     <use xlink:href="#DejaVuSans-6e" x="357.474609"/>
     <use xlink:href="#DejaVuSans-69" x="420.853516"/>
     <use xlink:href="#DejaVuSans-73" x="448.636719"/>
     <use xlink:href="#DejaVuSans-61" x="500.736328"/>
     <use xlink:href="#DejaVuSans-74" x="562.015625"/>
     <use xlink:href="#DejaVuSans-69" x="601.224609"/>
     <use xlink:href="#DejaVuSans-6f" x="629.007812"/>
     <use xlink:href="#DejaVuSans-6e" x="690.189453"/>
     <use xlink:href="#DejaVuSans-20" x="753.568359"/>
     <use xlink:href="#DejaVuSans-65" x="785.355469"/>
     <use xlink:href="#DejaVuSans-6e" x="846.878906"/>
     <use xlink:href="#DejaVuSans-65" x="910.257812"/>
     <use xlink:href="#DejaVuSans-72" x="971.78125"/>
     <use xlink:href="#DejaVuSans-67" x="1011.144531"/>
     <use xlink:href="#DejaVuSans-79" x="1074.621094"/>
     <use xlink:href="#DejaVuSans-20" x="1133.800781"/>
     <use xlink:href="#DejaVuSans-28" x="1165.587891"/>
     <use xlink:href="#DejaVuSans-65" x="1204.601562"/>
     <use xlink:href="#DejaVuSans-56" x="1266.125"/>
     <use xlink:href="#DejaVuSans-29" x="1334.533203"/>
    </g>
   </g>
  </g>
  <g id="axes_5">
   <g id="patch_26">
    <path d="M 408.9312 120.244 
L 488.844 120.244 
L 488.844 7.776 
L 408.9312 7.776 
z
" style="fill: #ffffff"/>
   </g>
   <g id="matplotlib.axis_9">
    <g id="xtick_17">
     <g id="text_21">
      <!-- 0.100 -->
      <g style="fill: #262626" transform="translate(399.483919 134.758969) scale(0.066 -0.066)">
       <use xlink:href="#DejaVuSans-30"/>
       <use xlink:href="#DejaVuSans-2e" x="63.623047"/>
       <use xlink:href="#DejaVuSans-31" x="95.410156"/>
       <use xlink:href="#DejaVuSans-30" x="159.033203"/>
       <use xlink:href="#DejaVuSans-30" x="222.65625"/>
      </g>
     </g>
    </g>
    <g id="xtick_18">
     <g id="text_22">
      <!-- 0.125 -->
      <g style="fill: #262626" transform="translate(419.462119 134.758969) scale(0.066 -0.066)">
       <use xlink:href="#DejaVuSans-30"/>
       <use xlink:href="#DejaVuSans-2e" x="63.623047"/>
       <use xlink:href="#DejaVuSans-31" x="95.410156"/>
       <use xlink:href="#DejaVuSans-32" x="159.033203"/>
       <use xlink:href="#DejaVuSans-35" x="222.65625"/>
      </g>
     </g>
    </g>
    <g id="xtick_19">
     <g id="text_23">
      <!-- 0.150 -->
      <g style="fill: #262626" transform="translate(439.440319 134.758969) scale(0.066 -0.066)">
       <use xlink:href="#DejaVuSans-30"/>
       <use xlink:href="#DejaVuSans-2e" x="63.623047"/>
       <use xlink:href="#DejaVuSans-31" x="95.410156"/>
       <use xlink:href="#DejaVuSans-35" x="159.033203"/>
       <use xlink:href="#DejaVuSans-30" x="222.65625"/>
      </g>
     </g>
    </g>
    <g id="xtick_20">
     <g id="text_24">
      <!-- 0.175 -->
      <g style="fill: #262626" transform="translate(459.418519 134.758969) scale(0.066 -0.066)">
       <use xlink:href="#DejaVuSans-30"/>
       <use xlink:href="#DejaVuSans-2e" x="63.623047"/>
       <use xlink:href="#DejaVuSans-31" x="95.410156"/>
       <use xlink:href="#DejaVuSans-37" x="159.033203"/>
       <use xlink:href="#DejaVuSans-35" x="222.65625"/>
      </g>
     </g>
    </g>
    <g id="xtick_21">
     <g id="text_25">
      <!-- 0.200 -->
      <g style="fill: #262626" transform="translate(479.396719 134.758969) scale(0.066 -0.066)">
       <use xlink:href="#DejaVuSans-30"/>
       <use xlink:href="#DejaVuSans-2e" x="63.623047"/>
       <use xlink:href="#DejaVuSans-32" x="95.410156"/>
       <use xlink:href="#DejaVuSans-30" x="159.033203"/>
       <use xlink:href="#DejaVuSans-30" x="222.65625"/>
      </g>
     </g>
    </g>
   </g>
   <g id="matplotlib.axis_10"/>
   <g id="patch_27">
    <path d="M 419.966403 120.244 
L 419.966403 120.243435 
L 422.843095 120.243435 
L 422.843095 120.244 
L 425.719786 120.244 
L 425.719786 120.237215 
L 428.596477 120.237215 
L 428.596477 120.243435 
L 431.473169 120.243435 
L 431.473169 120.232692 
L 434.34986 120.232692 
L 434.34986 120.22421 
L 437.226551 120.22421 
L 437.226551 120.238346 
L 440.103242 120.238346 
L 440.103242 120.184631 
L 442.979934 120.184631 
L 442.979934 120.183501 
L 445.856625 120.183501 
L 445.856625 106.703986 
L 448.733316 106.703986 
L 448.733316 105.703766 
L 451.610008 105.703766 
L 451.610008 13.131619 
L 454.486699 13.131619 
L 454.486699 114.631117 
L 457.36339 114.631117 
L 457.36339 119.922844 
L 460.240082 119.922844 
L 460.240082 119.905316 
L 463.116773 119.905316 
L 463.116773 118.178536 
L 465.993464 118.178536 
L 465.993464 85.559129 
L 468.870156 85.559129 
L 468.870156 117.712068 
L 471.746847 117.712068 
L 471.746847 120.227038 
L 474.623538 120.227038 
L 474.623538 120.240042 
L 477.50023 120.240042 
L 477.50023 120.244 
" clip-path="url(#pd907c0c3f6)" style="fill: none; stroke: #8172b3; stroke-width: 2; stroke-linejoin: miter"/>
   </g>
   <g id="patch_28">
    <path d="M 408.9312 120.244 
L 408.9312 7.776 
" style="fill: none; stroke: #262626; stroke-width: 1.25; stroke-linejoin: miter; stroke-linecap: square"/>
   </g>
   <g id="patch_29">
    <path d="M 488.844 120.244 
L 488.844 7.776 
" style="fill: none; stroke: #262626; stroke-width: 1.25; stroke-linejoin: miter; stroke-linecap: square"/>
   </g>
   <g id="patch_30">
    <path d="M 408.9312 120.244 
L 488.844 120.244 
" style="fill: none; stroke: #262626; stroke-width: 1.25; stroke-linejoin: miter; stroke-linecap: square"/>
   </g>
   <g id="patch_31">
    <path d="M 408.9312 7.776 
L 488.844 7.776 
" style="fill: none; stroke: #262626; stroke-width: 1.25; stroke-linejoin: miter; stroke-linecap: square"/>
   </g>
   <g id="text_26">
    <!-- Vibrational  -->
    <g style="fill: #262626" transform="translate(428.288288 -6.286425) scale(0.072 -0.072)">
     <defs>
      <path id="DejaVuSans-62" d="M 3116 1747 
Q 3116 2381 2855 2742 
Q 2594 3103 2138 3103 
Q 1681 3103 1420 2742 
Q 1159 2381 1159 1747 
Q 1159 1113 1420 752 
Q 1681 391 2138 391 
Q 2594 391 2855 752 
Q 3116 1113 3116 1747 
z
M 1159 2969 
Q 1341 3281 1617 3432 
Q 1894 3584 2278 3584 
Q 2916 3584 3314 3078 
Q 3713 2572 3713 1747 
Q 3713 922 3314 415 
Q 2916 -91 2278 -91 
Q 1894 -91 1617 61 
Q 1341 213 1159 525 
L 1159 0 
L 581 0 
L 581 4863 
L 1159 4863 
L 1159 2969 
z
" transform="scale(0.015625)"/>
      <path id="DejaVuSans-6c" d="M 603 4863 
L 1178 4863 
L 1178 0 
L 603 0 
L 603 4863 
z
" transform="scale(0.015625)"/>
     </defs>
     <use xlink:href="#DejaVuSans-56"/>
     <use xlink:href="#DejaVuSans-69" x="66.158203"/>
     <use xlink:href="#DejaVuSans-62" x="93.941406"/>
     <use xlink:href="#DejaVuSans-72" x="157.417969"/>
     <use xlink:href="#DejaVuSans-61" x="198.53125"/>
     <use xlink:href="#DejaVuSans-74" x="259.810547"/>
     <use xlink:href="#DejaVuSans-69" x="299.019531"/>
     <use xlink:href="#DejaVuSans-6f" x="326.802734"/>
     <use xlink:href="#DejaVuSans-6e" x="387.984375"/>
     <use xlink:href="#DejaVuSans-61" x="451.363281"/>
     <use xlink:href="#DejaVuSans-6c" x="512.642578"/>
     <use xlink:href="#DejaVuSans-20" x="540.425781"/>
    </g>
    <!--  reorganisation energy (eV) -->
    <g style="fill: #262626" transform="translate(399.43935 1.776) scale(0.072 -0.072)">
     <use xlink:href="#DejaVuSans-20"/>
     <use xlink:href="#DejaVuSans-72" x="31.787109"/>
     <use xlink:href="#DejaVuSans-65" x="70.650391"/>
     <use xlink:href="#DejaVuSans-6f" x="132.173828"/>
     <use xlink:href="#DejaVuSans-72" x="193.355469"/>
     <use xlink:href="#DejaVuSans-67" x="232.71875"/>
     <use xlink:href="#DejaVuSans-61" x="296.195312"/>
     <use xlink:href="#DejaVuSans-6e" x="357.474609"/>
     <use xlink:href="#DejaVuSans-69" x="420.853516"/>
     <use xlink:href="#DejaVuSans-73" x="448.636719"/>
     <use xlink:href="#DejaVuSans-61" x="500.736328"/>
     <use xlink:href="#DejaVuSans-74" x="562.015625"/>
     <use xlink:href="#DejaVuSans-69" x="601.224609"/>
     <use xlink:href="#DejaVuSans-6f" x="629.007812"/>
     <use xlink:href="#DejaVuSans-6e" x="690.189453"/>
     <use xlink:href="#DejaVuSans-20" x="753.568359"/>
     <use xlink:href="#DejaVuSans-65" x="785.355469"/>
     <use xlink:href="#DejaVuSans-6e" x="846.878906"/>
     <use xlink:href="#DejaVuSans-65" x="910.257812"/>
     <use xlink:href="#DejaVuSans-72" x="971.78125"/>
     <use xlink:href="#DejaVuSans-67" x="1011.144531"/>
     <use xlink:href="#DejaVuSans-79" x="1074.621094"/>
     <use xlink:href="#DejaVuSans-20" x="1133.800781"/>
     <use xlink:href="#DejaVuSans-28" x="1165.587891"/>
     <use xlink:href="#DejaVuSans-65" x="1204.601562"/>
     <use xlink:href="#DejaVuSans-56" x="1266.125"/>
     <use xlink:href="#DejaVuSans-29" x="1334.533203"/>
    </g>
   </g>
  </g>
 </g>
 <defs>
  <clipPath id="p303b0cf4d9">
   <rect x="7.776" y="7.776" width="79.9128" height="112.468"/>
  </clipPath>
  <clipPath id="pb024878dd5">
   <rect x="108.0648" y="7.776" width="79.9128" height="112.468"/>
  </clipPath>
  <clipPath id="p11b5399f4a">
   <rect x="208.3536" y="7.776" width="79.9128" height="112.468"/>
  </clipPath>
  <clipPath id="p2074d37629">
   <rect x="308.6424" y="7.776" width="79.9128" height="112.468"/>
  </clipPath>
  <clipPath id="pd907c0c3f6">
   <rect x="408.9312" y="7.776" width="79.9128" height="112.468"/>
  </clipPath>
 </defs>
</svg>
