<?xml version="1.0" encoding="utf-8" standalone="no"?>
<!DOCTYPE svg PUBLIC "-//W3C//DTD SVG 1.1//EN"
  "http://www.w3.org/Graphics/SVG/1.1/DTD/svg11.dtd">
<svg xmlns:xlink="http://www.w3.org/1999/xlink" width="360pt" height="216pt" viewBox="0 0 360 216" xmlns="http://www.w3.org/2000/svg" version="1.1">
 <metadata>
  <rdf:RDF xmlns:dc="http://purl.org/dc/elements/1.1/" xmlns:cc="http://creativecommons.org/ns#" xmlns:rdf="http://www.w3.org/1999/02/22-rdf-syntax-ns#">
   <cc:Work>
    <dc:type rdf:resource="http://purl.org/dc/dcmitype/StillImage"/>
    <dc:date>2024-11-12T12:31:35.460652</dc:date>
    <dc:format>image/svg+xml</dc:format>
    <dc:creator>
     <cc:Agent>
      <dc:title>Matplotlib v3.9.2, https://matplotlib.org/</dc:title>
     </cc:Agent>
    </dc:creator>
   </cc:Work>
  </rdf:RDF>
 </metadata>
 <defs>
  <style type="text/css">*{stroke-linejoin: round; stroke-linecap: butt}</style>
 </defs>
 <g id="figure_1">
  <g id="patch_1">
   <path d="M 0 216 
L 360 216 
L 360 0 
L 0 0 
z
" style="fill: #ffffff"/>
  </g>
  <g id="axes_1">
   <g id="patch_2">
    <path d="M 46.206 173.844 
L 352.224 173.844 
L 352.224 7.776 
L 46.206 7.776 
z
" style="fill: #ffffff"/>
   </g>
   <g id="matplotlib.axis_1">
    <g id="xtick_1">
     <g id="text_1">
      <!-- 1.1 -->
      <g style="fill: #262626" transform="translate(54.867878 188.358969) scale(0.066 -0.066)">
       <defs>
        <path id="DejaVuSans-31" d="M 794 531 
L 1825 531 
L 1825 4091 
L 703 3866 
L 703 4441 
L 1819 4666 
L 2450 4666 
L 2450 531 
L 3481 531 
L 3481 0 
L 794 0 
L 794 531 
z
" transform="scale(0.015625)"/>
        <path id="DejaVuSans-2e" d="M 684 794 
L 1344 794 
L 1344 0 
L 684 0 
L 684 794 
z
" transform="scale(0.015625)"/>
       </defs>
       <use xlink:href="#DejaVuSans-31"/>
       <use xlink:href="#DejaVuSans-2e" x="63.623047"/>
       <use xlink:href="#DejaVuSans-31" x="95.410156"/>
      </g>
     </g>
    </g>
    <g id="xtick_2">
     <g id="text_2">
      <!-- 1.2 -->
      <g style="fill: #262626" transform="translate(97.019118 188.358969) scale(0.066 -0.066)">
       <defs>
        <path id="DejaVuSans-32" d="M 1228 531 
L 3431 531 
L 3431 0 
L 469 0 
L 469 531 
Q 828 903 1448 1529 
Q 2069 2156 2228 2338 
Q 2531 2678 2651 2914 
Q 2772 3150 2772 3378 
Q 2772 3750 2511 3984 
Q 2250 4219 1831 4219 
Q 1534 4219 1204 4116 
Q 875 4013 500 3803 
L 500 4441 
Q 881 4594 1212 4672 
Q 1544 4750 1819 4750 
Q 2544 4750 2975 4387 
Q 3406 4025 3406 3419 
Q 3406 3131 3298 2873 
Q 3191 2616 2906 2266 
Q 2828 2175 2409 1742 
Q 1991 1309 1228 531 
z
" transform="scale(0.015625)"/>
       </defs>
       <use xlink:href="#DejaVuSans-31"/>
       <use xlink:href="#DejaVuSans-2e" x="63.623047"/>
       <use xlink:href="#DejaVuSans-32" x="95.410156"/>
      </g>
     </g>
    </g>
    <g id="xtick_3">
     <g id="text_3">
      <!-- 1.3 -->
      <g style="fill: #262626" transform="translate(139.170357 188.358969) scale(0.066 -0.066)">
       <defs>
        <path id="DejaVuSans-33" d="M 2597 2516 
Q 3050 2419 3304 2112 
Q 3559 1806 3559 1356 
Q 3559 666 3084 287 
Q 2609 -91 1734 -91 
Q 1441 -91 1130 -33 
Q 819 25 488 141 
L 488 750 
Q 750 597 1062 519 
Q 1375 441 1716 441 
Q 2309 441 2620 675 
Q 2931 909 2931 1356 
Q 2931 1769 2642 2001 
Q 2353 2234 1838 2234 
L 1294 2234 
L 1294 2753 
L 1863 2753 
Q 2328 2753 2575 2939 
Q 2822 3125 2822 3475 
Q 2822 3834 2567 4026 
Q 2313 4219 1838 4219 
Q 1578 4219 1281 4162 
Q 984 4106 628 3988 
L 628 4550 
Q 988 4650 1302 4700 
Q 1616 4750 1894 4750 
Q 2613 4750 3031 4423 
Q 3450 4097 3450 3541 
Q 3450 3153 3228 2886 
Q 3006 2619 2597 2516 
z
" transform="scale(0.015625)"/>
       </defs>
       <use xlink:href="#DejaVuSans-31"/>
       <use xlink:href="#DejaVuSans-2e" x="63.623047"/>
       <use xlink:href="#DejaVuSans-33" x="95.410156"/>
      </g>
     </g>
    </g>
    <g id="xtick_4">
     <g id="text_4">
      <!-- 1.4 -->
      <g style="fill: #262626" transform="translate(181.321597 188.358969) scale(0.066 -0.066)">
       <defs>
        <path id="DejaVuSans-34" d="M 2419 4116 
L 825 1625 
L 2419 1625 
L 2419 4116 
z
M 2253 4666 
L 3047 4666 
L 3047 1625 
L 3713 1625 
L 3713 1100 
L 3047 1100 
L 3047 0 
L 2419 0 
L 2419 1100 
L 313 1100 
L 313 1709 
L 2253 4666 
z
" transform="scale(0.015625)"/>
       </defs>
       <use xlink:href="#DejaVuSans-31"/>
       <use xlink:href="#DejaVuSans-2e" x="63.623047"/>
       <use xlink:href="#DejaVuSans-34" x="95.410156"/>
      </g>
     </g>
    </g>
    <g id="xtick_5">
     <g id="text_5">
      <!-- 1.5 -->
      <g style="fill: #262626" transform="translate(223.472837 188.358969) scale(0.066 -0.066)">
       <defs>
        <path id="DejaVuSans-35" d="M 691 4666 
L 3169 4666 
L 3169 4134 
L 1269 4134 
L 1269 2991 
Q 1406 3038 1543 3061 
Q 1681 3084 1819 3084 
Q 2600 3084 3056 2656 
Q 3513 2228 3513 1497 
Q 3513 744 3044 326 
Q 2575 -91 1722 -91 
Q 1428 -91 1123 -41 
Q 819 9 494 109 
L 494 744 
Q 775 591 1075 516 
Q 1375 441 1709 441 
Q 2250 441 2565 725 
Q 2881 1009 2881 1497 
Q 2881 1984 2565 2268 
Q 2250 2553 1709 2553 
Q 1456 2553 1204 2497 
Q 953 2441 691 2322 
L 691 4666 
z
" transform="scale(0.015625)"/>
       </defs>
       <use xlink:href="#DejaVuSans-31"/>
       <use xlink:href="#DejaVuSans-2e" x="63.623047"/>
       <use xlink:href="#DejaVuSans-35" x="95.410156"/>
      </g>
     </g>
    </g>
    <g id="xtick_6">
     <g id="text_6">
      <!-- 1.6 -->
      <g style="fill: #262626" transform="translate(265.624076 188.358969) scale(0.066 -0.066)">
       <defs>
        <path id="DejaVuSans-36" d="M 2113 2584 
Q 1688 2584 1439 2293 
Q 1191 2003 1191 1497 
Q 1191 994 1439 701 
Q 1688 409 2113 409 
Q 2538 409 2786 701 
Q 3034 994 3034 1497 
Q 3034 2003 2786 2293 
Q 2538 2584 2113 2584 
z
M 3366 4563 
L 3366 3988 
Q 3128 4100 2886 4159 
Q 2644 4219 2406 4219 
Q 1781 4219 1451 3797 
Q 1122 3375 1075 2522 
Q 1259 2794 1537 2939 
Q 1816 3084 2150 3084 
Q 2853 3084 3261 2657 
Q 3669 2231 3669 1497 
Q 3669 778 3244 343 
Q 2819 -91 2113 -91 
Q 1303 -91 875 529 
Q 447 1150 447 2328 
Q 447 3434 972 4092 
Q 1497 4750 2381 4750 
Q 2619 4750 2861 4703 
Q 3103 4656 3366 4563 
z
" transform="scale(0.015625)"/>
       </defs>
       <use xlink:href="#DejaVuSans-31"/>
       <use xlink:href="#DejaVuSans-2e" x="63.623047"/>
       <use xlink:href="#DejaVuSans-36" x="95.410156"/>
      </g>
     </g>
    </g>
    <g id="xtick_7">
     <g id="text_7">
      <!-- 1.7 -->
      <g style="fill: #262626" transform="translate(307.775316 188.358969) scale(0.066 -0.066)">
       <defs>
        <path id="DejaVuSans-37" d="M 525 4666 
L 3525 4666 
L 3525 4397 
L 1831 0 
L 1172 0 
L 2766 4134 
L 525 4134 
L 525 4666 
z
" transform="scale(0.015625)"/>
       </defs>
       <use xlink:href="#DejaVuSans-31"/>
       <use xlink:href="#DejaVuSans-2e" x="63.623047"/>
       <use xlink:href="#DejaVuSans-37" x="95.410156"/>
      </g>
     </g>
    </g>
    <g id="text_8">
     <!-- Photon Energy (eV) -->
     <g style="fill: #262626" transform="translate(126.443906 205.129219) scale(0.15 -0.15)">
      <defs>
       <path id="DejaVuSans-50" d="M 1259 4147 
L 1259 2394 
L 2053 2394 
Q 2494 2394 2734 2622 
Q 2975 2850 2975 3272 
Q 2975 3691 2734 3919 
Q 2494 4147 2053 4147 
L 1259 4147 
z
M 628 4666 
L 2053 4666 
Q 2838 4666 3239 4311 
Q 3641 3956 3641 3272 
Q 3641 2581 3239 2228 
Q 2838 1875 2053 1875 
L 1259 1875 
L 1259 0 
L 628 0 
L 628 4666 
z
" transform="scale(0.015625)"/>
       <path id="DejaVuSans-68" d="M 3513 2113 
L 3513 0 
L 2938 0 
L 2938 2094 
Q 2938 2591 2744 2837 
Q 2550 3084 2163 3084 
Q 1697 3084 1428 2787 
Q 1159 2491 1159 1978 
L 1159 0 
L 581 0 
L 581 4863 
L 1159 4863 
L 1159 2956 
Q 1366 3272 1645 3428 
Q 1925 3584 2291 3584 
Q 2894 3584 3203 3211 
Q 3513 2838 3513 2113 
z
" transform="scale(0.015625)"/>
       <path id="DejaVuSans-6f" d="M 1959 3097 
Q 1497 3097 1228 2736 
Q 959 2375 959 1747 
Q 959 1119 1226 758 
Q 1494 397 1959 397 
Q 2419 397 2687 759 
Q 2956 1122 2956 1747 
Q 2956 2369 2687 2733 
Q 2419 3097 1959 3097 
z
M 1959 3584 
Q 2709 3584 3137 3096 
Q 3566 2609 3566 1747 
Q 3566 888 3137 398 
Q 2709 -91 1959 -91 
Q 1206 -91 779 398 
Q 353 888 353 1747 
Q 353 2609 779 3096 
Q 1206 3584 1959 3584 
z
" transform="scale(0.015625)"/>
       <path id="DejaVuSans-74" d="M 1172 4494 
L 1172 3500 
L 2356 3500 
L 2356 3053 
L 1172 3053 
L 1172 1153 
Q 1172 725 1289 603 
Q 1406 481 1766 481 
L 2356 481 
L 2356 0 
L 1766 0 
Q 1100 0 847 248 
Q 594 497 594 1153 
L 594 3053 
L 172 3053 
L 172 3500 
L 594 3500 
L 594 4494 
L 1172 4494 
z
" transform="scale(0.015625)"/>
       <path id="DejaVuSans-6e" d="M 3513 2113 
L 3513 0 
L 2938 0 
L 2938 2094 
Q 2938 2591 2744 2837 
Q 2550 3084 2163 3084 
Q 1697 3084 1428 2787 
Q 1159 2491 1159 1978 
L 1159 0 
L 581 0 
L 581 3500 
L 1159 3500 
L 1159 2956 
Q 1366 3272 1645 3428 
Q 1925 3584 2291 3584 
Q 2894 3584 3203 3211 
Q 3513 2838 3513 2113 
z
" transform="scale(0.015625)"/>
       <path id="DejaVuSans-20" transform="scale(0.015625)"/>
       <path id="DejaVuSans-45" d="M 628 4666 
L 3578 4666 
L 3578 4134 
L 1259 4134 
L 1259 2753 
L 3481 2753 
L 3481 2222 
L 1259 2222 
L 1259 531 
L 3634 531 
L 3634 0 
L 628 0 
L 628 4666 
z
" transform="scale(0.015625)"/>
       <path id="DejaVuSans-65" d="M 3597 1894 
L 3597 1613 
L 953 1613 
Q 991 1019 1311 708 
Q 1631 397 2203 397 
Q 2534 397 2845 478 
Q 3156 559 3463 722 
L 3463 178 
Q 3153 47 2828 -22 
Q 2503 -91 2169 -91 
Q 1331 -91 842 396 
Q 353 884 353 1716 
Q 353 2575 817 3079 
Q 1281 3584 2069 3584 
Q 2775 3584 3186 3129 
Q 3597 2675 3597 1894 
z
M 3022 2063 
Q 3016 2534 2758 2815 
Q 2500 3097 2075 3097 
Q 1594 3097 1305 2825 
Q 1016 2553 972 2059 
L 3022 2063 
z
" transform="scale(0.015625)"/>
       <path id="DejaVuSans-72" d="M 2631 2963 
Q 2534 3019 2420 3045 
Q 2306 3072 2169 3072 
Q 1681 3072 1420 2755 
Q 1159 2438 1159 1844 
L 1159 0 
L 581 0 
L 581 3500 
L 1159 3500 
L 1159 2956 
Q 1341 3275 1631 3429 
Q 1922 3584 2338 3584 
Q 2397 3584 2469 3576 
Q 2541 3569 2628 3553 
L 2631 2963 
z
" transform="scale(0.015625)"/>
       <path id="DejaVuSans-67" d="M 2906 1791 
Q 2906 2416 2648 2759 
Q 2391 3103 1925 3103 
Q 1463 3103 1205 2759 
Q 947 2416 947 1791 
Q 947 1169 1205 825 
Q 1463 481 1925 481 
Q 2391 481 2648 825 
Q 2906 1169 2906 1791 
z
M 3481 434 
Q 3481 -459 3084 -895 
Q 2688 -1331 1869 -1331 
Q 1566 -1331 1297 -1286 
Q 1028 -1241 775 -1147 
L 775 -588 
Q 1028 -725 1275 -790 
Q 1522 -856 1778 -856 
Q 2344 -856 2625 -561 
Q 2906 -266 2906 331 
L 2906 616 
Q 2728 306 2450 153 
Q 2172 0 1784 0 
Q 1141 0 747 490 
Q 353 981 353 1791 
Q 353 2603 747 3093 
Q 1141 3584 1784 3584 
Q 2172 3584 2450 3431 
Q 2728 3278 2906 2969 
L 2906 3500 
L 3481 3500 
L 3481 434 
z
" transform="scale(0.015625)"/>
       <path id="DejaVuSans-79" d="M 2059 -325 
Q 1816 -950 1584 -1140 
Q 1353 -1331 966 -1331 
L 506 -1331 
L 506 -850 
L 844 -850 
Q 1081 -850 1212 -737 
Q 1344 -625 1503 -206 
L 1606 56 
L 191 3500 
L 800 3500 
L 1894 763 
L 2988 3500 
L 3597 3500 
L 2059 -325 
z
" transform="scale(0.015625)"/>
       <path id="DejaVuSans-28" d="M 1984 4856 
Q 1566 4138 1362 3434 
Q 1159 2731 1159 2009 
Q 1159 1288 1364 580 
Q 1569 -128 1984 -844 
L 1484 -844 
Q 1016 -109 783 600 
Q 550 1309 550 2009 
Q 550 2706 781 3412 
Q 1013 4119 1484 4856 
L 1984 4856 
z
" transform="scale(0.015625)"/>
       <path id="DejaVuSans-56" d="M 1831 0 
L 50 4666 
L 709 4666 
L 2188 738 
L 3669 4666 
L 4325 4666 
L 2547 0 
L 1831 0 
z
" transform="scale(0.015625)"/>
       <path id="DejaVuSans-29" d="M 513 4856 
L 1013 4856 
Q 1481 4119 1714 3412 
Q 1947 2706 1947 2009 
Q 1947 1309 1714 600 
Q 1481 -109 1013 -844 
L 513 -844 
Q 928 -128 1133 580 
Q 1338 1288 1338 2009 
Q 1338 2731 1133 3434 
Q 928 4138 513 4856 
z
" transform="scale(0.015625)"/>
      </defs>
      <use xlink:href="#DejaVuSans-50"/>
      <use xlink:href="#DejaVuSans-68" x="60.302734"/>
      <use xlink:href="#DejaVuSans-6f" x="123.681641"/>
      <use xlink:href="#DejaVuSans-74" x="184.863281"/>
      <use xlink:href="#DejaVuSans-6f" x="224.072266"/>
      <use xlink:href="#DejaVuSans-6e" x="285.253906"/>
      <use xlink:href="#DejaVuSans-20" x="348.632812"/>
      <use xlink:href="#DejaVuSans-45" x="380.419922"/>
      <use xlink:href="#DejaVuSans-6e" x="443.603516"/>
      <use xlink:href="#DejaVuSans-65" x="506.982422"/>
      <use xlink:href="#DejaVuSans-72" x="568.505859"/>
      <use xlink:href="#DejaVuSans-67" x="607.869141"/>
      <use xlink:href="#DejaVuSans-79" x="671.345703"/>
      <use xlink:href="#DejaVuSans-20" x="730.525391"/>
      <use xlink:href="#DejaVuSans-28" x="762.3125"/>
      <use xlink:href="#DejaVuSans-65" x="801.326172"/>
      <use xlink:href="#DejaVuSans-56" x="862.849609"/>
      <use xlink:href="#DejaVuSans-29" x="931.257812"/>
     </g>
    </g>
   </g>
   <g id="matplotlib.axis_2">
    <g id="ytick_1">
     <g id="text_9">
      <!-- 0.0 -->
      <g style="fill: #262626" transform="translate(26.209938 165.767748) scale(0.066 -0.066)">
       <defs>
        <path id="DejaVuSans-30" d="M 2034 4250 
Q 1547 4250 1301 3770 
Q 1056 3291 1056 2328 
Q 1056 1369 1301 889 
Q 1547 409 2034 409 
Q 2525 409 2770 889 
Q 3016 1369 3016 2328 
Q 3016 3291 2770 3770 
Q 2525 4250 2034 4250 
z
M 2034 4750 
Q 2819 4750 3233 4129 
Q 3647 3509 3647 2328 
Q 3647 1150 3233 529 
Q 2819 -91 2034 -91 
Q 1250 -91 836 529 
Q 422 1150 422 2328 
Q 422 3509 836 4129 
Q 1250 4750 2034 4750 
z
" transform="scale(0.015625)"/>
       </defs>
       <use xlink:href="#DejaVuSans-30"/>
       <use xlink:href="#DejaVuSans-2e" x="63.623047"/>
       <use xlink:href="#DejaVuSans-30" x="95.410156"/>
      </g>
     </g>
    </g>
    <g id="ytick_2">
     <g id="text_10">
      <!-- 0.2 -->
      <g style="fill: #262626" transform="translate(26.209938 136.607347) scale(0.066 -0.066)">
       <use xlink:href="#DejaVuSans-30"/>
       <use xlink:href="#DejaVuSans-2e" x="63.623047"/>
       <use xlink:href="#DejaVuSans-32" x="95.410156"/>
      </g>
     </g>
    </g>
    <g id="ytick_3">
     <g id="text_11">
      <!-- 0.4 -->
      <g style="fill: #262626" transform="translate(26.209938 107.446945) scale(0.066 -0.066)">
       <use xlink:href="#DejaVuSans-30"/>
       <use xlink:href="#DejaVuSans-2e" x="63.623047"/>
       <use xlink:href="#DejaVuSans-34" x="95.410156"/>
      </g>
     </g>
    </g>
    <g id="ytick_4">
     <g id="text_12">
      <!-- 0.6 -->
      <g style="fill: #262626" transform="translate(26.209938 78.286543) scale(0.066 -0.066)">
       <use xlink:href="#DejaVuSans-30"/>
       <use xlink:href="#DejaVuSans-2e" x="63.623047"/>
       <use xlink:href="#DejaVuSans-36" x="95.410156"/>
      </g>
     </g>
    </g>
    <g id="ytick_5">
     <g id="text_13">
      <!-- 0.8 -->
      <g style="fill: #262626" transform="translate(26.209938 49.126142) scale(0.066 -0.066)">
       <defs>
        <path id="DejaVuSans-38" d="M 2034 2216 
Q 1584 2216 1326 1975 
Q 1069 1734 1069 1313 
Q 1069 891 1326 650 
Q 1584 409 2034 409 
Q 2484 409 2743 651 
Q 3003 894 3003 1313 
Q 3003 1734 2745 1975 
Q 2488 2216 2034 2216 
z
M 1403 2484 
Q 997 2584 770 2862 
Q 544 3141 544 3541 
Q 544 4100 942 4425 
Q 1341 4750 2034 4750 
Q 2731 4750 3128 4425 
Q 3525 4100 3525 3541 
Q 3525 3141 3298 2862 
Q 3072 2584 2669 2484 
Q 3125 2378 3379 2068 
Q 3634 1759 3634 1313 
Q 3634 634 3220 271 
Q 2806 -91 2034 -91 
Q 1263 -91 848 271 
Q 434 634 434 1313 
Q 434 1759 690 2068 
Q 947 2378 1403 2484 
z
M 1172 3481 
Q 1172 3119 1398 2916 
Q 1625 2713 2034 2713 
Q 2441 2713 2670 2916 
Q 2900 3119 2900 3481 
Q 2900 3844 2670 4047 
Q 2441 4250 2034 4250 
Q 1625 4250 1398 4047 
Q 1172 3844 1172 3481 
z
" transform="scale(0.015625)"/>
       </defs>
       <use xlink:href="#DejaVuSans-30"/>
       <use xlink:href="#DejaVuSans-2e" x="63.623047"/>
       <use xlink:href="#DejaVuSans-38" x="95.410156"/>
      </g>
     </g>
    </g>
    <g id="ytick_6">
     <g id="text_14">
      <!-- 1.0 -->
      <g style="fill: #262626" transform="translate(26.209938 19.96574) scale(0.066 -0.066)">
       <use xlink:href="#DejaVuSans-31"/>
       <use xlink:href="#DejaVuSans-2e" x="63.623047"/>
       <use xlink:href="#DejaVuSans-30" x="95.410156"/>
      </g>
     </g>
    </g>
    <g id="text_15">
     <!-- PL Intensity (arb. units) -->
     <g style="fill: #262626" transform="translate(19.090406 178.419375) rotate(-90) scale(0.15 -0.15)">
      <defs>
       <path id="DejaVuSans-4c" d="M 628 4666 
L 1259 4666 
L 1259 531 
L 3531 531 
L 3531 0 
L 628 0 
L 628 4666 
z
" transform="scale(0.015625)"/>
       <path id="DejaVuSans-49" d="M 628 4666 
L 1259 4666 
L 1259 0 
L 628 0 
L 628 4666 
z
" transform="scale(0.015625)"/>
       <path id="DejaVuSans-73" d="M 2834 3397 
L 2834 2853 
Q 2591 2978 2328 3040 
Q 2066 3103 1784 3103 
Q 1356 3103 1142 2972 
Q 928 2841 928 2578 
Q 928 2378 1081 2264 
Q 1234 2150 1697 2047 
L 1894 2003 
Q 2506 1872 2764 1633 
Q 3022 1394 3022 966 
Q 3022 478 2636 193 
Q 2250 -91 1575 -91 
Q 1294 -91 989 -36 
Q 684 19 347 128 
L 347 722 
Q 666 556 975 473 
Q 1284 391 1588 391 
Q 1994 391 2212 530 
Q 2431 669 2431 922 
Q 2431 1156 2273 1281 
Q 2116 1406 1581 1522 
L 1381 1569 
Q 847 1681 609 1914 
Q 372 2147 372 2553 
Q 372 3047 722 3315 
Q 1072 3584 1716 3584 
Q 2034 3584 2315 3537 
Q 2597 3491 2834 3397 
z
" transform="scale(0.015625)"/>
       <path id="DejaVuSans-69" d="M 603 3500 
L 1178 3500 
L 1178 0 
L 603 0 
L 603 3500 
z
M 603 4863 
L 1178 4863 
L 1178 4134 
L 603 4134 
L 603 4863 
z
" transform="scale(0.015625)"/>
       <path id="DejaVuSans-61" d="M 2194 1759 
Q 1497 1759 1228 1600 
Q 959 1441 959 1056 
Q 959 750 1161 570 
Q 1363 391 1709 391 
Q 2188 391 2477 730 
Q 2766 1069 2766 1631 
L 2766 1759 
L 2194 1759 
z
M 3341 1997 
L 3341 0 
L 2766 0 
L 2766 531 
Q 2569 213 2275 61 
Q 1981 -91 1556 -91 
Q 1019 -91 701 211 
Q 384 513 384 1019 
Q 384 1609 779 1909 
Q 1175 2209 1959 2209 
L 2766 2209 
L 2766 2266 
Q 2766 2663 2505 2880 
Q 2244 3097 1772 3097 
Q 1472 3097 1187 3025 
Q 903 2953 641 2809 
L 641 3341 
Q 956 3463 1253 3523 
Q 1550 3584 1831 3584 
Q 2591 3584 2966 3190 
Q 3341 2797 3341 1997 
z
" transform="scale(0.015625)"/>
       <path id="DejaVuSans-62" d="M 3116 1747 
Q 3116 2381 2855 2742 
Q 2594 3103 2138 3103 
Q 1681 3103 1420 2742 
Q 1159 2381 1159 1747 
Q 1159 1113 1420 752 
Q 1681 391 2138 391 
Q 2594 391 2855 752 
Q 3116 1113 3116 1747 
z
M 1159 2969 
Q 1341 3281 1617 3432 
Q 1894 3584 2278 3584 
Q 2916 3584 3314 3078 
Q 3713 2572 3713 1747 
Q 3713 922 3314 415 
Q 2916 -91 2278 -91 
Q 1894 -91 1617 61 
Q 1341 213 1159 525 
L 1159 0 
L 581 0 
L 581 4863 
L 1159 4863 
L 1159 2969 
z
" transform="scale(0.015625)"/>
       <path id="DejaVuSans-75" d="M 544 1381 
L 544 3500 
L 1119 3500 
L 1119 1403 
Q 1119 906 1312 657 
Q 1506 409 1894 409 
Q 2359 409 2629 706 
Q 2900 1003 2900 1516 
L 2900 3500 
L 3475 3500 
L 3475 0 
L 2900 0 
L 2900 538 
Q 2691 219 2414 64 
Q 2138 -91 1772 -91 
Q 1169 -91 856 284 
Q 544 659 544 1381 
z
M 1991 3584 
L 1991 3584 
z
" transform="scale(0.015625)"/>
      </defs>
      <use xlink:href="#DejaVuSans-50"/>
      <use xlink:href="#DejaVuSans-4c" x="60.302734"/>
      <use xlink:href="#DejaVuSans-20" x="116.015625"/>
      <use xlink:href="#DejaVuSans-49" x="147.802734"/>
      <use xlink:href="#DejaVuSans-6e" x="177.294922"/>
      <use xlink:href="#DejaVuSans-74" x="240.673828"/>
      <use xlink:href="#DejaVuSans-65" x="279.882812"/>
      <use xlink:href="#DejaVuSans-6e" x="341.40625"/>
      <use xlink:href="#DejaVuSans-73" x="404.785156"/>
      <use xlink:href="#DejaVuSans-69" x="456.884766"/>
      <use xlink:href="#DejaVuSans-74" x="484.667969"/>
      <use xlink:href="#DejaVuSans-79" x="523.876953"/>
      <use xlink:href="#DejaVuSans-20" x="583.056641"/>
      <use xlink:href="#DejaVuSans-28" x="614.84375"/>
      <use xlink:href="#DejaVuSans-61" x="653.857422"/>
      <use xlink:href="#DejaVuSans-72" x="715.136719"/>
      <use xlink:href="#DejaVuSans-62" x="756.25"/>
      <use xlink:href="#DejaVuSans-2e" x="819.726562"/>
      <use xlink:href="#DejaVuSans-20" x="851.513672"/>
      <use xlink:href="#DejaVuSans-75" x="883.300781"/>
      <use xlink:href="#DejaVuSans-6e" x="946.679688"/>
      <use xlink:href="#DejaVuSans-69" x="1010.058594"/>
      <use xlink:href="#DejaVuSans-74" x="1037.841797"/>
      <use xlink:href="#DejaVuSans-73" x="1077.050781"/>
      <use xlink:href="#DejaVuSans-29" x="1129.150391"/>
     </g>
    </g>
   </g>
   <g id="PolyCollection_1">
    <defs>
     <path id="me38aa7f707" d="M 60.115909 -57.882836 
L 60.115909 -53.018554 
L 64.331033 -54.397138 
L 68.546157 -55.30149 
L 72.761281 -58.802985 
L 76.976405 -59.219459 
L 81.191529 -60.579986 
L 85.406653 -61.663337 
L 89.621777 -60.952365 
L 93.836901 -59.714322 
L 98.052025 -58.002165 
L 102.267149 -57.189228 
L 106.482273 -55.235874 
L 110.697397 -53.842304 
L 114.912521 -52.705185 
L 119.127645 -53.265834 
L 123.342769 -54.431725 
L 127.557893 -55.97305 
L 131.773017 -60.531564 
L 135.98814 -65.373249 
L 140.203264 -76.466058 
L 144.418388 -87.189039 
L 148.633512 -94.306365 
L 152.848636 -102.43374 
L 157.06376 -106.990362 
L 161.278884 -107.976513 
L 165.494008 -105.124817 
L 169.709132 -94.526248 
L 173.924256 -88.74175 
L 178.13938 -76.629866 
L 182.354504 -69.364793 
L 186.569628 -63.426498 
L 190.784752 -60.311736 
L 194.999876 -59.955334 
L 199.215 -64.101272 
L 203.430124 -74.594505 
L 207.645248 -81.658255 
L 211.860372 -101.358967 
L 216.075496 -129.147634 
L 220.29062 -143.564344 
L 224.505744 -171.502907 
L 228.720868 -189.049485 
L 232.935992 -195.426817 
L 237.151116 -189.363676 
L 241.36624 -173.14352 
L 245.581364 -153.793682 
L 249.796488 -124.169478 
L 254.011612 -105.572077 
L 258.226736 -84.923227 
L 262.44186 -69.745966 
L 266.656983 -62.872083 
L 270.872107 -56.882413 
L 275.087231 -53.714956 
L 279.302355 -51.922079 
L 283.517479 -51.45413 
L 287.732603 -51.597124 
L 291.947727 -50.817951 
L 296.162851 -50.642984 
L 300.377975 -50.429684 
L 304.593099 -50.182203 
L 308.808223 -49.791385 
L 313.023347 -50.830729 
L 317.238471 -50.319572 
L 321.453595 -50.081798 
L 325.668719 -50.063017 
L 329.883843 -51.034503 
L 334.098967 -50.560222 
L 338.314091 -50.354979 
L 338.314091 -55.248887 
L 338.314091 -55.248887 
L 334.098967 -55.484005 
L 329.883843 -55.771021 
L 325.668719 -54.892007 
L 321.453595 -54.866863 
L 317.238471 -55.226889 
L 313.023347 -55.697352 
L 308.808223 -54.670346 
L 304.593099 -55.012156 
L 300.377975 -55.300184 
L 296.162851 -55.364488 
L 291.947727 -55.590149 
L 287.732603 -56.356522 
L 283.517479 -56.432486 
L 279.302355 -57.159826 
L 275.087231 -59.931763 
L 270.872107 -63.982317 
L 266.656983 -73.060862 
L 262.44186 -82.820462 
L 258.226736 -96.610681 
L 254.011612 -119.500109 
L 249.796488 -140.265686 
L 245.581364 -165.055751 
L 241.36624 -182.786944 
L 237.151116 -196.468062 
L 232.935992 -200.675455 
L 228.720868 -195.770963 
L 224.505744 -183.834483 
L 220.29062 -156.410826 
L 216.075496 -142.470324 
L 211.860372 -113.825889 
L 207.645248 -90.204892 
L 203.430124 -83.116361 
L 199.215 -70.959648 
L 194.999876 -67.140795 
L 190.784752 -66.952088 
L 186.569628 -70.110897 
L 182.354504 -77.462842 
L 178.13938 -84.490992 
L 173.924256 -95.897292 
L 169.709132 -101.264828 
L 165.494008 -110.629944 
L 161.278884 -113.075204 
L 157.06376 -112.217845 
L 152.848636 -108.312514 
L 148.633512 -100.985201 
L 144.418388 -93.219875 
L 140.203264 -83.701908 
L 135.98814 -71.361736 
L 131.773017 -66.205735 
L 127.557893 -60.928632 
L 123.342769 -59.615352 
L 119.127645 -58.012675 
L 114.912521 -57.689111 
L 110.697397 -58.864011 
L 106.482273 -60.120924 
L 102.267149 -62.075439 
L 98.052025 -63.005664 
L 93.836901 -64.562381 
L 89.621777 -65.712249 
L 85.406653 -66.513401 
L 81.191529 -65.498721 
L 76.976405 -64.173193 
L 72.761281 -63.761765 
L 68.546157 -60.299572 
L 64.331033 -59.253374 
L 60.115909 -57.882836 
z
" style="stroke: #0d0887; stroke-opacity: 0.3"/>
    </defs>
    <g clip-path="url(#p0693b05d20)">
     <use xlink:href="#me38aa7f707" x="0" y="216" style="fill: #0d0887; fill-opacity: 0.3; stroke: #0d0887; stroke-opacity: 0.3"/>
    </g>
   </g>
   <g id="PolyCollection_2">
    <defs>
     <path id="mb47b1b3fa1" d="M 60.115909 -57.202426 
L 60.115909 -52.222348 
L 64.331033 -52.46178 
L 68.546157 -53.154171 
L 72.761281 -54.199109 
L 76.976405 -54.900869 
L 81.191529 -54.845523 
L 85.406653 -55.825764 
L 89.621777 -55.399695 
L 93.836901 -55.729595 
L 98.052025 -54.723359 
L 102.267149 -54.654801 
L 106.482273 -54.560172 
L 110.697397 -53.834074 
L 114.912521 -53.620604 
L 119.127645 -53.976218 
L 123.342769 -55.568846 
L 127.557893 -56.17985 
L 131.773017 -58.463678 
L 135.98814 -61.021567 
L 140.203264 -64.864302 
L 144.418388 -67.993645 
L 148.633512 -71.313314 
L 152.848636 -73.138657 
L 157.06376 -74.648445 
L 161.278884 -76.271136 
L 165.494008 -76.5769 
L 169.709132 -74.384718 
L 173.924256 -73.463994 
L 178.13938 -70.230163 
L 182.354504 -68.501485 
L 186.569628 -66.033465 
L 190.784752 -64.749154 
L 194.999876 -65.194054 
L 199.215 -66.899598 
L 203.430124 -71.571518 
L 207.645248 -74.316164 
L 211.860372 -81.381577 
L 216.075496 -91.182867 
L 220.29062 -95.470739 
L 224.505744 -104.197806 
L 228.720868 -108.648033 
L 232.935992 -112.625229 
L 237.151116 -113.753654 
L 241.36624 -110.445685 
L 245.581364 -107.037855 
L 249.796488 -99.402745 
L 254.011612 -93.782552 
L 258.226736 -84.547071 
L 262.44186 -76.069787 
L 266.656983 -71.137296 
L 270.872107 -65.508637 
L 275.087231 -60.463901 
L 279.302355 -57.462066 
L 283.517479 -55.335654 
L 287.732603 -52.761155 
L 291.947727 -52.084979 
L 296.162851 -51.058819 
L 300.377975 -51.111375 
L 304.593099 -50.350786 
L 308.808223 -50.68829 
L 313.023347 -50.509035 
L 317.238471 -49.704545 
L 321.453595 -50.700101 
L 325.668719 -49.957083 
L 329.883843 -50.269904 
L 334.098967 -50.725169 
L 338.314091 -50.090757 
L 338.314091 -54.896239 
L 338.314091 -54.896239 
L 334.098967 -55.50435 
L 329.883843 -55.024151 
L 325.668719 -54.835729 
L 321.453595 -55.580866 
L 317.238471 -54.484893 
L 313.023347 -55.423472 
L 308.808223 -55.576607 
L 304.593099 -55.156034 
L 300.377975 -55.917209 
L 296.162851 -55.939906 
L 291.947727 -57.032675 
L 287.732603 -57.973183 
L 283.517479 -60.633837 
L 279.302355 -63.264334 
L 275.087231 -67.120318 
L 270.872107 -72.114926 
L 266.656983 -79.112009 
L 262.44186 -86.128889 
L 258.226736 -94.24003 
L 254.011612 -104.415048 
L 249.796488 -112.309467 
L 245.581364 -120.350478 
L 241.36624 -126.308072 
L 237.151116 -129.641141 
L 232.935992 -127.851591 
L 228.720868 -124.200378 
L 224.505744 -119.376987 
L 220.29062 -108.172509 
L 216.075496 -103.196549 
L 211.860372 -91.001885 
L 207.645248 -82.041687 
L 203.430124 -77.872306 
L 199.215 -72.925983 
L 194.999876 -71.503904 
L 190.784752 -70.594366 
L 186.569628 -72.369826 
L 182.354504 -74.903224 
L 178.13938 -76.407438 
L 173.924256 -80.404812 
L 169.709132 -81.878593 
L 165.494008 -84.406988 
L 161.278884 -84.045756 
L 157.06376 -82.630338 
L 152.848636 -80.804738 
L 148.633512 -78.236802 
L 144.418388 -74.330416 
L 140.203264 -71.337419 
L 135.98814 -66.52531 
L 131.773017 -63.48151 
L 127.557893 -61.367195 
L 123.342769 -60.517697 
L 119.127645 -58.860916 
L 114.912521 -58.610051 
L 110.697397 -58.957344 
L 106.482273 -59.52675 
L 102.267149 -59.742304 
L 98.052025 -59.58852 
L 93.836901 -60.734333 
L 89.621777 -60.30194 
L 85.406653 -60.692631 
L 81.191529 -59.767967 
L 76.976405 -60.13189 
L 72.761281 -59.086288 
L 68.546157 -57.956923 
L 64.331033 -57.36672 
L 60.115909 -57.202426 
z
" style="stroke: #41049d; stroke-opacity: 0.3"/>
    </defs>
    <g clip-path="url(#p0693b05d20)">
     <use xlink:href="#mb47b1b3fa1" x="0" y="216" style="fill: #41049d; fill-opacity: 0.3; stroke: #41049d; stroke-opacity: 0.3"/>
    </g>
   </g>
   <g id="PolyCollection_3">
    <defs>
     <path id="mcdae8179d7" d="M 60.115909 -56.353077 
L 60.115909 -51.45891 
L 64.331033 -52.282023 
L 68.546157 -51.717911 
L 72.761281 -52.292174 
L 76.976405 -52.993433 
L 81.191529 -52.935601 
L 85.406653 -53.242666 
L 89.621777 -53.492509 
L 93.836901 -53.164597 
L 98.052025 -54.374691 
L 102.267149 -52.970511 
L 106.482273 -53.693993 
L 110.697397 -53.663033 
L 114.912521 -53.67149 
L 119.127645 -54.452657 
L 123.342769 -53.884548 
L 127.557893 -55.730746 
L 131.773017 -56.065523 
L 135.98814 -57.757713 
L 140.203264 -59.421235 
L 144.418388 -61.313591 
L 148.633512 -62.851219 
L 152.848636 -63.393941 
L 157.06376 -64.293027 
L 161.278884 -65.612106 
L 165.494008 -66.529829 
L 169.709132 -66.355052 
L 173.924256 -66.205456 
L 178.13938 -65.518365 
L 182.354504 -63.76761 
L 186.569628 -64.273006 
L 190.784752 -64.239489 
L 194.999876 -64.389327 
L 199.215 -65.149078 
L 203.430124 -67.349469 
L 207.645248 -69.02538 
L 211.860372 -71.118029 
L 216.075496 -75.633806 
L 220.29062 -77.404638 
L 224.505744 -81.221516 
L 228.720868 -84.188837 
L 232.935992 -85.499879 
L 237.151116 -86.570354 
L 241.36624 -86.725393 
L 245.581364 -85.988823 
L 249.796488 -83.685824 
L 254.011612 -81.847479 
L 258.226736 -77.392787 
L 262.44186 -73.749896 
L 266.656983 -70.184164 
L 270.872107 -66.515086 
L 275.087231 -63.301057 
L 279.302355 -60.654429 
L 283.517479 -58.148559 
L 287.732603 -55.988896 
L 291.947727 -54.532499 
L 296.162851 -53.018025 
L 300.377975 -51.630761 
L 304.593099 -51.389343 
L 308.808223 -51.534233 
L 313.023347 -51.275617 
L 317.238471 -50.356613 
L 321.453595 -50.160226 
L 325.668719 -50.113593 
L 329.883843 -50.62808 
L 334.098967 -50.832119 
L 338.314091 -50.588596 
L 338.314091 -55.322248 
L 338.314091 -55.322248 
L 334.098967 -55.651963 
L 329.883843 -55.451744 
L 325.668719 -55.008786 
L 321.453595 -54.89402 
L 317.238471 -55.089186 
L 313.023347 -56.154246 
L 308.808223 -56.27602 
L 304.593099 -56.153943 
L 300.377975 -56.760078 
L 296.162851 -58.040354 
L 291.947727 -59.559567 
L 287.732603 -61.18567 
L 283.517479 -63.772591 
L 279.302355 -66.047861 
L 275.087231 -70.27302 
L 270.872107 -74.360865 
L 266.656983 -78.922166 
L 262.44186 -83.577134 
L 258.226736 -87.987544 
L 254.011612 -92.823837 
L 249.796488 -95.858319 
L 245.581364 -99.211525 
L 241.36624 -100.421276 
L 237.151116 -100.368603 
L 232.935992 -98.743552 
L 228.720868 -97.448866 
L 224.505744 -93.922144 
L 220.29062 -87.352582 
L 216.075496 -85.93186 
L 211.860372 -80.474214 
L 207.645248 -76.605489 
L 203.430124 -74.593098 
L 199.215 -72.293843 
L 194.999876 -70.936667 
L 190.784752 -70.81281 
L 186.569628 -70.543389 
L 182.354504 -70.691864 
L 178.13938 -71.858422 
L 173.924256 -72.602606 
L 169.709132 -73.518307 
L 165.494008 -73.775062 
L 161.278884 -72.559872 
L 157.06376 -71.388808 
L 152.848636 -69.983989 
L 148.633512 -69.311447 
L 144.418388 -67.364068 
L 140.203264 -64.933781 
L 135.98814 -63.2292 
L 131.773017 -61.292341 
L 127.557893 -60.633441 
L 123.342769 -59.267342 
L 119.127645 -59.270773 
L 114.912521 -58.455285 
L 110.697397 -58.553408 
L 106.482273 -58.68861 
L 102.267149 -58.053685 
L 98.052025 -59.327909 
L 93.836901 -58.187418 
L 89.621777 -58.435243 
L 85.406653 -58.12619 
L 81.191529 -57.711896 
L 76.976405 -57.975801 
L 72.761281 -57.111427 
L 68.546157 -56.62857 
L 64.331033 -57.079283 
L 60.115909 -56.353077 
z
" style="stroke: #6a00a8; stroke-opacity: 0.3"/>
    </defs>
    <g clip-path="url(#p0693b05d20)">
     <use xlink:href="#mcdae8179d7" x="0" y="216" style="fill: #6a00a8; fill-opacity: 0.3; stroke: #6a00a8; stroke-opacity: 0.3"/>
    </g>
   </g>
   <g id="PolyCollection_4">
    <defs>
     <path id="m3849a639b5" d="M 60.115909 -55.976425 
L 60.115909 -51.04412 
L 64.331033 -51.820032 
L 68.546157 -51.578166 
L 72.761281 -52.308676 
L 76.976405 -52.241608 
L 81.191529 -51.724137 
L 85.406653 -52.532785 
L 89.621777 -52.627316 
L 93.836901 -53.206901 
L 98.052025 -53.674732 
L 102.267149 -53.512805 
L 106.482273 -53.233047 
L 110.697397 -54.061597 
L 114.912521 -54.02196 
L 119.127645 -54.456432 
L 123.342769 -54.572735 
L 127.557893 -55.549724 
L 131.773017 -55.941904 
L 135.98814 -56.564365 
L 140.203264 -57.972901 
L 144.418388 -59.420697 
L 148.633512 -60.160638 
L 152.848636 -61.336489 
L 157.06376 -61.86636 
L 161.278884 -63.089526 
L 165.494008 -63.398405 
L 169.709132 -64.134694 
L 173.924256 -63.48588 
L 178.13938 -63.700041 
L 182.354504 -63.612972 
L 186.569628 -63.757897 
L 190.784752 -64.146272 
L 194.999876 -64.701514 
L 199.215 -65.085976 
L 203.430124 -67.498118 
L 207.645248 -67.835922 
L 211.860372 -69.97363 
L 216.075496 -72.391647 
L 220.29062 -73.976861 
L 224.505744 -76.25492 
L 228.720868 -77.372805 
L 232.935992 -78.202479 
L 237.151116 -79.752098 
L 241.36624 -80.040055 
L 245.581364 -81.072715 
L 249.796488 -79.044543 
L 254.011612 -78.202816 
L 258.226736 -75.893033 
L 262.44186 -73.151856 
L 266.656983 -70.260886 
L 270.872107 -68.610899 
L 275.087231 -64.73427 
L 279.302355 -62.747524 
L 283.517479 -60.888968 
L 287.732603 -58.893604 
L 291.947727 -56.37409 
L 296.162851 -55.387468 
L 300.377975 -54.014643 
L 304.593099 -53.485579 
L 308.808223 -51.882603 
L 313.023347 -51.854529 
L 317.238471 -50.946454 
L 321.453595 -50.9104 
L 325.668719 -50.695032 
L 329.883843 -50.611512 
L 334.098967 -50.860834 
L 338.314091 -50.071015 
L 338.314091 -54.927161 
L 338.314091 -54.927161 
L 334.098967 -55.747126 
L 329.883843 -55.47689 
L 325.668719 -55.445302 
L 321.453595 -55.846683 
L 317.238471 -55.735664 
L 313.023347 -56.622557 
L 308.808223 -56.782397 
L 304.593099 -58.414481 
L 300.377975 -58.967271 
L 296.162851 -60.31756 
L 291.947727 -61.68454 
L 287.732603 -64.170356 
L 283.517479 -66.732775 
L 279.302355 -69.141217 
L 275.087231 -72.029068 
L 270.872107 -75.784302 
L 266.656983 -78.52914 
L 262.44186 -81.777787 
L 258.226736 -84.361655 
L 254.011612 -86.717771 
L 249.796488 -88.202574 
L 245.581364 -90.503517 
L 241.36624 -90.057527 
L 237.151116 -89.84158 
L 232.935992 -88.131733 
L 228.720868 -86.440197 
L 224.505744 -85.221085 
L 220.29062 -81.85892 
L 216.075496 -80.208781 
L 211.860372 -77.484999 
L 207.645248 -74.711473 
L 203.430124 -73.654766 
L 199.215 -71.899089 
L 194.999876 -71.033295 
L 190.784752 -70.464135 
L 186.569628 -69.839852 
L 182.354504 -69.826064 
L 178.13938 -69.93138 
L 173.924256 -69.733653 
L 169.709132 -70.261217 
L 165.494008 -69.248522 
L 161.278884 -68.870506 
L 157.06376 -67.862773 
L 152.848636 -66.989275 
L 148.633512 -65.639049 
L 144.418388 -64.540467 
L 140.203264 -63.430774 
L 135.98814 -61.806829 
L 131.773017 -61.253883 
L 127.557893 -60.445306 
L 123.342769 -59.666952 
L 119.127645 -59.354131 
L 114.912521 -58.970008 
L 110.697397 -58.907008 
L 106.482273 -57.966152 
L 102.267149 -58.522265 
L 98.052025 -58.572359 
L 93.836901 -58.011247 
L 89.621777 -57.551409 
L 85.406653 -57.259262 
L 81.191529 -56.6892 
L 76.976405 -57.095007 
L 72.761281 -57.086504 
L 68.546157 -56.368171 
L 64.331033 -56.732951 
L 60.115909 -55.976425 
z
" style="stroke: #8f0da4; stroke-opacity: 0.3"/>
    </defs>
    <g clip-path="url(#p0693b05d20)">
     <use xlink:href="#m3849a639b5" x="0" y="216" style="fill: #8f0da4; fill-opacity: 0.3; stroke: #8f0da4; stroke-opacity: 0.3"/>
    </g>
   </g>
   <g id="PolyCollection_5">
    <defs>
     <path id="m3fa7bf949d" d="M 60.115909 -56.409318 
L 60.115909 -51.569804 
L 64.331033 -51.465157 
L 68.546157 -51.035734 
L 72.761281 -52.424761 
L 76.976405 -52.156916 
L 81.191529 -52.781213 
L 85.406653 -52.239047 
L 89.621777 -52.315607 
L 93.836901 -52.727537 
L 98.052025 -53.081267 
L 102.267149 -52.869742 
L 106.482273 -53.482713 
L 110.697397 -53.545263 
L 114.912521 -54.031867 
L 119.127645 -54.013643 
L 123.342769 -54.710352 
L 127.557893 -54.949189 
L 131.773017 -55.519424 
L 135.98814 -55.839811 
L 140.203264 -57.6729 
L 144.418388 -58.03862 
L 148.633512 -58.84667 
L 152.848636 -59.046004 
L 157.06376 -60.630866 
L 161.278884 -61.098216 
L 165.494008 -61.256313 
L 169.709132 -62.086113 
L 173.924256 -61.961101 
L 178.13938 -62.64516 
L 182.354504 -63.466534 
L 186.569628 -63.378394 
L 190.784752 -63.799681 
L 194.999876 -64.473461 
L 199.215 -66.04164 
L 203.430124 -66.175838 
L 207.645248 -67.013303 
L 211.860372 -69.074945 
L 216.075496 -69.941197 
L 220.29062 -70.278235 
L 224.505744 -72.983232 
L 228.720868 -73.85043 
L 232.935992 -74.595713 
L 237.151116 -75.53293 
L 241.36624 -76.416636 
L 245.581364 -75.773231 
L 249.796488 -75.85654 
L 254.011612 -75.400341 
L 258.226736 -73.729832 
L 262.44186 -72.336254 
L 266.656983 -70.198114 
L 270.872107 -69.518958 
L 275.087231 -67.526009 
L 279.302355 -64.366107 
L 283.517479 -63.529122 
L 287.732603 -60.890356 
L 291.947727 -59.436319 
L 296.162851 -57.898117 
L 300.377975 -55.970812 
L 304.593099 -54.547517 
L 308.808223 -53.544729 
L 313.023347 -52.967236 
L 317.238471 -52.60277 
L 321.453595 -52.010427 
L 325.668719 -51.226017 
L 329.883843 -51.699613 
L 334.098967 -51.689607 
L 338.314091 -50.571757 
L 338.314091 -55.384671 
L 338.314091 -55.384671 
L 334.098967 -56.414542 
L 329.883843 -56.675418 
L 325.668719 -56.071703 
L 321.453595 -56.975308 
L 317.238471 -57.421409 
L 313.023347 -57.917724 
L 308.808223 -58.570537 
L 304.593099 -59.784422 
L 300.377975 -61.347677 
L 296.162851 -63.705069 
L 291.947727 -65.399508 
L 287.732603 -67.730061 
L 283.517479 -70.481238 
L 279.302355 -72.132698 
L 275.087231 -75.180186 
L 270.872107 -78.127814 
L 266.656983 -80.569216 
L 262.44186 -81.831203 
L 258.226736 -84.317362 
L 254.011612 -85.660322 
L 249.796488 -86.439555 
L 245.581364 -86.618988 
L 241.36624 -86.892508 
L 237.151116 -86.165489 
L 232.935992 -84.811221 
L 228.720868 -83.871805 
L 224.505744 -82.420146 
L 220.29062 -79.30295 
L 216.075496 -78.398459 
L 211.860372 -77.466534 
L 207.645248 -75.407888 
L 203.430124 -73.810723 
L 199.215 -72.742329 
L 194.999876 -71.354632 
L 190.784752 -71.109834 
L 186.569628 -70.207166 
L 182.354504 -69.726716 
L 178.13938 -69.348176 
L 173.924256 -68.581739 
L 169.709132 -68.371496 
L 165.494008 -67.406355 
L 161.278884 -67.102714 
L 157.06376 -66.764649 
L 152.848636 -65.037464 
L 148.633512 -64.580948 
L 144.418388 -63.717756 
L 140.203264 -62.796477 
L 135.98814 -61.32827 
L 131.773017 -60.675738 
L 127.557893 -60.183959 
L 123.342769 -59.668556 
L 119.127645 -59.10485 
L 114.912521 -59.057992 
L 110.697397 -58.588135 
L 106.482273 -58.391088 
L 102.267149 -58.022999 
L 98.052025 -57.860944 
L 93.836901 -57.737282 
L 89.621777 -57.291272 
L 85.406653 -57.016224 
L 81.191529 -57.493358 
L 76.976405 -57.018262 
L 72.761281 -57.249358 
L 68.546157 -55.805985 
L 64.331033 -56.229052 
L 60.115909 -56.409318 
z
" style="stroke: #b12a90; stroke-opacity: 0.3"/>
    </defs>
    <g clip-path="url(#p0693b05d20)">
     <use xlink:href="#m3fa7bf949d" x="0" y="216" style="fill: #b12a90; fill-opacity: 0.3; stroke: #b12a90; stroke-opacity: 0.3"/>
    </g>
   </g>
   <g id="PolyCollection_6">
    <defs>
     <path id="me22a6a07b8" d="M 60.115909 -55.875152 
L 60.115909 -51.131177 
L 64.331033 -51.532022 
L 68.546157 -51.607131 
L 72.761281 -51.752043 
L 76.976405 -51.26976 
L 81.191529 -51.726312 
L 85.406653 -52.724329 
L 89.621777 -52.144447 
L 93.836901 -52.790967 
L 98.052025 -53.389045 
L 102.267149 -53.220163 
L 106.482273 -53.083349 
L 110.697397 -53.50449 
L 114.912521 -54.17464 
L 119.127645 -54.282484 
L 123.342769 -54.867971 
L 127.557893 -55.378764 
L 131.773017 -55.648206 
L 135.98814 -55.728314 
L 140.203264 -56.397889 
L 144.418388 -57.418835 
L 148.633512 -58.025531 
L 152.848636 -58.941542 
L 157.06376 -58.955305 
L 161.278884 -60.022552 
L 165.494008 -60.592724 
L 169.709132 -61.393421 
L 173.924256 -61.000422 
L 178.13938 -62.337894 
L 182.354504 -62.883332 
L 186.569628 -63.448684 
L 190.784752 -63.719519 
L 194.999876 -64.86477 
L 199.215 -65.248746 
L 203.430124 -65.79307 
L 207.645248 -66.452608 
L 211.860372 -67.624287 
L 216.075496 -68.926077 
L 220.29062 -69.115773 
L 224.505744 -70.931168 
L 228.720868 -71.820727 
L 232.935992 -72.597246 
L 237.151116 -73.662878 
L 241.36624 -73.75309 
L 245.581364 -73.819964 
L 249.796488 -74.391268 
L 254.011612 -72.953561 
L 258.226736 -72.279047 
L 262.44186 -72.706971 
L 266.656983 -70.765551 
L 270.872107 -69.510463 
L 275.087231 -68.019855 
L 279.302355 -65.930283 
L 283.517479 -65.587459 
L 287.732603 -63.066255 
L 291.947727 -61.034085 
L 296.162851 -59.481076 
L 300.377975 -58.300991 
L 304.593099 -56.540267 
L 308.808223 -55.35311 
L 313.023347 -54.423885 
L 317.238471 -53.346209 
L 321.453595 -53.321408 
L 325.668719 -52.567434 
L 329.883843 -51.471597 
L 334.098967 -51.686699 
L 338.314091 -51.574576 
L 338.314091 -56.47093 
L 338.314091 -56.47093 
L 334.098967 -56.531312 
L 329.883843 -56.401272 
L 325.668719 -57.347577 
L 321.453595 -58.274801 
L 317.238471 -58.30618 
L 313.023347 -59.342798 
L 308.808223 -60.779079 
L 304.593099 -61.574218 
L 300.377975 -63.841231 
L 296.162851 -65.507834 
L 291.947727 -67.13384 
L 287.732603 -69.420478 
L 283.517479 -72.233275 
L 279.302355 -73.285164 
L 275.087231 -76.426816 
L 270.872107 -77.512206 
L 266.656983 -79.23735 
L 262.44186 -81.490516 
L 258.226736 -81.28443 
L 254.011612 -82.079889 
L 249.796488 -83.697348 
L 245.581364 -83.195018 
L 241.36624 -83.161704 
L 237.151116 -82.844995 
L 232.935992 -81.722031 
L 228.720868 -80.289189 
L 224.505744 -79.313624 
L 220.29062 -77.114408 
L 216.075496 -77.158085 
L 211.860372 -74.861531 
L 207.645248 -73.533391 
L 203.430124 -72.919324 
L 199.215 -72.015629 
L 194.999876 -71.841043 
L 190.784752 -70.166018 
L 186.569628 -69.782709 
L 182.354504 -68.969453 
L 178.13938 -68.400731 
L 173.924256 -67.173849 
L 169.709132 -67.094544 
L 165.494008 -66.291084 
L 161.278884 -65.585404 
L 157.06376 -64.628999 
L 152.848636 -64.503371 
L 148.633512 -63.388205 
L 144.418388 -62.837741 
L 140.203264 -61.713445 
L 135.98814 -61.043137 
L 131.773017 -60.726353 
L 127.557893 -60.380515 
L 123.342769 -59.818622 
L 119.127645 -59.181822 
L 114.912521 -59.022092 
L 110.697397 -58.600917 
L 106.482273 -57.967739 
L 102.267149 -58.117715 
L 98.052025 -58.222254 
L 93.836901 -57.718278 
L 89.621777 -57.045034 
L 85.406653 -57.739093 
L 81.191529 -56.541371 
L 76.976405 -56.130182 
L 72.761281 -56.633057 
L 68.546157 -56.508061 
L 64.331033 -56.493169 
L 60.115909 -55.875152 
z
" style="stroke: #cc4778; stroke-opacity: 0.3"/>
    </defs>
    <g clip-path="url(#p0693b05d20)">
     <use xlink:href="#me22a6a07b8" x="0" y="216" style="fill: #cc4778; fill-opacity: 0.3; stroke: #cc4778; stroke-opacity: 0.3"/>
    </g>
   </g>
   <g id="PolyCollection_7">
    <defs>
     <path id="m7c04aa0023" d="M 60.115909 -55.964307 
L 60.115909 -51.138249 
L 64.331033 -51.498031 
L 68.546157 -51.343551 
L 72.761281 -51.918336 
L 76.976405 -51.312024 
L 81.191529 -51.873216 
L 85.406653 -51.679869 
L 89.621777 -52.058829 
L 93.836901 -51.559182 
L 98.052025 -53.009488 
L 102.267149 -51.985828 
L 106.482273 -52.628374 
L 110.697397 -52.565991 
L 114.912521 -52.90012 
L 119.127645 -53.070782 
L 123.342769 -53.864949 
L 127.557893 -54.296433 
L 131.773017 -54.207139 
L 135.98814 -54.470803 
L 140.203264 -55.67215 
L 144.418388 -55.710049 
L 148.633512 -56.589238 
L 152.848636 -56.028381 
L 157.06376 -56.938701 
L 161.278884 -57.916425 
L 165.494008 -57.575711 
L 169.709132 -58.494489 
L 173.924256 -58.450131 
L 178.13938 -58.717618 
L 182.354504 -59.570987 
L 186.569628 -60.056192 
L 190.784752 -59.972311 
L 194.999876 -61.204606 
L 199.215 -61.89638 
L 203.430124 -62.078097 
L 207.645248 -62.46653 
L 211.860372 -62.82453 
L 216.075496 -64.039686 
L 220.29062 -64.459486 
L 224.505744 -65.807809 
L 228.720868 -66.134829 
L 232.935992 -66.46514 
L 237.151116 -66.115792 
L 241.36624 -67.734456 
L 245.581364 -67.639432 
L 249.796488 -67.655335 
L 254.011612 -67.343955 
L 258.226736 -66.794582 
L 262.44186 -66.431877 
L 266.656983 -65.899319 
L 270.872107 -64.849311 
L 275.087231 -63.881528 
L 279.302355 -62.559025 
L 283.517479 -62.404696 
L 287.732603 -60.801493 
L 291.947727 -59.35381 
L 296.162851 -58.591606 
L 300.377975 -57.791394 
L 304.593099 -56.274067 
L 308.808223 -55.642527 
L 313.023347 -55.097961 
L 317.238471 -53.931918 
L 321.453595 -52.82228 
L 325.668719 -52.779145 
L 329.883843 -52.168419 
L 334.098967 -51.594416 
L 338.314091 -51.881621 
L 338.314091 -56.741085 
L 338.314091 -56.741085 
L 334.098967 -56.524331 
L 329.883843 -57.07199 
L 325.668719 -58.033881 
L 321.453595 -57.779188 
L 317.238471 -59.193278 
L 313.023347 -60.525399 
L 308.808223 -61.146697 
L 304.593099 -62.177397 
L 300.377975 -63.90266 
L 296.162851 -65.721334 
L 291.947727 -66.680461 
L 287.732603 -67.922436 
L 283.517479 -70.062086 
L 279.302355 -71.258325 
L 275.087231 -73.065819 
L 270.872107 -73.935737 
L 266.656983 -75.700136 
L 262.44186 -76.387475 
L 258.226736 -76.866271 
L 254.011612 -77.630891 
L 249.796488 -78.401181 
L 245.581364 -77.503042 
L 241.36624 -77.498092 
L 237.151116 -76.117459 
L 232.935992 -76.006 
L 228.720868 -75.498776 
L 224.505744 -74.867012 
L 220.29062 -73.700792 
L 216.075496 -72.311461 
L 211.860372 -71.421541 
L 207.645248 -70.265112 
L 203.430124 -70.2614 
L 199.215 -69.046968 
L 194.999876 -68.377971 
L 190.784752 -67.739324 
L 186.569628 -66.771274 
L 182.354504 -66.054404 
L 178.13938 -65.665778 
L 173.924256 -64.710783 
L 169.709132 -64.760049 
L 165.494008 -63.812903 
L 161.278884 -63.864155 
L 157.06376 -62.580797 
L 152.848636 -61.772884 
L 148.633512 -62.512635 
L 144.418388 -61.039874 
L 140.203264 -61.213031 
L 135.98814 -59.798676 
L 131.773017 -59.564474 
L 127.557893 -59.435407 
L 123.342769 -58.977008 
L 119.127645 -58.181068 
L 114.912521 -58.202219 
L 110.697397 -57.668982 
L 106.482273 -57.678991 
L 102.267149 -56.906637 
L 98.052025 -57.843237 
L 93.836901 -56.62759 
L 89.621777 -56.962444 
L 85.406653 -56.466877 
L 81.191529 -56.671236 
L 76.976405 -56.100954 
L 72.761281 -56.873832 
L 68.546157 -56.171663 
L 64.331033 -56.228777 
L 60.115909 -55.964307 
z
" style="stroke: #e16462; stroke-opacity: 0.3"/>
    </defs>
    <g clip-path="url(#p0693b05d20)">
     <use xlink:href="#m7c04aa0023" x="0" y="216" style="fill: #e16462; fill-opacity: 0.3; stroke: #e16462; stroke-opacity: 0.3"/>
    </g>
   </g>
   <g id="line2d_1">
    <path d="M 60.115909 160.549305 
L 64.331033 159.174744 
L 68.546157 158.199469 
L 72.761281 154.717625 
L 76.976405 154.303674 
L 81.191529 152.960646 
L 85.406653 151.911631 
L 89.621777 152.667693 
L 93.836901 153.861648 
L 98.052025 155.496085 
L 102.267149 156.367667 
L 106.482273 158.321601 
L 110.697397 159.646843 
L 114.912521 160.802852 
L 119.127645 160.360746 
L 123.342769 158.976462 
L 127.557893 157.549159 
L 131.773017 152.631351 
L 135.98814 147.632508 
L 140.203264 135.916017 
L 144.418388 125.795543 
L 148.633512 118.354217 
L 152.848636 110.626873 
L 157.06376 106.395896 
L 161.278884 105.474142 
L 165.494008 108.12262 
L 169.709132 118.104462 
L 173.924256 123.680479 
L 178.13938 135.439571 
L 182.354504 142.586182 
L 186.569628 149.231303 
L 190.784752 152.368088 
L 194.999876 152.451935 
L 199.215 148.46954 
L 203.430124 137.144567 
L 207.645248 130.068427 
L 211.860372 108.407572 
L 216.075496 80.191021 
L 220.29062 66.012415 
L 224.505744 38.331305 
L 228.720868 23.589776 
L 232.935992 17.948864 
L 237.151116 23.084131 
L 241.36624 38.034768 
L 245.581364 56.575283 
L 249.796488 83.782418 
L 254.011612 103.463907 
L 258.226736 125.233046 
L 262.44186 139.716786 
L 266.656983 148.033527 
L 270.872107 155.567635 
L 275.087231 159.176641 
L 279.302355 161.459047 
L 283.517479 162.056692 
L 287.732603 162.023177 
L 291.947727 162.79595 
L 296.162851 162.996264 
L 300.377975 163.135066 
L 304.593099 163.40282 
L 308.808223 163.769134 
L 313.023347 162.73596 
L 317.238471 163.22677 
L 321.453595 163.525669 
L 325.668719 163.522488 
L 329.883843 162.597238 
L 334.098967 162.977886 
L 338.314091 163.198067 
" clip-path="url(#p0693b05d20)" style="fill: none; stroke-dasharray: 5.55,2.4; stroke-dashoffset: 0; stroke: #0d0887; stroke-width: 1.5"/>
   </g>
   <g id="line2d_2">
    <path d="M 60.115909 161.287613 
L 64.331033 161.08575 
L 68.546157 160.444453 
L 72.761281 159.357301 
L 76.976405 158.48362 
L 81.191529 158.693255 
L 85.406653 157.740802 
L 89.621777 158.149183 
L 93.836901 157.768036 
L 98.052025 158.84406 
L 102.267149 158.801448 
L 106.482273 158.956539 
L 110.697397 159.604291 
L 114.912521 159.884673 
L 119.127645 159.581433 
L 123.342769 157.956728 
L 127.557893 157.226477 
L 131.773017 155.027406 
L 135.98814 152.226562 
L 140.203264 147.899139 
L 144.418388 144.83797 
L 148.633512 141.224942 
L 152.848636 139.028303 
L 157.06376 137.360609 
L 161.278884 135.841554 
L 165.494008 135.508056 
L 169.709132 137.868345 
L 173.924256 139.065597 
L 178.13938 142.6812 
L 182.354504 144.297646 
L 186.569628 146.798354 
L 190.784752 148.32824 
L 194.999876 147.651021 
L 199.215 146.087209 
L 203.430124 141.278088 
L 207.645248 137.821075 
L 211.860372 129.808269 
L 216.075496 118.810292 
L 220.29062 114.178376 
L 224.505744 104.212603 
L 228.720868 99.575794 
L 232.935992 95.76159 
L 237.151116 94.302602 
L 241.36624 97.623122 
L 245.581364 102.305834 
L 249.796488 110.143894 
L 254.011612 116.9012 
L 258.226736 126.60645 
L 262.44186 134.900662 
L 266.656983 140.875348 
L 270.872107 147.188218 
L 275.087231 152.20789 
L 279.302355 155.6368 
L 283.517479 158.015255 
L 287.732603 160.632831 
L 291.947727 161.441173 
L 296.162851 162.500638 
L 300.377975 162.485708 
L 304.593099 163.24659 
L 308.808223 162.867551 
L 313.023347 163.033746 
L 317.238471 163.905281 
L 321.453595 162.859517 
L 325.668719 163.603594 
L 329.883843 163.352972 
L 334.098967 162.885241 
L 338.314091 163.506502 
" clip-path="url(#p0693b05d20)" style="fill: none; stroke-dasharray: 5.55,2.4; stroke-dashoffset: 0; stroke: #41049d; stroke-width: 1.5"/>
   </g>
   <g id="line2d_3">
    <path d="M 60.115909 162.094006 
L 64.331033 161.319347 
L 68.546157 161.82676 
L 72.761281 161.2982 
L 76.976405 160.515383 
L 81.191529 160.676251 
L 85.406653 160.315572 
L 89.621777 160.036124 
L 93.836901 160.323993 
L 98.052025 159.1487 
L 102.267149 160.487902 
L 106.482273 159.808698 
L 110.697397 159.89178 
L 114.912521 159.936613 
L 119.127645 159.138285 
L 123.342769 159.424055 
L 127.557893 157.817907 
L 131.773017 157.321068 
L 135.98814 155.506543 
L 140.203264 153.822492 
L 144.418388 151.66117 
L 148.633512 149.918667 
L 152.848636 149.311035 
L 157.06376 148.159083 
L 161.278884 146.914011 
L 165.494008 145.847554 
L 169.709132 146.06332 
L 173.924256 146.595969 
L 178.13938 147.311607 
L 182.354504 148.770263 
L 186.569628 148.591802 
L 190.784752 148.473851 
L 194.999876 148.337003 
L 199.215 147.278539 
L 203.430124 145.028717 
L 207.645248 143.184565 
L 211.860372 140.203879 
L 216.075496 135.217167 
L 220.29062 133.62139 
L 224.505744 128.42817 
L 228.720868 125.181148 
L 232.935992 123.878284 
L 237.151116 122.530522 
L 241.36624 122.426666 
L 245.581364 123.399826 
L 249.796488 126.227929 
L 254.011612 128.664342 
L 258.226736 133.309834 
L 262.44186 137.336485 
L 266.656983 141.446835 
L 270.872107 145.562024 
L 275.087231 149.212961 
L 279.302355 152.648855 
L 283.517479 155.039425 
L 287.732603 157.412717 
L 291.947727 158.953967 
L 296.162851 160.470811 
L 300.377975 161.804581 
L 304.593099 162.228357 
L 308.808223 162.094874 
L 313.023347 162.285068 
L 317.238471 163.277101 
L 321.453595 163.472877 
L 325.668719 163.43881 
L 329.883843 162.960088 
L 334.098967 162.757959 
L 338.314091 163.044578 
" clip-path="url(#p0693b05d20)" style="fill: none; stroke-dasharray: 5.55,2.4; stroke-dashoffset: 0; stroke: #6a00a8; stroke-width: 1.5"/>
   </g>
   <g id="line2d_4">
    <path d="M 60.115909 162.489727 
L 64.331033 161.723508 
L 68.546157 162.026832 
L 72.761281 161.30241 
L 76.976405 161.331692 
L 81.191529 161.793331 
L 85.406653 161.103976 
L 89.621777 160.910638 
L 93.836901 160.390926 
L 98.052025 159.876454 
L 102.267149 159.982465 
L 106.482273 160.4004 
L 110.697397 159.515698 
L 114.912521 159.504016 
L 119.127645 159.094719 
L 123.342769 158.880157 
L 127.557893 158.002485 
L 131.773017 157.402106 
L 135.98814 156.814403 
L 140.203264 155.298162 
L 144.418388 154.019418 
L 148.633512 153.100156 
L 152.848636 151.837118 
L 157.06376 151.135433 
L 161.278884 150.019984 
L 165.494008 149.676536 
L 169.709132 148.802045 
L 173.924256 149.390234 
L 178.13938 149.184289 
L 182.354504 149.280482 
L 186.569628 149.201126 
L 190.784752 148.694796 
L 194.999876 148.132595 
L 199.215 147.507468 
L 203.430124 145.423558 
L 207.645248 144.726303 
L 211.860372 142.270686 
L 216.075496 139.699786 
L 220.29062 138.08211 
L 224.505744 135.261998 
L 228.720868 134.093499 
L 232.935992 132.832894 
L 237.151116 131.203161 
L 241.36624 130.951209 
L 245.581364 130.211884 
L 249.796488 132.376442 
L 254.011612 133.539707 
L 258.226736 135.872656 
L 262.44186 138.535179 
L 266.656983 141.604987 
L 270.872107 143.8024 
L 275.087231 147.618331 
L 279.302355 150.05563 
L 283.517479 152.189129 
L 287.732603 154.46802 
L 291.947727 156.970685 
L 296.162851 158.147486 
L 300.377975 159.509043 
L 304.593099 160.04997 
L 308.808223 161.6675 
L 313.023347 161.761457 
L 317.238471 162.658941 
L 321.453595 162.621459 
L 325.668719 162.929833 
L 329.883843 162.955799 
L 334.098967 162.69602 
L 338.314091 163.500912 
" clip-path="url(#p0693b05d20)" style="fill: none; stroke-dasharray: 5.55,2.4; stroke-dashoffset: 0; stroke: #8f0da4; stroke-width: 1.5"/>
   </g>
   <g id="line2d_5">
    <path d="M 60.115909 162.010439 
L 64.331033 162.152895 
L 68.546157 162.57914 
L 72.761281 161.162941 
L 76.976405 161.412411 
L 81.191529 160.862714 
L 85.406653 161.372364 
L 89.621777 161.196561 
L 93.836901 160.767591 
L 98.052025 160.528894 
L 102.267149 160.553629 
L 106.482273 160.063099 
L 110.697397 159.933301 
L 114.912521 159.455071 
L 119.127645 159.440753 
L 123.342769 158.810546 
L 127.557893 158.433426 
L 131.773017 157.902419 
L 135.98814 157.415959 
L 140.203264 155.765312 
L 144.418388 155.121812 
L 148.633512 154.286191 
L 152.848636 153.958266 
L 157.06376 152.302243 
L 161.278884 151.899535 
L 165.494008 151.668666 
L 169.709132 150.771196 
L 173.924256 150.72858 
L 178.13938 150.003332 
L 182.354504 149.403375 
L 186.569628 149.20722 
L 190.784752 148.545242 
L 194.999876 148.085954 
L 199.215 146.608016 
L 203.430124 146.00672 
L 207.645248 144.789404 
L 211.860372 142.729261 
L 216.075496 141.830172 
L 220.29062 141.209407 
L 224.505744 138.298311 
L 228.720868 137.138883 
L 232.935992 136.296533 
L 237.151116 135.150791 
L 241.36624 134.345428 
L 245.581364 134.80389 
L 249.796488 134.851952 
L 254.011612 135.469668 
L 258.226736 136.976403 
L 262.44186 138.916271 
L 266.656983 140.616335 
L 270.872107 142.176614 
L 275.087231 144.646902 
L 279.302355 147.750598 
L 283.517479 148.99482 
L 287.732603 151.689792 
L 291.947727 153.582086 
L 296.162851 155.198407 
L 300.377975 157.340756 
L 304.593099 158.834031 
L 308.808223 159.942367 
L 313.023347 160.55752 
L 317.238471 160.987911 
L 321.453595 161.507132 
L 325.668719 162.35114 
L 329.883843 161.812484 
L 334.098967 161.947926 
L 338.314091 163.021786 
" clip-path="url(#p0693b05d20)" style="fill: none; stroke-dasharray: 5.55,2.4; stroke-dashoffset: 0; stroke: #b12a90; stroke-width: 1.5"/>
   </g>
   <g id="line2d_6">
    <path d="M 60.115909 162.496835 
L 64.331033 161.987405 
L 68.546157 161.942404 
L 72.761281 161.80745 
L 76.976405 162.300029 
L 81.191529 161.866158 
L 85.406653 160.768289 
L 89.621777 161.40526 
L 93.836901 160.745378 
L 98.052025 160.19435 
L 102.267149 160.331061 
L 106.482273 160.474456 
L 110.697397 159.947297 
L 114.912521 159.401634 
L 119.127645 159.267847 
L 123.342769 158.656703 
L 127.557893 158.12036 
L 131.773017 157.812721 
L 135.98814 157.614274 
L 140.203264 156.944333 
L 144.418388 155.871712 
L 148.633512 155.293132 
L 152.848636 154.277544 
L 157.06376 154.207848 
L 161.278884 153.196022 
L 165.494008 152.558096 
L 169.709132 151.756018 
L 173.924256 151.912864 
L 178.13938 150.630687 
L 182.354504 150.073608 
L 186.569628 149.384304 
L 190.784752 149.057231 
L 194.999876 147.647094 
L 199.215 147.367812 
L 203.430124 146.643803 
L 207.645248 146.007 
L 211.860372 144.757091 
L 216.075496 142.957919 
L 220.29062 142.88491 
L 224.505744 140.877604 
L 228.720868 139.945042 
L 232.935992 138.840361 
L 237.151116 137.746064 
L 241.36624 137.542603 
L 245.581364 137.492509 
L 249.796488 136.955692 
L 254.011612 138.483275 
L 258.226736 139.218262 
L 262.44186 138.901256 
L 266.656983 140.998549 
L 270.872107 142.488665 
L 275.087231 143.776664 
L 279.302355 146.392276 
L 283.517479 147.089633 
L 287.732603 149.756634 
L 291.947727 151.916038 
L 296.162851 153.505545 
L 300.377975 154.928889 
L 304.593099 156.942758 
L 308.808223 157.933906 
L 313.023347 159.116659 
L 317.238471 160.173805 
L 321.453595 160.201895 
L 325.668719 161.042495 
L 329.883843 162.063566 
L 334.098967 161.890995 
L 338.314091 161.977247 
" clip-path="url(#p0693b05d20)" style="fill: none; stroke-dasharray: 5.55,2.4; stroke-dashoffset: 0; stroke: #cc4778; stroke-width: 1.5"/>
   </g>
   <g id="line2d_7">
    <path d="M 60.115909 162.448722 
L 64.331033 162.136596 
L 68.546157 162.242393 
L 72.761281 161.603916 
L 76.976405 162.293511 
L 81.191529 161.727774 
L 85.406653 161.926627 
L 89.621777 161.489364 
L 93.836901 161.906614 
L 98.052025 160.573637 
L 102.267149 161.553767 
L 106.482273 160.846318 
L 110.697397 160.882514 
L 114.912521 160.448831 
L 119.127645 160.374075 
L 123.342769 159.579022 
L 127.557893 159.13408 
L 131.773017 159.114193 
L 135.98814 158.865261 
L 140.203264 157.55741 
L 144.418388 157.625038 
L 148.633512 156.449064 
L 152.848636 157.099368 
L 157.06376 156.240251 
L 161.278884 155.10971 
L 165.494008 155.305693 
L 169.709132 154.372731 
L 173.924256 154.419543 
L 178.13938 153.808302 
L 182.354504 153.187304 
L 186.569628 152.586267 
L 190.784752 152.144183 
L 194.999876 151.208712 
L 199.215 150.528326 
L 203.430124 149.830251 
L 207.645248 149.634179 
L 211.860372 148.876965 
L 216.075496 147.824426 
L 220.29062 146.919861 
L 224.505744 145.662589 
L 228.720868 145.183198 
L 232.935992 144.76443 
L 237.151116 144.883374 
L 241.36624 143.383726 
L 245.581364 143.428763 
L 249.796488 142.971742 
L 254.011612 143.512577 
L 258.226736 144.169574 
L 262.44186 144.590324 
L 266.656983 145.200272 
L 270.872107 146.607476 
L 275.087231 147.526327 
L 279.302355 149.091325 
L 283.517479 149.766609 
L 287.732603 151.638036 
L 291.947727 152.982865 
L 296.162851 153.84353 
L 300.377975 155.152973 
L 304.593099 156.774268 
L 308.808223 157.605388 
L 313.023347 158.18832 
L 317.238471 159.437402 
L 321.453595 160.699266 
L 325.668719 160.593487 
L 329.883843 161.379795 
L 334.098967 161.940627 
L 338.314091 161.688647 
" clip-path="url(#p0693b05d20)" style="fill: none; stroke-dasharray: 5.55,2.4; stroke-dashoffset: 0; stroke: #e16462; stroke-width: 1.5"/>
   </g>
   <g id="patch_3">
    <path d="M 46.206 173.844 
L 46.206 7.776 
" style="fill: none; stroke: #262626; stroke-width: 1.25; stroke-linejoin: miter; stroke-linecap: square"/>
   </g>
   <g id="patch_4">
    <path d="M 352.224 173.844 
L 352.224 7.776 
" style="fill: none; stroke: #262626; stroke-width: 1.25; stroke-linejoin: miter; stroke-linecap: square"/>
   </g>
   <g id="patch_5">
    <path d="M 46.206 173.844 
L 352.224 173.844 
" style="fill: none; stroke: #262626; stroke-width: 1.25; stroke-linejoin: miter; stroke-linecap: square"/>
   </g>
   <g id="patch_6">
    <path d="M 46.206 7.776 
L 352.224 7.776 
" style="fill: none; stroke: #262626; stroke-width: 1.25; stroke-linejoin: miter; stroke-linecap: square"/>
   </g>
  </g>
 </g>
 <defs>
  <clipPath id="p0693b05d20">
   <rect x="46.206" y="7.776" width="306.018" height="166.068"/>
  </clipPath>
 </defs>
</svg>
