<?xml version="1.0" encoding="utf-8" standalone="no"?>
<!DOCTYPE svg PUBLIC "-//W3C//DTD SVG 1.1//EN"
  "http://www.w3.org/Graphics/SVG/1.1/DTD/svg11.dtd">
<svg xmlns:xlink="http://www.w3.org/1999/xlink" width="779.2pt" height="248.55125pt" viewBox="0 0 779.2 248.55125" xmlns="http://www.w3.org/2000/svg" version="1.1">
 <metadata>
  <rdf:RDF xmlns:dc="http://purl.org/dc/elements/1.1/" xmlns:cc="http://creativecommons.org/ns#" xmlns:rdf="http://www.w3.org/1999/02/22-rdf-syntax-ns#">
   <cc:Work>
    <dc:type rdf:resource="http://purl.org/dc/dcmitype/StillImage"/>
    <dc:date>2024-11-12T12:31:35.568670</dc:date>
    <dc:format>image/svg+xml</dc:format>
    <dc:creator>
     <cc:Agent>
      <dc:title>Matplotlib v3.9.2, https://matplotlib.org/</dc:title>
     </cc:Agent>
    </dc:creator>
   </cc:Work>
  </rdf:RDF>
 </metadata>
 <defs>
  <style type="text/css">*{stroke-linejoin: round; stroke-linecap: butt}</style>
 </defs>
 <g id="figure_1">
  <g id="patch_1">
   <path d="M 0 248.55125 
L 779.2 248.55125 
L 779.2 0 
L 0 0 
z
" style="fill: #ffffff"/>
  </g>
  <g id="axes_1">
   <g id="text_1">
    <!-- $k_{r,S_xS_0} (\hbar\omega, T)=\int_{E_{min}}^{E_{max}} \frac{1}{3\pi\epsilon_0 \hbar^4} \left(\frac{\hbar\omega}{c}\right)^3 M(\hbar\omega,E)^2 FCWD_{rec} (\hbar\omega,E,T) g(E) dE$ -->
    <g style="fill: #262626" transform="translate(70.5 34.6) scale(0.2 -0.2)">
     <defs>
      <path id="DejaVuSans-Oblique-6b" d="M 1172 4863 
L 1747 4863 
L 1197 2028 
L 3169 3500 
L 3916 3500 
L 1716 1825 
L 3322 0 
L 2625 0 
L 1131 1709 
L 800 0 
L 225 0 
L 1172 4863 
z
" transform="scale(0.015625)"/>
      <path id="DejaVuSans-Oblique-72" d="M 2853 2969 
Q 2766 3016 2653 3041 
Q 2541 3066 2413 3066 
Q 1953 3066 1609 2717 
Q 1266 2369 1153 1784 
L 800 0 
L 225 0 
L 909 3500 
L 1484 3500 
L 1375 2956 
Q 1603 3259 1920 3421 
Q 2238 3584 2597 3584 
Q 2691 3584 2781 3573 
Q 2872 3563 2963 3538 
L 2853 2969 
z
" transform="scale(0.015625)"/>
      <path id="DejaVuSans-2c" d="M 750 794 
L 1409 794 
L 1409 256 
L 897 -744 
L 494 -744 
L 750 256 
L 750 794 
z
" transform="scale(0.015625)"/>
      <path id="DejaVuSans-Oblique-53" d="M 3859 4513 
L 3738 3897 
Q 3422 4066 3111 4152 
Q 2800 4238 2509 4238 
Q 1944 4238 1609 3991 
Q 1275 3744 1275 3334 
Q 1275 3109 1398 2989 
Q 1522 2869 2034 2731 
L 2413 2638 
Q 3053 2472 3303 2217 
Q 3553 1963 3553 1503 
Q 3553 797 2998 353 
Q 2444 -91 1538 -91 
Q 1166 -91 791 -17 
Q 416 56 38 206 
L 166 856 
Q 513 641 861 531 
Q 1209 422 1556 422 
Q 2147 422 2503 684 
Q 2859 947 2859 1369 
Q 2859 1650 2717 1795 
Q 2575 1941 2106 2059 
L 1728 2156 
Q 1081 2325 845 2545 
Q 609 2766 609 3163 
Q 609 3859 1145 4304 
Q 1681 4750 2541 4750 
Q 2875 4750 3203 4690 
Q 3531 4631 3859 4513 
z
" transform="scale(0.015625)"/>
      <path id="DejaVuSans-Oblique-78" d="M 3841 3500 
L 2234 1784 
L 3219 0 
L 2559 0 
L 1819 1388 
L 531 0 
L -166 0 
L 1556 1844 
L 641 3500 
L 1300 3500 
L 1972 2234 
L 3144 3500 
L 3841 3500 
z
" transform="scale(0.015625)"/>
      <path id="DejaVuSans-30" d="M 2034 4250 
Q 1547 4250 1301 3770 
Q 1056 3291 1056 2328 
Q 1056 1369 1301 889 
Q 1547 409 2034 409 
Q 2525 409 2770 889 
Q 3016 1369 3016 2328 
Q 3016 3291 2770 3770 
Q 2525 4250 2034 4250 
z
M 2034 4750 
Q 2819 4750 3233 4129 
Q 3647 3509 3647 2328 
Q 3647 1150 3233 529 
Q 2819 -91 2034 -91 
Q 1250 -91 836 529 
Q 422 1150 422 2328 
Q 422 3509 836 4129 
Q 1250 4750 2034 4750 
z
" transform="scale(0.015625)"/>
      <path id="DejaVuSans-28" d="M 1984 4856 
Q 1566 4138 1362 3434 
Q 1159 2731 1159 2009 
Q 1159 1288 1364 580 
Q 1569 -128 1984 -844 
L 1484 -844 
Q 1016 -109 783 600 
Q 550 1309 550 2009 
Q 550 2706 781 3412 
Q 1013 4119 1484 4856 
L 1984 4856 
z
" transform="scale(0.015625)"/>
      <path id="DejaVuSans-Oblique-127" d="M 3634 2113 
L 3225 0 
L 2650 0 
L 3056 2094 
Q 3094 2291 3094 2450 
Q 3094 2688 3006 2838 
Q 2863 3084 2475 3084 
Q 2009 3084 1681 2788 
Q 1356 2491 1256 1978 
L 872 0 
L 294 0 
L 1066 3969 
L 675 3969 
L 775 4481 
L 1166 4481 
L 1238 4863 
L 1816 4863 
L 1744 4481 
L 2844 4481 
L 2744 3969 
L 1644 3969 
L 1447 2956 
Q 1713 3272 2025 3428 
Q 2331 3584 2700 3584 
Q 3300 3584 3538 3213 
Q 3688 2975 3688 2606 
Q 3688 2381 3634 2113 
z
" transform="scale(0.015625)"/>
      <path id="DejaVuSans-Oblique-3c9" d="M 1369 -91 
Q 72 -91 434 1766 
Q 575 2500 1256 3500 
L 1875 3500 
Q 1231 2500 1088 1750 
Q 819 397 1519 397 
Q 2166 397 2478 2078 
L 3009 2078 
Q 2669 388 3316 397 
Q 4013 403 4275 1750 
Q 4419 2500 4169 3500 
L 4788 3500 
Q 5075 2500 4934 1766 
Q 4578 -94 3278 -91 
Q 2428 -88 2503 844 
Q 2194 -91 1369 -91 
z
" transform="scale(0.015625)"/>
      <path id="DejaVuSans-Oblique-54" d="M 378 4666 
L 4325 4666 
L 4225 4134 
L 2559 4134 
L 1759 0 
L 1125 0 
L 1925 4134 
L 275 4134 
L 378 4666 
z
" transform="scale(0.015625)"/>
      <path id="DejaVuSans-29" d="M 513 4856 
L 1013 4856 
Q 1481 4119 1714 3412 
Q 1947 2706 1947 2009 
Q 1947 1309 1714 600 
Q 1481 -109 1013 -844 
L 513 -844 
Q 928 -128 1133 580 
Q 1338 1288 1338 2009 
Q 1338 2731 1133 3434 
Q 928 4138 513 4856 
z
" transform="scale(0.015625)"/>
      <path id="DejaVuSans-3d" d="M 678 2906 
L 4684 2906 
L 4684 2381 
L 678 2381 
L 678 2906 
z
M 678 1631 
L 4684 1631 
L 4684 1100 
L 678 1100 
L 678 1631 
z
" transform="scale(0.015625)"/>
      <path id="DejaVuSansDisplay-222b" d="M 2134 5525 
Q 2172 6263 2528 6556 
Q 2884 6850 3218 6850 
Q 3553 6850 3833 6575 
Q 4113 6300 4200 5678 
L 3544 5613 
Q 3469 6188 3219 6188 
Q 2906 6188 2869 5413 
L 2581 -597 
Q 2547 -1334 2187 -1628 
Q 1828 -1922 1497 -1922 
Q 1163 -1922 883 -1647 
Q 603 -1372 516 -750 
L 1172 -684 
Q 1247 -1259 1497 -1259 
Q 1809 -1259 1847 -488 
L 2134 5525 
z
" transform="scale(0.015625)"/>
      <path id="DejaVuSans-Oblique-45" d="M 1081 4666 
L 4031 4666 
L 3928 4134 
L 1606 4134 
L 1338 2753 
L 3566 2753 
L 3463 2222 
L 1234 2222 
L 909 531 
L 3284 531 
L 3181 0 
L 172 0 
L 1081 4666 
z
" transform="scale(0.015625)"/>
      <path id="DejaVuSans-Oblique-6d" d="M 5747 2113 
L 5338 0 
L 4763 0 
L 5166 2094 
Q 5191 2228 5203 2325 
Q 5216 2422 5216 2491 
Q 5216 2772 5059 2928 
Q 4903 3084 4622 3084 
Q 4203 3084 3875 2770 
Q 3547 2456 3450 1953 
L 3066 0 
L 2491 0 
L 2900 2094 
Q 2925 2209 2937 2307 
Q 2950 2406 2950 2484 
Q 2950 2769 2794 2926 
Q 2638 3084 2363 3084 
Q 1938 3084 1609 2770 
Q 1281 2456 1184 1953 
L 800 0 
L 225 0 
L 909 3500 
L 1484 3500 
L 1375 2956 
Q 1609 3263 1923 3423 
Q 2238 3584 2597 3584 
Q 2978 3584 3223 3384 
Q 3469 3184 3519 2828 
Q 3781 3197 4126 3390 
Q 4472 3584 4856 3584 
Q 5306 3584 5551 3325 
Q 5797 3066 5797 2591 
Q 5797 2488 5784 2364 
Q 5772 2241 5747 2113 
z
" transform="scale(0.015625)"/>
      <path id="DejaVuSans-Oblique-61" d="M 3438 1997 
L 3047 0 
L 2472 0 
L 2578 531 
Q 2325 219 2001 64 
Q 1678 -91 1281 -91 
Q 834 -91 548 182 
Q 263 456 263 884 
Q 263 1497 752 1853 
Q 1241 2209 2100 2209 
L 2900 2209 
L 2931 2363 
Q 2938 2388 2941 2417 
Q 2944 2447 2944 2509 
Q 2944 2788 2717 2942 
Q 2491 3097 2081 3097 
Q 1800 3097 1504 3025 
Q 1209 2953 897 2809 
L 997 3341 
Q 1322 3463 1633 3523 
Q 1944 3584 2234 3584 
Q 2853 3584 3176 3315 
Q 3500 3047 3500 2534 
Q 3500 2431 3484 2292 
Q 3469 2153 3438 1997 
z
M 2816 1759 
L 2241 1759 
Q 1534 1759 1195 1570 
Q 856 1381 856 984 
Q 856 709 1029 553 
Q 1203 397 1509 397 
Q 1978 397 2328 733 
Q 2678 1069 2791 1631 
L 2816 1759 
z
" transform="scale(0.015625)"/>
      <path id="DejaVuSans-Oblique-69" d="M 1172 4863 
L 1747 4863 
L 1606 4134 
L 1031 4134 
L 1172 4863 
z
M 909 3500 
L 1484 3500 
L 800 0 
L 225 0 
L 909 3500 
z
" transform="scale(0.015625)"/>
      <path id="DejaVuSans-Oblique-6e" d="M 3566 2113 
L 3156 0 
L 2578 0 
L 2988 2091 
Q 3016 2238 3031 2350 
Q 3047 2463 3047 2528 
Q 3047 2791 2881 2937 
Q 2716 3084 2419 3084 
Q 1956 3084 1622 2776 
Q 1288 2469 1184 1941 
L 800 0 
L 225 0 
L 903 3500 
L 1478 3500 
L 1363 2950 
Q 1603 3253 1940 3418 
Q 2278 3584 2650 3584 
Q 3113 3584 3367 3334 
Q 3622 3084 3622 2631 
Q 3622 2519 3608 2391 
Q 3594 2263 3566 2113 
z
" transform="scale(0.015625)"/>
      <path id="DejaVuSans-31" d="M 794 531 
L 1825 531 
L 1825 4091 
L 703 3866 
L 703 4441 
L 1819 4666 
L 2450 4666 
L 2450 531 
L 3481 531 
L 3481 0 
L 794 0 
L 794 531 
z
" transform="scale(0.015625)"/>
      <path id="DejaVuSans-33" d="M 2597 2516 
Q 3050 2419 3304 2112 
Q 3559 1806 3559 1356 
Q 3559 666 3084 287 
Q 2609 -91 1734 -91 
Q 1441 -91 1130 -33 
Q 819 25 488 141 
L 488 750 
Q 750 597 1062 519 
Q 1375 441 1716 441 
Q 2309 441 2620 675 
Q 2931 909 2931 1356 
Q 2931 1769 2642 2001 
Q 2353 2234 1838 2234 
L 1294 2234 
L 1294 2753 
L 1863 2753 
Q 2328 2753 2575 2939 
Q 2822 3125 2822 3475 
Q 2822 3834 2567 4026 
Q 2313 4219 1838 4219 
Q 1578 4219 1281 4162 
Q 984 4106 628 3988 
L 628 4550 
Q 988 4650 1302 4700 
Q 1616 4750 1894 4750 
Q 2613 4750 3031 4423 
Q 3450 4097 3450 3541 
Q 3450 3153 3228 2886 
Q 3006 2619 2597 2516 
z
" transform="scale(0.015625)"/>
      <path id="DejaVuSans-Oblique-3c0" d="M 584 3500 
L 3938 3500 
L 3825 2925 
L 3384 2925 
L 2966 775 
Q 2922 550 2981 450 
Q 3038 353 3209 353 
Q 3256 353 3325 363 
Q 3397 369 3419 372 
L 3338 -44 
Q 3222 -84 3103 -103 
Q 2981 -122 2866 -122 
Q 2491 -122 2388 81 
Q 2284 288 2391 838 
L 2797 2925 
L 1506 2925 
L 938 0 
L 350 0 
L 919 2925 
L 472 2925 
L 584 3500 
z
" transform="scale(0.015625)"/>
      <path id="DejaVuSans-Oblique-3b5" d="M 1263 1888 
Q 925 1963 778 2166 
Q 669 2309 669 2503 
Q 669 3034 1175 3344 
Q 1575 3588 2188 3588 
Q 2425 3588 2684 3550 
Q 2944 3513 3234 3438 
L 3134 2916 
Q 2847 3006 2606 3047 
Q 2359 3088 2138 3088 
Q 1766 3088 1522 2944 
Q 1228 2772 1228 2522 
Q 1228 2356 1381 2241 
Q 1563 2103 1925 2103 
L 2409 2103 
L 2319 1628 
L 1856 1628 
Q 1425 1628 1172 1469 
Q 828 1253 828 916 
Q 828 703 1013 563 
Q 1244 388 1716 388 
Q 2006 388 2284 444 
Q 2563 503 2806 619 
L 2700 84 
Q 2403 -3 2131 -47 
Q 1859 -91 1609 -91 
Q 866 -91 516 194 
Q 250 413 250 781 
Q 250 1278 600 1584 
Q 859 1813 1263 1888 
z
" transform="scale(0.015625)"/>
      <path id="DejaVuSans-34" d="M 2419 4116 
L 825 1625 
L 2419 1625 
L 2419 4116 
z
M 2253 4666 
L 3047 4666 
L 3047 1625 
L 3713 1625 
L 3713 1100 
L 3047 1100 
L 3047 0 
L 2419 0 
L 2419 1100 
L 313 1100 
L 313 1709 
L 2253 4666 
z
" transform="scale(0.015625)"/>
      <path id="STIXSizeOneSym-Regular-28" d="M 2445 -858 
L 2445 -1050 
Q 1728 -371 1309 630 
Q 890 1632 890 2886 
Q 890 4122 1309 5136 
Q 1728 6150 2445 6822 
L 2445 6630 
Q 1408 5363 1408 2886 
Q 1408 410 2445 -858 
z
" transform="scale(0.015625)"/>
      <path id="DejaVuSans-Oblique-63" d="M 3431 3366 
L 3316 2797 
Q 3109 2947 2876 3022 
Q 2644 3097 2394 3097 
Q 2119 3097 1870 3000 
Q 1622 2903 1453 2725 
Q 1184 2453 1037 2087 
Q 891 1722 891 1331 
Q 891 859 1127 628 
Q 1363 397 1844 397 
Q 2081 397 2348 469 
Q 2616 541 2906 684 
L 2797 116 
Q 2547 13 2283 -39 
Q 2019 -91 1741 -91 
Q 1044 -91 669 257 
Q 294 606 294 1253 
Q 294 1797 489 2255 
Q 684 2713 1069 3078 
Q 1331 3328 1684 3456 
Q 2038 3584 2456 3584 
Q 2700 3584 2940 3529 
Q 3181 3475 3431 3366 
z
" transform="scale(0.015625)"/>
      <path id="STIXSizeOneSym-Regular-29" d="M 550 6630 
L 550 6822 
Q 1267 6144 1686 5142 
Q 2106 4141 2106 2886 
Q 2106 1651 1686 636 
Q 1267 -378 550 -1050 
L 550 -858 
Q 1587 410 1587 2886 
Q 1587 5363 550 6630 
z
" transform="scale(0.015625)"/>
      <path id="DejaVuSans-Oblique-4d" d="M 1081 4666 
L 2028 4666 
L 2572 1522 
L 4378 4666 
L 5350 4666 
L 4441 0 
L 3828 0 
L 4622 4091 
L 2791 897 
L 2175 897 
L 1581 4103 
L 788 0 
L 172 0 
L 1081 4666 
z
" transform="scale(0.015625)"/>
      <path id="DejaVuSans-32" d="M 1228 531 
L 3431 531 
L 3431 0 
L 469 0 
L 469 531 
Q 828 903 1448 1529 
Q 2069 2156 2228 2338 
Q 2531 2678 2651 2914 
Q 2772 3150 2772 3378 
Q 2772 3750 2511 3984 
Q 2250 4219 1831 4219 
Q 1534 4219 1204 4116 
Q 875 4013 500 3803 
L 500 4441 
Q 881 4594 1212 4672 
Q 1544 4750 1819 4750 
Q 2544 4750 2975 4387 
Q 3406 4025 3406 3419 
Q 3406 3131 3298 2873 
Q 3191 2616 2906 2266 
Q 2828 2175 2409 1742 
Q 1991 1309 1228 531 
z
" transform="scale(0.015625)"/>
      <path id="DejaVuSans-Oblique-46" d="M 1081 4666 
L 3756 4666 
L 3653 4134 
L 1606 4134 
L 1338 2759 
L 3188 2759 
L 3084 2228 
L 1234 2228 
L 800 0 
L 172 0 
L 1081 4666 
z
" transform="scale(0.015625)"/>
      <path id="DejaVuSans-Oblique-43" d="M 4447 4306 
L 4319 3641 
Q 4019 3944 3683 4091 
Q 3347 4238 2956 4238 
Q 2422 4238 2017 3981 
Q 1613 3725 1319 3200 
Q 1131 2863 1032 2486 
Q 934 2109 934 1728 
Q 934 1091 1264 756 
Q 1594 422 2222 422 
Q 2656 422 3056 561 
Q 3456 700 3834 978 
L 3688 231 
Q 3316 72 2936 -9 
Q 2556 -91 2175 -91 
Q 1278 -91 773 396 
Q 269 884 269 1753 
Q 269 2309 461 2846 
Q 653 3384 1013 3828 
Q 1394 4300 1883 4525 
Q 2372 4750 3022 4750 
Q 3422 4750 3780 4639 
Q 4138 4528 4447 4306 
z
" transform="scale(0.015625)"/>
      <path id="DejaVuSans-Oblique-57" d="M 616 4666 
L 1228 4666 
L 1453 697 
L 3213 4666 
L 3916 4666 
L 4147 697 
L 5888 4666 
L 6528 4666 
L 4453 0 
L 3659 0 
L 3444 3891 
L 1697 0 
L 903 0 
L 616 4666 
z
" transform="scale(0.015625)"/>
      <path id="DejaVuSans-Oblique-44" d="M 1081 4666 
L 2438 4666 
Q 3519 4666 4070 4208 
Q 4622 3750 4622 2847 
Q 4622 2250 4412 1698 
Q 4203 1147 3834 769 
Q 3463 381 2891 190 
Q 2319 0 1538 0 
L 172 0 
L 1081 4666 
z
M 1613 4147 
L 909 519 
L 1734 519 
Q 2794 519 3375 1128 
Q 3956 1738 3956 2847 
Q 3956 3519 3581 3833 
Q 3206 4147 2406 4147 
L 1613 4147 
z
" transform="scale(0.015625)"/>
      <path id="DejaVuSans-Oblique-65" d="M 3078 2063 
Q 3088 2113 3092 2166 
Q 3097 2219 3097 2272 
Q 3097 2653 2873 2875 
Q 2650 3097 2266 3097 
Q 1838 3097 1509 2826 
Q 1181 2556 1013 2059 
L 3078 2063 
z
M 3578 1613 
L 903 1613 
Q 884 1494 878 1425 
Q 872 1356 872 1306 
Q 872 872 1139 634 
Q 1406 397 1894 397 
Q 2269 397 2603 481 
Q 2938 566 3225 728 
L 3116 159 
Q 2806 34 2476 -28 
Q 2147 -91 1806 -91 
Q 1078 -91 686 257 
Q 294 606 294 1247 
Q 294 1794 489 2264 
Q 684 2734 1063 3103 
Q 1306 3334 1642 3459 
Q 1978 3584 2356 3584 
Q 2950 3584 3301 3228 
Q 3653 2872 3653 2272 
Q 3653 2128 3634 1964 
Q 3616 1800 3578 1613 
z
" transform="scale(0.015625)"/>
      <path id="DejaVuSans-Oblique-67" d="M 3816 3500 
L 3219 434 
Q 3047 -456 2561 -893 
Q 2075 -1331 1253 -1331 
Q 950 -1331 690 -1286 
Q 431 -1241 206 -1147 
L 313 -588 
Q 525 -725 762 -790 
Q 1000 -856 1269 -856 
Q 1816 -856 2167 -557 
Q 2519 -259 2631 300 
L 2681 563 
Q 2441 288 2122 144 
Q 1803 0 1434 0 
Q 903 0 598 351 
Q 294 703 294 1319 
Q 294 1803 478 2267 
Q 663 2731 997 3091 
Q 1219 3328 1514 3456 
Q 1809 3584 2131 3584 
Q 2484 3584 2746 3420 
Q 3009 3256 3138 2956 
L 3238 3500 
L 3816 3500 
z
M 2950 2216 
Q 2950 2641 2750 2872 
Q 2550 3103 2181 3103 
Q 1953 3103 1747 3012 
Q 1541 2922 1394 2759 
Q 1156 2491 1023 2127 
Q 891 1763 891 1375 
Q 891 944 1092 712 
Q 1294 481 1672 481 
Q 2219 481 2584 976 
Q 2950 1472 2950 2216 
z
" transform="scale(0.015625)"/>
      <path id="DejaVuSans-Oblique-64" d="M 2675 525 
Q 2444 222 2128 65 
Q 1813 -91 1428 -91 
Q 903 -91 598 267 
Q 294 625 294 1247 
Q 294 1766 478 2236 
Q 663 2706 1013 3078 
Q 1244 3325 1534 3454 
Q 1825 3584 2144 3584 
Q 2481 3584 2739 3421 
Q 2997 3259 3138 2956 
L 3513 4863 
L 4091 4863 
L 3144 0 
L 2566 0 
L 2675 525 
z
M 891 1350 
Q 891 897 1095 644 
Q 1300 391 1663 391 
Q 1931 391 2161 520 
Q 2391 650 2566 903 
Q 2750 1166 2856 1509 
Q 2963 1853 2963 2188 
Q 2963 2622 2758 2865 
Q 2553 3109 2194 3109 
Q 1922 3109 1687 2981 
Q 1453 2853 1288 2613 
Q 1106 2353 998 2009 
Q 891 1666 891 1350 
z
" transform="scale(0.015625)"/>
     </defs>
     <use xlink:href="#DejaVuSans-Oblique-6b" transform="translate(0 0.809375)"/>
     <use xlink:href="#DejaVuSans-Oblique-72" transform="translate(57.910156 -15.596875) scale(0.7)"/>
     <use xlink:href="#DejaVuSans-2c" transform="translate(86.689453 -15.596875) scale(0.7)"/>
     <use xlink:href="#DejaVuSans-Oblique-53" transform="translate(122.578125 -15.596875) scale(0.7)"/>
     <use xlink:href="#DejaVuSans-Oblique-78" transform="translate(167.011719 -27.08125) scale(0.49)"/>
     <use xlink:href="#DejaVuSans-Oblique-53" transform="translate(197.923828 -15.596875) scale(0.7)"/>
     <use xlink:href="#DejaVuSans-30" transform="translate(242.357422 -27.08125) scale(0.49)"/>
     <use xlink:href="#DejaVuSans-28" transform="translate(278.181152 0.809375)"/>
     <use xlink:href="#DejaVuSans-Oblique-127" transform="translate(317.194824 0.809375)"/>
     <use xlink:href="#DejaVuSans-Oblique-3c9" transform="translate(386.677246 0.809375)"/>
     <use xlink:href="#DejaVuSans-2c" transform="translate(470.41748 0.809375)"/>
     <use xlink:href="#DejaVuSans-Oblique-54" transform="translate(521.687012 0.809375)"/>
     <use xlink:href="#DejaVuSans-29" transform="translate(582.770996 0.809375)"/>
     <use xlink:href="#DejaVuSans-3d" transform="translate(641.26709 0.809375)"/>
     <use xlink:href="#DejaVuSansDisplay-222b" transform="translate(744.538574 0.809375)"/>
     <use xlink:href="#DejaVuSans-Oblique-45" transform="translate(831.282715 85.965625) scale(0.7)"/>
     <use xlink:href="#DejaVuSans-Oblique-6d" transform="translate(875.51123 74.48125) scale(0.49)"/>
     <use xlink:href="#DejaVuSans-Oblique-61" transform="translate(923.243164 74.48125) scale(0.49)"/>
     <use xlink:href="#DejaVuSans-Oblique-78" transform="translate(953.27002 74.48125) scale(0.49)"/>
     <use xlink:href="#DejaVuSans-Oblique-45" transform="translate(816.29834 -51.096875) scale(0.7)"/>
     <use xlink:href="#DejaVuSans-Oblique-6d" transform="translate(860.526855 -62.58125) scale(0.49)"/>
     <use xlink:href="#DejaVuSans-Oblique-69" transform="translate(908.258789 -62.58125) scale(0.49)"/>
     <use xlink:href="#DejaVuSans-Oblique-6e" transform="translate(921.872559 -62.58125) scale(0.49)"/>
     <use xlink:href="#DejaVuSans-31" transform="translate(1084.182129 44.60625) scale(0.7)"/>
     <use xlink:href="#DejaVuSans-33" transform="translate(984.182129 -49.164687) scale(0.7)"/>
     <use xlink:href="#DejaVuSans-Oblique-3c0" transform="translate(1028.718262 -49.164687) scale(0.7)"/>
     <use xlink:href="#DejaVuSans-Oblique-3b5" transform="translate(1070.861816 -49.164687) scale(0.7)"/>
     <use xlink:href="#DejaVuSans-30" transform="translate(1108.69873 -60.649062) scale(0.49)"/>
     <use xlink:href="#DejaVuSans-Oblique-127" transform="translate(1141.788086 -49.164687) scale(0.7)"/>
     <use xlink:href="#DejaVuSans-34" transform="translate(1195.639177 -22.367812) scale(0.49)"/>
     <use xlink:href="#STIXSizeOneSym-Regular-28" transform="translate(1241.228533 -10.104688) scale(1.021646)"/>
     <use xlink:href="#DejaVuSans-Oblique-127" transform="translate(1289.023027 45.634375) scale(0.7)"/>
     <use xlink:href="#DejaVuSans-Oblique-3c9" transform="translate(1337.660722 45.634375) scale(0.7)"/>
     <use xlink:href="#DejaVuSans-Oblique-63" transform="translate(1323.023027 -25.84375) scale(0.7)"/>
     <use xlink:href="#STIXSizeOneSym-Regular-29" transform="translate(1408.778887 -10.104688) scale(1.021646)"/>
     <use xlink:href="#DejaVuSans-33" transform="translate(1457.530412 39.090625) scale(0.7)"/>
     <use xlink:href="#DejaVuSans-Oblique-4d" transform="translate(1504.80092 0.809375)"/>
     <use xlink:href="#DejaVuSans-28" transform="translate(1591.080217 0.809375)"/>
     <use xlink:href="#DejaVuSans-Oblique-127" transform="translate(1630.093889 0.809375)"/>
     <use xlink:href="#DejaVuSans-Oblique-3c9" transform="translate(1699.576311 0.809375)"/>
     <use xlink:href="#DejaVuSans-2c" transform="translate(1783.316545 0.809375)"/>
     <use xlink:href="#DejaVuSans-Oblique-45" transform="translate(1834.586076 0.809375)"/>
     <use xlink:href="#DejaVuSans-29" transform="translate(1897.76967 0.809375)"/>
     <use xlink:href="#DejaVuSans-32" transform="translate(1937.740373 39.090625) scale(0.7)"/>
     <use xlink:href="#DejaVuSans-Oblique-46" transform="translate(1985.010881 0.809375)"/>
     <use xlink:href="#DejaVuSans-Oblique-43" transform="translate(2042.530412 0.809375)"/>
     <use xlink:href="#DejaVuSans-Oblique-57" transform="translate(2112.354631 0.809375)"/>
     <use xlink:href="#DejaVuSans-Oblique-44" transform="translate(2211.231584 0.809375)"/>
     <use xlink:href="#DejaVuSans-Oblique-72" transform="translate(2288.233537 -15.596875) scale(0.7)"/>
     <use xlink:href="#DejaVuSans-Oblique-65" transform="translate(2317.012834 -15.596875) scale(0.7)"/>
     <use xlink:href="#DejaVuSans-Oblique-63" transform="translate(2360.079241 -15.596875) scale(0.7)"/>
     <use xlink:href="#DejaVuSans-28" transform="translate(2401.299944 0.809375)"/>
     <use xlink:href="#DejaVuSans-Oblique-127" transform="translate(2440.313616 0.809375)"/>
     <use xlink:href="#DejaVuSans-Oblique-3c9" transform="translate(2509.796037 0.809375)"/>
     <use xlink:href="#DejaVuSans-2c" transform="translate(2593.536272 0.809375)"/>
     <use xlink:href="#DejaVuSans-Oblique-45" transform="translate(2644.805803 0.809375)"/>
     <use xlink:href="#DejaVuSans-2c" transform="translate(2707.989397 0.809375)"/>
     <use xlink:href="#DejaVuSans-Oblique-54" transform="translate(2759.258928 0.809375)"/>
     <use xlink:href="#DejaVuSans-29" transform="translate(2820.342912 0.809375)"/>
     <use xlink:href="#DejaVuSans-Oblique-67" transform="translate(2859.356584 0.809375)"/>
     <use xlink:href="#DejaVuSans-28" transform="translate(2922.833147 0.809375)"/>
     <use xlink:href="#DejaVuSans-Oblique-45" transform="translate(2961.846819 0.809375)"/>
     <use xlink:href="#DejaVuSans-29" transform="translate(3025.030412 0.809375)"/>
     <use xlink:href="#DejaVuSans-Oblique-64" transform="translate(3064.044084 0.809375)"/>
     <use xlink:href="#DejaVuSans-Oblique-45" transform="translate(3127.520647 0.809375)"/>
     <path d="M 984.182129 19.60625 
L 984.182129 25.85625 
L 1228.728533 25.85625 
L 1228.728533 19.60625 
L 984.182129 19.60625 
z
"/>
     <path d="M 1289.023027 19.60625 
L 1289.023027 25.85625 
L 1396.278887 25.85625 
L 1396.278887 19.60625 
L 1289.023027 19.60625 
z
"/>
    </g>
    <!-- $k_{nr,S_xS_0} ( T)=\int_{E_{min}}^{E_{max}} \frac{1}{3\pi\epsilon_0 \hbar^4} \left(\frac{\hbar\omega}{c}\right)^3 M(\hbar\omega,E)^2 FCWD_{rec} (0,E,T) g(E) dE$ -->
    <g style="fill: #262626" transform="translate(95.5 80.28) scale(0.2 -0.2)">
     <use xlink:href="#DejaVuSans-Oblique-6b" transform="translate(0 0.809375)"/>
     <use xlink:href="#DejaVuSans-Oblique-6e" transform="translate(57.910156 -15.596875) scale(0.7)"/>
     <use xlink:href="#DejaVuSans-Oblique-72" transform="translate(102.275391 -15.596875) scale(0.7)"/>
     <use xlink:href="#DejaVuSans-2c" transform="translate(131.054688 -15.596875) scale(0.7)"/>
     <use xlink:href="#DejaVuSans-Oblique-53" transform="translate(166.943359 -15.596875) scale(0.7)"/>
     <use xlink:href="#DejaVuSans-Oblique-78" transform="translate(211.376953 -27.08125) scale(0.49)"/>
     <use xlink:href="#DejaVuSans-Oblique-53" transform="translate(242.289062 -15.596875) scale(0.7)"/>
     <use xlink:href="#DejaVuSans-30" transform="translate(286.722656 -27.08125) scale(0.49)"/>
     <use xlink:href="#DejaVuSans-28" transform="translate(322.546387 0.809375)"/>
     <use xlink:href="#DejaVuSans-Oblique-54" transform="translate(361.560059 0.809375)"/>
     <use xlink:href="#DejaVuSans-29" transform="translate(422.644043 0.809375)"/>
     <use xlink:href="#DejaVuSans-3d" transform="translate(481.140137 0.809375)"/>
     <use xlink:href="#DejaVuSansDisplay-222b" transform="translate(584.411621 0.809375)"/>
     <use xlink:href="#DejaVuSans-Oblique-45" transform="translate(671.155762 85.965625) scale(0.7)"/>
     <use xlink:href="#DejaVuSans-Oblique-6d" transform="translate(715.384277 74.48125) scale(0.49)"/>
     <use xlink:href="#DejaVuSans-Oblique-61" transform="translate(763.116211 74.48125) scale(0.49)"/>
     <use xlink:href="#DejaVuSans-Oblique-78" transform="translate(793.143066 74.48125) scale(0.49)"/>
     <use xlink:href="#DejaVuSans-Oblique-45" transform="translate(656.171387 -51.096875) scale(0.7)"/>
     <use xlink:href="#DejaVuSans-Oblique-6d" transform="translate(700.399902 -62.58125) scale(0.49)"/>
     <use xlink:href="#DejaVuSans-Oblique-69" transform="translate(748.131836 -62.58125) scale(0.49)"/>
     <use xlink:href="#DejaVuSans-Oblique-6e" transform="translate(761.745605 -62.58125) scale(0.49)"/>
     <use xlink:href="#DejaVuSans-31" transform="translate(924.055176 44.60625) scale(0.7)"/>
     <use xlink:href="#DejaVuSans-33" transform="translate(824.055176 -49.164687) scale(0.7)"/>
     <use xlink:href="#DejaVuSans-Oblique-3c0" transform="translate(868.591309 -49.164687) scale(0.7)"/>
     <use xlink:href="#DejaVuSans-Oblique-3b5" transform="translate(910.734863 -49.164687) scale(0.7)"/>
     <use xlink:href="#DejaVuSans-30" transform="translate(948.571777 -60.649062) scale(0.49)"/>
     <use xlink:href="#DejaVuSans-Oblique-127" transform="translate(981.661133 -49.164687) scale(0.7)"/>
     <use xlink:href="#DejaVuSans-34" transform="translate(1035.512224 -22.367812) scale(0.49)"/>
     <use xlink:href="#STIXSizeOneSym-Regular-28" transform="translate(1081.101579 -10.104688) scale(1.021646)"/>
     <use xlink:href="#DejaVuSans-Oblique-127" transform="translate(1128.896074 45.634375) scale(0.7)"/>
     <use xlink:href="#DejaVuSans-Oblique-3c9" transform="translate(1177.533769 45.634375) scale(0.7)"/>
     <use xlink:href="#DejaVuSans-Oblique-63" transform="translate(1162.896074 -25.84375) scale(0.7)"/>
     <use xlink:href="#STIXSizeOneSym-Regular-29" transform="translate(1248.651933 -10.104688) scale(1.021646)"/>
     <use xlink:href="#DejaVuSans-33" transform="translate(1297.403459 39.090625) scale(0.7)"/>
     <use xlink:href="#DejaVuSans-Oblique-4d" transform="translate(1344.673967 0.809375)"/>
     <use xlink:href="#DejaVuSans-28" transform="translate(1430.953264 0.809375)"/>
     <use xlink:href="#DejaVuSans-Oblique-127" transform="translate(1469.966936 0.809375)"/>
     <use xlink:href="#DejaVuSans-Oblique-3c9" transform="translate(1539.449358 0.809375)"/>
     <use xlink:href="#DejaVuSans-2c" transform="translate(1623.189592 0.809375)"/>
     <use xlink:href="#DejaVuSans-Oblique-45" transform="translate(1674.459123 0.809375)"/>
     <use xlink:href="#DejaVuSans-29" transform="translate(1737.642717 0.809375)"/>
     <use xlink:href="#DejaVuSans-32" transform="translate(1777.61342 39.090625) scale(0.7)"/>
     <use xlink:href="#DejaVuSans-Oblique-46" transform="translate(1824.883928 0.809375)"/>
     <use xlink:href="#DejaVuSans-Oblique-43" transform="translate(1882.403459 0.809375)"/>
     <use xlink:href="#DejaVuSans-Oblique-57" transform="translate(1952.227678 0.809375)"/>
     <use xlink:href="#DejaVuSans-Oblique-44" transform="translate(2051.104631 0.809375)"/>
     <use xlink:href="#DejaVuSans-Oblique-72" transform="translate(2128.106584 -15.596875) scale(0.7)"/>
     <use xlink:href="#DejaVuSans-Oblique-65" transform="translate(2156.885881 -15.596875) scale(0.7)"/>
     <use xlink:href="#DejaVuSans-Oblique-63" transform="translate(2199.952287 -15.596875) scale(0.7)"/>
     <use xlink:href="#DejaVuSans-28" transform="translate(2241.172991 0.809375)"/>
     <use xlink:href="#DejaVuSans-30" transform="translate(2280.186662 0.809375)"/>
     <use xlink:href="#DejaVuSans-2c" transform="translate(2343.809709 0.809375)"/>
     <use xlink:href="#DejaVuSans-Oblique-45" transform="translate(2395.079241 0.809375)"/>
     <use xlink:href="#DejaVuSans-2c" transform="translate(2458.262834 0.809375)"/>
     <use xlink:href="#DejaVuSans-Oblique-54" transform="translate(2509.532366 0.809375)"/>
     <use xlink:href="#DejaVuSans-29" transform="translate(2570.61635 0.809375)"/>
     <use xlink:href="#DejaVuSans-Oblique-67" transform="translate(2609.630022 0.809375)"/>
     <use xlink:href="#DejaVuSans-28" transform="translate(2673.106584 0.809375)"/>
     <use xlink:href="#DejaVuSans-Oblique-45" transform="translate(2712.120256 0.809375)"/>
     <use xlink:href="#DejaVuSans-29" transform="translate(2775.30385 0.809375)"/>
     <use xlink:href="#DejaVuSans-Oblique-64" transform="translate(2814.317522 0.809375)"/>
     <use xlink:href="#DejaVuSans-Oblique-45" transform="translate(2877.794084 0.809375)"/>
     <path d="M 824.055176 19.60625 
L 824.055176 25.85625 
L 1068.601579 25.85625 
L 1068.601579 19.60625 
L 824.055176 19.60625 
z
"/>
     <path d="M 1128.896074 19.60625 
L 1128.896074 25.85625 
L 1236.151933 25.85625 
L 1236.151933 19.60625 
L 1128.896074 19.60625 
z
"/>
    </g>
    <!-- $\text{FCWD}_{rec} (\hbar\omega,E,T )=\frac{1}{Z} \frac{1}{\sqrt{4\pi\lambda_l k_B T}} \sum_{w=0}^{\infty} \sum_{t=0}^{\infty} \left(\frac{e^{-S} S^{w-t}}{t!}\right) \frac{1}{w!} \left(L_t^{w-t} (S)\right)^2 e^{-\frac{(\hbar\omega-E+\lambda_l+(w-t)\hbar\Omega)^2}{4\lambda_l k_B T}} e^{\frac{-t\hbar\Omega-E}{k_B T}}$ -->
    <g style="fill: #262626" transform="translate(7.2 130.28) scale(0.2 -0.2)">
     <defs>
      <path id="DejaVuSans-46" d="M 628 4666 
L 3309 4666 
L 3309 4134 
L 1259 4134 
L 1259 2759 
L 3109 2759 
L 3109 2228 
L 1259 2228 
L 1259 0 
L 628 0 
L 628 4666 
z
" transform="scale(0.015625)"/>
      <path id="DejaVuSans-43" d="M 4122 4306 
L 4122 3641 
Q 3803 3938 3442 4084 
Q 3081 4231 2675 4231 
Q 1875 4231 1450 3742 
Q 1025 3253 1025 2328 
Q 1025 1406 1450 917 
Q 1875 428 2675 428 
Q 3081 428 3442 575 
Q 3803 722 4122 1019 
L 4122 359 
Q 3791 134 3420 21 
Q 3050 -91 2638 -91 
Q 1578 -91 968 557 
Q 359 1206 359 2328 
Q 359 3453 968 4101 
Q 1578 4750 2638 4750 
Q 3056 4750 3426 4639 
Q 3797 4528 4122 4306 
z
" transform="scale(0.015625)"/>
      <path id="DejaVuSans-57" d="M 213 4666 
L 850 4666 
L 1831 722 
L 2809 4666 
L 3519 4666 
L 4500 722 
L 5478 4666 
L 6119 4666 
L 4947 0 
L 4153 0 
L 3169 4050 
L 2175 0 
L 1381 0 
L 213 4666 
z
" transform="scale(0.015625)"/>
      <path id="DejaVuSans-44" d="M 1259 4147 
L 1259 519 
L 2022 519 
Q 2988 519 3436 956 
Q 3884 1394 3884 2338 
Q 3884 3275 3436 3711 
Q 2988 4147 2022 4147 
L 1259 4147 
z
M 628 4666 
L 1925 4666 
Q 3281 4666 3915 4102 
Q 4550 3538 4550 2338 
Q 4550 1131 3912 565 
Q 3275 0 1925 0 
L 628 0 
L 628 4666 
z
" transform="scale(0.015625)"/>
      <path id="DejaVuSans-Oblique-5a" d="M 838 4666 
L 4500 4666 
L 4409 4184 
L 794 531 
L 3769 531 
L 3669 0 
L -141 0 
L -50 481 
L 3566 4134 
L 738 4134 
L 838 4666 
z
" transform="scale(0.015625)"/>
      <path id="STIXSizeOneSym-Regular-221a" d="M 6970 9933 
L 3373 -1888 
L 3104 -1888 
L 1626 2918 
Q 1555 3149 1465 3251 
Q 1376 3354 1229 3354 
Q 1011 3354 794 3181 
L 717 3309 
L 1766 4115 
L 1926 4115 
L 3379 -602 
L 3405 -602 
L 6605 9933 
L 6970 9933 
z
" transform="scale(0.015625)"/>
      <path id="DejaVuSans-Oblique-3bb" d="M 2350 4316 
L 3125 0 
L 2516 0 
L 2038 2588 
L 328 0 
L -281 0 
L 1903 3356 
L 1794 3975 
Q 1725 4369 1391 4369 
L 1091 4369 
L 1184 4863 
L 1550 4856 
Q 2253 4847 2350 4316 
z
" transform="scale(0.015625)"/>
      <path id="DejaVuSans-Oblique-6c" d="M 1172 4863 
L 1747 4863 
L 800 0 
L 225 0 
L 1172 4863 
z
" transform="scale(0.015625)"/>
      <path id="DejaVuSans-Oblique-42" d="M 1081 4666 
L 2694 4666 
Q 3350 4666 3675 4422 
Q 4000 4178 4000 3688 
Q 4000 3238 3720 2911 
Q 3441 2584 2988 2516 
Q 3375 2428 3569 2181 
Q 3763 1934 3763 1522 
Q 3763 819 3242 409 
Q 2722 0 1819 0 
L 172 0 
L 1081 4666 
z
M 1234 2228 
L 903 519 
L 1919 519 
Q 2491 519 2800 781 
Q 3109 1044 3109 1522 
Q 3109 1891 2904 2059 
Q 2700 2228 2247 2228 
L 1234 2228 
z
M 1606 4147 
L 1331 2741 
L 2272 2741 
Q 2775 2741 3058 2959 
Q 3341 3178 3341 3566 
Q 3341 3869 3150 4008 
Q 2959 4147 2541 4147 
L 1606 4147 
z
" transform="scale(0.015625)"/>
      <path id="DejaVuSans-221e" d="M 2916 1091 
Q 2819 1203 2666 1466 
Q 2456 1091 2272 925 
Q 2041 725 1681 725 
Q 1259 725 981 1041 
Q 688 1372 688 1919 
Q 688 2444 981 2800 
Q 1244 3116 1688 3116 
Q 1916 3116 2084 3022 
Q 2281 2919 2416 2741 
Q 2541 2581 2666 2366 
Q 2875 2741 3059 2906 
Q 3291 3106 3650 3106 
Q 4072 3106 4350 2791 
Q 4644 2459 4644 1913 
Q 4644 1388 4350 1031 
Q 4088 716 3644 716 
Q 3416 716 3247 809 
Q 3078 894 2916 1091 
z
M 1647 1134 
Q 2163 1134 2472 1884 
Q 2075 2703 1647 2703 
Q 1334 2703 1175 2478 
Q 1003 2238 1003 1919 
Q 1003 1569 1175 1353 
Q 1350 1134 1647 1134 
z
M 3684 2697 
Q 3219 2697 2859 1947 
Q 3253 1128 3684 1128 
Q 3997 1128 4156 1353 
Q 4328 1594 4328 1913 
Q 4328 2263 4156 2478 
Q 3981 2697 3684 2697 
z
" transform="scale(0.015625)"/>
      <path id="DejaVuSansDisplay-2211" d="M 244 6509 
L 5803 6509 
L 5803 5656 
L 1566 5656 
L 4534 2488 
L 1469 -888 
L 5919 -888 
L 5919 -1738 
L 109 -1738 
L 109 -1078 
L 3316 2463 
L 244 5728 
L 244 6509 
z
" transform="scale(0.015625)"/>
      <path id="DejaVuSans-Oblique-77" d="M 544 3500 
L 1113 3500 
L 1259 684 
L 2566 3500 
L 3231 3500 
L 3425 684 
L 4666 3500 
L 5241 3500 
L 3641 0 
L 2969 0 
L 2797 2900 
L 1459 0 
L 781 0 
L 544 3500 
z
" transform="scale(0.015625)"/>
      <path id="DejaVuSans-Oblique-74" d="M 2706 3500 
L 2619 3053 
L 1472 3053 
L 1100 1153 
Q 1081 1047 1072 975 
Q 1063 903 1063 863 
Q 1063 663 1183 572 
Q 1303 481 1569 481 
L 2150 481 
L 2053 0 
L 1503 0 
Q 991 0 739 200 
Q 488 400 488 806 
Q 488 878 497 964 
Q 506 1050 525 1153 
L 897 3053 
L 409 3053 
L 500 3500 
L 978 3500 
L 1172 4494 
L 1747 4494 
L 1556 3500 
L 2706 3500 
z
" transform="scale(0.015625)"/>
      <path id="STIXSizeTwoSym-Regular-28" d="M 3219 -1555 
L 3219 -1786 
Q 2144 -774 1517 730 
Q 890 2234 890 4115 
Q 890 6003 1533 7593 
Q 2176 9184 3219 10022 
L 3219 9811 
Q 2490 9062 1994 7606 
Q 1498 6150 1498 4115 
Q 1498 563 3219 -1555 
z
" transform="scale(0.015625)"/>
      <path id="DejaVuSans-2212" d="M 678 2272 
L 4684 2272 
L 4684 1741 
L 678 1741 
L 678 2272 
z
" transform="scale(0.015625)"/>
      <path id="DejaVuSans-21" d="M 966 794 
L 1600 794 
L 1600 0 
L 966 0 
L 966 794 
z
M 966 4666 
L 1600 4666 
L 1600 2619 
L 1538 1503 
L 1031 1503 
L 966 2619 
L 966 4666 
z
" transform="scale(0.015625)"/>
      <path id="STIXSizeTwoSym-Regular-29" d="M 730 9792 
L 730 10022 
Q 1805 9011 2432 7507 
Q 3059 6003 3059 4115 
Q 3059 2234 2416 643 
Q 1773 -947 730 -1786 
L 730 -1574 
Q 1459 -826 1955 633 
Q 2451 2093 2451 4115 
Q 2451 7674 730 9792 
z
" transform="scale(0.015625)"/>
      <path id="DejaVuSans-Oblique-4c" d="M 1075 4666 
L 1709 4666 
L 909 525 
L 3181 525 
L 3078 0 
L 172 0 
L 1075 4666 
z
" transform="scale(0.015625)"/>
      <path id="DejaVuSans-2b" d="M 2944 4013 
L 2944 2272 
L 4684 2272 
L 4684 1741 
L 2944 1741 
L 2944 0 
L 2419 0 
L 2419 1741 
L 678 1741 
L 678 2272 
L 2419 2272 
L 2419 4013 
L 2944 4013 
z
" transform="scale(0.015625)"/>
      <path id="DejaVuSans-3a9" d="M 4647 556 
L 4647 0 
L 2772 0 
L 2772 556 
Q 3325 859 3634 1378 
Q 3944 1897 3944 2528 
Q 3944 3278 3531 3731 
Q 3119 4184 2444 4184 
Q 1769 4184 1355 3729 
Q 941 3275 941 2528 
Q 941 1897 1250 1378 
Q 1563 859 2119 556 
L 2119 0 
L 244 0 
L 244 556 
L 1241 556 
Q 747 991 519 1456 
Q 294 1922 294 2497 
Q 294 3491 894 4106 
Q 1491 4722 2444 4722 
Q 3391 4722 3994 4106 
Q 4594 3494 4594 2528 
Q 4594 1922 4372 1459 
Q 4150 997 3647 556 
L 4647 556 
z
" transform="scale(0.015625)"/>
     </defs>
     <use xlink:href="#DejaVuSans-46" transform="translate(0 0.465625)"/>
     <use xlink:href="#DejaVuSans-43" transform="translate(57.519531 0.465625)"/>
     <use xlink:href="#DejaVuSans-57" transform="translate(127.34375 0.465625)"/>
     <use xlink:href="#DejaVuSans-44" transform="translate(226.220703 0.465625)"/>
     <use xlink:href="#DejaVuSans-Oblique-72" transform="translate(304.179688 -15.940625) scale(0.7)"/>
     <use xlink:href="#DejaVuSans-Oblique-65" transform="translate(332.958984 -15.940625) scale(0.7)"/>
     <use xlink:href="#DejaVuSans-Oblique-63" transform="translate(376.025391 -15.940625) scale(0.7)"/>
     <use xlink:href="#DejaVuSans-28" transform="translate(417.246094 0.465625)"/>
     <use xlink:href="#DejaVuSans-Oblique-127" transform="translate(456.259766 0.465625)"/>
     <use xlink:href="#DejaVuSans-Oblique-3c9" transform="translate(525.742188 0.465625)"/>
     <use xlink:href="#DejaVuSans-2c" transform="translate(609.482422 0.465625)"/>
     <use xlink:href="#DejaVuSans-Oblique-45" transform="translate(660.751953 0.465625)"/>
     <use xlink:href="#DejaVuSans-2c" transform="translate(723.935547 0.465625)"/>
     <use xlink:href="#DejaVuSans-Oblique-54" transform="translate(775.205078 0.465625)"/>
     <use xlink:href="#DejaVuSans-29" transform="translate(836.289062 0.465625)"/>
     <use xlink:href="#DejaVuSans-3d" transform="translate(894.785156 0.465625)"/>
     <use xlink:href="#DejaVuSans-31" transform="translate(1000.056641 44.2625) scale(0.7)"/>
     <use xlink:href="#DejaVuSans-Oblique-5a" transform="translate(998.056641 -38.021875) scale(0.7)"/>
     <use xlink:href="#DejaVuSans-31" transform="translate(1200.510742 44.2625) scale(0.7)"/>
     <use xlink:href="#STIXSizeOneSym-Regular-221a" transform="translate(1058.510742 -63.976562) scale(0.468581)"/>
     <use xlink:href="#DejaVuSans-34" transform="translate(1116.834042 -66.551562) scale(0.7)"/>
     <use xlink:href="#DejaVuSans-Oblique-3c0" transform="translate(1161.370175 -66.551562) scale(0.7)"/>
     <use xlink:href="#DejaVuSans-Oblique-3bb" transform="translate(1203.51373 -66.551562) scale(0.7)"/>
     <use xlink:href="#DejaVuSans-Oblique-6c" transform="translate(1244.939511 -78.035937) scale(0.49)"/>
     <use xlink:href="#DejaVuSans-Oblique-6b" transform="translate(1260.467343 -66.551562) scale(0.7)"/>
     <use xlink:href="#DejaVuSans-Oblique-42" transform="translate(1301.004453 -78.035937) scale(0.49)"/>
     <use xlink:href="#DejaVuSans-Oblique-54" transform="translate(1336.534238 -66.551562) scale(0.7)"/>
     <use xlink:href="#DejaVuSans-221e" transform="translate(1465.543027 120.91875) scale(0.7)"/>
     <use xlink:href="#DejaVuSansDisplay-2211" transform="translate(1448.543027 0.465625)"/>
     <use xlink:href="#DejaVuSans-Oblique-77" transform="translate(1400.543027 -97.39375) scale(0.7)"/>
     <use xlink:href="#DejaVuSans-3d" transform="translate(1471.431699 -97.39375) scale(0.7)"/>
     <use xlink:href="#DejaVuSans-30" transform="translate(1543.721738 -97.39375) scale(0.7)"/>
     <use xlink:href="#DejaVuSans-221e" transform="translate(1638.25787 120.91875) scale(0.7)"/>
     <use xlink:href="#DejaVuSansDisplay-2211" transform="translate(1622.25787 0.465625)"/>
     <use xlink:href="#DejaVuSans-Oblique-74" transform="translate(1588.25787 -97.39375) scale(0.7)"/>
     <use xlink:href="#DejaVuSans-3d" transform="translate(1629.341855 -97.39375) scale(0.7)"/>
     <use xlink:href="#DejaVuSans-30" transform="translate(1701.631894 -97.39375) scale(0.7)"/>
     <use xlink:href="#STIXSizeTwoSym-Regular-28" transform="translate(1746.168027 -15.975) scale(0.793733)"/>
     <use xlink:href="#DejaVuSans-Oblique-65" transform="translate(1792.919888 45.257812) scale(0.7)"/>
     <use xlink:href="#DejaVuSans-2212" transform="translate(1839.241222 72.054688) scale(0.49)"/>
     <use xlink:href="#DejaVuSans-Oblique-53" transform="translate(1880.297862 72.054688) scale(0.49)"/>
     <use xlink:href="#DejaVuSans-Oblique-53" transform="translate(1913.31544 45.257812) scale(0.7)"/>
     <use xlink:href="#DejaVuSans-Oblique-77" transform="translate(1962.789399 72.054688) scale(0.49)"/>
     <use xlink:href="#DejaVuSans-2212" transform="translate(2012.411469 72.054688) scale(0.49)"/>
     <use xlink:href="#DejaVuSans-Oblique-74" transform="translate(2063.014496 72.054688) scale(0.49)"/>
     <use xlink:href="#DejaVuSans-Oblique-74" transform="translate(1903.919888 -38.021875) scale(0.7)"/>
     <use xlink:href="#DejaVuSans-21" transform="translate(1931.366177 -38.021875) scale(0.7)"/>
     <use xlink:href="#STIXSizeTwoSym-Regular-29" transform="translate(2096.640961 -15.975) scale(0.793733)"/>
     <use xlink:href="#DejaVuSans-31" transform="translate(2171.900956 44.2625) scale(0.7)"/>
     <use xlink:href="#DejaVuSans-Oblique-77" transform="translate(2144.900956 -38.021875) scale(0.7)"/>
     <use xlink:href="#DejaVuSans-21" transform="translate(2202.151932 -38.021875) scale(0.7)"/>
     <use xlink:href="#STIXSizeOneSym-Regular-28" transform="translate(2256.351151 -11.628125) scale(0.933155)"/>
     <use xlink:href="#DejaVuSans-Oblique-4c" transform="translate(2300.050644 0.465625)"/>
     <use xlink:href="#DejaVuSans-Oblique-77" transform="translate(2362.780306 38.746875) scale(0.7)"/>
     <use xlink:href="#DejaVuSans-2212" transform="translate(2433.668978 38.746875) scale(0.7)"/>
     <use xlink:href="#DejaVuSans-Oblique-74" transform="translate(2505.959017 38.746875) scale(0.7)"/>
     <use xlink:href="#DejaVuSans-Oblique-74" transform="translate(2355.763535 -26.878125) scale(0.7)"/>
     <use xlink:href="#DejaVuSans-28" transform="translate(2536.139681 0.465625)"/>
     <use xlink:href="#DejaVuSans-Oblique-53" transform="translate(2575.153353 0.465625)"/>
     <use xlink:href="#DejaVuSans-29" transform="translate(2638.629915 0.465625)"/>
     <use xlink:href="#STIXSizeOneSym-Regular-29" transform="translate(2677.643587 -11.628125) scale(0.933155)"/>
     <use xlink:href="#DejaVuSans-32" transform="translate(2722.300112 38.746875) scale(0.7)"/>
     <use xlink:href="#DejaVuSans-Oblique-65" transform="translate(2769.57062 0.465625)"/>
     <use xlink:href="#DejaVuSans-2212" transform="translate(2835.743953 38.746875) scale(0.7)"/>
     <use xlink:href="#DejaVuSans-28" transform="translate(2894.396297 77.44375) scale(0.49)"/>
     <use xlink:href="#DejaVuSans-Oblique-127" transform="translate(2913.512996 77.44375) scale(0.49)"/>
     <use xlink:href="#DejaVuSans-Oblique-3c9" transform="translate(2947.559383 77.44375) scale(0.49)"/>
     <use xlink:href="#DejaVuSans-2212" transform="translate(2998.138484 77.44375) scale(0.49)"/>
     <use xlink:href="#DejaVuSans-Oblique-45" transform="translate(3048.741512 77.44375) scale(0.49)"/>
     <use xlink:href="#DejaVuSans-2b" transform="translate(3089.247859 77.44375) scale(0.49)"/>
     <use xlink:href="#DejaVuSans-Oblique-3bb" transform="translate(3139.850887 77.44375) scale(0.49)"/>
     <use xlink:href="#DejaVuSans-Oblique-6c" transform="translate(3168.848933 69.404687) scale(0.343)"/>
     <use xlink:href="#DejaVuSans-2b" transform="translate(3189.264803 77.44375) scale(0.49)"/>
     <use xlink:href="#DejaVuSans-28" transform="translate(3239.86783 77.44375) scale(0.49)"/>
     <use xlink:href="#DejaVuSans-Oblique-77" transform="translate(3258.984529 77.44375) scale(0.49)"/>
     <use xlink:href="#DejaVuSans-2212" transform="translate(3308.606599 77.44375) scale(0.49)"/>
     <use xlink:href="#DejaVuSans-Oblique-74" transform="translate(3359.209627 77.44375) scale(0.49)"/>
     <use xlink:href="#DejaVuSans-29" transform="translate(3378.422029 77.44375) scale(0.49)"/>
     <use xlink:href="#DejaVuSans-Oblique-127" transform="translate(3397.538728 77.44375) scale(0.49)"/>
     <use xlink:href="#DejaVuSans-3a9" transform="translate(3431.585115 77.44375) scale(0.49)"/>
     <use xlink:href="#DejaVuSans-29" transform="translate(3469.028963 77.44375) scale(0.49)"/>
     <use xlink:href="#DejaVuSans-32" transform="translate(3488.614607 96.201562) scale(0.343)"/>
     <use xlink:href="#DejaVuSans-34" transform="translate(3126.396297 10.297344) scale(0.49)"/>
     <use xlink:href="#DejaVuSans-Oblique-3bb" transform="translate(3157.57159 10.297344) scale(0.49)"/>
     <use xlink:href="#DejaVuSans-Oblique-6c" transform="translate(3186.569637 2.258281) scale(0.343)"/>
     <use xlink:href="#DejaVuSans-Oblique-6b" transform="translate(3197.439119 10.297344) scale(0.49)"/>
     <use xlink:href="#DejaVuSans-Oblique-42" transform="translate(3225.815096 2.258281) scale(0.343)"/>
     <use xlink:href="#DejaVuSans-Oblique-54" transform="translate(3250.685945 10.297344) scale(0.49)"/>
     <use xlink:href="#DejaVuSans-Oblique-65" transform="translate(3523.261531 0.465625)"/>
     <use xlink:href="#DejaVuSans-2212" transform="translate(3589.434864 69.404687) scale(0.49)"/>
     <use xlink:href="#DejaVuSans-Oblique-74" transform="translate(3630.491505 69.404687) scale(0.49)"/>
     <use xlink:href="#DejaVuSans-Oblique-127" transform="translate(3649.703907 69.404687) scale(0.49)"/>
     <use xlink:href="#DejaVuSans-3a9" transform="translate(3683.750294 69.404687) scale(0.49)"/>
     <use xlink:href="#DejaVuSans-2212" transform="translate(3730.740528 69.404687) scale(0.49)"/>
     <use xlink:href="#DejaVuSans-Oblique-45" transform="translate(3781.343556 69.404687) scale(0.49)"/>
     <use xlink:href="#DejaVuSans-Oblique-6b" transform="translate(3659.434864 10.297344) scale(0.49)"/>
     <use xlink:href="#DejaVuSans-Oblique-42" transform="translate(3687.810841 2.258281) scale(0.343)"/>
     <use xlink:href="#DejaVuSans-Oblique-54" transform="translate(3712.681691 10.297344) scale(0.49)"/>
     <path d="M 998.056641 19.2625 
L 998.056641 25.5125 
L 1046.010742 25.5125 
L 1046.010742 19.2625 
L 998.056641 19.2625 
z
"/>
     <path d="M 1058.510742 19.2625 
L 1058.510742 25.5125 
L 1388.043027 25.5125 
L 1388.043027 19.2625 
L 1058.510742 19.2625 
z
"/>
     <path d="M 1108.084042 4.2625 
L 1108.084042 8.6375 
L 1388.043027 8.6375 
L 1388.043027 4.2625 
L 1108.084042 4.2625 
z
"/>
     <path d="M 1792.919888 19.2625 
L 1792.919888 25.5125 
L 2084.140961 25.5125 
L 2084.140961 19.2625 
L 1792.919888 19.2625 
z
"/>
     <path d="M 2144.900956 19.2625 
L 2144.900956 25.5125 
L 2243.851151 25.5125 
L 2243.851151 19.2625 
L 2144.900956 19.2625 
z
"/>
     <path d="M 2894.396297 51.904687 
L 2894.396297 56.279687 
L 3511.777156 56.279687 
L 3511.777156 51.904687 
L 2894.396297 51.904687 
z
"/>
     <path d="M 3589.434864 51.904687 
L 3589.434864 56.279687 
L 3812.303517 56.279687 
L 3812.303517 51.904687 
L 3589.434864 51.904687 
z
"/>
    </g>
    <!--  -->
    <g style="fill: #262626" transform="translate(389.6 168.31625) scale(0.2 -0.2)"/>
    <!--  $PL(\hbar\omega,T)=\sum_{S_x} n_{S_x} k_{r,S_xS_0} (\hbar\omega,T)$  ;  $Lifetime(T) = \frac{1}{k_{nr} ( T)+ \int_{\hbar\omega} k_r (\hbar\omega. T)}$ -->
    <g style="fill: #262626" transform="translate(88.1 196.955625) scale(0.2 -0.2)">
     <defs>
      <path id="DejaVuSans-20" transform="scale(0.015625)"/>
      <path id="DejaVuSans-Oblique-50" d="M 1081 4666 
L 2541 4666 
Q 3178 4666 3512 4369 
Q 3847 4072 3847 3500 
Q 3847 2731 3353 2303 
Q 2859 1875 1966 1875 
L 1172 1875 
L 806 0 
L 172 0 
L 1081 4666 
z
M 1613 4147 
L 1275 2394 
L 2069 2394 
Q 2606 2394 2893 2669 
Q 3181 2944 3181 3456 
Q 3181 3784 2986 3965 
Q 2791 4147 2438 4147 
L 1613 4147 
z
" transform="scale(0.015625)"/>
      <path id="DejaVuSans-3b" d="M 750 3309 
L 1409 3309 
L 1409 2516 
L 750 2516 
L 750 3309 
z
M 750 794 
L 1409 794 
L 1409 256 
L 897 -744 
L 494 -744 
L 750 256 
L 750 794 
z
" transform="scale(0.015625)"/>
      <path id="DejaVuSans-Oblique-66" d="M 3059 4863 
L 2969 4384 
L 2419 4384 
Q 2106 4384 1964 4261 
Q 1822 4138 1753 3809 
L 1691 3500 
L 2638 3500 
L 2553 3053 
L 1606 3053 
L 1013 0 
L 434 0 
L 1031 3053 
L 481 3053 
L 563 3500 
L 1113 3500 
L 1159 3744 
Q 1278 4363 1576 4613 
Q 1875 4863 2516 4863 
L 3059 4863 
z
" transform="scale(0.015625)"/>
      <path id="DejaVuSans-2e" d="M 684 794 
L 1344 794 
L 1344 0 
L 684 0 
L 684 794 
z
" transform="scale(0.015625)"/>
     </defs>
     <use xlink:href="#DejaVuSans-20" transform="translate(0 0.296875)"/>
     <use xlink:href="#DejaVuSans-Oblique-50" transform="translate(31.787109 0.296875)"/>
     <use xlink:href="#DejaVuSans-Oblique-4c" transform="translate(92.089844 0.296875)"/>
     <use xlink:href="#DejaVuSans-28" transform="translate(147.802734 0.296875)"/>
     <use xlink:href="#DejaVuSans-Oblique-127" transform="translate(186.816406 0.296875)"/>
     <use xlink:href="#DejaVuSans-Oblique-3c9" transform="translate(256.298828 0.296875)"/>
     <use xlink:href="#DejaVuSans-2c" transform="translate(340.039062 0.296875)"/>
     <use xlink:href="#DejaVuSans-Oblique-54" transform="translate(391.308594 0.296875)"/>
     <use xlink:href="#DejaVuSans-29" transform="translate(452.392578 0.296875)"/>
     <use xlink:href="#DejaVuSans-3d" transform="translate(510.888672 0.296875)"/>
     <use xlink:href="#DejaVuSansDisplay-2211" transform="translate(614.160156 0.296875)"/>
     <use xlink:href="#DejaVuSans-Oblique-53" transform="translate(622.160156 -97.5625) scale(0.7)"/>
     <use xlink:href="#DejaVuSans-Oblique-78" transform="translate(666.59375 -109.046875) scale(0.49)"/>
     <use xlink:href="#DejaVuSans-Oblique-6e" transform="translate(704.925781 0.296875)"/>
     <use xlink:href="#DejaVuSans-Oblique-53" transform="translate(768.304688 -16.109375) scale(0.7)"/>
     <use xlink:href="#DejaVuSans-Oblique-78" transform="translate(812.738281 -27.59375) scale(0.49)"/>
     <use xlink:href="#DejaVuSans-Oblique-6b" transform="translate(846.384766 0.296875)"/>
     <use xlink:href="#DejaVuSans-Oblique-72" transform="translate(904.294922 -16.109375) scale(0.7)"/>
     <use xlink:href="#DejaVuSans-2c" transform="translate(933.074219 -16.109375) scale(0.7)"/>
     <use xlink:href="#DejaVuSans-Oblique-53" transform="translate(968.962891 -16.109375) scale(0.7)"/>
     <use xlink:href="#DejaVuSans-Oblique-78" transform="translate(1013.396484 -27.59375) scale(0.49)"/>
     <use xlink:href="#DejaVuSans-Oblique-53" transform="translate(1044.308594 -16.109375) scale(0.7)"/>
     <use xlink:href="#DejaVuSans-30" transform="translate(1088.742188 -27.59375) scale(0.49)"/>
     <use xlink:href="#DejaVuSans-28" transform="translate(1124.565918 0.296875)"/>
     <use xlink:href="#DejaVuSans-Oblique-127" transform="translate(1163.57959 0.296875)"/>
     <use xlink:href="#DejaVuSans-Oblique-3c9" transform="translate(1233.062012 0.296875)"/>
     <use xlink:href="#DejaVuSans-2c" transform="translate(1316.802246 0.296875)"/>
     <use xlink:href="#DejaVuSans-Oblique-54" transform="translate(1368.071777 0.296875)"/>
     <use xlink:href="#DejaVuSans-29" transform="translate(1429.155762 0.296875)"/>
     <use xlink:href="#DejaVuSans-20" transform="translate(1468.169434 0.296875)"/>
     <use xlink:href="#DejaVuSans-20" transform="translate(1499.956543 0.296875)"/>
     <use xlink:href="#DejaVuSans-3b" transform="translate(1531.743652 0.296875)"/>
     <use xlink:href="#DejaVuSans-20" transform="translate(1565.435059 0.296875)"/>
     <use xlink:href="#DejaVuSans-20" transform="translate(1597.222168 0.296875)"/>
     <use xlink:href="#DejaVuSans-Oblique-4c" transform="translate(1629.009277 0.296875)"/>
     <use xlink:href="#DejaVuSans-Oblique-69" transform="translate(1684.722168 0.296875)"/>
     <use xlink:href="#DejaVuSans-Oblique-66" transform="translate(1712.505371 0.296875)"/>
     <use xlink:href="#DejaVuSans-Oblique-65" transform="translate(1747.710449 0.296875)"/>
     <use xlink:href="#DejaVuSans-Oblique-74" transform="translate(1809.233887 0.296875)"/>
     <use xlink:href="#DejaVuSans-Oblique-69" transform="translate(1848.442871 0.296875)"/>
     <use xlink:href="#DejaVuSans-Oblique-6d" transform="translate(1876.226074 0.296875)"/>
     <use xlink:href="#DejaVuSans-Oblique-65" transform="translate(1973.638184 0.296875)"/>
     <use xlink:href="#DejaVuSans-28" transform="translate(2035.161621 0.296875)"/>
     <use xlink:href="#DejaVuSans-Oblique-54" transform="translate(2074.175293 0.296875)"/>
     <use xlink:href="#DejaVuSans-29" transform="translate(2135.259277 0.296875)"/>
     <use xlink:href="#DejaVuSans-3d" transform="translate(2193.755371 0.296875)"/>
     <use xlink:href="#DejaVuSans-31" transform="translate(2627.026855 44.09375) scale(0.7)"/>
     <use xlink:href="#DejaVuSans-Oblique-6b" transform="translate(2297.026855 -62.078125) scale(0.7)"/>
     <use xlink:href="#DejaVuSans-Oblique-6e" transform="translate(2337.563965 -73.5625) scale(0.49)"/>
     <use xlink:href="#DejaVuSans-Oblique-72" transform="translate(2368.619629 -73.5625) scale(0.49)"/>
     <use xlink:href="#DejaVuSans-28" transform="translate(2390.679199 -62.078125) scale(0.7)"/>
     <use xlink:href="#DejaVuSans-Oblique-54" transform="translate(2417.98877 -62.078125) scale(0.7)"/>
     <use xlink:href="#DejaVuSans-29" transform="translate(2460.747559 -62.078125) scale(0.7)"/>
     <use xlink:href="#DejaVuSans-2b" transform="translate(2501.694824 -62.078125) scale(0.7)"/>
     <use xlink:href="#DejaVuSansDisplay-222b" transform="translate(2573.984863 -62.078125) scale(0.7)"/>
     <use xlink:href="#DejaVuSans-Oblique-127" transform="translate(2624.216699 -98.4125) scale(0.49)"/>
     <use xlink:href="#DejaVuSans-Oblique-3c9" transform="translate(2658.263086 -98.4125) scale(0.49)"/>
     <use xlink:href="#DejaVuSans-Oblique-6b" transform="translate(2699.295801 -62.078125) scale(0.7)"/>
     <use xlink:href="#DejaVuSans-Oblique-72" transform="translate(2739.83291 -73.5625) scale(0.49)"/>
     <use xlink:href="#DejaVuSans-28" transform="translate(2761.89248 -62.078125) scale(0.7)"/>
     <use xlink:href="#DejaVuSans-Oblique-127" transform="translate(2789.202051 -62.078125) scale(0.7)"/>
     <use xlink:href="#DejaVuSans-Oblique-3c9" transform="translate(2837.839746 -62.078125) scale(0.7)"/>
     <use xlink:href="#DejaVuSans-2e" transform="translate(2896.45791 -62.078125) scale(0.7)"/>
     <use xlink:href="#DejaVuSans-Oblique-54" transform="translate(2932.346582 -62.078125) scale(0.7)"/>
     <use xlink:href="#DejaVuSans-29" transform="translate(2975.105371 -62.078125) scale(0.7)"/>
     <path d="M 2297.026855 19.09375 
L 2297.026855 25.34375 
L 3002.414941 25.34375 
L 3002.414941 19.09375 
L 2297.026855 19.09375 
z
"/>
    </g>
    <!--  -->
    <g style="fill: #262626" transform="translate(389.6 237.191875) scale(0.2 -0.2)"/>
   </g>
  </g>
 </g>
</svg>
