
<svg width="200" height="210" xmlns="http://www.w3.org/2000/svg">
  <rect width="100%" height="100%" fill="white"/>
  
<g transform="translate(0, 0)">
  <rect x="0" y="0" width="200" height="30" fill="#f0f0f0" />
  <text x="10" y="20" font-family="Verdana" font-size="15">300</text>
  <text x="110" y="20" font-family="Verdana" font-size="15">1.1e-09</text>
</g>

<g transform="translate(0, 30)">
  <rect x="0" y="0" width="200" height="30" fill="#ffffff" />
  <text x="10" y="20" font-family="Verdana" font-size="15">260</text>
  <text x="110" y="20" font-family="Verdana" font-size="15">1.17e-09</text>
</g>

<g transform="translate(0, 60)">
  <rect x="0" y="0" width="200" height="30" fill="#f0f0f0" />
  <text x="10" y="20" font-family="Verdana" font-size="15">220</text>
  <text x="110" y="20" font-family="Verdana" font-size="15">1.18e-09</text>
</g>

<g transform="translate(0, 90)">
  <rect x="0" y="0" width="200" height="30" fill="#ffffff" />
  <text x="10" y="20" font-family="Verdana" font-size="15">180</text>
  <text x="110" y="20" font-family="Verdana" font-size="15">1.14e-09</text>
</g>

<g transform="translate(0, 120)">
  <rect x="0" y="0" width="200" height="30" fill="#f0f0f0" />
  <text x="10" y="20" font-family="Verdana" font-size="15">140</text>
  <text x="110" y="20" font-family="Verdana" font-size="15">1.13e-09</text>
</g>

<g transform="translate(0, 150)">
  <rect x="0" y="0" width="200" height="30" fill="#ffffff" />
  <text x="10" y="20" font-family="Verdana" font-size="15">100</text>
  <text x="110" y="20" font-family="Verdana" font-size="15">1.12e-09</text>
</g>

<g transform="translate(0, 180)">
  <rect x="0" y="0" width="200" height="30" fill="#f0f0f0" />
  <text x="10" y="20" font-family="Verdana" font-size="15">60</text>
  <text x="110" y="20" font-family="Verdana" font-size="15">1.09e-09</text>
</g>

</svg>
