<?xml version="1.0" encoding="utf-8" standalone="no"?>
<!DOCTYPE svg PUBLIC "-//W3C//DTD SVG 1.1//EN"
  "http://www.w3.org/Graphics/SVG/1.1/DTD/svg11.dtd">
<svg xmlns:xlink="http://www.w3.org/1999/xlink" width="720pt" height="432pt" viewBox="0 0 720 432" xmlns="http://www.w3.org/2000/svg" version="1.1">
 <metadata>
  <rdf:RDF xmlns:dc="http://purl.org/dc/elements/1.1/" xmlns:cc="http://creativecommons.org/ns#" xmlns:rdf="http://www.w3.org/1999/02/22-rdf-syntax-ns#">
   <cc:Work>
    <dc:type rdf:resource="http://purl.org/dc/dcmitype/StillImage"/>
    <dc:date>2024-11-21T15:11:20.358057</dc:date>
    <dc:format>image/svg+xml</dc:format>
    <dc:creator>
     <cc:Agent>
      <dc:title>Matplotlib v3.9.2, https://matplotlib.org/</dc:title>
     </cc:Agent>
    </dc:creator>
   </cc:Work>
  </rdf:RDF>
 </metadata>
 <defs>
  <style type="text/css">*{stroke-linejoin: round; stroke-linecap: butt}</style>
 </defs>
 <g id="figure_1">
  <g id="patch_1">
   <path d="M 0 432 
L 720 432 
L 720 0 
L 0 0 
z
" style="fill: #ffffff"/>
  </g>
  <g id="axes_1">
   <g id="matplotlib.axis_1"/>
   <g id="matplotlib.axis_2"/>
   <g id="line2d_1">
    <path d="M 95.294944 -1 
L 99.478697 29.880438 
L 104.140351 62.061671 
L 108.802005 92.045402 
L 113.463659 119.945914 
L 118.125313 145.872064 
L 121.233083 162.110701 
L 124.340852 177.547512 
L 127.448622 192.211041 
L 130.556391 206.128913 
L 133.66416 219.327865 
L 136.77193 231.833772 
L 139.879699 243.671676 
L 142.987469 254.865806 
L 146.095238 265.43961 
L 149.203008 275.415776 
L 152.310777 284.816253 
L 155.418546 293.662279 
L 158.526316 301.9744 
L 161.634085 309.77249 
L 164.741855 317.075775 
L 167.849624 323.902852 
L 170.957393 330.271707 
L 174.065163 336.199737 
L 177.172932 341.703766 
L 180.280702 346.800062 
L 183.388471 351.504356 
L 186.496241 355.831861 
L 189.60401 359.797283 
L 192.711779 363.414839 
L 195.819549 366.698275 
L 198.927318 369.660878 
L 202.035088 372.315488 
L 205.142857 374.674518 
L 208.250627 376.749963 
L 211.358396 378.553414 
L 214.466165 380.096071 
L 217.573935 381.388757 
L 220.681704 382.441924 
L 223.789474 383.265674 
L 226.897243 383.869762 
L 230.005013 384.263609 
L 233.112782 384.456316 
L 236.220551 384.45667 
L 239.328321 384.273155 
L 242.43609 383.913962 
L 245.54386 383.387001 
L 248.651629 382.699903 
L 253.313283 381.385049 
L 257.974937 379.750193 
L 262.636591 377.817882 
L 267.298246 375.60948 
L 271.9599 373.145225 
L 276.621554 370.44428 
L 281.283208 367.524791 
L 287.498747 363.321726 
L 293.714286 358.798722 
L 299.929825 353.991205 
L 306.145363 348.932037 
L 313.914787 342.300381 
L 321.684211 335.377553 
L 331.007519 326.755253 
L 341.884712 316.35793 
L 354.315789 304.159598 
L 372.962406 285.513274 
L 405.593985 252.838656 
L 421.132832 237.599639 
L 435.117794 224.18807 
L 447.548872 212.557275 
L 459.97995 201.233107 
L 472.411028 190.23987 
L 483.288221 180.90662 
L 494.165414 171.849444 
L 505.042607 163.074414 
L 515.919799 154.585272 
L 526.796992 146.383745 
L 537.674185 138.469839 
L 548.551378 130.842081 
L 559.428571 123.497752 
L 570.305764 116.433074 
L 581.182957 109.643392 
L 592.06015 103.12332 
L 602.937343 96.866878 
L 613.814536 90.867609 
L 624.691729 85.118682 
L 635.568922 79.612981 
L 646.446115 74.343183 
L 648 73.609179 
L 648 73.609179 
" clip-path="url(#pcc5c7e85a8)" style="fill: none; stroke: #000000; stroke-width: 1.5; stroke-linecap: square"/>
   </g>
   <g id="line2d_2">
    <path d="M 176.129359 -1 
L 180.125313 21.132064 
L 183.233083 37.370701 
L 186.340852 52.807512 
L 189.448622 67.471041 
L 192.556391 81.388913 
L 195.66416 94.587865 
L 198.77193 107.093772 
L 201.879699 118.931676 
L 204.987469 130.125806 
L 208.095238 140.69961 
L 211.203008 150.675776 
L 214.310777 160.076253 
L 217.418546 168.922279 
L 220.526316 177.2344 
L 223.634085 185.03249 
L 226.741855 192.335775 
L 229.849624 199.162852 
L 232.957393 205.531707 
L 236.065163 211.459737 
L 239.172932 216.963766 
L 242.280702 222.060062 
L 245.388471 226.764356 
L 248.496241 231.091861 
L 251.60401 235.057283 
L 254.711779 238.674839 
L 257.819549 241.958275 
L 260.927318 244.920878 
L 264.035088 247.575488 
L 267.142857 249.934518 
L 270.250627 252.009963 
L 273.358396 253.813414 
L 276.466165 255.356071 
L 279.573935 256.648757 
L 282.681704 257.701924 
L 285.789474 258.525674 
L 288.897243 259.129762 
L 292.005013 259.523609 
L 295.112782 259.716316 
L 298.220551 259.71667 
L 301.328321 259.533155 
L 304.43609 259.173962 
L 307.54386 258.647001 
L 310.651629 257.959903 
L 315.313283 256.645049 
L 319.974937 255.010193 
L 324.636591 253.077882 
L 329.298246 250.86948 
L 333.9599 248.405225 
L 338.621554 245.70428 
L 343.283208 242.784791 
L 349.498747 238.581726 
L 355.714286 234.058722 
L 361.929825 229.251205 
L 368.145363 224.192037 
L 375.914787 217.560381 
L 383.684211 210.637553 
L 393.007519 202.015253 
L 403.884712 191.61793 
L 416.315789 179.419598 
L 434.962406 160.773274 
L 467.593985 128.098656 
L 483.132832 112.859639 
L 497.117794 99.44807 
L 509.548872 87.817275 
L 521.97995 76.493107 
L 534.411028 65.49987 
L 545.288221 56.16662 
L 556.165414 47.109444 
L 567.042607 38.334414 
L 577.919799 29.845272 
L 588.796992 21.643745 
L 599.674185 13.729839 
L 610.551378 6.102081 
L 621.063807 -1 
L 621.063807 -1 
" clip-path="url(#pcc5c7e85a8)" style="fill: none; stroke: #ff0000; stroke-width: 1.5; stroke-linecap: square"/>
   </g>
   <g id="line2d_3">
    <path d="M 176.858911 -1 
L 180.125313 16.974064 
L 183.233083 33.212701 
L 186.340852 48.649512 
L 189.448622 63.313041 
L 192.556391 77.230913 
L 195.66416 90.429865 
L 198.77193 102.935772 
L 201.879699 114.773676 
L 204.987469 125.967806 
L 208.095238 136.54161 
L 211.203008 146.517776 
L 214.310777 155.918253 
L 217.418546 164.764279 
L 220.526316 173.0764 
L 223.634085 180.87449 
L 226.741855 188.177775 
L 229.849624 195.004852 
L 232.957393 201.373707 
L 236.065163 207.301737 
L 239.172932 212.805766 
L 242.280702 217.902062 
L 245.388471 222.606356 
L 248.496241 226.933861 
L 251.60401 230.899283 
L 254.711779 234.516839 
L 257.819549 237.800275 
L 260.927318 240.762878 
L 264.035088 243.417488 
L 267.142857 245.776518 
L 270.250627 247.851963 
L 273.358396 249.655414 
L 276.466165 251.198071 
L 279.573935 252.490757 
L 282.681704 253.543924 
L 285.789474 254.367674 
L 288.897243 254.971762 
L 292.005013 255.365609 
L 295.112782 255.558316 
L 298.220551 255.55867 
L 301.328321 255.375155 
L 304.43609 255.015962 
L 307.54386 254.489001 
L 310.651629 253.801903 
L 315.313283 252.487049 
L 319.974937 250.852193 
L 324.636591 248.919882 
L 329.298246 246.71148 
L 333.9599 244.247225 
L 338.621554 241.54628 
L 343.283208 238.626791 
L 349.498747 234.423726 
L 355.714286 229.900722 
L 361.929825 225.093205 
L 368.145363 220.034037 
L 375.914787 213.402381 
L 383.684211 206.479553 
L 393.007519 197.857253 
L 403.884712 187.45993 
L 416.315789 175.261598 
L 434.962406 156.615274 
L 467.593985 123.940656 
L 483.132832 108.701639 
L 497.117794 95.29007 
L 509.548872 83.659275 
L 521.97995 72.335107 
L 534.411028 61.34187 
L 545.288221 52.00862 
L 556.165414 42.951444 
L 567.042607 34.176414 
L 577.919799 25.687272 
L 588.796992 17.485745 
L 599.674185 9.571839 
L 610.551378 1.944081 
L 614.862468 -1 
L 614.862468 -1 
" clip-path="url(#pcc5c7e85a8)" style="fill: none; stroke: #ff0000; stroke-opacity: 0.5; stroke-width: 1.5; stroke-linecap: square"/>
   </g>
   <g id="line2d_4">
    <path d="M 175.401351 -1 
L 178.571429 16.860884 
L 181.679198 33.511431 
L 184.786967 49.345529 
L 187.894737 64.392189 
L 191.002506 78.679492 
L 194.110276 92.234617 
L 197.218045 105.083865 
L 200.325815 117.252692 
L 203.433584 128.765729 
L 206.541353 139.646813 
L 209.649123 149.919009 
L 212.756892 159.604632 
L 215.864662 168.725272 
L 218.972431 177.30182 
L 222.080201 185.354482 
L 225.18797 192.902806 
L 228.295739 199.965701 
L 231.403509 206.561456 
L 234.511278 212.707761 
L 237.619048 218.421722 
L 240.726817 223.719885 
L 243.834586 228.618246 
L 246.942356 233.132277 
L 250.050125 237.276932 
L 253.157895 241.066674 
L 256.265664 244.515481 
L 259.373434 247.636868 
L 262.481203 250.443896 
L 265.588972 252.949191 
L 268.696742 255.164955 
L 271.804511 257.102979 
L 274.912281 258.774657 
L 278.02005 260.190999 
L 281.12782 261.362641 
L 284.235589 262.299859 
L 287.343358 263.012579 
L 290.451128 263.51039 
L 293.558897 263.802549 
L 296.666667 263.898 
L 299.774436 263.805377 
L 302.882206 263.533017 
L 305.989975 263.088969 
L 309.097744 262.481002 
L 313.759398 261.278038 
L 318.421053 259.747284 
L 323.082707 257.911694 
L 327.744361 255.793019 
L 332.406015 253.411867 
L 337.067669 250.787753 
L 341.729323 247.939157 
L 347.944862 243.821929 
L 354.160401 239.375485 
L 360.37594 234.635918 
L 366.591479 229.636716 
L 374.360902 223.069678 
L 382.130326 216.200964 
L 391.453634 207.631106 
L 402.330827 197.279664 
L 414.761905 185.116244 
L 431.854637 168.054325 
L 469.14787 130.719363 
L 484.686717 115.511952 
L 498.671679 102.136454 
L 511.102757 90.542422 
L 523.533835 79.258428 
L 534.411028 69.65787 
L 545.288221 60.32462 
L 556.165414 51.267444 
L 567.042607 42.492414 
L 577.919799 34.003272 
L 588.796992 25.801745 
L 599.674185 17.887839 
L 610.551378 10.260081 
L 621.428571 2.915752 
L 627.405196 -1 
L 627.405196 -1 
" clip-path="url(#pcc5c7e85a8)" style="fill: none; stroke: #ff0000; stroke-opacity: 0.5; stroke-width: 1.5; stroke-linecap: square"/>
   </g>
   <g id="line2d_5">
    <path d="M 95.294944 -1 
L 99.478697 29.880438 
L 104.140351 62.061671 
L 108.802005 92.045402 
L 113.463659 119.945914 
L 118.125313 145.872064 
L 121.233083 162.110701 
L 124.340852 177.547512 
L 127.448622 192.211041 
L 130.556391 206.128913 
L 133.66416 219.327865 
L 136.77193 231.833772 
L 139.879699 243.671676 
L 142.987469 254.865806 
L 146.095238 265.43961 
L 149.203008 275.415776 
L 152.310777 284.816253 
L 155.418546 293.662279 
L 158.526316 301.9744 
L 161.634085 309.77249 
L 164.741855 317.075775 
L 167.849624 323.902852 
L 170.957393 330.271707 
L 174.065163 336.199737 
L 177.172932 341.703766 
L 180.280702 346.800062 
L 183.388471 351.504356 
L 186.496241 355.831861 
L 189.60401 359.797283 
L 192.711779 363.414839 
L 195.819549 366.698275 
L 198.927318 369.643224 
L 276.621554 369.643224 
L 278.175439 369.494532 
L 282.837093 366.506058 
L 289.052632 362.21954 
L 295.26817 357.62219 
L 301.483709 352.748776 
L 309.253133 346.317692 
L 317.022556 339.563307 
L 326.345865 331.104905 
L 335.669173 322.337914 
L 346.546366 311.815892 
L 360.531328 297.975543 
L 391.609023 266.775532 
L 410.255639 248.234963 
L 425.794486 233.093721 
L 439.779449 219.79242 
L 452.210526 208.273327 
L 464.641604 197.070765 
L 475.518797 187.545513 
L 486.39599 178.290372 
L 497.273183 169.313298 
L 508.150376 160.619662 
L 519.027569 152.2126 
L 529.904762 144.093319 
L 540.781955 136.261378 
L 551.659148 128.714927 
L 562.536341 121.450925 
L 573.413534 114.465327 
L 584.290727 107.753255 
L 595.16792 101.309138 
L 606.045113 95.126851 
L 616.922306 89.199819 
L 627.799499 83.521122 
L 638.676692 78.083577 
L 648 73.609179 
L 648 73.609179 
" clip-path="url(#pcc5c7e85a8)" style="fill: none; stroke-dasharray: 5.55,2.4; stroke-dashoffset: 0; stroke: #000000; stroke-opacity: 0.5; stroke-width: 1.5"/>
   </g>
   <g id="line2d_6">
    <path d="M 95.294944 -1 
L 99.478697 29.880438 
L 104.140351 62.061671 
L 108.802005 92.045402 
L 113.463659 119.945914 
L 118.125313 145.872064 
L 121.233083 162.110701 
L 124.340852 177.547512 
L 127.448622 192.211041 
L 130.556391 206.128913 
L 133.66416 219.327865 
L 136.77193 231.833772 
L 139.879699 243.671676 
L 142.987469 254.865806 
L 146.095238 265.43961 
L 149.203008 275.415776 
L 152.310777 284.816253 
L 155.418546 293.662279 
L 158.526316 301.9744 
L 161.634085 309.77249 
L 164.741855 317.075775 
L 167.849624 323.902852 
L 170.957393 330.271707 
L 174.065163 336.199737 
L 177.172932 341.703766 
L 180.280702 346.800062 
L 183.388471 351.504356 
L 186.496241 355.831861 
L 189.60401 359.797283 
L 191.157895 361.648674 
L 192.711779 361.665737 
L 198.927318 360.59193 
L 205.142857 359.286321 
L 212.912281 357.408747 
L 226.897243 353.704874 
L 236.220551 351.31251 
L 243.989975 349.550078 
L 250.205514 348.371969 
L 256.421053 347.451665 
L 261.082707 346.953237 
L 265.744361 346.632057 
L 270.406015 346.495377 
L 275.067669 346.54628 
L 279.729323 346.783619 
L 284.390977 347.202035 
L 290.606516 348.024714 
L 296.822055 349.119112 
L 303.037594 350.44138 
L 304.591479 350.218716 
L 312.360902 343.651678 
L 320.130326 336.782964 
L 329.453634 328.213106 
L 340.330827 317.861664 
L 352.761905 305.698244 
L 369.854637 288.636325 
L 407.14787 251.301363 
L 422.686717 236.093952 
L 436.671679 222.718454 
L 449.102757 211.124422 
L 461.533835 199.840428 
L 472.411028 190.23987 
L 483.288221 180.90662 
L 494.165414 171.849444 
L 505.042607 163.074414 
L 515.919799 154.585272 
L 526.796992 146.383745 
L 537.674185 138.469839 
L 548.551378 130.842081 
L 559.428571 123.497752 
L 570.305764 116.433074 
L 581.182957 109.643392 
L 592.06015 103.12332 
L 602.937343 96.866878 
L 613.814536 90.867609 
L 624.691729 85.118682 
L 635.568922 79.612981 
L 646.446115 74.343183 
L 648 73.609179 
L 648 73.609179 
" clip-path="url(#pcc5c7e85a8)" style="fill: none; stroke-dasharray: 5.55,2.4; stroke-dashoffset: 0; stroke: #000000; stroke-opacity: 0.5; stroke-width: 1.5"/>
   </g>
   <g id="line2d_7">
    <path d="M 95.294944 -1 
L 99.478697 29.880438 
L 104.140351 62.061671 
L 108.802005 92.045402 
L 113.463659 119.945914 
L 118.125313 145.872064 
L 121.233083 162.110701 
L 124.340852 177.547512 
L 127.448622 192.211041 
L 130.556391 206.128913 
L 133.66416 219.327865 
L 136.77193 231.833772 
L 139.879699 243.671676 
L 142.987469 254.865806 
L 146.095238 265.43961 
L 149.203008 275.415776 
L 152.310777 284.816253 
L 155.418546 293.662279 
L 158.526316 301.9744 
L 161.634085 309.77249 
L 164.741855 317.075775 
L 167.849624 323.902852 
L 170.957393 330.271707 
L 174.065163 336.199737 
L 177.172932 341.615955 
L 181.834586 343.956823 
L 184.942356 345.33039 
L 188.050125 346.489173 
L 191.157895 347.386744 
L 194.265664 347.987141 
L 197.373434 348.266307 
L 200.481203 348.213059 
L 203.588972 347.829529 
L 206.696742 347.131084 
L 209.804511 346.145707 
L 212.912281 344.912881 
L 217.573935 342.709952 
L 225.343358 338.599984 
L 230.005013 336.23159 
L 233.112782 334.827011 
L 236.220551 333.62848 
L 239.328321 332.684016 
L 242.43609 332.031461 
L 245.54386 331.696961 
L 248.651629 331.693917 
L 251.759398 332.022452 
L 254.867168 332.669402 
L 257.974937 333.608846 
L 261.082707 334.803145 
L 264.190476 336.204448 
L 268.85213 338.569996 
L 278.175439 343.454407 
L 281.283208 344.888391 
L 284.390977 346.1253 
L 287.498747 347.115576 
L 290.606516 347.819542 
L 293.714286 348.208994 
L 296.822055 348.268326 
L 299.929825 347.995163 
L 303.037594 347.400448 
L 306.145363 346.50801 
L 309.253133 345.353605 
L 310.807018 344.692257 
L 312.360902 343.651678 
L 320.130326 336.782964 
L 329.453634 328.213106 
L 340.330827 317.861664 
L 352.761905 305.698244 
L 369.854637 288.636325 
L 407.14787 251.301363 
L 422.686717 236.093952 
L 436.671679 222.718454 
L 449.102757 211.124422 
L 461.533835 199.840428 
L 472.411028 190.23987 
L 483.288221 180.90662 
L 494.165414 171.849444 
L 505.042607 163.074414 
L 515.919799 154.585272 
L 526.796992 146.383745 
L 537.674185 138.469839 
L 548.551378 130.842081 
L 559.428571 123.497752 
L 570.305764 116.433074 
L 581.182957 109.643392 
L 592.06015 103.12332 
L 602.937343 96.866878 
L 613.814536 90.867609 
L 624.691729 85.118682 
L 635.568922 79.612981 
L 646.446115 74.343183 
L 648 73.609179 
L 648 73.609179 
" clip-path="url(#pcc5c7e85a8)" style="fill: none; stroke-dasharray: 5.55,2.4; stroke-dashoffset: 0; stroke: #000000; stroke-opacity: 0.5; stroke-width: 1.5"/>
   </g>
   <g id="line2d_8">
    <path d="M 95.294944 -1 
L 99.478697 29.880438 
L 104.140351 62.061671 
L 108.802005 92.045402 
L 113.463659 119.945914 
L 118.125313 145.872064 
L 121.233083 162.110701 
L 124.340852 177.547512 
L 127.448622 192.211041 
L 130.556391 206.128913 
L 133.66416 219.327865 
L 136.77193 231.833772 
L 139.879699 243.671676 
L 142.987469 254.865806 
L 146.095238 265.43961 
L 149.203008 275.415776 
L 152.310777 284.816253 
L 155.418546 293.662279 
L 158.526316 301.9744 
L 161.634085 309.77249 
L 164.741855 317.075775 
L 166.295739 319.069233 
L 167.849624 318.28509 
L 169.403509 317.655504 
L 170.957393 317.194685 
L 172.511278 316.913035 
L 174.065163 316.816909 
L 175.619048 316.908479 
L 177.172932 317.185676 
L 178.726817 317.642244 
L 180.280702 318.26788 
L 181.834586 319.04846 
L 184.942356 321.000888 
L 188.050125 323.324254 
L 194.265664 328.234933 
L 197.373434 330.381405 
L 198.927318 331.288524 
L 200.481203 332.056708 
L 202.035088 332.668619 
L 203.588972 333.110446 
L 205.142857 333.372217 
L 206.696742 333.448024 
L 208.250627 333.336156 
L 209.804511 333.039137 
L 211.358396 332.563672 
L 212.912281 331.920491 
L 214.466165 331.124112 
L 217.573935 329.14671 
L 220.681704 326.808979 
L 226.897243 321.905492 
L 230.005013 319.779931 
L 231.558897 318.886937 
L 233.112782 318.134917 
L 234.666667 317.540843 
L 236.220551 317.118124 
L 237.774436 316.876302 
L 239.328321 316.820833 
L 240.882206 316.952971 
L 242.43609 317.269733 
L 243.989975 317.763968 
L 245.54386 318.424523 
L 247.097744 319.236489 
L 250.205514 321.238341 
L 253.313283 323.589815 
L 259.528822 328.484807 
L 262.636591 330.588892 
L 264.190476 331.467524 
L 265.744361 332.203181 
L 267.298246 332.77926 
L 268.85213 333.182757 
L 270.406015 333.404567 
L 271.9599 333.439682 
L 273.513784 333.28731 
L 275.067669 332.95089 
L 276.621554 332.438015 
L 278.175439 331.760261 
L 279.729323 330.932925 
L 282.837093 328.907156 
L 285.944862 326.542563 
L 292.160401 321.657367 
L 295.26817 319.575317 
L 296.822055 318.71128 
L 298.37594 317.992182 
L 299.929825 317.434251 
L 301.483709 317.050082 
L 303.037594 316.848345 
L 304.591479 316.833592 
L 306.145363 317.006158 
L 307.699248 317.362147 
L 309.253133 317.893525 
L 310.807018 318.588298 
L 312.360902 319.430784 
L 315.468672 321.479933 
L 318.576441 323.857015 
L 324.79198 328.731117 
L 326.345865 329.813671 
L 327.899749 329.663105 
L 337.223058 320.851958 
L 349.654135 308.764971 
L 365.192982 293.313093 
L 413.363409 245.180205 
L 427.348371 231.599347 
L 441.333333 218.336133 
L 453.764411 206.855187 
L 466.195489 195.693857 
L 477.072682 186.206597 
L 487.949875 176.990757 
L 498.827068 168.053901 
L 509.704261 159.40106 
L 520.581454 151.035077 
L 531.458647 142.956907 
L 542.33584 135.165893 
L 553.213033 127.660004 
L 564.090226 120.436043 
L 574.967419 113.489836 
L 585.844612 106.816398 
L 596.721805 100.410073 
L 607.598997 94.264663 
L 618.47619 88.373538 
L 629.353383 82.729736 
L 640.230576 77.326042 
L 648 73.609179 
L 648 73.609179 
" clip-path="url(#pcc5c7e85a8)" style="fill: none; stroke-dasharray: 5.55,2.4; stroke-dashoffset: 0; stroke: #000000; stroke-opacity: 0.5; stroke-width: 1.5"/>
   </g>
   <g id="line2d_9">
    <path d="M 95.294944 -1 
L 99.478697 29.880438 
L 104.140351 62.061671 
L 108.802005 92.045402 
L 113.463659 119.945914 
L 118.125313 145.872064 
L 121.233083 162.110701 
L 124.340852 177.547512 
L 127.448622 192.211041 
L 130.556391 206.128913 
L 133.66416 219.327865 
L 136.77193 231.833772 
L 139.879699 243.671676 
L 142.987469 254.865806 
L 146.095238 265.43961 
L 149.203008 275.415776 
L 152.310777 284.816253 
L 155.418546 293.662279 
L 158.526316 301.9744 
L 161.634085 309.77249 
L 164.741855 317.075775 
L 166.295739 317.315922 
L 167.849624 316.287336 
L 169.403509 315.018705 
L 172.511278 311.972203 
L 177.172932 307.068716 
L 178.726817 305.606968 
L 180.280702 304.333096 
L 181.834586 303.29814 
L 183.388471 302.543568 
L 184.942356 302.099611 
L 186.496241 301.984057 
L 188.050125 302.201537 
L 189.60401 302.743336 
L 191.157895 303.587747 
L 192.711779 304.700938 
L 194.265664 306.038306 
L 197.373434 309.164408 
L 202.035088 314.025142 
L 203.588972 315.430809 
L 205.142857 316.630748 
L 206.696742 317.576882 
L 208.250627 318.231303 
L 209.804511 318.567791 
L 211.358396 318.572864 
L 212.912281 318.246319 
L 214.466165 317.601239 
L 216.02005 316.66347 
L 217.573935 315.470585 
L 219.12782 314.070379 
L 222.235589 310.878466 
L 225.343358 307.594157 
L 226.897243 306.081926 
L 228.451128 304.738541 
L 230.005013 303.617828 
L 231.558897 302.764689 
L 233.112782 302.213306 
L 234.666667 301.985771 
L 236.220551 302.091201 
L 237.774436 302.525371 
L 239.328321 303.270886 
L 240.882206 304.297876 
L 242.43609 305.565193 
L 245.54386 308.610107 
L 250.205514 313.514177 
L 251.759398 314.976895 
L 253.313283 316.252072 
L 254.867168 317.288616 
L 256.421053 318.044997 
L 257.974937 318.490909 
L 259.528822 318.608487 
L 261.082707 318.393019 
L 262.636591 317.853139 
L 264.190476 317.010478 
L 265.744361 315.898797 
L 267.298246 314.562638 
L 270.406015 311.437873 
L 275.067669 306.57616 
L 276.621554 305.169408 
L 278.175439 303.968064 
L 279.729323 303.020261 
L 281.283208 302.363974 
L 282.837093 302.025499 
L 284.390977 302.018397 
L 285.944862 302.342952 
L 287.498747 302.986161 
L 289.052632 303.922252 
L 290.606516 305.113721 
L 292.160401 306.512828 
L 295.26817 309.70366 
L 298.37594 312.988492 
L 299.929825 314.50157 
L 301.483709 315.846152 
L 303.037594 316.968365 
L 304.591479 317.823246 
L 306.145363 318.376543 
L 307.699248 318.606087 
L 309.253133 318.502683 
L 310.807018 318.070472 
L 312.360902 317.326772 
L 313.914787 316.30138 
L 315.468672 315.035379 
L 318.576441 311.992057 
L 323.238095 307.087412 
L 324.79198 305.623726 
L 326.345865 304.347246 
L 327.899749 303.309115 
L 329.453634 302.550927 
L 331.007519 302.10306 
L 332.561404 301.983458 
L 334.115288 302.196913 
L 335.669173 302.734874 
L 337.223058 303.575785 
L 338.776942 304.685954 
L 340.330827 306.020902 
L 343.438596 309.144325 
L 344.992481 310.807655 
L 346.546366 311.815892 
L 360.531328 297.975543 
L 391.609023 266.775532 
L 410.255639 248.234963 
L 425.794486 233.093721 
L 439.779449 219.79242 
L 452.210526 208.273327 
L 464.641604 197.070765 
L 475.518797 187.545513 
L 486.39599 178.290372 
L 497.273183 169.313298 
L 508.150376 160.619662 
L 519.027569 152.2126 
L 529.904762 144.093319 
L 540.781955 136.261378 
L 551.659148 128.714927 
L 562.536341 121.450925 
L 573.413534 114.465327 
L 584.290727 107.753255 
L 595.16792 101.309138 
L 606.045113 95.126851 
L 616.922306 89.199819 
L 627.799499 83.521122 
L 638.676692 78.083577 
L 648 73.609179 
L 648 73.609179 
" clip-path="url(#pcc5c7e85a8)" style="fill: none; stroke-dasharray: 5.55,2.4; stroke-dashoffset: 0; stroke: #000000; stroke-opacity: 0.5; stroke-width: 1.5"/>
   </g>
   <g id="line2d_10">
    <path d="M 95.294944 -1 
L 99.478697 29.880438 
L 104.140351 62.061671 
L 108.802005 92.045402 
L 113.463659 119.945914 
L 118.125313 145.872064 
L 121.233083 162.110701 
L 124.340852 177.547512 
L 127.448622 192.211041 
L 130.556391 206.128913 
L 133.66416 219.327865 
L 136.77193 231.833772 
L 139.879699 243.671676 
L 142.987469 254.865806 
L 146.095238 265.43961 
L 149.203008 275.415776 
L 152.310777 284.816253 
L 153.864662 287.202749 
L 155.418546 287.214625 
L 156.972431 287.741677 
L 158.526316 288.750971 
L 160.080201 290.179442 
L 161.634085 291.93783 
L 167.849624 299.913563 
L 169.403509 301.516063 
L 170.957393 302.740105 
L 172.511278 303.509205 
L 174.065163 303.775304 
L 175.619048 303.521776 
L 177.172932 302.764463 
L 178.726817 301.550684 
L 180.280702 299.956285 
L 183.388471 296.04169 
L 186.496241 291.983815 
L 188.050125 290.218701 
L 189.60401 288.781052 
L 191.157895 287.760699 
L 192.711779 287.221401 
L 194.265664 287.196855 
L 195.819549 287.688595 
L 197.373434 288.665895 
L 198.927318 290.067687 
L 200.481203 291.806381 
L 203.588972 295.845633 
L 206.696742 299.789843 
L 208.250627 301.415296 
L 209.804511 302.668587 
L 211.358396 303.471405 
L 212.912281 303.773584 
L 214.466165 303.556243 
L 216.02005 302.832963 
L 217.573935 301.648938 
L 219.12782 300.078153 
L 222.235589 296.186941 
L 225.343358 292.116712 
L 226.897243 290.332632 
L 228.451128 288.868897 
L 230.005013 287.81697 
L 231.558897 287.242581 
L 233.112782 287.181621 
L 234.666667 287.637899 
L 236.220551 288.582905 
L 237.774436 289.957588 
L 239.328321 291.676052 
L 242.43609 295.700033 
L 245.54386 299.664794 
L 247.097744 301.3127 
L 248.651629 302.594856 
L 250.205514 303.431145 
L 251.759398 303.769311 
L 253.313283 303.588225 
L 254.867168 302.8992 
L 256.421053 301.745292 
L 257.974937 300.198603 
L 259.528822 298.355779 
L 264.190476 292.250636 
L 265.744361 290.448137 
L 267.298246 288.958766 
L 268.85213 287.875587 
L 270.406015 287.266284 
L 271.9599 287.168928 
L 273.513784 287.589604 
L 275.067669 288.502025 
L 276.621554 289.849178 
L 278.175439 291.546885 
L 281.283208 295.554358 
L 284.390977 299.538454 
L 285.944862 301.208307 
L 287.498747 302.518934 
L 289.052632 303.388438 
L 290.606516 303.762487 
L 292.160401 303.617711 
L 293.714286 302.963154 
L 295.26817 301.839717 
L 296.822055 300.317599 
L 298.37594 298.49191 
L 304.591479 290.56518 
L 306.145363 289.05063 
L 307.699248 287.936532 
L 309.253133 287.292501 
L 310.807018 287.158781 
L 312.360902 287.543725 
L 313.914787 288.423281 
L 315.468672 289.74249 
L 317.022556 291.41892 
L 320.130326 295.408655 
L 323.238095 299.410861 
L 324.79198 301.10215 
L 326.345865 302.440845 
L 327.899749 303.343296 
L 329.453634 303.753115 
L 331.007519 303.644692 
L 332.561404 303.024803 
L 334.115288 301.932182 
L 335.669173 300.435102 
L 337.223058 298.627109 
L 343.438596 290.683725 
L 344.992481 289.144461 
L 346.546366 287.999787 
L 348.100251 287.321226 
L 349.654135 287.151181 
L 351.20802 287.500276 
L 352.761905 288.346698 
L 354.315789 289.637557 
L 355.869674 291.292194 
L 358.977444 295.262967 
L 360.531328 297.330987 
L 362.085213 296.423341 
L 418.025063 240.621719 
L 432.010025 227.140158 
L 444.441103 215.437327 
L 456.87218 204.03396 
L 469.303258 192.956068 
L 480.180451 183.545422 
L 491.057644 174.408637 
L 501.934837 165.552517 
L 512.81203 156.981433 
L 523.689223 148.69766 
L 534.566416 140.701666 
L 545.443609 132.992379 
L 556.320802 125.567413 
L 567.197995 118.423274 
L 578.075188 111.555542 
L 588.952381 104.959025 
L 599.829574 98.6279 
L 610.706767 92.555836 
L 621.58396 86.736097 
L 632.461153 81.161643 
L 643.338346 75.825201 
L 648 73.609179 
L 648 73.609179 
" clip-path="url(#pcc5c7e85a8)" style="fill: none; stroke-dasharray: 5.55,2.4; stroke-dashoffset: 0; stroke: #000000; stroke-opacity: 0.5; stroke-width: 1.5"/>
   </g>
   <g id="line2d_11">
    <path d="M 95.294944 -1 
L 99.478697 29.880438 
L 104.140351 62.061671 
L 108.802005 92.045402 
L 113.463659 119.945914 
L 118.125313 145.872064 
L 121.233083 162.110701 
L 124.340852 177.547512 
L 127.448622 192.211041 
L 130.556391 206.128913 
L 133.66416 219.327865 
L 136.77193 231.833772 
L 139.879699 243.671676 
L 142.987469 254.865806 
L 146.095238 265.43961 
L 149.203008 275.415776 
L 152.310777 284.816253 
L 153.864662 286.422597 
L 155.418546 284.396827 
L 161.634085 275.064989 
L 163.18797 273.481853 
L 164.741855 272.539754 
L 166.295739 272.323264 
L 167.849624 272.851819 
L 169.403509 274.077969 
L 170.957393 275.891641 
L 172.511278 278.130017 
L 175.619048 283.057021 
L 177.172932 285.303343 
L 178.726817 287.129462 
L 180.280702 288.371445 
L 181.834586 288.917795 
L 183.388471 288.719467 
L 184.942356 287.794264 
L 186.496241 286.225244 
L 188.050125 284.153261 
L 192.711779 276.902608 
L 194.265664 274.866282 
L 195.819549 273.346709 
L 197.373434 272.480303 
L 198.927318 272.344845 
L 200.481203 272.952494 
L 202.035088 274.2487 
L 203.588972 276.117101 
L 205.142857 278.389966 
L 208.250627 283.314939 
L 209.804511 285.524923 
L 211.358396 287.294812 
L 212.912281 288.465721 
L 214.466165 288.932535 
L 216.02005 288.653347 
L 217.573935 287.653219 
L 219.12782 286.021937 
L 220.681704 283.905942 
L 225.343358 276.662132 
L 226.897243 274.673694 
L 228.451128 273.219298 
L 230.005013 272.429508 
L 231.558897 272.375224 
L 233.112782 273.061321 
L 234.666667 274.426206 
L 236.220551 276.34735 
L 239.328321 281.134103 
L 240.882206 283.569996 
L 242.43609 285.741292 
L 243.989975 287.453071 
L 245.54386 288.551661 
L 247.097744 288.938442 
L 248.651629 288.57869 
L 250.205514 287.504701 
L 251.759398 285.81289 
L 253.313283 283.655133 
L 257.974937 276.425865 
L 259.528822 274.487429 
L 261.082707 273.099756 
L 262.636591 272.387421 
L 264.190476 272.41437 
L 265.744361 273.178186 
L 267.298246 274.610298 
L 268.85213 276.582143 
L 271.9599 281.404406 
L 273.513784 283.821919 
L 275.067669 285.952221 
L 276.621554 287.604068 
L 278.175439 288.629173 
L 279.729323 288.935509 
L 281.283208 288.495576 
L 282.837093 287.348868 
L 284.390977 285.598326 
L 285.944862 283.401101 
L 290.606516 276.194059 
L 292.160401 274.307685 
L 293.714286 272.988211 
L 295.26817 272.354087 
L 296.822055 272.462241 
L 298.37594 273.302963 
L 299.929825 274.800781 
L 301.483709 276.821232 
L 307.699248 286.157484 
L 309.253133 287.747645 
L 310.807018 288.698175 
L 312.360902 288.923741 
L 313.914787 288.404094 
L 315.468672 287.185885 
L 317.022556 285.378474 
L 318.576441 283.144115 
L 323.238095 275.96696 
L 324.79198 274.134654 
L 326.345865 272.88478 
L 327.899749 272.329542 
L 329.453634 272.518786 
L 331.007519 273.435521 
L 332.561404 274.997452 
L 334.115288 277.06436 
L 338.776942 284.3153 
L 340.330827 286.356864 
L 341.884712 287.883649 
L 343.438596 288.758592 
L 344.992481 288.903148 
L 346.546366 288.304341 
L 348.100251 287.015925 
L 349.654135 285.153566 
L 351.20802 282.884449 
L 354.315789 277.958988 
L 355.869674 275.74481 
L 357.423559 273.968519 
L 358.977444 272.789574 
L 360.531328 272.313813 
L 362.085213 272.583944 
L 363.639098 273.575719 
L 365.192982 275.200102 
L 366.746867 277.311271 
L 371.408521 284.556233 
L 372.962406 285.513274 
L 405.593985 252.838656 
L 421.132832 237.599639 
L 435.117794 224.18807 
L 447.548872 212.557275 
L 459.97995 201.233107 
L 472.411028 190.23987 
L 483.288221 180.90662 
L 494.165414 171.849444 
L 505.042607 163.074414 
L 515.919799 154.585272 
L 526.796992 146.383745 
L 537.674185 138.469839 
L 548.551378 130.842081 
L 559.428571 123.497752 
L 570.305764 116.433074 
L 581.182957 109.643392 
L 592.06015 103.12332 
L 602.937343 96.866878 
L 613.814536 90.867609 
L 624.691729 85.118682 
L 635.568922 79.612981 
L 646.446115 74.343183 
L 648 73.609179 
L 648 73.609179 
" clip-path="url(#pcc5c7e85a8)" style="fill: none; stroke-dasharray: 5.55,2.4; stroke-dashoffset: 0; stroke: #000000; stroke-opacity: 0.5; stroke-width: 1.5"/>
   </g>
   <g id="line2d_12">
    <path d="M 95.294944 -1 
L 99.478697 29.880438 
L 104.140351 62.061671 
L 108.802005 92.045402 
L 113.463659 119.945914 
L 118.125313 145.872064 
L 121.233083 162.110701 
L 124.340852 177.547512 
L 127.448622 192.211041 
L 130.556391 206.128913 
L 133.66416 219.327865 
L 136.77193 231.833772 
L 139.879699 243.671676 
L 142.987469 254.865806 
L 144.541353 258.087147 
L 146.095238 257.475443 
L 147.649123 257.876412 
L 149.203008 259.241193 
L 150.756892 261.403478 
L 153.864662 267.001531 
L 155.418546 269.755137 
L 156.972431 272.025051 
L 158.526316 273.534669 
L 160.080201 274.100032 
L 161.634085 273.652248 
L 163.18797 272.245882 
L 164.741855 270.052309 
L 169.403509 261.697849 
L 170.957393 259.457735 
L 172.511278 257.988739 
L 174.065163 257.469866 
L 175.619048 257.964347 
L 177.172932 259.411924 
L 178.726817 261.6362 
L 183.388471 269.991242 
L 184.942356 272.20096 
L 186.496241 273.628945 
L 188.050125 274.101189 
L 189.60401 273.560143 
L 191.157895 272.07174 
L 192.711779 269.817351 
L 197.373434 261.463948 
L 198.927318 259.285213 
L 200.481203 257.898618 
L 202.035088 257.473129 
L 203.588972 258.060596 
L 205.142857 259.58943 
L 206.696742 261.873333 
L 211.358396 270.222876 
L 212.912281 272.370049 
L 214.466165 273.714885 
L 216.02005 274.093507 
L 217.573935 273.459776 
L 219.12782 271.890917 
L 220.681704 269.578107 
L 225.343358 261.234642 
L 226.897243 259.119601 
L 228.451128 257.816882 
L 230.005013 257.485228 
L 231.558897 258.165056 
L 233.112782 259.773522 
L 234.666667 262.114625 
L 239.328321 270.449794 
L 240.882206 272.53214 
L 242.43609 273.792397 
L 243.989975 274.076994 
L 245.54386 273.351251 
L 247.097744 271.703605 
L 248.651629 269.334832 
L 253.313283 261.010173 
L 254.867168 258.961075 
L 256.421053 257.743615 
L 257.974937 257.50615 
L 259.528822 258.277616 
L 261.082707 259.964005 
L 262.636591 262.359818 
L 267.298246 270.671755 
L 268.85213 272.68706 
L 270.406015 273.861398 
L 271.9599 274.051669 
L 273.513784 273.234685 
L 275.067669 271.510002 
L 276.621554 269.087785 
L 281.283208 260.79078 
L 282.837093 258.809802 
L 284.390977 257.678897 
L 285.944862 257.535873 
L 287.498747 258.398157 
L 289.052632 260.160676 
L 290.606516 262.608653 
L 295.26817 270.888522 
L 296.822055 272.834644 
L 298.37594 273.921816 
L 299.929825 274.017557 
L 301.483709 273.110201 
L 303.037594 271.310315 
L 304.591479 268.837227 
L 307.699248 263.122211 
L 309.253133 260.576696 
L 310.807018 258.665945 
L 312.360902 257.622796 
L 313.914787 257.574364 
L 315.468672 258.526551 
L 317.022556 260.363326 
L 318.576441 262.860866 
L 321.684211 268.577437 
L 323.238095 271.099865 
L 324.79198 272.974736 
L 326.345865 273.973585 
L 327.899749 273.974695 
L 329.453634 272.977931 
L 331.007519 271.104755 
L 332.561404 268.583427 
L 335.669173 262.86682 
L 337.223058 260.36815 
L 338.776942 258.529656 
L 340.330827 257.575372 
L 341.884712 257.621584 
L 343.438596 258.662661 
L 344.992481 260.57174 
L 346.546366 263.116187 
L 349.654135 268.83131 
L 351.20802 271.305559 
L 352.761905 273.107187 
L 354.315789 274.016651 
L 355.869674 273.92313 
L 357.423559 272.838017 
L 358.977444 270.893542 
L 360.531328 268.326653 
L 363.639098 262.614532 
L 365.192982 260.165362 
L 366.746867 258.40108 
L 368.300752 257.536675 
L 369.854637 257.677482 
L 371.408521 258.806342 
L 372.962406 260.785696 
L 374.516291 263.374346 
L 377.62406 269.081946 
L 379.177945 271.505387 
L 380.73183 273.231855 
L 382.285714 274.050969 
L 383.839599 273.862914 
L 385.393484 272.690607 
L 386.947368 270.6769 
L 388.501253 268.067178 
L 391.609023 262.365615 
L 393.162907 259.968548 
L 394.716792 258.280353 
L 396.270677 257.506747 
L 397.824561 257.741999 
L 399.378446 258.957443 
L 405.593985 252.838656 
L 421.132832 237.599639 
L 435.117794 224.18807 
L 447.548872 212.557275 
L 459.97995 201.233107 
L 472.411028 190.23987 
L 483.288221 180.90662 
L 494.165414 171.849444 
L 505.042607 163.074414 
L 515.919799 154.585272 
L 526.796992 146.383745 
L 537.674185 138.469839 
L 548.551378 130.842081 
L 559.428571 123.497752 
L 570.305764 116.433074 
L 581.182957 109.643392 
L 592.06015 103.12332 
L 602.937343 96.866878 
L 613.814536 90.867609 
L 624.691729 85.118682 
L 635.568922 79.612981 
L 646.446115 74.343183 
L 648 73.609179 
L 648 73.609179 
" clip-path="url(#pcc5c7e85a8)" style="fill: none; stroke-dasharray: 5.55,2.4; stroke-dashoffset: 0; stroke: #000000; stroke-opacity: 0.5; stroke-width: 1.5"/>
   </g>
   <g id="line2d_13">
    <path d="M 95.294944 -1 
L 99.478697 29.880438 
L 104.140351 62.061671 
L 108.802005 92.045402 
L 113.463659 119.945914 
L 118.125313 145.872064 
L 121.233083 162.110701 
L 124.340852 177.547512 
L 127.448622 192.211041 
L 130.556391 206.128913 
L 133.66416 219.327865 
L 136.77193 231.833772 
L 139.879699 243.671676 
L 142.987469 254.865806 
L 144.541353 259.045915 
L 146.095238 257.663373 
L 147.649123 255.215533 
L 152.310777 245.822303 
L 153.864662 243.673156 
L 155.418546 242.678395 
L 156.972431 242.995848 
L 158.526316 244.575148 
L 160.080201 247.165724 
L 164.741855 256.499047 
L 166.295739 258.476141 
L 167.849624 259.258983 
L 169.403509 258.723367 
L 170.957393 256.954275 
L 172.511278 254.23239 
L 175.619048 247.740307 
L 177.172932 245.000141 
L 178.726817 243.203822 
L 180.280702 242.636353 
L 181.834586 243.387769 
L 183.388471 245.33885 
L 184.942356 248.180038 
L 188.050125 254.659904 
L 189.60401 257.270488 
L 191.157895 258.878109 
L 192.711779 259.227702 
L 194.265664 258.263801 
L 195.819549 256.139338 
L 197.373434 253.191379 
L 200.481203 246.752313 
L 202.035088 244.282825 
L 203.588972 242.870993 
L 205.142857 242.740818 
L 206.696742 243.912953 
L 208.250627 246.201428 
L 209.804511 249.243153 
L 212.912281 255.613018 
L 214.466165 257.930516 
L 216.02005 259.140331 
L 217.573935 259.050514 
L 219.12782 257.675316 
L 220.681704 255.232924 
L 225.343358 245.838283 
L 226.897243 243.682997 
L 228.451128 242.680535 
L 230.005013 242.989948 
L 231.558897 244.562144 
L 233.112782 247.147679 
L 237.774436 256.483932 
L 239.328321 258.467499 
L 240.882206 259.258186 
L 242.43609 258.730542 
L 243.989975 256.968283 
L 245.54386 254.251008 
L 248.651629 247.759022 
L 250.205514 245.014327 
L 251.759398 243.211228 
L 253.313283 242.635804 
L 254.867168 243.379351 
L 256.421053 245.3239 
L 257.974937 248.160927 
L 261.082707 254.641748 
L 262.636591 257.257296 
L 264.190476 258.871973 
L 265.744361 259.229596 
L 267.298246 258.273424 
L 268.85213 256.155164 
L 270.406015 253.210897 
L 273.513784 246.769829 
L 275.067669 244.294966 
L 276.621554 242.875833 
L 278.175439 242.737588 
L 279.729323 243.902166 
L 281.283208 246.184795 
L 282.837093 249.223314 
L 285.944862 255.596218 
L 287.498747 257.919479 
L 289.052632 259.136809 
L 290.606516 259.055066 
L 292.160401 257.687218 
L 293.714286 255.250289 
L 298.37594 245.854293 
L 299.929825 243.69288 
L 301.483709 242.682724 
L 303.037594 242.984095 
L 304.591479 244.549178 
L 306.145363 247.129657 
L 310.807018 256.468783 
L 312.360902 258.458813 
L 313.914787 259.25734 
L 315.468672 258.73767 
L 317.022556 256.982255 
L 318.576441 254.269607 
L 321.684211 247.777756 
L 323.238095 245.028548 
L 324.79198 243.218679 
L 326.345865 242.635303 
L 327.899749 243.370979 
L 329.453634 245.308983 
L 331.007519 248.141834 
L 334.115288 254.62357 
L 335.669173 257.244065 
L 337.223058 258.86579 
L 338.776942 259.231441 
L 340.330827 258.283004 
L 341.884712 256.170959 
L 343.438596 253.230401 
L 346.546366 246.787371 
L 348.100251 244.307147 
L 349.654135 242.880721 
L 351.20802 242.734407 
L 352.761905 243.891421 
L 354.315789 246.168191 
L 355.869674 249.203485 
L 358.977444 255.57939 
L 360.531328 257.908401 
L 362.085213 259.133238 
L 363.639098 259.059569 
L 365.192982 257.699081 
L 366.746867 255.267629 
L 371.408521 245.870333 
L 372.962406 243.702807 
L 374.516291 242.684962 
L 376.070175 242.978289 
L 377.62406 244.53625 
L 379.177945 247.111658 
L 383.839599 256.453602 
L 385.393484 258.450081 
L 386.947368 259.256444 
L 388.501253 258.744752 
L 390.055138 256.996191 
L 391.609023 254.288186 
L 394.716792 247.796509 
L 396.270677 245.042803 
L 397.824561 243.226176 
L 399.378446 242.634852 
L 400.932331 243.362651 
L 402.486216 245.2941 
L 404.0401 248.122757 
L 405.593985 251.399826 
L 407.14787 251.301363 
L 422.686717 236.093952 
L 436.671679 222.718454 
L 449.102757 211.124422 
L 461.533835 199.840428 
L 472.411028 190.23987 
L 483.288221 180.90662 
L 494.165414 171.849444 
L 505.042607 163.074414 
L 515.919799 154.585272 
L 526.796992 146.383745 
L 537.674185 138.469839 
L 548.551378 130.842081 
L 559.428571 123.497752 
L 570.305764 116.433074 
L 581.182957 109.643392 
L 592.06015 103.12332 
L 602.937343 96.866878 
L 613.814536 90.867609 
L 624.691729 85.118682 
L 635.568922 79.612981 
L 646.446115 74.343183 
L 648 73.609179 
L 648 73.609179 
" clip-path="url(#pcc5c7e85a8)" style="fill: none; stroke-dasharray: 5.55,2.4; stroke-dashoffset: 0; stroke: #000000; stroke-opacity: 0.5; stroke-width: 1.5"/>
   </g>
   <g id="line2d_14">
    <path d="M 95.294944 -1 
L 99.478697 29.880438 
L 104.140351 62.061671 
L 108.802005 92.045402 
L 113.463659 119.945914 
L 118.125313 145.872064 
L 121.233083 162.110701 
L 124.340852 177.547512 
L 127.448622 192.211041 
L 130.556391 206.128913 
L 133.66416 219.327865 
L 136.77193 231.833772 
L 138.325815 231.320036 
L 139.879699 228.83638 
L 141.433584 227.808537 
L 142.987469 228.442165 
L 144.541353 230.610484 
L 146.095238 233.879638 
L 147.649123 237.595508 
L 149.203008 241.014595 
L 150.756892 243.452778 
L 152.310777 244.422207 
L 153.864662 243.72891 
L 155.418546 241.511608 
L 156.972431 238.213957 
L 158.526316 234.495777 
L 160.080201 231.101032 
L 161.634085 228.708969 
L 163.18797 227.798212 
L 164.741855 228.550993 
L 166.295739 230.816688 
L 167.849624 234.14196 
L 169.403509 237.861461 
L 170.957393 241.230964 
L 172.511278 243.57627 
L 174.065163 244.428113 
L 175.619048 243.616049 
L 177.172932 241.302562 
L 178.726817 237.950553 
L 180.280702 234.230719 
L 181.834586 230.887355 
L 183.388471 228.589427 
L 184.942356 227.796725 
L 186.496241 228.667857 
L 188.050125 231.028522 
L 189.60401 234.406377 
L 191.157895 238.125555 
L 192.711779 241.441892 
L 194.265664 243.691829 
L 195.819549 244.425181 
L 197.373434 243.495212 
L 198.927318 241.087998 
L 200.481203 237.685194 
L 202.035088 233.96766 
L 203.588972 230.679231 
L 205.142857 228.477882 
L 206.696742 227.804076 
L 208.250627 228.792635 
L 209.804511 231.245759 
L 211.358396 234.672607 
L 212.912281 238.387509 
L 214.466165 241.647156 
L 216.02005 243.799332 
L 217.573935 244.413412 
L 219.12782 243.366527 
L 220.681704 240.868145 
L 225.343358 230.476883 
L 226.897243 228.374451 
L 228.451128 227.820259 
L 230.005013 228.925193 
L 231.558897 231.468169 
L 236.220551 241.846536 
L 237.774436 243.898663 
L 239.328321 244.39282 
L 240.882206 243.230131 
L 242.43609 240.643237 
L 247.097744 230.280524 
L 248.651629 228.279246 
L 250.205514 227.845256 
L 251.759398 229.06539 
L 253.313283 231.695515 
L 257.974937 242.03982 
L 259.528822 243.989718 
L 261.082707 244.363426 
L 262.636591 243.08617 
L 264.190476 240.413513 
L 267.298246 233.193268 
L 268.85213 230.090364 
L 270.406015 228.192366 
L 271.9599 227.879039 
L 273.513784 229.213078 
L 275.067669 231.927556 
L 278.175439 239.157758 
L 279.729323 242.226805 
L 281.283208 244.0724 
L 282.837093 244.325261 
L 284.390977 242.934795 
L 285.944862 240.179217 
L 289.052632 232.94098 
L 290.606516 229.906605 
L 292.160401 228.113904 
L 293.714286 227.921574 
L 295.26817 229.368099 
L 296.822055 232.164045 
L 299.929825 239.408394 
L 301.483709 242.407289 
L 303.037594 244.14662 
L 304.591479 244.278367 
L 306.145363 242.776169 
L 307.699248 239.940598 
L 310.807018 232.692062 
L 312.360902 229.729443 
L 313.914787 228.043945 
L 315.468672 227.972816 
L 317.022556 229.530288 
L 318.576441 232.40473 
L 321.684211 239.655527 
L 323.238095 242.581083 
L 324.79198 244.212301 
L 326.345865 244.222792 
L 327.899749 242.610459 
L 329.453634 239.69791 
L 332.561404 232.44678 
L 334.115288 229.559065 
L 335.669173 227.982561 
L 337.223058 228.032709 
L 338.776942 229.699474 
L 340.330827 232.649357 
L 343.438596 239.898893 
L 344.992481 242.748 
L 346.546366 244.269371 
L 348.100251 244.158597 
L 349.654135 242.437842 
L 351.20802 239.45141 
L 354.315789 232.205394 
L 355.869674 229.395652 
L 357.423559 227.929819 
L 358.977444 228.10119 
L 360.531328 229.875476 
L 362.085213 232.897664 
L 365.192982 240.138234 
L 366.746867 242.907865 
L 368.300752 244.317771 
L 369.854637 244.085849 
L 371.408521 242.258502 
L 372.962406 239.201361 
L 376.070175 231.968161 
L 377.62406 229.239379 
L 379.177945 227.885774 
L 380.73183 228.178186 
L 382.285714 230.058108 
L 383.839599 233.149388 
L 386.947368 240.373296 
L 388.501253 243.060505 
L 390.055138 244.357449 
L 391.609023 244.004625 
L 393.162907 242.072628 
L 394.716792 238.948029 
L 397.824561 231.735333 
L 399.378446 229.090411 
L 400.932331 227.850473 
L 402.486216 228.263616 
L 404.0401 230.247174 
L 405.593985 233.404262 
L 408.701754 240.603829 
L 410.255639 243.205761 
L 411.809524 244.388363 
L 413.363409 243.915012 
L 414.917293 241.880419 
L 416.471178 238.691682 
L 419.578947 231.507157 
L 421.132832 228.948907 
L 422.686717 227.823954 
L 424.240602 228.357388 
L 425.794486 230.442475 
L 427.348371 231.599347 
L 441.333333 218.336133 
L 453.764411 206.855187 
L 466.195489 195.693857 
L 477.072682 186.206597 
L 487.949875 176.990757 
L 498.827068 168.053901 
L 509.704261 159.40106 
L 520.581454 151.035077 
L 531.458647 142.956907 
L 542.33584 135.165893 
L 553.213033 127.660004 
L 564.090226 120.436043 
L 574.967419 113.489836 
L 585.844612 106.816398 
L 596.721805 100.410073 
L 607.598997 94.264663 
L 618.47619 88.373538 
L 629.353383 82.729736 
L 640.230576 77.326042 
L 648 73.609179 
L 648 73.609179 
" clip-path="url(#pcc5c7e85a8)" style="fill: none; stroke-dasharray: 5.55,2.4; stroke-dashoffset: 0; stroke: #000000; stroke-opacity: 0.5; stroke-width: 1.5"/>
   </g>
   <g id="line2d_15">
    <path d="M 176.129359 -1 
L 180.125313 21.132064 
L 183.233083 37.370701 
L 186.340852 52.807512 
L 189.448622 67.471041 
L 192.556391 81.388913 
L 195.66416 94.587865 
L 198.77193 107.093772 
L 201.879699 118.931676 
L 204.987469 130.125806 
L 208.095238 140.69961 
L 211.203008 150.675776 
L 214.310777 160.076253 
L 217.418546 168.922279 
L 220.526316 177.2344 
L 223.634085 185.03249 
L 226.741855 192.335775 
L 229.849624 199.162852 
L 232.957393 205.531707 
L 236.065163 211.459737 
L 239.172932 216.963766 
L 242.280702 222.060062 
L 245.388471 226.764356 
L 248.496241 231.091861 
L 251.60401 235.057283 
L 254.711779 238.674839 
L 257.819549 241.958275 
L 260.927318 244.903224 
L 338.621554 244.903224 
L 340.175439 244.754532 
L 344.837093 241.766058 
L 351.052632 237.47954 
L 357.26817 232.88219 
L 363.483709 228.008776 
L 371.253133 221.577692 
L 379.022556 214.823307 
L 388.345865 206.364905 
L 397.669173 197.597914 
L 408.546366 187.075892 
L 422.531328 173.235543 
L 453.609023 142.035532 
L 472.255639 123.494963 
L 487.794486 108.353721 
L 501.779449 95.05242 
L 514.210526 83.533327 
L 526.641604 72.330765 
L 537.518797 62.805513 
L 548.39599 53.550372 
L 559.273183 44.573298 
L 570.150376 35.879662 
L 581.027569 27.4726 
L 591.904762 19.353319 
L 602.781955 11.521378 
L 613.659148 3.974927 
L 621.063807 -1 
L 621.063807 -1 
" clip-path="url(#pcc5c7e85a8)" style="fill: none; stroke-dasharray: 5.55,2.4; stroke-dashoffset: 0; stroke: #ff0000; stroke-opacity: 0.5; stroke-width: 1.5"/>
   </g>
   <g id="line2d_16">
    <path d="M 176.129359 -1 
L 180.125313 21.132064 
L 183.233083 37.370701 
L 186.340852 52.807512 
L 189.448622 67.471041 
L 192.556391 81.388913 
L 195.66416 94.587865 
L 198.77193 107.093772 
L 201.879699 118.931676 
L 204.987469 130.125806 
L 208.095238 140.69961 
L 211.203008 150.675776 
L 214.310777 160.076253 
L 217.418546 168.922279 
L 220.526316 177.2344 
L 223.634085 185.03249 
L 226.741855 192.335775 
L 229.849624 199.162852 
L 232.957393 205.531707 
L 236.065163 211.459737 
L 239.172932 216.963766 
L 242.280702 222.060062 
L 245.388471 226.764356 
L 248.496241 231.091861 
L 251.60401 235.057283 
L 253.157895 236.908674 
L 254.711779 236.925737 
L 260.927318 235.85193 
L 267.142857 234.546321 
L 274.912281 232.668747 
L 288.897243 228.964874 
L 298.220551 226.57251 
L 305.989975 224.810078 
L 312.205514 223.631969 
L 318.421053 222.711665 
L 323.082707 222.213237 
L 327.744361 221.892057 
L 332.406015 221.755377 
L 337.067669 221.80628 
L 341.729323 222.043619 
L 346.390977 222.462035 
L 352.606516 223.284714 
L 358.822055 224.379112 
L 365.037594 225.70138 
L 366.591479 225.478716 
L 374.360902 218.911678 
L 382.130326 212.042964 
L 391.453634 203.473106 
L 402.330827 193.121664 
L 414.761905 180.958244 
L 431.854637 163.896325 
L 469.14787 126.561363 
L 484.686717 111.353952 
L 498.671679 97.978454 
L 511.102757 86.384422 
L 523.533835 75.100428 
L 534.411028 65.49987 
L 545.288221 56.16662 
L 556.165414 47.109444 
L 567.042607 38.334414 
L 577.919799 29.845272 
L 588.796992 21.643745 
L 599.674185 13.729839 
L 610.551378 6.102081 
L 621.063807 -1 
L 621.063807 -1 
" clip-path="url(#pcc5c7e85a8)" style="fill: none; stroke-dasharray: 5.55,2.4; stroke-dashoffset: 0; stroke: #ff0000; stroke-opacity: 0.5; stroke-width: 1.5"/>
   </g>
   <g id="line2d_17">
    <path d="M 176.129359 -1 
L 180.125313 21.132064 
L 183.233083 37.370701 
L 186.340852 52.807512 
L 189.448622 67.471041 
L 192.556391 81.388913 
L 195.66416 94.587865 
L 198.77193 107.093772 
L 201.879699 118.931676 
L 204.987469 130.125806 
L 208.095238 140.69961 
L 211.203008 150.675776 
L 214.310777 160.076253 
L 217.418546 168.922279 
L 220.526316 177.2344 
L 223.634085 185.03249 
L 226.741855 192.335775 
L 229.849624 199.162852 
L 232.957393 205.531707 
L 236.065163 211.459737 
L 239.172932 216.875955 
L 243.834586 219.216823 
L 246.942356 220.59039 
L 250.050125 221.749173 
L 253.157895 222.646744 
L 256.265664 223.247141 
L 259.373434 223.526307 
L 262.481203 223.473059 
L 265.588972 223.089529 
L 268.696742 222.391084 
L 271.804511 221.405707 
L 274.912281 220.172881 
L 279.573935 217.969952 
L 287.343358 213.859984 
L 292.005013 211.49159 
L 295.112782 210.087011 
L 298.220551 208.88848 
L 301.328321 207.944016 
L 304.43609 207.291461 
L 307.54386 206.956961 
L 310.651629 206.953917 
L 313.759398 207.282452 
L 316.867168 207.929402 
L 319.974937 208.868846 
L 323.082707 210.063145 
L 326.190476 211.464448 
L 330.85213 213.829996 
L 340.175439 218.714407 
L 343.283208 220.148391 
L 346.390977 221.3853 
L 349.498747 222.375576 
L 352.606516 223.079542 
L 355.714286 223.468994 
L 358.822055 223.528326 
L 361.929825 223.255163 
L 365.037594 222.660448 
L 368.145363 221.76801 
L 371.253133 220.613605 
L 372.807018 219.952257 
L 374.360902 218.911678 
L 382.130326 212.042964 
L 391.453634 203.473106 
L 402.330827 193.121664 
L 414.761905 180.958244 
L 431.854637 163.896325 
L 469.14787 126.561363 
L 484.686717 111.353952 
L 498.671679 97.978454 
L 511.102757 86.384422 
L 523.533835 75.100428 
L 534.411028 65.49987 
L 545.288221 56.16662 
L 556.165414 47.109444 
L 567.042607 38.334414 
L 577.919799 29.845272 
L 588.796992 21.643745 
L 599.674185 13.729839 
L 610.551378 6.102081 
L 621.063807 -1 
L 621.063807 -1 
" clip-path="url(#pcc5c7e85a8)" style="fill: none; stroke-dasharray: 5.55,2.4; stroke-dashoffset: 0; stroke: #ff0000; stroke-opacity: 0.5; stroke-width: 1.5"/>
   </g>
   <g id="line2d_18">
    <path d="M 176.129359 -1 
L 180.125313 21.132064 
L 183.233083 37.370701 
L 186.340852 52.807512 
L 189.448622 67.471041 
L 192.556391 81.388913 
L 195.66416 94.587865 
L 198.77193 107.093772 
L 201.879699 118.931676 
L 204.987469 130.125806 
L 208.095238 140.69961 
L 211.203008 150.675776 
L 214.310777 160.076253 
L 217.418546 168.922279 
L 220.526316 177.2344 
L 223.634085 185.03249 
L 226.741855 192.335775 
L 228.295739 194.329233 
L 229.849624 193.54509 
L 231.403509 192.915504 
L 232.957393 192.454685 
L 234.511278 192.173035 
L 236.065163 192.076909 
L 237.619048 192.168479 
L 239.172932 192.445676 
L 240.726817 192.902244 
L 242.280702 193.52788 
L 243.834586 194.30846 
L 246.942356 196.260888 
L 250.050125 198.584254 
L 256.265664 203.494933 
L 259.373434 205.641405 
L 260.927318 206.548524 
L 262.481203 207.316708 
L 264.035088 207.928619 
L 265.588972 208.370446 
L 267.142857 208.632217 
L 268.696742 208.708024 
L 270.250627 208.596156 
L 271.804511 208.299137 
L 273.358396 207.823672 
L 274.912281 207.180491 
L 276.466165 206.384112 
L 279.573935 204.40671 
L 282.681704 202.068979 
L 288.897243 197.165492 
L 292.005013 195.039931 
L 293.558897 194.146937 
L 295.112782 193.394917 
L 296.666667 192.800843 
L 298.220551 192.378124 
L 299.774436 192.136302 
L 301.328321 192.080833 
L 302.882206 192.212971 
L 304.43609 192.529733 
L 305.989975 193.023968 
L 307.54386 193.684523 
L 309.097744 194.496489 
L 312.205514 196.498341 
L 315.313283 198.849815 
L 321.528822 203.744807 
L 324.636591 205.848892 
L 326.190476 206.727524 
L 327.744361 207.463181 
L 329.298246 208.03926 
L 330.85213 208.442757 
L 332.406015 208.664567 
L 333.9599 208.699682 
L 335.513784 208.54731 
L 337.067669 208.21089 
L 338.621554 207.698015 
L 340.175439 207.020261 
L 341.729323 206.192925 
L 344.837093 204.167156 
L 347.944862 201.802563 
L 354.160401 196.917367 
L 357.26817 194.835317 
L 358.822055 193.97128 
L 360.37594 193.252182 
L 361.929825 192.694251 
L 363.483709 192.310082 
L 365.037594 192.108345 
L 366.591479 192.093592 
L 368.145363 192.266158 
L 369.699248 192.622147 
L 371.253133 193.153525 
L 372.807018 193.848298 
L 374.360902 194.690784 
L 377.468672 196.739933 
L 380.576441 199.117015 
L 386.79198 203.991117 
L 388.345865 205.073671 
L 389.899749 204.923105 
L 399.223058 196.111958 
L 411.654135 184.024971 
L 427.192982 168.573093 
L 475.363409 120.440205 
L 489.348371 106.859347 
L 503.333333 93.596133 
L 515.764411 82.115187 
L 528.195489 70.953857 
L 539.072682 61.466597 
L 549.949875 52.250757 
L 560.827068 43.313901 
L 571.704261 34.66106 
L 582.581454 26.295077 
L 593.458647 18.216907 
L 604.33584 10.425893 
L 615.213033 2.920004 
L 621.063807 -1 
L 621.063807 -1 
" clip-path="url(#pcc5c7e85a8)" style="fill: none; stroke-dasharray: 5.55,2.4; stroke-dashoffset: 0; stroke: #ff0000; stroke-opacity: 0.5; stroke-width: 1.5"/>
   </g>
   <g id="line2d_19">
    <path d="M 176.129359 -1 
L 180.125313 21.132064 
L 183.233083 37.370701 
L 186.340852 52.807512 
L 189.448622 67.471041 
L 192.556391 81.388913 
L 195.66416 94.587865 
L 198.77193 107.093772 
L 201.879699 118.931676 
L 204.987469 130.125806 
L 208.095238 140.69961 
L 211.203008 150.675776 
L 214.310777 160.076253 
L 217.418546 168.922279 
L 220.526316 177.2344 
L 223.634085 185.03249 
L 226.741855 192.335775 
L 228.295739 192.575922 
L 229.849624 191.547336 
L 231.403509 190.278705 
L 234.511278 187.232203 
L 239.172932 182.328716 
L 240.726817 180.866968 
L 242.280702 179.593096 
L 243.834586 178.55814 
L 245.388471 177.803568 
L 246.942356 177.359611 
L 248.496241 177.244057 
L 250.050125 177.461537 
L 251.60401 178.003336 
L 253.157895 178.847747 
L 254.711779 179.960938 
L 256.265664 181.298306 
L 259.373434 184.424408 
L 264.035088 189.285142 
L 265.588972 190.690809 
L 267.142857 191.890748 
L 268.696742 192.836882 
L 270.250627 193.491303 
L 271.804511 193.827791 
L 273.358396 193.832864 
L 274.912281 193.506319 
L 276.466165 192.861239 
L 278.02005 191.92347 
L 279.573935 190.730585 
L 281.12782 189.330379 
L 284.235589 186.138466 
L 287.343358 182.854157 
L 288.897243 181.341926 
L 290.451128 179.998541 
L 292.005013 178.877828 
L 293.558897 178.024689 
L 295.112782 177.473306 
L 296.666667 177.245771 
L 298.220551 177.351201 
L 299.774436 177.785371 
L 301.328321 178.530886 
L 302.882206 179.557876 
L 304.43609 180.825193 
L 307.54386 183.870107 
L 312.205514 188.774177 
L 313.759398 190.236895 
L 315.313283 191.512072 
L 316.867168 192.548616 
L 318.421053 193.304997 
L 319.974937 193.750909 
L 321.528822 193.868487 
L 323.082707 193.653019 
L 324.636591 193.113139 
L 326.190476 192.270478 
L 327.744361 191.158797 
L 329.298246 189.822638 
L 332.406015 186.697873 
L 337.067669 181.83616 
L 338.621554 180.429408 
L 340.175439 179.228064 
L 341.729323 178.280261 
L 343.283208 177.623974 
L 344.837093 177.285499 
L 346.390977 177.278397 
L 347.944862 177.602952 
L 349.498747 178.246161 
L 351.052632 179.182252 
L 352.606516 180.373721 
L 354.160401 181.772828 
L 357.26817 184.96366 
L 360.37594 188.248492 
L 361.929825 189.76157 
L 363.483709 191.106152 
L 365.037594 192.228365 
L 366.591479 193.083246 
L 368.145363 193.636543 
L 369.699248 193.866087 
L 371.253133 193.762683 
L 372.807018 193.330472 
L 374.360902 192.586772 
L 375.914787 191.56138 
L 377.468672 190.295379 
L 380.576441 187.252057 
L 385.238095 182.347412 
L 386.79198 180.883726 
L 388.345865 179.607246 
L 389.899749 178.569115 
L 391.453634 177.810927 
L 393.007519 177.36306 
L 394.561404 177.243458 
L 396.115288 177.456913 
L 397.669173 177.994874 
L 399.223058 178.835785 
L 400.776942 179.945954 
L 402.330827 181.280902 
L 405.438596 184.404325 
L 406.992481 186.067655 
L 408.546366 187.075892 
L 422.531328 173.235543 
L 453.609023 142.035532 
L 472.255639 123.494963 
L 487.794486 108.353721 
L 501.779449 95.05242 
L 514.210526 83.533327 
L 526.641604 72.330765 
L 537.518797 62.805513 
L 548.39599 53.550372 
L 559.273183 44.573298 
L 570.150376 35.879662 
L 581.027569 27.4726 
L 591.904762 19.353319 
L 602.781955 11.521378 
L 613.659148 3.974927 
L 621.063807 -1 
L 621.063807 -1 
" clip-path="url(#pcc5c7e85a8)" style="fill: none; stroke-dasharray: 5.55,2.4; stroke-dashoffset: 0; stroke: #ff0000; stroke-opacity: 0.5; stroke-width: 1.5"/>
   </g>
  </g>
 </g>
 <defs>
  <clipPath id="pcc5c7e85a8">
   <rect x="90" y="51.84" width="558" height="332.64"/>
  </clipPath>
 </defs>
</svg>
